<svg width="19" height="20" viewBox="0 0 19 20" fill="none">
    <path fill-rule="evenodd" clip-rule="evenodd"
        d="M7.35714 0.825012C3.29391 0.825012 0 4.11892 0 8.18216C0 12.2454 3.29391 15.5393 7.35714 15.5393C9.20878 15.5393 
        10.9007 14.8553 12.1939 13.7261L17.2892 18.8215L17.6428 19.175L18.3499 18.4679L17.9963 18.1144L12.901 13.019C14.0302 
        11.7258 14.7143 10.0339 14.7143 8.18216C14.7143 4.11892 11.4204 0.825012 7.35714 0.825012ZM11.9332 12.595C13.036 11.4517 
        13.7143 9.89613 13.7143 8.18216C13.7143 4.6712 10.8681 1.82501 7.35714 1.82501C3.84619 1.82501 1 4.6712 1 8.18216C1 11.6931 
        3.84619 14.5393 7.35714 14.5393C9.07112 14.5393 10.6267 13.861 11.77 12.7582L11.9332 12.595Z"
        fill="black">
    </path>
</svg>