<?xml version="1.0" encoding="utf-8"?>
<!-- Generator: Adobe Illustrator 25.0.1, SVG Export Plug-In . SVG Version: 6.00 Build 0)  -->
<svg version="1.1" id="Layer_1" xmlns="http://www.w3.org/2000/svg" xmlns:xlink="http://www.w3.org/1999/xlink" x="0px" y="0px"
	 viewBox="0 0 358.4 320" style="enable-background:new 0 0 358.4 320;" xml:space="preserve">
<style type="text/css">
	.st0{fill:#FFFFFF;stroke:#585858;stroke-width:0.8;stroke-linejoin:bevel;}
	.st1{fill:url(#SVGID_1_);stroke:#585858;stroke-width:0.8;stroke-linejoin:bevel;stroke-miterlimit:3.4;}
	.st2{fill:#FFFFFF;stroke:#585858;stroke-width:0.8;}
</style>
<g>
	<g>
		<g>
			<polygon class="st0" points="32,210.3 59.4,204.2 59.4,122 89.1,122 89.1,109.8 0,109.8 3,122 32,122 			"/>
			<path class="st0" d="M179.3,109.8c-6.6,17.4-13,35.1-21.3,50.8c-7.2-16.8-13.8-34.3-21.3-50.8h-29.3v97.5h15.6v-64.6l28.5,63.6
				l27.9-62.2v1.3c0,0,0,0,0,0v62h27.4v-97.5L179.3,109.8L179.3,109.8z"/>
			
			<linearGradient id="SVGID_1_" gradientUnits="userSpaceOnUse" x1="-776.6151" y1="698.4874" x2="-776.3956" y2="698.8651" gradientTransform="matrix(257.0103 0 0 -272 199774.8906 190319.0625)">
				<stop  offset="7.872523e-03" style="stop-color:#8748C2"/>
				<stop  offset="4.006382e-02" style="stop-color:#9964CB"/>
				<stop  offset="9.011302e-02" style="stop-color:#B188D7"/>
				<stop  offset="0.1464" style="stop-color:#C6A8E2"/>
				<stop  offset="0.2086" style="stop-color:#D8C4EB"/>
				<stop  offset="0.2789" style="stop-color:#E6DAF3"/>
				<stop  offset="0.361" style="stop-color:#F2EBF8"/>
				<stop  offset="0.4625" style="stop-color:#F9F6FC"/>
				<stop  offset="0.6048" style="stop-color:#FEFDFE"/>
				<stop  offset="1" style="stop-color:#FFFFFF"/>
			</linearGradient>
			<path class="st1" d="M343.9,96h-31.2c5.5-22.4,8.5-45.8,8.5-69.9l-19.5,7.8c-3.6,126-93.3,230.5-212.3,256.6l-2.5,7.5
				c52.7-10.8,100-36.5,137.2-72.5h22.6l29.8-42.7l29.8,42.7h37.6l-49.6-64.8L343.9,96z"/>
			<path class="st2" d="M269.5,133.9l-18.2-24.2h-30.5l36.3,47.4C262,150.1,266.5,141.8,269.5,133.9"/>
		</g>
	</g>
</g>
</svg>
