<?xml version="1.0" encoding="utf-8"?>
<!-- Generator: Adobe Illustrator 25.0.1, SVG Export Plug-In . SVG Version: 6.00 Build 0)  -->
<svg version="1.1" id="Waveform" xmlns="http://www.w3.org/2000/svg" xmlns:xlink="http://www.w3.org/1999/xlink" x="0px" y="0px"
	 viewBox="0 0 2523.4 344.7" style="enable-background:new 0 0 2523.4 344.7;" xml:space="preserve">
<style type="text/css">
	.st0{opacity:0.5;}
	.st1{fill:none;stroke:#5C0099;stroke-miterlimit:20;}
	.st2{fill:none;stroke:#5C0099;stroke-width:0.7;stroke-miterlimit:20;}
	.st3{opacity:0.97;enable-background:new    ;}
	.st4{opacity:0.94;enable-background:new    ;}
	.st5{opacity:0.91;enable-background:new    ;}
	.st6{opacity:0.88;enable-background:new    ;}
	.st7{opacity:0.86;enable-background:new    ;}
	.st8{opacity:0.83;enable-background:new    ;}
	.st9{opacity:0.8;enable-background:new    ;}
	.st10{opacity:0.77;enable-background:new    ;}
	.st11{opacity:0.74;enable-background:new    ;}
	.st12{opacity:0.71;enable-background:new    ;}
	.st13{opacity:0.68;enable-background:new    ;}
	.st14{opacity:0.65;enable-background:new    ;}
	.st15{opacity:0.63;enable-background:new    ;}
	.st16{opacity:0.6;enable-background:new    ;}
	.st17{opacity:0.57;enable-background:new    ;}
	.st18{opacity:0.54;enable-background:new    ;}
	.st19{opacity:0.51;enable-background:new    ;}
	.st20{opacity:0.48;enable-background:new    ;}
	.st21{opacity:0.45;enable-background:new    ;}
	.st22{opacity:0.42;enable-background:new    ;}
	.st23{opacity:0.39;enable-background:new    ;}
	.st24{opacity:0.37;enable-background:new    ;}
	.st25{opacity:0.34;enable-background:new    ;}
	.st26{opacity:0.31;enable-background:new    ;}
	.st27{opacity:0.28;enable-background:new    ;}
	.st28{opacity:0.25;enable-background:new    ;}
	.st29{opacity:0.95;enable-background:new    ;}
	.st30{opacity:0.9;enable-background:new    ;}
	.st31{opacity:0.85;enable-background:new    ;}
	.st32{opacity:0.75;enable-background:new    ;}
	.st33{opacity:0.7;enable-background:new    ;}
	.st34{opacity:0.55;enable-background:new    ;}
	.st35{opacity:0.5;enable-background:new    ;}
	.st36{opacity:0.4;enable-background:new    ;}
	.st37{opacity:0.35;enable-background:new    ;}
	.st38{opacity:0.3;enable-background:new    ;}
	.st39{opacity:0.2;enable-background:new    ;}
	.st40{opacity:0.19;enable-background:new    ;}
	.st41{opacity:0.18;enable-background:new    ;}
	.st42{opacity:0.17;enable-background:new    ;}
	.st43{opacity:0.16;enable-background:new    ;}
	.st44{opacity:0.15;enable-background:new    ;}
	.st45{opacity:0.14;enable-background:new    ;}
	.st46{opacity:0.13;enable-background:new    ;}
	.st47{opacity:0.12;enable-background:new    ;}
	.st48{opacity:0.11;enable-background:new    ;}
	.st49{opacity:0.1;enable-background:new    ;}
	.st50{opacity:9.000000e-02;enable-background:new    ;}
	.st51{opacity:8.000000e-02;enable-background:new    ;}
	.st52{opacity:7.000000e-02;enable-background:new    ;}
	.st53{opacity:6.000000e-02;enable-background:new    ;}
	.st54{opacity:5.000000e-02;enable-background:new    ;}
	.st55{opacity:0.84;enable-background:new    ;}
	.st56{opacity:0.81;enable-background:new    ;}
	.st57{opacity:0.78;enable-background:new    ;}
	.st58{opacity:0.72;enable-background:new    ;}
	.st59{opacity:0.69;enable-background:new    ;}
	.st60{opacity:0.66;enable-background:new    ;}
	.st61{opacity:0.59;enable-background:new    ;}
	.st62{opacity:0.56;enable-background:new    ;}
	.st63{opacity:0.53;enable-background:new    ;}
	.st64{opacity:0.64;enable-background:new    ;}
	.st65{opacity:0.61;enable-background:new    ;}
	.st66{opacity:0.49;enable-background:new    ;}
	.st67{opacity:0.46;enable-background:new    ;}
	.st68{opacity:0.44;enable-background:new    ;}
</style>
<g class="st0">
	<g>
		<g id="Waveform2_6_">
			<g>
				<path class="st1" d="M42.5,175.6c391.9-22.3,421.5,22.4,819.8,9.7c117.3-3.8,117.1-46.9,234.1-42.5
					c100.7,3.8,52.1,46.9,146,57.1c104.6,11.3,196.4-28.5,284.7-10.1"/>
			</g>
			<g>
				<path class="st1" d="M42.4,179.5c395.1-22.6,425.5,22.5,826.8,9.2c114.1-3.8,112.9-47.4,226.8-43.3
					c101.7,3.7,55.4,47.4,150.9,57.1c102,10.4,191.1-30.2,278.1-13"/>
			</g>
			<g>
				<path class="st1" d="M42.4,183.3c398.4-22.9,429.4,22.6,833.9,8.6c110.8-3.9,108.7-48,219.6-44.2c102.8,3.5,58.8,47.8,156,57.2
					c99.4,9.5,185.5-32,271.2-15.8"/>
			</g>
			<g>
				<path class="st1" d="M42.3,187.1c401.6-23.1,433.5,22.7,840.9,8.1c107.6-3.9,104.5-48.5,212.4-45.1
					c104,3.3,62.2,48.3,161.1,57.2c96.7,8.7,179.7-33.8,263.9-18.7"/>
			</g>
			<g>
				<path class="st1" d="M42.2,191c404.8-23.3,437.4,22.8,847.8,7.6c104.5-3.9,100.2-49,205.2-45.9c105,3.1,65.7,48.8,166.2,57.2
					c94.2,7.8,173.5-35.5,256.4-21.6"/>
			</g>
			<g>
				<path class="st1" d="M42.2,194.8c408-23.6,441.5,23,854.9,7c101.3-3.9,96.1-49.5,197.9-46.8c106.1,2.9,69.3,49.4,171.6,57.2
					c91.5,7,167.1-37.3,248.8-24.5"/>
			</g>
			<g>
				<path class="st1" d="M42.1,198.6c411.2-23.9,445.4,23.1,861.9,6.5c98.1-3.9,91.7-50.1,190.6-47.6c107.2,2.6,73,49.9,176.9,57.2
					c88.8,6.2,160.4-39.1,240.7-27.4"/>
			</g>
			<g>
				<path class="st1" d="M42,202.5c414.4-24.1,449.5,23.2,868.9,5.9c95-3.9,87.4-50.6,183.3-48.5c108.2,2.4,76.8,50.4,182.3,57.2
					c86.3,5.5,153.2-40.8,232.2-30.3"/>
			</g>
			<g>
				<path class="st1" d="M42,206.3c417.6-24.4,453.5,23.3,876,5.4c91.9-3.9,83.2-51.2,175.9-49.3c109.3,2.2,80.7,51,187.8,57.2
					c83.7,4.8,145.8-42.6,223.5-33.2"/>
			</g>
			<g>
				<path class="st1" d="M41.8,210.1c420.8-24.6,457.6,23.5,882.9,4.9c88.7-3.9,78.8-51.8,168.6-50.2
					c110.5,1.9,84.8,51.6,193.4,57.1c81.1,4.1,138-44.3,214.3-36"/>
			</g>
			<g>
				<path class="st1" d="M41.8,214c424-24.9,461.6,23.7,889.9,4.3c85.7-3.9,74.4-52.4,161.2-51.1c111.5,1.7,88.9,52.2,199,57
					c78.7,3.5,129.7-46,204.7-38.9"/>
			</g>
			<g>
				<path class="st1" d="M41.7,217.8c427.3-25.1,465.7,23.8,897,3.8c82.6-3.8,70.1-53,153.9-51.9c112.6,1.4,93.2,52.8,204.7,57
					c76.5,2.9,121-47.7,194.7-41.7"/>
			</g>
			<g>
				<path class="st1" d="M41.7,217.8c427.3-25.1,465.7,23.8,897,3.8c82.6-3.8,70.1-53,153.9-51.9c112.6,1.4,93.2,52.8,204.7,57
					c76.5,2.9,121-47.7,194.7-41.7"/>
			</g>
			<g>
				<path class="st1" d="M41.7,221.9c427.3-25.1,466.2,24.1,897.2,3.8c82.5-3.9,69-53.5,152.8-52.6c112.6,1.2,97,53.9,209.1,57.1
					c75.1,2.2,109-50,182.7-45.7"/>
			</g>
			<g>
				<path class="st1" d="M41.7,226c427.3-25.1,466.7,24.4,897.5,3.7c82.4-3.9,68-54.1,151.7-53.3c112.6,1,101.1,55,213.5,57.2
					c74.2,1.5,96.5-52.2,170.2-49.6"/>
			</g>
			<g>
				<path class="st2" d="M942.8,177.2c-52.9,0.8-65.5-54.3-118.4-53.5"/>
			</g>
			<g>
				<path class="st2" d="M941.3,177.5c-56.7,1.1-72.9-53.9-129.7-52.8"/>
			</g>
			<g>
				<path class="st2" d="M939.5,177.8c-60.7,1.4-80-53.5-140.6-52.1"/>
			</g>
			<g>
				<path class="st2" d="M937.5,178c-64.6,1.7-86.6-53.2-151.2-51.4"/>
			</g>
			<g>
				<path class="st2" d="M935.3,178.4c-68.5,2-92.9-52.8-161.4-50.8"/>
			</g>
			<g>
				<path class="st2" d="M933,178.6c-72.4,2.3-99-52.4-171.4-50.1"/>
			</g>
			<g>
				<path class="st2" d="M930.6,178.9c-76.3,2.6-104.7-52-181.1-49.4"/>
			</g>
			<g>
				<path class="st2" d="M928.1,179.2c-80.3,3-110.4-51.7-190.7-48.7"/>
			</g>
			<g>
				<path class="st2" d="M925.5,179.5c-84.1,3.3-115.9-51.3-200-48"/>
			</g>
			<g>
				<path class="st2" d="M922.8,179.8c-88.1,3.6-121.1-50.9-209.2-47.4"/>
			</g>
			<g>
				<path class="st2" d="M920.1,180.1c-92,3.9-126.4-50.6-218.4-46.7"/>
			</g>
			<g>
				<path class="st2" d="M917.4,180.4c-96,4.2-131.5-50.2-227.4-46"/>
			</g>
			<g>
				<path class="st2" d="M914.5,180.7c-99.8,4.5-136.5-49.9-236.3-45.4"/>
			</g>
			<g>
				<path class="st2" d="M911.6,180.9c-103.8,4.8-141.4-49.5-245.1-44.7"/>
			</g>
			<g>
				<path class="st2" d="M908.8,181.2c-107.7,5.1-146.2-49.2-253.9-44"/>
			</g>
			<g>
				<path class="st2" d="M905.8,181.6c-111.6,5.4-151-48.8-262.5-43.4"/>
			</g>
			<g>
				<path class="st2" d="M902.9,181.9c-115.5,5.7-155.7-48.5-271.2-42.7"/>
			</g>
			<g>
				<path class="st2" d="M899.9,182.1c-119.4,6-160.4-48.1-279.8-42.1"/>
			</g>
			<g>
				<path class="st2" d="M896.9,182.4c-123.4,6.3-165-47.8-288.3-41.4"/>
			</g>
			<g>
				<path class="st2" d="M893.8,182.7c-127.3,6.7-169.5-47.4-296.8-40.8"/>
			</g>
			<g>
				<path class="st2" d="M890.7,183c-131.2,7-174-47.1-305.2-40.2"/>
			</g>
			<g>
				<path class="st2" d="M887.8,183.3c-135.1,7.3-178.5-46.8-313.6-39.5"/>
			</g>
			<g>
				<path class="st2" d="M884.7,183.7c-139,7.6-183-46.4-322-38.9"/>
			</g>
			<g>
				<path class="st2" d="M881.6,184c-142.9,7.9-187.5-46.1-330.3-38.2"/>
			</g>
			<g>
				<path class="st2" d="M878.4,184.3c-146.8,8.2-191.8-45.8-338.7-37.6"/>
			</g>
			<g>
				<path class="st2" d="M875.3,184.6c-150.8,8.5-196.2-45.4-346.9-36.9"/>
			</g>
			<g>
				<path class="st2" d="M872.1,184.9c-154.7,8.8-200.5-45.1-355.2-36.3"/>
			</g>
			<g>
				<path class="st2" d="M854.4,178.2c-109.5,6.4-156.4-47.4-265.9-41"/>
			</g>
			<g class="st3">
				<path class="st2" d="M843.2,179.1c-106.8,6.2-153.8-47.6-260.6-41.3"/>
			</g>
			<g class="st4">
				<path class="st2" d="M831.9,180.1c-104.2,6.1-151.1-47.7-255.3-41.7"/>
			</g>
			<g class="st5">
				<path class="st2" d="M820.7,181c-101.5,5.9-148.4-47.9-249.9-42"/>
			</g>
			<g class="st6">
				<path class="st2" d="M809.5,181.9c-98.8,5.8-145.8-48.1-244.6-42.3"/>
			</g>
			<g class="st7">
				<path class="st2" d="M798.3,182.9c-96.2,5.6-143.1-48.2-239.4-42.6"/>
			</g>
			<g class="st8">
				<path class="st2" d="M787.1,183.8c-93.6,5.5-140.4-48.4-234.1-42.9"/>
			</g>
			<g class="st9">
				<path class="st2" d="M775.9,184.7c-91,5.3-137.8-48.5-228.7-43.2"/>
			</g>
			<g class="st10">
				<path class="st2" d="M764.7,185.7c-88.3,5.1-135.1-48.7-223.4-43.5"/>
			</g>
			<g class="st11">
				<path class="st2" d="M753.5,186.6c-85.6,5-132.4-48.9-218.1-43.9"/>
			</g>
			<g class="st12">
				<path class="st2" d="M742.3,187.5c-83,4.8-129.8-49-212.7-44.2"/>
			</g>
			<g class="st13">
				<path class="st2" d="M731.1,188.5c-80.3,4.7-127.1-49.2-207.4-44.5"/>
			</g>
			<g class="st14">
				<path class="st2" d="M719.9,189.4c-77.6,4.5-124.4-49.3-202.1-44.8"/>
			</g>
			<g class="st15">
				<path class="st2" d="M708.7,190.3c-75.1,4.4-121.8-49.5-196.7-45.1"/>
			</g>
			<g class="st16">
				<path class="st2" d="M697.5,191.3c-72.4,4.2-119-49.6-191.4-45.5"/>
			</g>
			<g class="st17">
				<path class="st2" d="M686.2,192.2c-69.7,4.1-116.3-49.8-186.1-45.8"/>
			</g>
			<g class="st18">
				<path class="st2" d="M675,193.1c-67.1,3.9-113.7-50-180.7-46.1"/>
			</g>
			<g class="st19">
				<path class="st2" d="M663.8,194.1c-64.4,3.7-111-50.1-175.4-46.4"/>
			</g>
			<g class="st20">
				<path class="st2" d="M652.6,195c-61.8,3.6-108.2-50.3-170.1-46.7"/>
			</g>
			<g class="st21">
				<path class="st2" d="M641.4,195.9c-59.2,3.4-105.6-50.4-164.7-47.1"/>
			</g>
			<g class="st22">
				<path class="st2" d="M630.1,196.9c-56.5,3.3-102.9-50.6-159.4-47.4"/>
			</g>
			<g class="st23">
				<path class="st2" d="M618.9,197.8c-53.8,3.1-100.1-50.8-154-47.7"/>
			</g>
			<g class="st24">
				<path class="st2" d="M607.7,198.7c-51.2,3-97.5-50.9-148.6-48"/>
			</g>
			<g class="st25">
				<path class="st2" d="M596.4,199.7c-48.5,2.8-94.7-51.1-143.2-48.3"/>
			</g>
			<g class="st26">
				<path class="st2" d="M585.2,200.6c-46,2.6-91.9-51.3-137.9-48.6"/>
			</g>
			<g class="st27">
				<path class="st2" d="M574,201.6c-43.3,2.5-89.3-51.4-132.5-49"/>
			</g>
			<g class="st28">
				<path class="st2" d="M562.7,202.5c-40.6,2.3-86.5-51.6-127.1-49.3"/>
			</g>
			<g>
				<path class="st2" d="M870.5,130.9c115.8,6.1,77.8,62.1,194.7,66.6c100.7,3.8,125.6-52.7,227-50.5"/>
			</g>
			<g>
				<path class="st2" d="M873.8,130.6c113.1,5.9,75,61.7,189.2,66.2c101.6,4,128.3-52.3,230.6-49.8"/>
			</g>
			<g>
				<path class="st2" d="M877,130.2c110.5,5.7,72.2,61.3,183.6,65.8c102.7,4.1,130.9-51.9,234.2-49"/>
			</g>
			<g>
				<path class="st2" d="M880.2,129.9c107.8,5.6,69.4,61,178,65.5c103.6,4.3,133.5-51.5,237.8-48.3"/>
			</g>
			<g>
				<path class="st2" d="M883.4,129.6c105.1,5.4,66.6,60.6,172.4,65.1c104.7,4.4,136.1-51.1,241.3-47.6"/>
			</g>
			<g>
				<path class="st2" d="M886.6,129.3c102.6,5.2,63.9,60.2,166.9,64.7c105.8,4.6,138.6-50.7,244.8-46.8"/>
			</g>
			<g>
				<path class="st2" d="M889.8,128.9c99.9,5,61,59.9,161.3,64.4c106.8,4.7,141.2-50.3,248.3-46.1"/>
			</g>
			<g>
				<path class="st2" d="M892.9,128.6c97.2,4.9,58.2,59.5,155.8,64c107.9,4.9,143.7-49.9,251.9-45.4"/>
			</g>
			<g>
				<path class="st2" d="M896.1,128.3c94.6,4.7,55.4,59.2,150.2,63.6c109,5.1,146.2-49.5,255.3-44.6"/>
			</g>
			<g>
				<path class="st2" d="M899.2,127.9c91.9,4.5,52.7,58.8,144.7,63.2c110,5.3,148.8-49.1,258.8-43.9"/>
			</g>
			<g>
				<path class="st2" d="M902.4,127.6c89.4,4.3,49.9,58.5,139.2,62.9c111.1,5.5,151.2-48.7,262.2-43.1"/>
			</g>
			<g>
				<path class="st2" d="M905.5,127.3c86.7,4.1,47.1,58.1,133.6,62.5c112.2,5.7,153.7-48.2,265.6-42.4"/>
			</g>
			<g>
				<path class="st2" d="M908.6,127c84,3.9,44.4,57.8,128.1,62.1c113.2,5.9,156.1-47.8,269-41.6"/>
			</g>
			<g>
				<path class="st2" d="M911.6,126.6c81.4,3.8,41.6,57.5,122.5,61.7c114.4,6,158.5-47.4,272.4-40.8"/>
			</g>
			<g>
				<path class="st2" d="M914.7,126.3c78.7,3.6,38.8,57.1,117.1,61.4c115.5,6.3,160.9-47,275.9-40.1"/>
			</g>
			<g>
				<path class="st2" d="M917.8,126c76,3.4,36,56.8,111.5,61c116.5,6.5,163.3-46.6,279.2-39.3"/>
			</g>
			<g>
				<path class="st2" d="M920.8,125.6c73.5,3.2,33.4,56.5,106.1,60.6c117.6,6.7,165.7-46.1,282.5-38.6"/>
			</g>
			<g>
				<path class="st2" d="M923.8,125.3c70.8,3.1,30.6,56.2,100.7,60.2c118.8,6.9,168.1-45.7,285.9-37.8"/>
			</g>
			<g>
				<path class="st2" d="M926.8,125c68.1,2.9,27.9,55.9,95.2,59.9c119.9,7.1,170.4-45.3,289.2-37"/>
			</g>
			<g>
				<path class="st2" d="M929.8,124.6c65.5,2.7,25.3,55.6,89.8,59.5c120.9,7.4,172.7-44.8,292.5-36.3"/>
			</g>
			<g>
				<path class="st2" d="M932.7,124.3c62.8,2.5,22.6,55.3,84.3,59.1c122.1,7.6,175-44.4,295.8-35.5"/>
			</g>
			<g>
				<path class="st2" d="M935.5,124c60.1,2.3,19.9,55,79,58.8c123.2,7.9,177.3-44,299.1-34.7"/>
			</g>
			<g>
				<path class="st2" d="M938.3,123.6c57.6,2.2,17.4,54.7,73.8,58.4c124.2,8.1,179.7-43.5,302.3-33.9"/>
			</g>
			<g>
				<path class="st2" d="M941.1,123.3c54.9,2,14.8,54.4,68.5,58c125.4,8.4,182-43.1,305.6-33.2"/>
			</g>
			<g>
				<path class="st2" d="M943.8,122.9c52.2,1.8,12.3,54.1,63.2,57.6c126.5,8.6,184.3-42.7,308.9-32.4"/>
			</g>
			<g>
				<path class="st2" d="M946.4,122.6c49.6,1.6,9.8,53.9,58.1,57.2c127.5,8.9,186.5-42.3,312.1-31.6"/>
			</g>
			<g>
				<path class="st2" d="M949,122.2c46.9,1.4,7.5,53.6,53,56.9c128.6,9.2,188.8-41.8,315.3-30.8"/>
			</g>
			<g>
				<path class="st2" d="M28.1,128.1c253.8,0,256,56.6,509.7,55.2c147.9-0.8,139.3-57.3,286.9-59.6"/>
			</g>
			<g class="st29">
				<path class="st2" d="M40.5,128.8c249.8-0.1,252.8,56.6,502.6,55c145.6-0.9,135.6-57.6,280.9-60.1"/>
			</g>
			<g class="st30">
				<path class="st2" d="M52.8,129.6c245.9-0.2,249.5,56.6,495.4,54.7c143.2-1.1,131.9-57.8,274.8-60.5"/>
			</g>
			<g class="st31">
				<path class="st2" d="M65.2,130.3c242.1-0.3,246.3,56.6,488.3,54.5c140.9-1.2,128.2-58.1,268.6-61.1"/>
			</g>
			<g class="st9">
				<path class="st2" d="M77.6,131.1c238.1-0.4,243.1,56.6,481.1,54.3c138.6-1.4,124.4-58.3,262.5-61.6"/>
			</g>
			<g class="st32">
				<path class="st2" d="M89.9,131.8c234.3-0.6,239.9,56.6,474,54.1c136.3-1.5,120.6-58.5,256.2-62.1"/>
			</g>
			<g class="st33">
				<path class="st2" d="M102.3,132.6c230.3-0.7,236.8,56.6,466.9,53.8c133.9-1.6,116.7-58.8,250.1-62.6"/>
			</g>
			<g class="st14">
				<path class="st2" d="M114.7,133.3c226.4-0.8,233.6,56.7,459.8,53.6c131.7-1.8,112.8-59,243.8-63"/>
			</g>
			<g class="st16">
				<path class="st2" d="M126.9,134.1c222.5-0.9,230.6,56.7,452.8,53.4c129.5-1.9,108.8-59.2,237.4-63.5"/>
			</g>
			<g class="st34">
				<path class="st2" d="M139.3,134.8c218.6-1,227.6,56.7,445.8,53.2c127.1-2,104.8-59.4,231-64"/>
			</g>
			<g class="st35">
				<path class="st2" d="M151.7,135.5c214.8-1.1,224.6,56.7,438.8,52.9c124.9-2.2,100.7-59.6,224.5-64.5"/>
			</g>
			<g class="st21">
				<path class="st2" d="M164,136.3c210.8-1.2,221.6,56.7,431.9,52.7c122.6-2.3,96.5-59.9,218-64.9"/>
			</g>
			<g class="st36">
				<path class="st2" d="M176.3,137.1c207-1.3,218.6,56.7,424.9,52.4c120.4-2.5,92.3-60.1,211.3-65.4"/>
			</g>
			<g class="st37">
				<path class="st2" d="M188.6,137.8c203-1.4,215.7,56.7,418.1,52.2c118.1-2.6,88.1-60.2,204.7-65.8"/>
			</g>
			<g class="st38">
				<path class="st2" d="M200.9,138.6c199.2-1.5,212.8,56.7,411.2,52c116-2.8,83.7-60.4,197.9-66.3"/>
			</g>
			<g class="st28">
				<path class="st2" d="M213.2,139.3c195.2-1.7,210,56.7,404.3,51.7c113.8-2.9,79.3-60.6,191.2-66.7"/>
			</g>
			<g class="st39">
				<path class="st2" d="M225.5,140c191.3-1.8,207.2,56.7,397.6,51.5c111.6-3,74.9-60.8,184.3-67.2"/>
			</g>
			<g class="st39">
				<path class="st2" d="M615.7,191.7c-191.3,1.8-199-53.4-390.3-51.6"/>
			</g>
			<g class="st40">
				<path class="st2" d="M607.4,192.6C415.8,195,405.6,139.9,214,142.3"/>
			</g>
			<g class="st41">
				<path class="st2" d="M599.1,193.6c-191.9,3-204.6-52.1-396.7-49.2"/>
			</g>
			<g class="st42">
				<path class="st2" d="M590.8,194.6c-192.4,3.5-207.4-51.5-399.8-48"/>
			</g>
			<g class="st43">
				<path class="st2" d="M582.4,195.6c-192.7,4.1-210.3-50.9-403-46.8"/>
			</g>
			<g class="st44">
				<path class="st2" d="M574,196.6C381,201.3,361,146.4,168,151.1"/>
			</g>
			<g class="st45">
				<path class="st2" d="M565.7,197.6c-193.3,5.3-215.8-49.6-409.1-44.3"/>
			</g>
			<g class="st46">
				<path class="st2" d="M557.3,198.5c-193.6,5.9-218.6-48.9-412.2-43"/>
			</g>
			<g class="st46">
				<path class="st2" d="M548.9,199.5c-194,6.5-221.3-48.2-415.2-41.8"/>
			</g>
			<g class="st47">
				<path class="st2" d="M540.6,200.5c-194.3,7.1-224-47.6-418.3-40.5"/>
			</g>
			<g class="st48">
				<path class="st2" d="M532.1,201.4c-194.6,7.7-226.7-46.9-421.3-39.2"/>
			</g>
			<g class="st49">
				<path class="st2" d="M523.7,202.4c-194.9,8.3-229.4-46.2-424.3-38"/>
			</g>
			<g class="st50">
				<path class="st2" d="M515.3,203.3c-195.2,8.8-232-45.5-427.3-36.7"/>
			</g>
			<g class="st51">
				<path class="st2" d="M506.9,204.3c-195.7,9.4-234.7-44.8-430.3-35.4"/>
			</g>
			<g class="st52">
				<path class="st2" d="M498.4,205.2c-196,10-237.3-44.1-433.2-34.1"/>
			</g>
			<g class="st53">
				<path class="st2" d="M490,206.2c-196.3,10.6-239.9-43.4-436.1-32.8"/>
			</g>
			<g class="st54">
				<path class="st2" d="M481.5,207.1C284.9,218.3,239,164.4,42.4,175.6"/>
			</g>
			<g>
				<path class="st2" d="M522.1,128.3c125.8-4.1,152.7,50.6,278.5,46.5"/>
			</g>
			<g>
				<path class="st2" d="M530,128.2c126.8-4,152.6,50.8,279.5,46.8"/>
			</g>
			<g>
				<path class="st2" d="M537.9,128c127.7-3.9,152.6,50.9,280.3,47.1"/>
			</g>
			<g>
				<path class="st2" d="M545.9,127.9c128.7-3.8,152.6,51.1,281.3,47.3"/>
			</g>
			<g>
				<path class="st2" d="M553.8,127.8c129.7-3.6,152.6,51.2,282.4,47.6"/>
			</g>
			<g>
				<path class="st2" d="M561.6,127.7c130.6-3.5,152.7,51.4,283.3,47.9"/>
			</g>
			<g>
				<path class="st2" d="M569.5,127.6c131.6-3.4,152.7,51.5,284.3,48.1"/>
			</g>
			<g>
				<path class="st2" d="M577.4,127.5c132.5-3.3,152.8,51.7,285.2,48.4"/>
			</g>
			<g>
				<path class="st2" d="M585.2,127.4c133.5-3.1,152.8,51.8,286.3,48.7"/>
			</g>
			<g>
				<path class="st2" d="M593.1,127.2c134.5-3,152.9,52,287.4,48.9"/>
			</g>
			<g>
				<path class="st2" d="M600.9,127.1c135.4-2.9,153,52.1,288.3,49.2"/>
			</g>
			<g>
				<path class="st2" d="M608.8,127c136.4-2.8,153.1,52.2,289.5,49.5"/>
			</g>
			<g>
				<path class="st2" d="M616.6,126.9c137.3-2.6,153.2,52.4,290.6,49.7"/>
			</g>
			<g>
				<path class="st2" d="M624.5,126.8c138.3-2.5,153.3,52.5,291.6,50"/>
			</g>
			<g>
				<path class="st2" d="M632.3,126.7c139.3-2.4,153.4,52.7,292.7,50.3"/>
			</g>
			<g>
				<path class="st2" d="M640.2,126.6c140.2-2.3,153.7,52.8,293.8,50.5"/>
			</g>
			<g>
				<path class="st2" d="M647.9,126.4c141.2-2.2,153.8,52.9,294.8,50.8"/>
			</g>
			<g>
				<path class="st2" d="M77.6,118.2c234.9,0,238.2,57,472.9,55.2c97.8-0.7,83.3-57.6,180.6-60.2"/>
			</g>
			<g class="st3">
				<path class="st2" d="M74.5,118.8c236.1,0,239.4,57,475.4,55.2c99.6-0.8,84.8-57.7,183.9-60.4"/>
			</g>
			<g class="st4">
				<path class="st2" d="M71.4,119.4c237.3,0,240.8,57.1,477.8,55.2c101.4-0.8,86.3-57.8,187.1-60.5"/>
			</g>
			<g class="st5">
				<path class="st2" d="M68.3,120c238.4,0,241.9,57.2,480.3,55.2c103.2-0.9,87.8-57.9,190.4-60.7"/>
			</g>
			<g class="st6">
				<path class="st2" d="M65.2,120.7c239.6,0,243.2,57.2,482.7,55.2c105-0.9,89.4-58,193.8-60.9"/>
			</g>
			<g class="st55">
				<path class="st2" d="M62.1,121.3c240.8,0,244.5,57.3,485.2,55.2c106.8-0.9,90.9-58.1,197.1-61.1"/>
			</g>
			<g class="st56">
				<path class="st2" d="M59,121.9c241.9,0,245.8,57.3,487.6,55.2c108.7-1,92.3-58.1,200.4-61.3"/>
			</g>
			<g class="st57">
				<path class="st2" d="M55.9,122.5c243.1,0,247.1,57.4,490.1,55.2c110.5-1,93.9-58.3,203.7-61.5"/>
			</g>
			<g class="st32">
				<path class="st2" d="M52.8,123.1c244.3,0,248.3,57.5,492.5,55.2c112.3-1,95.4-58.3,207-61.7"/>
			</g>
			<g class="st58">
				<path class="st2" d="M49.7,123.8c245.5,0,249.6,57.5,495,55.2c114.1-1.1,97-58.4,210.4-61.9"/>
			</g>
			<g class="st59">
				<path class="st2" d="M46.6,124.4c246.6,0,250.9,57.6,497.3,55.2c115.9-1.1,98.5-58.5,213.7-62.1"/>
			</g>
			<g class="st60">
				<path class="st2" d="M43.6,125c247.8,0,252.2,57.7,499.8,55.2c117.7-1.2,100.1-58.6,217-62.3"/>
			</g>
			<g class="st15">
				<path class="st2" d="M40.5,125.6c249,0,253.4,57.7,502.2,55.2c119.5-1.2,101.6-58.7,220.4-62.5"/>
			</g>
			<g class="st61">
				<path class="st2" d="M37.4,126.2c250.3,0,254.6,57.8,504.7,55.2c121.3-1.2,103.2-58.8,223.7-62.6"/>
			</g>
			<g class="st62">
				<path class="st2" d="M34.2,126.9c251.4,0,255.9,57.8,507.1,55.2c123.2-1.3,104.8-58.9,227.1-62.8"/>
			</g>
			<g class="st63">
				<path class="st2" d="M31.2,127.5c252.6,0,257.2,57.9,509.5,55.2c125-1.3,106.4-59,230.4-63"/>
			</g>
			<g class="st35">
				<path class="st2" d="M28.1,128.1c253.8,0,258.5,57.9,511.9,55.2c126.8-1.4,108-59.1,233.8-63.2"/>
			</g>
			<g>
				<path class="st2" d="M693.1,116.1c44-5.9,141.8,43.2,185.9,37.3c56.9-7.6-35.5-58.7,23.5-65.2c73.7-8.1,116.4,40,196.3,39.2
					c132.2-1.3,154.4-52.7,283-44.6c80.5,5,26.3,65.9,107.6,70.1c95,4.9,121-53.8,217.8-53"/>
			</g>
			<g class="st3">
				<path class="st2" d="M700.4,116c46-5.4,136.8,44.7,182.3,39.1c58.2-7.2-30-59.2,30.1-65.4c75-7.8,115.6,40.9,196.3,40.2
					c131.7-1,152.7-52.3,281.2-44.8c82,4.8,33.2,65.2,115.9,69c93.6,4.3,115.8-54.3,210.9-53.7"/>
			</g>
			<g class="st4">
				<path class="st2" d="M707.7,115.9c47.9-5,131.8,46.2,178.9,40.8c59.4-6.8-24.3-59.6,36.5-65.5c76.2-7.5,114.7,41.7,196.2,41.2
					c131.2-0.8,151.1-52,279.4-44.9c83.7,4.6,39.9,64.4,124.4,67.8c92.1,3.7,110.6-54.6,203.9-54.4"/>
			</g>
			<g class="st5">
				<path class="st2" d="M714.8,115.9c49.8-4.6,126.9,47.6,175.7,42.4c60.6-6.4-18.8-59.9,43-65.6c77.5-7.1,113.8,42.5,196.1,42.1
					c130.6-0.6,149.4-51.6,277.6-45.1c85.5,4.4,46.5,63.7,132.9,66.7c90.6,3.1,105.2-55,196.7-55.1"/>
			</g>
			<g class="st6">
				<path class="st2" d="M721.8,116c51.7-4.1,122.1,48.9,172.6,43.9c61.7-6.1-13.3-60.3,49.3-65.7c78.8-6.8,112.9,43.3,196.1,43.1
					c130.1-0.4,147.8-51.3,275.9-45.2c87.3,4.2,53,63,141.3,65.5c89,2.6,99.9-55.4,189.6-55.7"/>
			</g>
			<g class="st55">
				<path class="st2" d="M728.7,116.1c53.6-3.7,117.4,50.1,169.8,45.3c62.8-5.7-8-60.6,55.6-65.8c80.2-6.5,112.1,44.1,196.1,44
					c129.6-0.1,146.3-50.9,274-45.3c89.4,3.9,59.5,62.2,149.7,64.3c87.4,2.1,94.5-55.7,182.3-56.4"/>
			</g>
			<g class="st56">
				<path class="st2" d="M735.4,116.3c55.6-3.3,112.9,51.2,167.1,46.7c63.9-5.3-2.7-60.9,61.7-65.8c81.5-6.2,111.1,44.8,196.1,44.9
					c129,0.1,144.8-50.6,272.2-45.4c91.4,3.7,65.9,61.4,158.1,63.1c85.8,1.6,89-56,175.1-57"/>
			</g>
			<g class="st57">
				<path class="st2" d="M741.9,116.5c57.5-2.8,108.7,52.2,164.7,48c64.9-4.9,2.7-61.1,67.8-65.7c82.9-5.9,110.3,45.6,196.1,45.8
					c128.5,0.3,143.3-50.3,270.5-45.5c93.5,3.5,72.2,60.7,166.6,61.9c84.2,1.1,83.5-56.4,167.7-57.6"/>
			</g>
			<g class="st32">
				<path class="st2" d="M748.3,116.8c59.3-2.4,104.5,53.2,162.5,49.2c65.9-4.6,7.8-61.3,73.9-65.7c84.1-5.6,109.3,46.3,196.2,46.7
					c128,0.5,141.9-50,268.8-45.6c95.8,3.2,78.4,59.9,174.9,60.7c82.5,0.6,77.9-56.6,160.4-58.1"/>
			</g>
			<g class="st58">
				<path class="st2" d="M754.5,117.1c61.2-2,100.7,54.1,160.6,50.3c66.9-4.2,12.9-61.4,79.8-65.6c85.5-5.3,108.4,47.1,196.3,47.6
					c127.4,0.7,140.5-49.6,267.1-45.8c98,3,84.6,59.2,183.2,59.4c80.9,0.2,72.3-56.9,152.9-58.7"/>
			</g>
			<g class="st59">
				<path class="st2" d="M760.4,117.4c63.1-1.5,96.9,54.9,158.9,51.4c67.8-3.8,17.9-61.6,85.6-65.5c86.8-5,107.5,47.8,196.4,48.4
					c126.8,0.9,139.2-49.3,265.3-45.9c100.3,2.7,90.6,58.5,191.5,58.1c79.2-0.2,66.6-57.2,145.4-59.2"/>
			</g>
			<g class="st60">
				<path class="st2" d="M766.3,117.8c65-1.1,93.4,55.7,157.4,52.5c68.8-3.5,22.8-61.7,91.4-65.3c88.2-4.7,106.6,48.5,196.6,49.3
					c126.3,1.1,137.9-49,263.6-46c102.7,2.5,96.7,57.7,199.8,56.9c77.5-0.6,60.9-57.4,137.9-59.7"/>
			</g>
			<g class="st15">
				<path class="st2" d="M772.1,118.2c67-0.6,90.1,56.5,156.1,53.5c69.6-3.1,27.6-61.7,97-65.1c89.6-4.4,105.8,49.2,196.8,50.1
					c125.7,1.3,136.6-48.6,261.9-46c105.2,2.2,102.7,57,208,55.6c75.8-1,55.1-57.6,130.3-60.2"/>
			</g>
			<g class="st61">
				<path class="st2" d="M777.6,118.6c68.9-0.2,86.9,57.2,155,54.5c70.5-2.8,32.3-61.8,102.6-64.9c91-4.1,104.9,49.8,197.2,50.9
					c125.1,1.5,135.3-48.3,260.3-46.1c107.7,1.9,108.6,56.2,216.2,54.3c74.1-1.4,49.3-57.8,122.6-60.7"/>
			</g>
			<g class="st62">
				<path class="st2" d="M782.9,119c70.8,0.2,84,57.8,154.2,55.4c71.3-2.5,37-61.8,108-64.7c92.3-3.7,104.1,50.5,197.4,51.8
					c124.7,1.7,134.2-48,258.7-46.2c110.3,1.6,114.4,55.5,224.4,52.9c72.4-1.7,43.4-57.9,114.9-61.2"/>
			</g>
			<g class="st63">
				<path class="st2" d="M788.3,119.4c72.7,0.7,81.3,58.5,153.7,56.4c72.2-2.1,41.5-61.8,113.5-64.5c93.7-3.4,103.2,51.2,197.7,52.6
					c123.9,1.9,132.8-47.7,256.9-46.3c112.8,1.3,120.3,54.8,232.6,51.6c70.7-2,37.4-58.1,107.2-61.6"/>
			</g>
			<g class="st35">
				<path class="st2" d="M793.4,119.9c74.6,1.1,78.7,59.1,153.1,57.3c72.9-1.8,46-61.8,118.7-64.2c95.1-3.1,102.4,51.8,198,53.4
					c123.4,2.1,131.7-47.4,255.3-46.3c115.5,1,126,54.1,240.7,50.2c69-2.3,31.3-58.2,99.3-62"/>
			</g>
			<g>
				<path class="st2" d="M910.3,122.9c71-4.7,109,47.2,181.6,44.8c95.1-3.1,89.5-58,185.1-56.4c123.4,2.1,110.9,62.9,234.5,63.9
					c114.9,1,105-55.7,219.1-59.6c69.4-2.3,76.6,46.5,146.5,47.2c111.5,1.1,121-46.3,232.2-43.8c101.4,2.3,96.5,54.1,198.2,53.1"/>
			</g>
			<g>
				<path class="st2" d="M917.5,123c69.2-4.3,104.6,47.7,175.3,45.6c95.4-2.8,91.6-57.8,187.4-56.1c121.7,2.2,107.9,62.8,229.8,64.1
					c113.5,1.2,104-55.2,216.5-59.1c74-2.6,82.4,45.7,157.2,46.1c112.7,0.7,120.2-46.3,232.6-44c101.2,2.1,97.5,53.9,198.9,52.8"/>
			</g>
			<g>
				<path class="st2" d="M924.8,123.1c67.4-3.9,100.2,48.3,168.9,46.5c95.6-2.5,93.7-57.6,189.7-55.7c120,2.3,104.9,62.8,225.1,64.2
					c111.9,1.3,102.9-54.6,213.9-58.6c78.7-2.8,88.2,44.8,167.6,45.1c113.9,0.3,119.4-46.4,233-44.2c100.9,2,98.4,53.8,199.4,52.4"
					/>
			</g>
			<g>
				<path class="st2" d="M932.2,123.2c65.6-3.6,95.6,48.9,162.4,47.4c96-2.2,96-57.3,191.9-55.3c118.4,2.5,101.8,62.8,220.4,64.4
					c110.4,1.5,101.9-54,211.3-58c83.3-3.1,93.9,44,178,44c114.9,0,118.8-46.4,233.4-44.4c100.6,1.8,99.3,53.6,200,52.1"/>
			</g>
			<g>
				<path class="st2" d="M939.8,123.3c63.8-3.2,91,49.5,155.7,48.2c96.3-1.9,98.2-57.1,194.4-54.9c116.7,2.6,98.7,62.8,215.6,64.6
					c108.9,1.7,100.9-53.4,208.8-57.5c87.9-3.3,99.5,43.2,188.3,42.9c116-0.4,118.1-46.5,234-44.6c100.3,1.7,100.2,53.4,200.6,51.7"
					/>
			</g>
			<g>
				<path class="st2" d="M947.5,123.4c61.8-2.8,86.1,50.1,148.9,49.1c96.5-1.5,100.4-56.9,196.7-54.5
					c114.9,2.8,95.6,62.7,210.9,64.7c107.4,1.8,99.9-52.9,206.3-57c92.4-3.6,105,42.4,198.4,41.8c117.2-0.8,117.6-46.6,234.6-44.8
					c100,1.5,101.2,53.2,201.1,51.4"/>
			</g>
			<g>
				<path class="st2" d="M955.3,123.5c60-2.4,81,50.7,141.8,50c96.8-1.2,102.8-56.6,199.2-54.1c113.2,2.9,92.6,62.7,206.1,64.9
					c105.8,2,99-52.3,203.9-56.4c97-3.8,110.4,41.7,208.6,40.7c118.3-1.1,117.2-46.7,235.3-45c99.8,1.4,102,53.1,201.7,51.1"/>
			</g>
			<g>
				<path class="st2" d="M963.1,123.6c58.2-2.1,75.9,51.3,134.7,50.8c97-0.9,105.1-56.4,201.6-53.7c111.5,3,89.5,62.6,201.3,65
					c104.3,2.2,98-51.7,201.4-55.9c101.7-4.1,115.8,40.9,218.7,39.6c119.3-1.4,116.8-46.7,236.1-45.2c99.5,1.3,103,52.9,202.3,50.7"
					/>
			</g>
			<g>
				<path class="st2" d="M971.3,123.7c56.4-1.7,70.5,51.9,127.3,51.6c97.4-0.5,107.5-56.1,204.2-53.3
					c109.9,3.2,86.3,62.6,196.4,65.1c102.8,2.3,97-51.2,199-55.4c106.4-4.4,121.1,40.1,228.7,38.6c120.4-1.8,116.4-46.8,236.9-45.4
					c99.3,1.2,104,52.7,202.9,50.3"/>
			</g>
			<g>
				<path class="st2" d="M979.5,123.8c54.6-1.3,64.9,52.5,119.7,52.4c97.6-0.2,109.9-55.8,206.8-52.9
					c108.2,3.3,83.1,62.6,191.6,65.3c101.3,2.5,96.2-50.6,196.6-54.8c111-4.6,126.5,39.4,238.6,37.5
					c121.5-2.1,116.2-46.8,237.9-45.6c99,1,104.8,52.5,203.5,50"/>
			</g>
			<g>
				<path class="st2" d="M987.9,123.9c52.8-0.9,59.1,53.1,112,53.2c97.8,0.2,112.4-55.6,209.4-52.4c106.5,3.4,79.9,62.5,186.7,65.4
					c99.7,2.6,95.3-50.1,194.3-54.3c115.7-4.9,131.7,38.6,248.6,36.3c122.5-2.4,116-46.9,238.7-45.7c98.7,0.9,105.8,52.3,204,49.6"
					/>
			</g>
			<g>
				<path class="st2" d="M996.5,124c51-0.6,53,53.7,104,54c98,0.6,114.8-55.3,212.1-52c104.7,3.6,76.6,62.5,181.6,65.5
					c98.2,2.8,94.4-49.5,191.9-53.7c120.3-5.2,136.9,37.9,258.4,35.2c123.6-2.7,115.8-46.9,239.7-45.9
					c98.5,0.8,106.7,52.1,204.6,49.3"/>
			</g>
			<g>
				<path class="st2" d="M1005.3,124.2c49.2-0.2,46.6,54.3,95.8,54.8c98.2,1,117.4-55,214.8-51.6c103.1,3.7,73.4,62.4,176.8,65.6
					c96.7,3,93.5-49,189.6-53.2c124.9-5.5,142,37.1,268.2,34.1c124.5-3,115.7-46.9,240.8-46.1c98.2,0.7,107.6,52,205.2,48.9"/>
			</g>
			<g>
				<path class="st2" d="M1014.3,124.4c47.3,0.2,40,54.8,87.2,55.5c98.3,1.4,120.1-54.8,217.5-51.1c101.5,3.8,70.1,62.4,171.8,65.8
					c95.2,3.2,92.8-48.4,187.5-52.6c129.5-5.8,146.9,36.4,277.8,33.1c125.6-3.2,115.6-46.9,241.8-46.3c98,0.5,108.6,51.7,205.8,48.5
					"/>
			</g>
			<g>
				<path class="st2" d="M1023.6,124.6c45.5,0.6,33.1,55.4,78.4,56.2c98.4,1.8,122.6-54.5,220.3-50.6c99.9,3.9,66.8,62.3,166.8,65.9
					c93.7,3.3,91.9-47.9,185.2-52.1c134.1-6.1,152.2,35.7,287.6,32c126.7-3.5,115.6-47,242.9-46.4c97.8,0.4,109.5,51.6,206.3,48.2"
					/>
			</g>
			<g>
				<path class="st2" d="M1033.2,124.8c43.6,0.9,25.7,55.9,69.3,56.9c98.6,2.2,125.3-54.2,223.1-50.2c98.1,4,63.3,62.3,161.7,66
					c92.3,3.5,91.2-47.3,183.1-51.5c138.8-6.4,157.2,35,297.3,30.9c127.7-3.8,115.6-47,244.1-46.6c97.5,0.3,110.4,51.4,207,47.8"/>
			</g>
			<g>
				<path class="st2" d="M1043.1,125.1c41.8,1.3,18,56.3,59.9,57.5c98.7,2.6,128.1-53.9,226-49.7c96.5,4.1,59.9,62.2,156.5,66.1
					c90.7,3.6,90.3-46.8,180.7-51c143.4-6.7,162.2,34.3,306.8,29.8c128.8-4,115.7-47,245.4-46.8c97.2,0.2,111.3,51.2,207.5,47.4"/>
			</g>
			<g>
				<path class="st2" d="M1059.2,126.5c40.1,1.3,15.8,56.3,56,57.4c93.3,2.6,123.3-54,215.7-49.9c94.3,4.1,56.6,62.1,151.1,66.1
					c94.3,3.9,95.3-46.3,189.5-50.4c142.9-6.3,161.1,34.7,305,30.1c127.7-4.1,113.7-47.3,242.4-47.4c97.9-0.1,113.8,50.9,210.5,46.9
					"/>
			</g>
			<g>
				<path class="st2" d="M1075.3,127.9c38.3,1.2,13.5,56.2,51.9,57.3c87.8,2.5,118.6-54,205.6-50.1c92.1,4.2,53.4,62.1,145.7,66.1
					c97.9,4.2,100.2-45.8,198.1-49.8c142.5-5.9,160.1,35.1,303.2,30.5c126.7-4.1,111.6-47.6,239.3-48
					c98.6-0.3,116.4,50.6,213.6,46.3"/>
			</g>
			<g>
				<path class="st2" d="M1091.4,129.3c36.5,1.2,11.2,56.2,47.9,57.2c82.3,2.3,114-54.1,195.5-50.3c90,4.2,50.1,62.1,140.2,66.1
					c101.4,4.5,105-45.3,206.8-49.3c141.9-5.6,159.1,35.5,301.4,30.8c125.7-4.2,109.6-47.8,236.3-48.6
					c99.2-0.6,118.8,50.3,216.5,45.8"/>
			</g>
			<g>
				<path class="st2" d="M1107.6,130.6c34.8,1.2,8.9,56.2,43.7,57.2c76.9,2.2,109.4-54.1,185.4-50.4c87.9,4.3,46.7,62,134.7,66.1
					c104.9,4.8,109.8-44.8,215.3-48.7c141.4-5.2,158,36,299.6,31.1c124.8-4.3,107.6-48.1,233.3-49.2c99.8-0.8,121.2,50,219.4,45.2"
					/>
			</g>
			<g>
				<path class="st2" d="M1123.8,132c32.9,1.2,6.4,56.1,39.6,57.1c71.4,2.1,104.9-54.2,175.5-50.6c85.7,4.3,43.3,62,129.1,66
					c108.3,5.1,114.6-44.3,223.8-48.1c140.9-4.9,157.1,36.4,297.9,31.5c123.7-4.3,105.6-48.4,230.2-49.7
					c100.6-1.1,123.8,49.6,222.4,44.6"/>
			</g>
			<g>
				<path class="st2" d="M1140.1,133.4c31.2,1.1,3.9,56.1,35.2,57c66,2,100.6-54.2,165.7-50.8c83.5,4.4,39.8,62,123.6,66
					c112,5.4,119.4-43.9,232.4-47.6c140.3-4.5,156.2,36.8,296.2,31.8c122.7-4.4,103.4-48.7,227.2-50.3
					c101.2-1.3,126.1,49.3,225.4,44.1"/>
			</g>
			<g>
				<path class="st2" d="M1156.4,134.8c29.4,1.1,1.3,56,30.8,56.9c60.6,1.9,96.4-54.2,156.1-51c81.4,4.4,36.3,62,117.8,66
					c115.5,5.7,124.1-43.5,240.9-47c139.7-4.2,155.3,37.2,294.5,32.2c121.8-4.4,101.4-48.9,224.1-50.9
					c101.8-1.6,128.6,49,228.3,43.5"/>
			</g>
			<g>
				<path class="st2" d="M1172.8,136.2c27.7,1.1-1.5,55.9,26.3,56.8c55.1,1.8,92.2-54.2,146.5-51.1c79.1,4.5,32.5,61.9,112.1,66
					c118.9,6,128.8-43.1,249.3-46.4c139.2-3.9,154.3,37.6,292.9,32.5c120.8-4.5,99.4-49.2,221.2-51.4
					c102.4-1.9,130.9,48.7,231.2,42.9"/>
			</g>
			<g>
				<path class="st2" d="M1189.2,137.6c25.9,1-4.4,55.9,21.6,56.7c49.7,1.7,88.4-54.2,137.1-51.2c77,4.6,28.8,61.9,106.2,65.9
					c122.4,6.3,133.5-42.6,257.7-45.8c138.5-3.6,153.4,38,291.2,32.8c119.9-4.5,97.4-49.5,218.1-52c103.1-2.2,133.3,48.4,234.1,42.3
					"/>
			</g>
			<g>
				<path class="st2" d="M1205.7,139c24.2,1-7.5,55.8,16.8,56.6c44.3,1.5,84.7-54.1,128.1-51.4c74.7,4.7,24.8,61.8,100.2,65.8
					c125.9,6.7,138.2-42.2,266.2-45.3c137.9-3.3,152.6,38.4,289.6,33.1c118.9-4.6,95.3-49.8,215.1-52.5
					c103.6-2.4,135.6,48,236.9,41.7"/>
			</g>
			<g>
				<path class="st2" d="M1222.3,140.4c22.4,1-10.8,55.7,11.7,56.5c38.8,1.4,81.4-54,119.2-51.5c72.5,4.8,20.8,61.8,94,65.8
					c129.5,7,142.8-41.8,274.6-44.7c137.4-3,151.8,38.8,288.1,33.5c118-4.6,93.3-50,212-53.1c104.4-2.7,138.1,47.7,239.9,41.1"/>
			</g>
			<g>
				<path class="st2" d="M1239.1,141.8c20.6,1-14.4,55.6,6.3,56.4c33.3,1.3,78.3-53.9,110.8-51.6c70.3,4.9,16.5,61.8,87.8,65.7
					c133,7.4,147.5-41.4,283-44.1c136.7-2.7,150.9,39.2,286.4,33.8c117.1-4.7,91.2-50.3,209-53.7c104.9-3,140.4,47.4,242.7,40.6"/>
			</g>
			<g>
				<path class="st2" d="M1256.1,143.2c18.9,0.9-18.6,55.4,0.4,56.2c27.8,1.2,75.7-53.6,102.9-51.6c68,5.1,12,61.7,81.3,65.6
					c136.4,7.7,152-41,291.3-43.5c136.1-2.5,150.1,39.6,284.8,34.1c116.1-4.7,89.1-50.6,205.9-54.2c105.5-3.3,142.7,47,245.5,40"/>
			</g>
			<g>
				<path class="st2" d="M1273.2,144.7c17.1,0.9-23.4,55.2-6.2,56c22.4,1,73.9-53.4,95.6-51.6c65.7,5.3,7.4,61.6,74.5,65.4
					c139.9,8.1,156.5-40.6,299.6-42.9c135.4-2.2,149.3,40,283.3,34.4c115.2-4.8,86.9-50.9,202.7-54.8
					c106.2-3.6,145.1,46.7,248.5,39.4"/>
			</g>
			<g>
				<path class="st2" d="M1290.6,146.1c15.4,0.9-29.1,54.9-13.8,55.7c17.1,0.9,73-53,89.5-51.5c63.2,5.5,2.2,61.4,67.4,65.3
					c143.4,8.4,161.1-40.2,308-42.3c134.8-1.9,148.5,40.4,281.7,34.7c114.4-4.9,85-51.2,199.8-55.3c106.8-3.8,147.5,46.4,251.2,38.8
					"/>
			</g>
			<g>
				<path class="st2" d="M1308.5,147.6c13.5,0.9-36.6,54.5-23,55.3c11.6,0.7,73.9-52.4,85.1-51.3c60.8,5.8-3.3,61.2,59.8,65
					c146.8,8.8,165.6-39.8,316.2-41.7c134.1-1.7,147.8,40.8,280.2,35c113.5-4.9,83-51.4,196.7-55.9c107.4-4.2,149.7,46,254.1,38.2"
					/>
			</g>
			<g>
				<path class="st2" d="M1317.3,149.2c13.1,0.9-40.7,54.3-27.5,55.2c11.3,0.8,73.5-52.2,84.5-51.2c16.4,1.5-58.1,53.5-42,55.1
					c43.6,4.5,104.2-46.4,149.9-43.8c145.2,8.4,125.7,69.5,274.4,67.8c134-1.5,96.3-64.9,226-73.7c15.8-1.1,46.3,54.1,62.5,54
					c98.1-0.7,79.2-52.1,176.2-56.2c108.1-4.6,152.2,45.8,257.3,37.9"/>
			</g>
			<g>
				<path class="st2" d="M1326,150.8c12.7,0.9-45,54.1-32.2,55c10.9,0.8,76.7-51.9,87.3-50.9c16,1.5-60.6,53.4-44.8,55
					c43.4,4.5,105.2-46.5,150.8-43.7c143.2,8.6,121.9,69.7,268.8,68.4c133.9-1.3,97.4-64.7,227.1-73.4c15.7-1,46.3,54.1,62.5,53.9
					c97.7-0.8,77.9-52.2,174.3-56.3c108.8-4.7,153.3,45.7,259.3,37.6"/>
			</g>
			<g>
				<path class="st2" d="M1334.9,152.3c12.4,1-49.5,53.8-37.1,54.8c10.6,0.8,80.2-51.5,90.4-50.5c15.6,1.5-63.1,53.2-47.6,54.9
					c43.2,4.5,106.4-46.5,151.6-43.7c141.2,8.8,118,70,263.2,68.9c133.9-1,98.5-64.5,228.3-73.1c15.5-1,46.4,54,62.4,53.9
					c97.1-0.9,76.7-52.3,172.5-56.5c109.6-4.8,154.6,45.6,261.5,37.5"/>
			</g>
			<g>
				<path class="st2" d="M1343.8,153.9c11.9,1-54.2,53.5-42.2,54.5c10.2,0.9,83.7-51.1,93.7-50.1c15.1,1.6-65.7,53.1-50.4,54.7
					c43,4.5,107.5-46.6,152.6-43.7c138.9,9,114,70.4,257.3,69.5c133.8-0.8,99.6-64.3,229.4-72.7c15.4-1,46.4,54,62.3,53.8
					c96.7-1,75.4-52.4,170.7-56.7c110.6-4.9,156.1,45.5,263.7,37.2"/>
			</g>
			<g>
				<path class="st2" d="M1352.9,155.6c11.5,1-59.1,53.1-47.6,54.2c9.9,0.9,87.5-50.7,97.1-49.6c14.8,1.6-68.4,52.9-53.4,54.5
					c42.9,4.5,108.7-46.6,153.4-43.7c137.1,9.2,110.3,70.6,251.8,70c133.7-0.6,100.8-64.1,230.5-72.4c15.2-1,46.5,53.9,62.2,53.7
					c96.2-1.2,74-52.5,168.9-56.9c111.4-5.1,157.4,45.3,265.8,37"/>
			</g>
			<g>
				<path class="st2" d="M1362.1,157.2c11.1,1.1-64.1,52.7-53,53.8c9.6,0.9,91.4-50.2,100.7-49.1c14.4,1.7-71.1,52.8-56.5,54.3
					c42.7,4.6,109.8-46.7,154.4-43.6c135.1,9.4,106.3,70.9,246.1,70.5c133.6-0.4,101.9-63.9,231.7-72.1c15.1-1,46.5,53.9,62.1,53.6
					c95.8-1.3,72.7-52.6,167.1-57c112.2-5.2,158.7,45.2,268,36.8"/>
			</g>
			<g>
				<path class="st2" d="M1371.3,158.9c10.8,1.1-69.5,52.3-58.8,53.4c9.2,1,95.4-49.6,104.5-48.5c14,1.7-73.9,52.5-59.6,54.1
					c42.4,4.6,111-46.7,155.4-43.6c133.1,9.5,102.3,71.2,240.3,71c133.6-0.1,103.1-63.7,232.9-71.8c15-0.9,46.6,53.8,62.1,53.6
					c95.2-1.4,71.3-52.7,165.2-57.2c113-5.3,159.9,45.1,270,36.6"/>
			</g>
			<g>
				<path class="st2" d="M1380.8,160.6c10.3,1.2-75.1,51.7-64.7,52.9c8.9,1,99.8-49.1,108.4-47.9c13.5,1.8-76.8,52.3-62.8,53.8
					c42.2,4.6,112.3-46.8,156.3-43.5c131.1,9.7,98.2,71.5,234.5,71.6c133.5,0.1,104.3-63.4,234.1-71.5c14.9-0.9,46.7,53.8,62,53.5
					c94.8-1.5,70.1-52.8,163.4-57.3c113.9-5.5,161.2,45,272.2,36.3"/>
			</g>
			<g>
				<path class="st2" d="M1390.2,162.3c9.9,1.2-80.7,51.2-70.8,52.4c8.5,1,104.2-48.4,112.5-47.3c13.1,1.8-79.8,52.1-66.1,53.6
					c42,4.6,113.6-46.8,157.3-43.5c129,9.9,94.2,71.8,228.7,72.1c133.4,0.3,105.5-63.3,235.2-71.2c14.8-0.9,46.7,53.7,62,53.4
					c94.3-1.7,68.7-52.9,161.5-57.5c114.8-5.7,162.6,44.8,274.5,36.1"/>
			</g>
			<g>
				<path class="st2" d="M1399.8,164.1c9.5,1.2-86.7,50.5-77.1,51.7c8.2,1.1,108.9-47.7,116.9-46.5c12.7,1.8-82.9,51.8-69.4,53.3
					c41.8,4.6,114.7-46.9,158.2-43.4c127.1,10,90.1,72,222.9,72.6c133.3,0.6,106.6-63,236.5-70.9c14.7-0.9,46.8,53.6,61.8,53.3
					c93.7-1.8,67.4-53,159.6-57.7c115.6-5.8,163.9,44.7,276.5,35.8"/>
			</g>
			<g>
				<path class="st2" d="M1409.6,165.9c9.2,1.3-92.9,49.8-83.8,51.1c7.8,1.1,113.7-46.9,121.3-45.7c12.3,1.9-85.9,51.5-72.8,53
					c41.6,4.7,116-46.9,159.3-43.4c125.1,10.2,85.8,72.3,217,73.1c133.2,0.8,107.9-62.8,237.7-70.6c14.6-0.9,46.9,53.6,61.8,53.3
					c93.3-1.9,66-53.2,157.8-57.8c116.4-5.9,165.2,44.5,278.6,35.6"/>
			</g>
			<g>
				<path class="st2" d="M1419.4,167.8c8.7,1.3-99.3,48.9-90.5,50.3c7.5,1.1,118.6-46.1,125.9-44.8c11.8,1.9-89.1,51.2-76.3,52.6
					c41.4,4.7,117.4-46.9,160.4-43.3c123.2,10.4,81.7,72.6,211.1,73.6c133.1,1,109.1-62.6,239-70.2c14.5-0.9,47,53.5,61.7,53.2
					c92.8-2,64.6-53.3,156-58c117.2-6.1,166.3,44.4,280.7,35.4"/>
			</g>
			<g>
				<path class="st2" d="M1429.3,169.7c8.3,1.4-105.9,48-97.6,49.3c7.1,1.2,123.8-45.1,130.8-43.9c11.4,2-92.4,50.8-80,52.2
					c41.2,4.7,118.8-46.9,161.4-43.2c121.2,10.6,77.4,72.9,205.3,74.1c133,1.3,110.4-62.4,240.2-69.9c14.4-0.8,47,53.5,61.7,53.1
					c92.3-2.1,63.3-53.3,154.1-58.1c117.9-6.2,167.6,44.3,282.8,35.2"/>
			</g>
			<g>
				<path class="st2" d="M1439.4,171.6c7.9,1.4-112.7,46.9-104.8,48.3c6.8,1.2,129-44.1,135.7-42.8c11,2-95.8,50.4-83.5,51.8
					c40.9,4.7,120.2-47,162.5-43.1c119.2,10.7,73.1,73.1,199.3,74.6c133,1.6,111.6-62.2,241.5-69.6c14.3-0.8,47.1,53.4,61.7,53
					c91.8-2.2,62-53.5,152.3-58.3c118.8-6.3,168.9,44.2,284.9,34.9"/>
			</g>
			<g>
				<path class="st2" d="M1449.5,173.7c7.6,1.5-119.6,45.8-112.1,47.2c6.5,1.2,134.5-42.9,140.9-41.7c10.6,2.1-99.3,49.9-87.2,51.3
					c40.7,4.7,121.6-47,163.7-43.1c117.3,10.9,68.9,73.4,193.3,75.1c132.8,1.8,112.8-62,242.7-69.3c14.2-0.8,47.2,53.3,61.6,53
					c91.4-2.4,60.6-53.6,150.4-58.5c119.6-6.5,170.3,44,287.1,34.7"/>
			</g>
			<g>
				<path class="st2" d="M1459.6,175.8c23.4,4.9-89.7,53.6-62.2,56.6c154.2,17,199-26.6,366-22.7c146.6,3.4,150.5,45,295.7,38.7
					c90.1-3.9,53-53.5,142.4-58.4c120.5-6.6,171.6,43.9,289.2,34.5"/>
			</g>
			<g class="st33">
				<path class="st2" d="M1720.4,100.3c42.5,1.8,19.6,57.7,62.6,58.3c156.3,2.2,171-56.2,327-53c121.9,2.5,100.4,60.9,222,64.3
					c57.5,1.6,71.4-54.7,129.1-54.4"/>
			</g>
			<g class="st13">
				<path class="st2" d="M1732.2,100.8c46.7,2,22.8,58.1,70.1,58.8c152.8,2.2,167.5-56.3,320.2-53.3c117,2.3,96.1,60.7,212.6,63.9
					c56.5,1.5,70.2-54.8,127.1-54.5"/>
			</g>
			<g class="st60">
				<path class="st2" d="M1743.8,101.3c50.9,2.2,26.2,58.5,77.7,59.3c149.4,2.2,164-56.4,313.3-53.5c112,2.1,91.6,60.4,203.3,63.4
					c55.7,1.5,69-54.8,125-54.5"/>
			</g>
			<g class="st64">
				<path class="st2" d="M1755.3,101.8c55.1,2.5,29.6,58.8,85.5,59.7c146,2.3,160.5-56.5,306.4-53.8c107,2,87.2,60.1,194,63
					c54.8,1.4,67.8-54.8,122.9-54.5"/>
			</g>
			<g class="st15">
				<path class="st2" d="M1766.7,102.3c59.3,2.7,33.2,59.2,93.3,60.2c142.6,2.3,156.9-56.5,299.3-54c101.9,1.8,83,59.9,184.7,62.5
					c54.1,1.4,66.5-54.8,120.8-54.6"/>
			</g>
			<g class="st65">
				<path class="st2" d="M1778.1,102.8c63.4,3,36.8,59.6,101.1,60.7c139,2.3,153.3-56.6,292.4-54.3c97,1.6,78.7,59.6,175.4,62.1
					c53.2,1.3,65.4-54.8,118.8-54.6"/>
			</g>
			<g class="st61">
				<path class="st2" d="M1789.5,103.3c67.6,3.2,40.3,59.9,109,61.1c135.6,2.3,149.6-56.7,285.3-54.6c92,1.4,74.4,59.4,166.1,61.6
					c52.4,1.3,64.1-54.9,116.7-54.7"/>
			</g>
			<g class="st17">
				<path class="st2" d="M1801,103.8c71.9,3.5,43.9,60.3,116.9,61.6c132.2,2.3,146-56.7,278.3-54.8c87,1.3,70.3,59.1,157.1,61.2
					c51.5,1.2,62.7-54.9,114.4-54.7"/>
			</g>
			<g class="st34">
				<path class="st2" d="M1812.3,104.2c76,3.7,47.7,60.7,124.8,62.1c128.8,2.3,142.2-56.8,271.2-55.1c82,1.1,66.1,58.9,147.9,60.7
					c50.7,1.1,61.4-54.9,112.3-54.8"/>
			</g>
			<g class="st63">
				<path class="st2" d="M1823.6,104.7c80.2,3.9,51.3,61,132.8,62.5c125.4,2.3,138.5-56.9,264.1-55.3c77,0.9,62.1,58.6,138.9,60.2
					c49.8,1.1,60-55,110-54.8"/>
			</g>
			<g class="st19">
				<path class="st2" d="M1834.8,105.2c84.3,4.2,55,61.4,140.8,63c121.9,2.3,134.8-56.9,257-55.6c72,0.8,58.1,58.3,130,59.8
					c48.9,1,58.5-55,107.7-54.9"/>
			</g>
			<g class="st66">
				<path class="st2" d="M1846.1,105.7c88.6,4.4,58.8,61.7,148.8,63.5c118.5,2.3,130.9-56.9,249.7-55.8c67,0.6,54.3,58.1,121.1,59.4
					c48.2,0.9,57-55,105.4-54.9"/>
			</g>
			<g class="st20">
				<path class="st2" d="M1857.3,106.2c92.8,4.7,62.6,62.1,156.7,64c115.1,2.3,127.1-57,242.5-56.1c62,0.5,50.5,57.8,112.4,58.9
					c47.3,0.9,55.6-55.1,103-55"/>
			</g>
			<g class="st67">
				<path class="st2" d="M1868.5,106.7c96.9,4.9,66.3,62.4,164.7,64.4c111.6,2.3,123.2-57,235.1-56.3c56.9,0.4,46.9,57.5,103.9,58.5
					c46.5,0.8,54-55.1,100.6-55"/>
			</g>
			<g class="st68">
				<path class="st2" d="M1879.8,107.2c101.1,5.2,70.2,62.8,172.9,64.9c108.2,2.3,119.1-57,227.7-56.5c51.9,0.2,43.4,57.2,95.3,58
					c45.6,0.7,52.2-55.1,98-55.1"/>
			</g>
			<g class="st22">
				<path class="st2" d="M1891,107.6c105.4,5.4,73.9,63.1,181,65.4c104.7,2.3,114.9-57,220.1-56.8c46.9,0.1,40.1,56.9,87,57.6
					c44.8,0.6,50.5-55.1,95.4-55.1"/>
			</g>
			<g class="st36">
				<path class="st2" d="M1902.1,108.1c109.5,5.7,77.7,63.4,189,65.9c101.4,2.3,110.8-57,212.5-57c42,0,37,56.6,78.9,57.1
					c43.9,0.5,48.7-55.2,92.8-55.2"/>
			</g>
		</g>
	</g>
</g>
</svg>
