<?xml version="1.0" encoding="utf-8"?>
<!-- Generator: Adobe Illustrator 25.0.1, SVG Export Plug-In . SVG Version: 6.00 Build 0)  -->
<svg version="1.1" id="Waveform" xmlns="http://www.w3.org/2000/svg" xmlns:xlink="http://www.w3.org/1999/xlink" x="0px" y="0px"
	 viewBox="0 0 1440 700" style="enable-background:new 0 0 1440 700;" xml:space="preserve">
<style type="text/css">
	.st0{opacity:0.8;}
	.st1{fill:none;stroke:#5C0099;stroke-width:0.4;stroke-miterlimit:10;}
	.st2{opacity:0.97;enable-background:new    ;}
	.st3{opacity:0.94;enable-background:new    ;}
	.st4{opacity:0.91;enable-background:new    ;}
	.st5{opacity:0.88;enable-background:new    ;}
	.st6{opacity:0.86;enable-background:new    ;}
	.st7{opacity:0.83;enable-background:new    ;}
	.st8{opacity:0.8;enable-background:new    ;}
	.st9{opacity:0.77;enable-background:new    ;}
	.st10{opacity:0.74;enable-background:new    ;}
	.st11{opacity:0.71;enable-background:new    ;}
	.st12{opacity:0.68;enable-background:new    ;}
	.st13{opacity:0.65;enable-background:new    ;}
	.st14{opacity:0.63;enable-background:new    ;}
	.st15{opacity:0.6;enable-background:new    ;}
	.st16{opacity:0.57;enable-background:new    ;}
	.st17{opacity:0.54;enable-background:new    ;}
	.st18{opacity:0.51;enable-background:new    ;}
	.st19{opacity:0.48;enable-background:new    ;}
	.st20{opacity:0.45;enable-background:new    ;}
	.st21{opacity:0.42;enable-background:new    ;}
	.st22{opacity:0.39;enable-background:new    ;}
	.st23{opacity:0.37;enable-background:new    ;}
	.st24{opacity:0.34;enable-background:new    ;}
	.st25{opacity:0.31;enable-background:new    ;}
	.st26{opacity:0.28;enable-background:new    ;}
	.st27{opacity:0.25;enable-background:new    ;}
	.st28{opacity:0.95;enable-background:new    ;}
	.st29{opacity:0.9;enable-background:new    ;}
	.st30{opacity:0.85;enable-background:new    ;}
	.st31{opacity:0.75;enable-background:new    ;}
	.st32{opacity:0.7;enable-background:new    ;}
	.st33{opacity:0.55;enable-background:new    ;}
	.st34{opacity:0.5;enable-background:new    ;}
	.st35{opacity:0.4;enable-background:new    ;}
	.st36{opacity:0.35;enable-background:new    ;}
	.st37{opacity:0.3;enable-background:new    ;}
	.st38{opacity:0.2;enable-background:new    ;}
	.st39{opacity:0.19;enable-background:new    ;}
	.st40{opacity:0.18;enable-background:new    ;}
	.st41{opacity:0.17;enable-background:new    ;}
	.st42{opacity:0.16;enable-background:new    ;}
	.st43{opacity:0.15;enable-background:new    ;}
	.st44{opacity:0.14;enable-background:new    ;}
	.st45{opacity:0.13;enable-background:new    ;}
	.st46{opacity:0.12;enable-background:new    ;}
	.st47{opacity:0.11;enable-background:new    ;}
	.st48{opacity:0.1;enable-background:new    ;}
	.st49{opacity:9.000000e-02;enable-background:new    ;}
	.st50{opacity:8.000000e-02;enable-background:new    ;}
	.st51{opacity:7.000000e-02;enable-background:new    ;}
	.st52{opacity:6.000000e-02;enable-background:new    ;}
	.st53{opacity:5.000000e-02;enable-background:new    ;}
	.st54{opacity:0.84;enable-background:new    ;}
	.st55{opacity:0.81;enable-background:new    ;}
	.st56{opacity:0.78;enable-background:new    ;}
	.st57{opacity:0.72;enable-background:new    ;}
	.st58{opacity:0.69;enable-background:new    ;}
	.st59{opacity:0.66;enable-background:new    ;}
	.st60{opacity:0.59;enable-background:new    ;}
	.st61{opacity:0.56;enable-background:new    ;}
	.st62{opacity:0.53;enable-background:new    ;}
	.st63{opacity:0.64;enable-background:new    ;}
	.st64{opacity:0.61;enable-background:new    ;}
	.st65{opacity:0.49;enable-background:new    ;}
	.st66{opacity:0.46;enable-background:new    ;}
	.st67{opacity:0.44;enable-background:new    ;}
</style>
<g class="st0">
	<g>
		<g id="Waveform2_10_">
			<g>
				<g>
					<path class="st1" d="M87.8,453.3c35.4-7,69.9-18,105.2-28c37-11,72.2-24,109.1-38c43.7-18,83-35,126-55c3-1,4.3-1,7.3-2
						c14.1-6,24.3-12,38.3-18c9.4-4,17-7,26.4-11c11.1-5,20.6-3,30.1-1c5.6,2,10,4,15.6,6c22.1,6,42.1,14,63.9,21
						c5.7,2,10.4,3,16.5,4c25.9,3,48.9,7,73.7,13c9.5,2,15.3,7,17.4,15c4.8,24,14.3,46,17.8,70c0.9,1,1.4,3,2.3,4
						c0.8,8,2.8,16,4.9,24c2.1,8,2.5,17,3.2,25"/>
				</g>
				<g>
					<path class="st1" d="M82.7,466.3c127.2-29,249.8-75,373.7-134c17.7-8,34.4-14,52.1-22c6-2,10.7-1,15.9-1c10.7,2,19.8,5,30.1,8
						c20.2,7,41.3,12,59.9,20c28.9,5,58.6,8,87.1,14c2.2,1,5.6,2,7.8,3c5.2,3,7,8,8.8,13c5.3,12,7.7,25,10.4,37
						c7.3,26,15.1,51,16.9,78"/>
				</g>
				<g>
					<path class="st1" d="M77.5,478.3c85.2-18,166.8-45,252.2-78c63.9-26,122.1-54,182.6-79c17.3-4,28.7,2,41.1,6
						c25.7,6,46.9,16,74.4,21c25.8,3,50.3,6,75.1,11c8.2,2,12.8,6,15.3,12c13.3,37,21.9,73,27.1,111"/>
				</g>
				<g>
					<path class="st1" d="M75.5,491.3c3.9,0,8.3-1,13.2-3c3.1-1,4.4-1,7-1c1.8-1,4.4-1,6.2-2c2.6,0,3.9,0,7-1c6.2-2,13.6-4,19.8-6
						c3.1-1,3.9,0,7-1c117.8-32,231.1-77,340.7-129c11.7-3,22.7-10,33.6-14c3-1,7.4-2,10.4-3c5.6-1,10.8-1,15.5,0
						c27.7,7,52,16,80.2,22c29.1,7,59.6,8,89.2,14c2.1,1,5.6,2,7.7,3c4.7,4,8,8,9.6,13c11,33,21.3,65,26.8,99"/>
				</g>
				<g>
					<path class="st1" d="M75.5,505.3c84.9-20,166.2-44,253-80c3.1-1,4.3-1,7.4-2c15.7-6,28.9-12,45-19c45.9-21,86.9-40,133-59
						c9.1-3,17.3-4,24.6-3c31.7,7,58.1,17,92,22c26.2,5,51.5,6,77.7,11c2.1,1,5.6,2,7.7,3c2.5,3,7.3,4,8.1,8c5,12,9.2,23,14.2,35
						c0.4,2,0,3,0.4,5c8.9,18,12.6,36,17.2,55"/>
				</g>
				<g>
					<path class="st1" d="M75.5,518.3c31.1-8,62.1-16,93.1-24c7.4-2,13.6-4,21-6c31.1-11,61.2-20,92.2-31c56.3-21,106.5-43,161-69
						c6.5-3,13.1-6,20.4-8c26.5-10,53.1-29,79.3-27c27.8,7,54.4,14,85.7,19c24,4,45.1,6,69.2,10c5.2,0,10.3,0,13.8,1
						c2.1,1,5.6,2,7.7,3c2.6,3,6,4,8.1,8c14,30,26.8,57,34.5,87"/>
				</g>
				<g>
					<path class="st1" d="M75.5,531.3c16.2-4,31.8-7,47.1-12c3.1-1,3.9,0,7-1c52.4-15,101.6-29,153.5-49c12.6-5,25.3-10,39.2-15
						c60-24,110-49,169.4-75c17.8-8,36.4-18,53.1-15c26.2,5,49.8,10,74.2,16c1.3,0,3.9,0,5.2,0c2.6,0,5.6,2,8.2,2
						c31.4,2,61.1,5,88.6,13c2.6,0,5.6,2,7.3,4c3,5,6,10,9,15c2.6,6,5.2,12,7.8,18c6.9,17,17.7,31,22.1,48"/>
				</g>
				<g>
					<path class="st1" d="M75.5,544.3c66.7-15,132.9-35,199.5-59c79.1-29,147.2-63,227.3-98c15.5-6,29.4-14,45.3-12
						c29.2,4,53.2,11,82.5,15c31.8,4,63.7,5,94.2,12c3.4,1,5.2,3,6.9,5c15.6,24,30.4,47,41.3,73"/>
				</g>
				<g>
					<path class="st1" d="M75.5,557.3c64.4-13,126.6-33,191.4-56c20.4-8,37.3-14,58.2-23c61.5-25,112.6-50,173.4-77
						c9.5-4,17.2-7,26.7-11c9-3,17.6-5,26.2-4c50.3,9,97.2,14,148,19c9.9,1,18.1,3,27.6,5c22.5,20,34.9,46,50.7,70"/>
				</g>
				<g>
					<path class="st1" d="M75.5,571.3c53.9-13,107.3-28,160.7-46c90.1-31,170.4-70,258.7-110c3-1,4.3-1,7.3-2
						c10.7-4,19.8-10,30.1-13c12-4,23.2-3,34.4-2c14.6,2,28.4,3,42.6,6c31.4,5,62,6,93,9c13.4,2,25.9,3,35,9c6.5,6,10.5,12,15.8,18
						c9.7,14,21.5,26,30,40"/>
				</g>
				<g>
					<path class="st1" d="M75.5,584.3c72.9-18,144.5-39,217.6-67c66.9-26,125.5-54,191.7-85c4.7-2,9-3,13.7-5c17.6-8,33-17,50.2-18
						c30.5-2,56.4,4,83.9,6c26.3,2,52.1,5,78.4,7c11.2,1,22,3,29,8c17.9,16,33.3,32,47.9,50"/>
				</g>
				<g>
					<path class="st1" d="M75.5,597.3c42-10,84.5-21,126.9-35c38-13,72.6-24,110.9-41c6.5-3,13.4-4,19.8-7
						c63.6-28,116.8-53,180.6-82c12.8-6,25.6-12,39-13c12-1,21.5,1,33.1,1c47.4,4,93.4,5,139.6,12c4.8,1,10.8,2,15.1,4
						c20.5,13,34.7,29,51.9,44"/>
				</g>
				<g>
					<path class="st1" d="M75.5,597.3c42-10,84.5-21,126.9-35c38-13,72.6-24,110.9-41c6.5-3,13.4-4,19.8-7
						c63.6-28,116.8-53,180.6-82c12.8-6,25.6-12,39-13c12-1,21.5,1,33.1,1c47.4,4,93.4,5,139.6,12c4.8,1,10.8,2,15.1,4
						c20.5,13,34.7,29,51.9,44"/>
				</g>
				<g>
					<path class="st1" d="M75.5,611.3c42-10,84.5-21,126.8-35c38-13,73.8-24,110.9-41c3-1,4.3-1,7.3-2c67.9-29,126.2-57,193-87
						c15.8-7,31.6-14,47.1-14c38.3,1,76.1,3,114.9,6c9.9,1,21.1,2,31,3c3.9,0,8.6,1,12.1,2c2.6,0,5.2,0,7.7,0
						c30.7,7,48.4,24,71.6,37"/>
				</g>
				<g>
					<path class="st1" d="M75.5,625.3c42-10,84.5-21,126.8-35c38-13,73.8-24,110.8-41c3-1,4.3-1,7.3-2c67.9-29,126.2-57,193-87
						c14.5-7,28.6-13,42.8-13c65.7-3,127.7,0,187.3,12c19.4,3,33.4,10,49.9,17c3.1,2,4.9,4,9.6,5"/>
				</g>
				<g>
					<path class="st1" d="M528.5,270.3c-11.2-2-28,4-41.9,5c-3.9,0-9.1,0-13.9,1"/>
				</g>
				<g>
					<path class="st1" d="M527.9,271.3c-5.7-1-13.6,1-20.8,2c-13.1,2-27.8,6-39.5,6"/>
				</g>
				<g>
					<path class="st1" d="M526.1,272.3c-13.5,1-27,4-42.4,8c-7.1,1-14.9,3-20.8,2"/>
				</g>
				<g>
					<path class="st1" d="M525.5,273.3c-15.3,2-31.2,5-48.3,10c-7.1,1-14.7,3-20.7,2"/>
				</g>
				<g>
					<path class="st1" d="M524.8,274.3c-17.8,2-35.8,7-54,12c-6.2,2-13.3,3-19.3,2"/>
				</g>
				<g>
					<path class="st1" d="M524,275.3c-13.8,2-27.6,4-42,10c-12.2,4-23.6,6-35.8,7"/>
				</g>
				<g>
					<path class="st1" d="M522,277.3c-14.2,0-31.1,6-46.3,11c-11.7,3-23.5,6-34.4,7"/>
				</g>
				<g>
					<path class="st1" d="M521.3,278.3c-2.6,0-3.9,0-6.4,0c-4.3,1-8.6,2-12.9,3c-21.9,6-44,15-65.7,17"/>
				</g>
				<g>
					<path class="st1" d="M520.6,279.3c-22.7,2-46.2,12-69.8,19c-6.9,1-12.5,2-19.5,3"/>
				</g>
				<g>
					<path class="st1" d="M519.8,280.3c-9.4,1-19.2,3-27.7,5c-22.1,7-43,17-65.9,19"/>
				</g>
				<g>
					<path class="st1" d="M517.9,281.3c-4.2,1-8.1,1-12.3,2c-28.4,7-56.8,21-85.6,25"/>
				</g>
				<g>
					<path class="st1" d="M517.2,282.3c-10.7,1-22.4,5-32.5,8c-23.5,8-45.3,18-69.8,21"/>
				</g>
				<g>
					<path class="st1" d="M516.5,283.3c-22.9,3-44.1,12-66.7,21c-13.4,5-26.2,8-39.9,10"/>
				</g>
				<g>
					<path class="st1" d="M515.8,284.3c-22,4-43.7,11-65.2,21c-15,6-31.1,11-45.7,12"/>
				</g>
				<g>
					<path class="st1" d="M513.7,285.3c-12.9,4-24.8,5-38.1,10c-25.6,11-49.7,21-75.7,25"/>
				</g>
				<g>
					<path class="st1" d="M513,286.3c-22.2,5-43.7,12-64.9,22c-4.5,2-8.7,3-13.2,5c-13.3,5-25.9,8-39.9,11"/>
				</g>
				<g>
					<path class="st1" d="M512.3,287.3c-26.3,6-51.3,16-76.8,27c-14.9,6-30.4,10-45.7,13"/>
				</g>
				<g>
					<path class="st1" d="M511.5,289.3c-32.2,4-62.3,22-94.3,33c-10,3-21.4,6-32.5,8"/>
				</g>
				<g>
					<path class="st1" d="M509.7,290.3c-15.1,3-28.9,6-43.6,12c-29.9,13-56,26-87.4,31"/>
				</g>
				<g>
					<path class="st1" d="M508.9,291.3c-20.5,4-39,10-58.5,19c-25.6,12-50.4,21-76.9,27"/>
				</g>
				<g>
					<path class="st1" d="M508.2,292.3c-25.9,5-50.5,14-75,27c-2.9,1-4.2,1-7.1,2c-19.5,9-37.9,14-57.6,19"/>
				</g>
				<g>
					<path class="st1" d="M507.5,293.3c-30.1,6-56.8,18-86.7,32c-19.2,8-37.6,13-57.3,18"/>
				</g>
				<g>
					<path class="st1" d="M506.7,294.3c-34.2,7-62.7,21-95.6,36c-4.5,2-8.7,3-13.1,5c-12.9,4-26,9-39.6,11"/>
				</g>
				<g>
					<path class="st1" d="M504.7,295.3c-23.6,6-46.2,13-69.9,24c-27.3,14-53.5,24-81.3,30"/>
				</g>
				<g>
					<path class="st1" d="M504,296.3c-37,8-68.7,25-104.3,41c-17.5,7-34.3,11-51.3,16"/>
				</g>
				<g>
					<path class="st1" d="M503.4,297.3c-22.2,6-44.5,12-65.3,22c-31.6,16-62.5,29-96,37"/>
				</g>
				<g>
					<path class="st1" d="M502.7,298.3c-39.8,9-74.4,27-112.8,44c-17.8,8-35.1,14-52.8,17"/>
				</g>
				<g>
					<path class="st1" d="M489.9,276.3c-10.6,1-20.9,6-32,9c-14.2,5-26.7,13-40.3,20c-14.6,6-29,11-44.4,15"/>
				</g>
				<g class="st2">
					<path class="st1" d="M485,279.3c-27.1,5-49.9,18-75.2,30c-13.3,6-25.8,9-38.6,13"/>
				</g>
				<g class="st3">
					<path class="st1" d="M480.1,282.3c-28.4,5-51.7,20-79.6,32c-10.2,4-21.1,6-31.3,10"/>
				</g>
				<g class="st4">
					<path class="st1" d="M474.1,285.3c-23.7,7-45.5,16-68.1,28c-4.4,2-8.6,3-13,5c-8.6,3-18.5,6-26.9,8"/>
				</g>
				<g class="st5">
					<path class="st1" d="M469.2,288.3c-8.5,3-16.8,5-25.3,8c-27.5,11-50.9,26-79.8,32"/>
				</g>
				<g class="st6">
					<path class="st1" d="M464.3,292.3c-25.6,4-46.1,18-69.6,28c-11.5,4-21.7,8-32.7,10"/>
				</g>
				<g class="st7">
					<path class="st1" d="M459.4,295.3c-20.1,3-37,13-56.3,22c-14.6,6-26.9,13-43.1,15"/>
				</g>
				<g class="st8">
					<path class="st1" d="M454.6,298.3c-20.7,5-39.9,14-59.1,23c-13.3,6-23.8,11-37.4,13"/>
				</g>
				<g class="st9">
					<path class="st1" d="M449.8,301.3c-24.8,6-44.5,17-68.2,28c-8.6,3-18.5,6-26.9,8"/>
				</g>
				<g class="st10">
					<path class="st1" d="M444.9,304.3c-23.5,6-43.2,17-66.6,27c-8.6,3-16.9,5-25.6,8"/>
				</g>
				<g class="st11">
					<path class="st1" d="M438.8,308.3c-20.4,4-37,13-55,22c-10.4,5-21.7,8-32.9,11"/>
				</g>
				<g class="st12">
					<path class="st1" d="M433.9,311.3c-6.7,1-12.1,2-18.1,5c-4.4,2-8.5,3-12.9,5c-18.2,10-34.4,17-54,22"/>
				</g>
				<g class="st13">
					<path class="st1" d="M429,314.3c-19.4,5-37.3,14-56.5,23c-8.9,4-16.9,5-25.6,8"/>
				</g>
				<g class="st14">
					<path class="st1" d="M424.1,317.3c-8.3,2-16.8,5-25.3,8c-17.6,8-34.6,18-53.9,22"/>
				</g>
				<g class="st15">
					<path class="st1" d="M419.4,320.3c-4.1,1-9.6,2-14,4c-4.4,2-8.5,3-13,5c-8.8,4-15.1,8-24,12c-4.2,1-8.6,3-13.1,5
						c-4.5,2-8.6,3-13.8,3"/>
				</g>
				<g class="st16">
					<path class="st1" d="M414.5,324.3c-20.2,3-36.4,15-55.3,22c-7.1,2-13.1,5-19.6,5"/>
				</g>
				<g class="st17">
					<path class="st1" d="M409.6,327.3c-16.5,4-31.3,11-47.7,19c-8.6,3-15.9,6-24.3,8"/>
				</g>
				<g class="st18">
					<path class="st1" d="M404.8,330.3c-15.2,4-28.5,10-43.3,17c-8.9,4-17.5,7-25.8,9"/>
				</g>
				<g class="st19">
					<path class="st1" d="M398.6,333.3c-13.9,4-26.8,9-40.6,17c-7.5,4-15.6,5-24.2,8"/>
				</g>
				<g class="st20">
					<path class="st1" d="M393.7,337.3c-4.1,1-8,1-12.4,3c-4.4,2-8.6,3-13,5c-12,6-23.7,11-36.6,15"/>
				</g>
				<g class="st21">
					<path class="st1" d="M389,340.3c-17.6,3-32,13-47.9,19c-4.2,1-8.4,2-12.6,3"/>
				</g>
				<g class="st22">
					<path class="st1" d="M384.1,343.3c-13.7,3-25.7,9-37.7,15c-6,3-12.8,4-19.9,6"/>
				</g>
				<g class="st23">
					<path class="st1" d="M379.2,346.3c-7,2-12.7,4-18.4,6c-11.7,5-22.8,12-36.3,14"/>
				</g>
				<g class="st24">
					<path class="st1" d="M374.3,349.3c-10.8,2-21.4,8-31.8,13c-4.4,2-8.6,3-13,5c-2.9,1-4.2,1-7,2"/>
				</g>
				<g class="st25">
					<path class="st1" d="M369.5,353.3c-2.6,0-3.9,0-6.7,1c-14.3,5-26.8,13-42.3,17"/>
				</g>
				<g class="st26">
					<path class="st1" d="M363.4,356.3c-1.3,0-3.9,0-5.4,1c-14.3,5-25.5,13-40.7,16"/>
				</g>
				<g class="st27">
					<path class="st1" d="M358.5,359.3c-9.8,3-20,7-30.4,12c-4.5,2-8.6,3-12.8,4"/>
				</g>
				<g>
					<path class="st1" d="M486.6,298.3c25.2,20,58.6,33,95.6,41c31.6,2,60.4,8,88.4,16"/>
				</g>
				<g>
					<path class="st1" d="M487.8,297.3c31.9,23,73.4,39,123.7,43c6.1,1,12.2,2,17,3c4.4,2,10.9,2,16.6,4c3.5,1,7,2,10.5,3
						c1.3,0,3.5,1,4.4,2c2.6,0,3.5,1,6.1,1c0.9,1,3.5,1,4.4,2"/>
				</g>
				<g>
					<path class="st1" d="M488.9,296.3c6.1,4,11,8,17.1,12c3.1,2,6.6,3,9.6,5c3.1,2,8.3,2,11.3,4c0.9,1,3.1,2,4,3
						c15.8,6,31.5,12,50.2,14c18.3,3,35.7,5,52.3,9c13.1,3,25.9,7,37.1,12"/>
				</g>
				<g>
					<path class="st1" d="M490.1,295.3c23.9,18,54.2,30,90,38c1.3,0,3.9,0,5.2,0c2.2,1,4.4,2,7,2c6.5,0,12.6,1,18.7,2
						c8.3,2,15.7,3,22.8,5c12.8,4,25.6,8,36.8,13"/>
				</g>
				<g>
					<path class="st1" d="M492.4,294.3c23.2,17,53.6,29,87,37c1.3,0,3.9,0,5.2,0c7,2,16.1,2,24.5,4c0.9,1,3.2,2,4.5,2
						c21.9,4,39.2,10,57.2,18"/>
				</g>
				<g>
					<path class="st1" d="M493.5,293.3c31.9,22,72.8,34,120.1,43c21.9,4,39,11,57,19"/>
				</g>
				<g>
					<path class="st1" d="M494.7,292.3c16.3,12,35.7,19,56.1,27c24,9,53.1,11,78.9,19c13.9,5,27.7,10,40.9,17"/>
				</g>
				<g>
					<path class="st1" d="M495.8,291.3c3.2,2,6.7,3,9.8,5c27.2,18,59.4,26,95.8,33c26.5,6,48.1,15,69.1,26"/>
				</g>
				<g>
					<path class="st1" d="M497,290.3c2.2,1,4.8,1,5.8,2c6,5,13.6,9,21.3,13c16.6,8,32.7,14,52.4,17c11.9,3,22.9,5,34.9,8
						c22.7,6,41.8,15,59.3,25"/>
				</g>
				<g>
					<path class="st1" d="M499.3,289.3c5.8,2,8.3,6,12.8,8c3.5,1,6.7,3,9.9,5c10.3,4,20.9,7,30.9,12c6.8,3,15.8,3,22.3,7
						c35.9,5,68.1,18,95.5,34"/>
				</g>
				<g>
					<path class="st1" d="M500.4,287.3c15.4,12,36.1,20,57.5,26c40.2,12,81.2,22,112.7,42"/>
				</g>
				<g>
					<path class="st1" d="M501.6,286.3c15.8,11,33.7,20,55.4,25c41.9,11,82.3,23,113.7,44"/>
				</g>
				<g>
					<path class="st1" d="M502.7,285.3c15.2,9,29.6,17,48.4,23c44.2,12,86,24,119.5,47"/>
				</g>
				<g>
					<path class="st1" d="M505,284.3c3.3,2,5.2,4,8.5,6c3.6,1,6.8,3,10.1,5c10.4,4,20.8,8,31.3,12c43,12,84.6,25,115.7,48"/>
				</g>
				<g>
					<path class="st1" d="M506.2,283.3c14.8,11,35,17,53.9,23c40.2,13,80.6,26,110.6,49"/>
				</g>
				<g>
					<path class="st1" d="M507.3,282.3c22,13,48.1,21,74.3,29c33.2,11,64.3,25,89,44"/>
				</g>
				<g>
					<path class="st1" d="M508.5,281.3c2.3,1,3.6,1,5.9,2c10.9,7,21.1,12,34.2,16c22.9,6,43.9,14,65.1,22c3.3,2,6.7,4,10.3,5
						c1,1,3.3,2,4.4,3c2.3,1,3.6,1,5.9,2c3.4,2,5.4,4,8.8,6c2.3,1,3.6,1,6,2c7.7,5,13.9,11,21.7,16"/>
				</g>
				<g>
					<path class="st1" d="M510.8,280.3c21.5,11,43.5,20,68.8,27c1,1,3.3,2,4.4,3c35.1,9,61.5,27,86.7,45"/>
				</g>
				<g>
					<path class="st1" d="M511.9,279.3c20.2,11,42.9,18,66.6,26c1,1,3.4,2,4.4,3c16.5,6,33.1,12,47.9,20c16.1,8,26.5,18,39.8,27"/>
				</g>
				<g>
					<path class="st1" d="M513.1,278.3c15.2,6,30.1,13,46.6,19c20.2,7,38.8,15,58.7,23c19.5,10,37.5,21,52.2,35"/>
				</g>
				<g>
					<path class="st1" d="M514.2,277.3c16.5,6,31.5,13,48.3,18c5.7,3,12.7,6,18.6,8c30.4,13,58.2,26,82.1,45c2.1,2,4,5,7.4,7"/>
				</g>
				<g>
					<path class="st1" d="M516.5,275.3c15.6,10,35.2,14,52.9,21c3.4,2,6.8,4,10.2,6c34.1,14,66.6,30,91.1,53"/>
				</g>
				<g>
					<path class="st1" d="M517.7,274.3c13.5,8,31.9,12,47.2,18c4.7,2,9.1,5,13.6,8c25.8,11,52,21,72.7,38c3,4,7.7,6,12,10
						c1.9,3,4.1,5,7.5,7"/>
				</g>
				<g>
					<path class="st1" d="M518.8,273.3c9.4,4,18.5,9,29.4,12c10.9,3,20.1,8,29.2,13c17.3,9,34,15,49.8,25c2.4,1,3.7,1,6,2
						c14.8,9,25.3,20,37.3,30"/>
				</g>
				<g>
					<path class="st1" d="M520,272.3c15.3,6,31,11,46.3,17c6.8,4,12.4,8,19.2,12c33,14,61.4,32,85.1,54"/>
				</g>
				<g>
					<path class="st1" d="M522.3,271.3c12.8,6,26.3,9,39.4,14c17.6,8,30.8,18,48.5,26c10.6,5,19.8,10,28.7,17c11,9,22.3,17,31.8,27"
						/>
				</g>
				<g>
					<path class="st1" d="M523.4,270.3c11.8,5,26.8,7,38.4,13c19.5,11,36.7,21,57.6,32c20.8,12,37.5,25,51.2,40"/>
				</g>
				<g>
					<path class="st1" d="M105.2,291.3c42.1,7,94.2,9,162.9,3c33-3,64.6-6,97.5-9c16.7-2,33.4-4,50-6c36-2,75.6-6,102.4-3"/>
				</g>
				<g class="st28">
					<path class="st1" d="M110,293.3c55.5,11,138.6,6,235.8-5c2.6,0,6.5,0,9.1,0c19.4-3,35.8-5,53.5-7c37.4-3,73.5-6,104.5-6
						c2.6,0,2.2,1,4.8,1"/>
				</g>
				<g class="st29">
					<path class="st1" d="M114.3,296.3c31.9,5,71.8,6,113.8,5c44.9-2,93.6-8,144.4-13c17.4-2,33.9-5,51.3-7c36.1-4,67.6-6,94.4-5"/>
				</g>
				<g class="st30">
					<path class="st1" d="M119.5,298.3c32.5,6,72.6,7,117.2,5c39.4-2,86-9,126.7-12c55.7-9,109.5-15,154.7-15"/>
				</g>
				<g class="st8">
					<path class="st1" d="M123.9,301.3c32,5,71,6,114,4c40.4-2,82.2-7,127.8-13c15.6-2,29.9-4,45.5-7c38.9-6,73.8-9,106-9"/>
				</g>
				<g class="st31">
					<path class="st1" d="M127,304.3c57.3,6,122.3,5,201.1-5c10.3-2,19.3-3,27.1-3c2.6,0,6.4-1,10.3-2c1.3,0,3.9,0,5.2,0
						c19.2-4,37.1-7,55.1-9c1.3,0,6.3-2,7.6-2c29.5-3,57.6-7,83.4-7"/>
				</g>
				<g class="st32">
					<path class="st1" d="M133.9,306.3c38.3,5,81.4,6,130.2,2c38.3-4,75.3-8,113.3-13c45.9-11,84.1-14,125.7-19c3.9,0,9,0,12.9,0"/>
				</g>
				<g class="st13">
					<path class="st1" d="M138.7,309.3c45.1,4,93.4,5,150.5-1c23.9-3,44.2-5,69.1-9c23.9-3,45.9-8,70.4-13c23.5-4,44.6-7,66-9
						c6.5,0,14.9-2,20.4-1"/>
				</g>
				<g class="st15">
					<path class="st1" d="M144.5,311.3c40.8,6,87.4,5,139,0c27.6-3,52.5-6,81-10c24.5-4,48.4-10,72.5-15c9.6-2,19.6-3,29.2-5
						c16.1-2,33.4-4,48.5-5"/>
				</g>
				<g class="st33">
					<path class="st1" d="M149.8,314.3c35.3,4,74.3,4,116.1,1c32.6-3,66.6-9,100.4-12c13.4-2,28.3-7,42.6-10
						c36.8-8,72.6-15,105.3-17"/>
				</g>
				<g class="st34">
					<path class="st1" d="M156.5,316.3c25.2,4,53.8,4,83.2,3c13.8-1,27.7-2,41.5-3c34.1-5,65.1-8,97.8-13c20-7,39.3-10,58.1-14
						c26.8-6,53.1-13,76.4-13"/>
				</g>
				<g class="st20">
					<path class="st1" d="M160.7,319.3c35.3,3,72.2,4,114.4,0c46.8-5,91.4-9,142.6-25c3.4-1,3.9,0,7.2-1c26-7,49.7-11,74.7-15
						c4.6-1,8.7-3,13.1-2"/>
				</g>
				<g class="st35">
					<path class="st1" d="M166.5,322.3c27.9,1,55,3,85.1,1c36.6-2,72.7-7,112.2-13c22.3-4,42.9-11,64.1-17c3.3-1,3.9,0,7.2-1
						c26.4-8,51.9-13,77.2-16"/>
				</g>
				<g class="st36">
					<path class="st1" d="M173,324.3c64.7,6,139.2-2,215.6-17c41.1-13,82.7-25,122.8-31"/>
				</g>
				<g class="st37">
					<path class="st1" d="M177.4,327.3c64.3,3,135.2-2,208.6-17c41.3-14,84.5-27,125-34"/>
				</g>
				<g class="st27">
					<path class="st1" d="M184.4,329.3c11.1,3,26.7,1,39.7,1c21.5,1,42.9,0,68.2-3c35.5-5,67.3-6,104.3-18c39.4-14,76.1-26,113.8-33
						"/>
				</g>
				<g class="st38">
					<path class="st1" d="M190.4,332.3c60.1,4,127.1-4,194.2-17c42-15,83.2-31,125-39"/>
				</g>
				<g class="st38">
					<path class="st1" d="M403.1,320.3c-38-6-103.2,8-155.7,12c-15.8,1-31.4,1-44.2,0"/>
				</g>
				<g class="st39">
					<path class="st1" d="M400.2,323.3c-16.8,0-32.4-1-51.4,1c-31.9,3-65.8,11-97.9,14c-18.1,1-38.6,4-51.9,1"/>
				</g>
				<g class="st40">
					<path class="st1" d="M397.2,326.3c-33.5,0-71.9,5-112.3,12c-34.1,7-64.4,10-92,9"/>
				</g>
				<g class="st41">
					<path class="st1" d="M392.5,330.3c-40.4-1-87.2,10-134.2,18c-26.4,5-48.1,6-70.2,6"/>
				</g>
				<g class="st42">
					<path class="st1" d="M389.3,333.3c-26.5,1-55,3-85.2,11c-42.1,10-82.3,17-120.8,18"/>
				</g>
				<g class="st43">
					<path class="st1" d="M384.5,337.3c-17.4,1-34.8,2-53.5,5c-1.3,0-5.1,2-6.4,2c-18.7,3-37.4,8-56.2,13c-30.5,7-61.1,12-88.4,12"
						/>
				</g>
				<g class="st44">
					<path class="st1" d="M381.2,340.3c-35.2,3-72.6,10-109.8,21c-18.4,5-37.5,9-56.1,12c-14.1,2-26.4,3-40,4"/>
				</g>
				<g class="st45">
					<path class="st1" d="M376.6,344.3c-23.7,1-49.5,6-75,13c-43.2,11-88.2,25-130.9,27"/>
				</g>
				<g class="st45">
					<path class="st1" d="M373.3,347.3c-13.8,2-27.6,4-41.4,6c-31.2,6-59.1,16-89.2,25c-9.2,3-19.2,5-28,7c-17,3-32.3,5-48.8,7"/>
				</g>
				<g class="st46">
					<path class="st1" d="M368.7,351.3c-7.3,2-12.9,0-20.2,2c-1.7,1-4.7,2-6,2c-34.4,5-66.7,17-99.6,27c-27.3,9-55.1,16-81.6,17"/>
				</g>
				<g class="st47">
					<path class="st1" d="M365.3,354.3c-44.5,5-88.2,21-133,36c-25.7,9-49.8,14-74.4,17"/>
				</g>
				<g class="st48">
					<path class="st1" d="M360.7,358.3c-41.8,5-83.5,20-125.7,36c-27.5,11-54.5,17-81.7,20"/>
				</g>
				<g class="st49">
					<path class="st1" d="M356.1,361.3c-8.4,2-17.8,3-26.2,5c-30.8,7-59,18-89.4,31c-30.4,13-60.2,20-91.8,25"/>
				</g>
				<g class="st50">
					<path class="st1" d="M352.8,365.3c-36.7,6-73.2,19-109.2,34c-33.2,14-65.8,26-99.6,30"/>
				</g>
				<g class="st51">
					<path class="st1" d="M348,368.3c-20.5,4-38.8,9-58.9,16c-4.5,2-8.9,4-13.1,5c-1.6,1-4.5,2-6.1,3c-2.9,1-4.2,1-7.1,2
						c-41,20-79.4,35-122.2,43"/>
				</g>
				<g class="st52">
					<path class="st1" d="M344.7,371.3c-48.2,11-91.1,30-137.7,52c-4.5,2-8.7,3-13.1,5c-13.2,5-26,9-38.6,12c-4.2,1-8.1,1-12.6,3
						c-2.9,1-4.2,1-6.8,1"/>
				</g>
				<g class="st53">
					<path class="st1" d="M340.1,375.3c-17.8,4-34.6,9-51.7,15c-4.4,2-8.6,3-13,5c-21.8,9-38.8,19-59.7,29c-2.9,1-4.2,1-7,2
						c-25.4,12-51,20-77.4,26"/>
				</g>
				<g>
					<path class="st1" d="M339.2,291.3c26.1-3,52.8-10,79.9-18c7.4-2,13.9-5,20.9-6c11.2-2,22-3,33.2-5"/>
				</g>
				<g>
					<path class="st1" d="M341.3,290.3c26.5-1,54.5-10,81.4-17c18-5,37.3-10,54-10"/>
				</g>
				<g>
					<path class="st1" d="M344.6,290.3c31-2,63.9-13,96.4-21c13.1-3,26.5-4,40.4-6"/>
				</g>
				<g>
					<path class="st1" d="M348.1,290.3c14.1-2,26.3-3,40.9-6c32.3-7,64.9-20,95.9-20"/>
				</g>
				<g>
					<path class="st1" d="M351.5,289.3c27.9-1,58.3-9,89.2-18c16.4-4,31.7-6,47.7-7"/>
				</g>
				<g>
					<path class="st1" d="M353.5,289.3c13.6-1,27.2-2,42-5c33.2-8,66.2-18,97.7-19"/>
				</g>
				<g>
					<path class="st1" d="M357,288.3c10.4,0,22.7-1,34.4-3c35.5-7,72.5-19,105.3-20"/>
				</g>
				<g>
					<path class="st1" d="M360.3,288.3c26,0,55.3-7,85.1-15c20-5,38-7,56.1-7"/>
				</g>
				<g>
					<path class="st1" d="M363.7,288.3c16.3-1,33.2-3,49.4-6c31.8-7,62.7-15,91.7-16"/>
				</g>
				<g>
					<path class="st1" d="M365.7,287.3c19.5,0,39.2-2,61-7c28.4-7,57.2-13,83-13"/>
				</g>
				<g>
					<path class="st1" d="M369.2,287.3c16.9,0,36-3,55.1-6c30.3-6,61.8-14,88.9-14"/>
				</g>
				<g>
					<path class="st1" d="M372.5,287.3c28.1-1,60-7,91.2-14c19.8-4,38-6,54.1-5"/>
				</g>
				<g>
					<path class="st1" d="M375.9,286.3c19.5,0,39.4-2,60.8-6c30.3-7,58.8-12,84.6-12"/>
				</g>
				<g>
					<path class="st1" d="M378.1,286.3c19.5,0,40.8-2,62.4-6c30.6-7,59.4-12,84.4-11"/>
				</g>
				<g>
					<path class="st1" d="M381.4,286.3c24.3-1,50.3-4,78-9c25.9-6,49.1-9,70.1-8"/>
				</g>
				<g>
					<path class="st1" d="M384.8,285.3c16.9,0,35.1,0,55.8-4c32.8-6,64.2-12,92.6-12"/>
				</g>
				<g>
					<path class="st1" d="M388.3,285.3c25,1,56-4,86.5-10c23.3-4,44.5-6,62.9-5"/>
				</g>
				<g>
					<path class="st1" d="M130.3,257.3c9.1,0,13.7,2,21.2,3c21.8,1,43.4,3,68.4,2c31.7-2,60.7-4,95.4-8c13.2-1,27.7-2,39.3-2
						c26.3-2,58.6-8,86.3-11c11.8-1,23.6-2,33.9-2"/>
				</g>
				<g class="st2">
					<path class="st1" d="M127.5,259.3c34,5,72.6,7,118.7,4c43.6-4,85.8-8,127.7-11c37.3-7,69.8-9,102.5-12"/>
				</g>
				<g class="st3">
					<path class="st1" d="M126,261.3c15.1,2,28.9,4,45.6,5c49,2,111.5-5,169.3-9c10.5-1,21.1-2,32.9-3c37.1-5,72.9-11,104-12"/>
				</g>
				<g class="st4">
					<path class="st1" d="M123.7,263.3c52.7,9,125.2,4,203-3c10.5-1,19.8-2,28.8-2c18.4-2,39.8-6,59.6-9c22.2-2,43.3-5,64.1-6"/>
				</g>
				<g class="st5">
					<path class="st1" d="M123.1,265.3c47.9,8,109.2,7,181.9-1c18.4-2,34.1-3,52.5-5c40.6-4,86.9-13,123.1-14"/>
				</g>
				<g class="st54">
					<path class="st1" d="M122,267.3c32.8,8,81.1,7,132.2,3c37.9-3,75.8-7,112.2-9c41.8-8,79.5-12,115.7-15"/>
				</g>
				<g class="st55">
					<path class="st1" d="M120.4,269.3c50.6,10,120.1,6,198.9-3c15.6-1,29.9-1,48.3-4c40.6-6,79.7-12,115.9-14"/>
				</g>
				<g class="st56">
					<path class="st1" d="M118.2,272.3c11.6,1,21.9,3,33.5,4c35,2,70.1,3,114.4-2c33.8-4,61.1-5,94.8-9c11.7-1,23.3-3,37.5-6
						c31-5,59.4-8,86.4-10"/>
				</g>
				<g class="st31">
					<path class="st1" d="M115.5,274.3c41.2,5,86.5,8,142.7,3c35.2-4,69.1-7,101.5-9c44.2-8,88.1-15,126.8-17"/>
				</g>
				<g class="st57">
					<path class="st1" d="M113.4,276.3c41.2,6,89.3,7,146.7,2c33.8-3,65-6,97.4-8c45.3-8,90.5-15,130.4-18"/>
				</g>
				<g class="st58">
					<path class="st1" d="M113,278.3c20.7,4,45.3,5,70,6c41.6,1,92.3-5,140.3-9c11.7-1,23.3-2,34.9-3c46.4-7,91.3-16,131.2-18"/>
				</g>
				<g class="st59">
					<path class="st1" d="M111,280.3c45.4,7,97.5,8,162.3,1c29.8-3,54.4-4,84.1-7c11.6-2,20.5-4,30.9-5c1.3,0,6.4-2,7.7-2
						c5.1-1,10.3-1,15.4-2c2.5-1,6.4-2,7.6-2c25.6-4,48.7-6,71.8-8"/>
				</g>
				<g class="st14">
					<path class="st1" d="M109.4,282.3c54.9,10,126.3,6,206.3-3c11.6-1,23.3-1,34.9-2c14.1-2,28.1-5,42.2-7c35.6-7,67.6-10,99.5-14"
						/>
				</g>
				<g class="st60">
					<path class="st1" d="M108.2,284.3c33.9,7,79.5,7,126.2,5c31.1-2,62-6,94.3-9c3.9,0,9.1,0,13,0c9-1,19.2-3,29.5-4
						c5.1-1,10.2-2,15.3-3c1.3,0,6.3-2,7.6-2c5.1-1,10.3-1,15.4-2c2.5-1,6.3-2,7.6-2c28.1-4,53.6-7,77.9-9"/>
				</g>
				<g class="st61">
					<path class="st1" d="M105.7,286.3c47.4,9,108.4,8,178,1c28.3-3,52.8-4,82.2-8c6.4-1,13.8-4,20.3-4c1.3,0,6.2-2,7.5-2
						c5.1-1,10.2-1,15.3-2c2.5-1,6.2-2,7.5-2c27.9-4,54.5-8,80.1-10"/>
				</g>
				<g class="st62">
					<path class="st1" d="M103.2,289.3c39.3,6,86.2,7,138,4c36.1-3,73.4-7,109.4-10c2.6,0,6.4-1,10.2-2c1.3,0,3.9,0,5.2,0
						c3.8-1,8.8-2,12.6-3c40.5-8,74.9-12,113-17c2.6,0,3.9,0,6.4,0"/>
				</g>
				<g class="st34">
					<path class="st1" d="M101.4,291.3c55.2,8,120.2,7,197.2-2c20.5-2,38.7-2,61.5-6c48-9,94.9-16,139.3-21"/>
				</g>
				<g>
					<path class="st1" d="M387.1,239.3c11.9-7,23.8-14,37-21c1.7-1,2.5-3,4.2-4c11.9-7,22.1-13,32.6-20c14.7-11,29.1-21,43.8-32
						c28.6-20,58.1-36,88-53c6.3-3,13.2-4,19.2-3c35.2,9,72,14,106.4,22c18.7,12,35.3,26,50,42c4.6,5,10.8,9,19.5,10
						c27,4,53.1,7,78.5,12"/>
				</g>
				<g class="st2">
					<path class="st1" d="M387.7,240.3c16.9-9,34.6-17,50.6-27c3-1,6-2,8.2-4c22-15,44.4-28,65.4-44c28.8-16,55.3-33,86.2-48
						c4.7-2,10.3-3,15-2c38.4,7,74.6,13,110,21c16.1,8,29.2,17,41.5,28c7.6,10,18.2,19,34.6,20c24.7,3,49.4,6,73.7,10"/>
				</g>
				<g class="st3">
					<path class="st1" d="M388.4,242.3c43.7-19,86.6-42,123.4-69c29.6-17,58.3-32,91.3-48c6-2,12.9-3,18.9-2c33,7,63.5,14,97.9,18
						c30.5,10,47.3,31,74.9,45c2.2,1,4.3,2,6.9,2c7.3,1,15.1,1,22.9,1c3.9,0,8.2,2,12.1,2c15.1,1,28.5,3,41.9,5"/>
				</g>
				<g class="st4">
					<path class="st1" d="M389.1,243.3c18-5,35.4-14,53.6-22c32.7-14,58-34,88.2-51c25.6-13,50.3-24,77.1-37c6.1-2,14.3-3,20.3-2
						c1.3,0,2.9,2,4.2,2c33.3,6,62.7,12,96.5,17c1.3,0,2.1,1,2.9,2c2.1,1,6,1,8.1,2c13.9,9,29.2,15,42.3,26c2.1,1,3.4,1,5.5,2
						c6.3,6,14,9,25.2,10c24.2,1,47.9,3,71.6,5"/>
				</g>
				<g class="st5">
					<path class="st1" d="M389.8,245.3c22.4-8,45.5-15,67.6-25c13.5-6,25.4-14,38.1-21c36.9-24,73.8-38,114-56c6.2-2,12.9-5,18.8-4
						c37.7,7,74.5,11,108.2,21c23.7,7,41.5,18,61.5,30c5,3,12.3,4,18.3,5c25.4,1,49.1,3,74.5,4"/>
				</g>
				<g class="st54">
					<path class="st1" d="M390.5,246.3c17.9-4,35.6-10,55.1-17c28.4-9,54.9-26,80.1-41c32.4-14,64.7-28,97.9-39c5-2,9.6-1,14.7-1
						c32.1,5,60.3,10,91.9,16c13.1,2,20.7,7,31.5,11c3.3,1,6.7,2,9.5,4c11.5,5,22.3,9,33.3,15c4.1,2,10,3,14.7,4
						c25.6,3,53.1,0,77.4,3"/>
				</g>
				<g class="st55">
					<path class="st1" d="M391.2,248.3c23.2-6,45.8-9,70-19c8.9-4,17.8-8,27.3-13c3.8-2,6.9-5,12-7c10.2-4,17.7-10,28.4-15
						c8.3-3,14.5-7,22.8-10c22.9-8,44.4-16,67.9-25c8.2-3,16.6-4,23.7-3c9.7,1,17.7,5,27.4,6c23.3,2,42.9,6,63.9,10
						c28.8,6,52.8,16,76.8,26c4,2,9.9,3,14.5,4c25.3,1,52.4-1,77.1,1"/>
				</g>
				<g class="st56">
					<path class="st1" d="M391.9,249.3c20.2-3,39.7-7,60.6-13c25.4-7,50.8-22,76.2-35c1.9-1,5.2-2,9.1-4c30.5-13,57-18,86.7-30
						c9.7-3,18.1-4,25.2-3c1.3,0,2.6,2,3.9,2c36.8,7,73.6,10,107.9,19c23.4,6,44.8,13,67.6,20c27.2,0,54.3-2,80.9-1"/>
				</g>
				<g class="st31">
					<path class="st1" d="M392.6,251.3c20.4-3,40-5,61.8-10c14.6-4,30-11,45.4-18c10.8-6,20.8-11,32.2-16c10-5,18.6-8,28.5-11
						c4.6-1,8.5-1,13.8-3c19.9-8,35.5-10,55.3-18c8.6-3,15-3,21.5-3c47.3,8,91.5,15,137.6,25c14.1,4,26.3,7,41,10
						c26.4,5,59.6-2,87.4-1"/>
				</g>
				<g class="st57">
					<path class="st1" d="M393.3,252.3c29.7-3,60.1-2,94.4-19c2.1-1,4.7-1,6.8-2c21.4-9,40.4-20,59.9-25c32.9-9,67.6-22,97.8-26
						c51.9,8,99.2,17,151.8,26c11.4,2,20.3,4,32.5,5c5.7,1,9.4,3,16.6,2c25.5-3,48.3-4,71-5"/>
				</g>
				<g class="st58">
					<path class="st1" d="M394,254.3c24.8-3,44.6,1,73.3-8c20.8-6,41.7-15,64.6-25c10-4,18.6-8,26.8-10c30.6-7,60.4-16,90-22
						c6-1,12.5-1,16.8,0c32.3,6,61.2,10,93.6,16c28.1,5,56.2,7,84.7,10c26,3,59.8-5,88.2-5"/>
				</g>
				<g class="st59">
					<path class="st1" d="M395.1,255.3c20.8,0,40.9,2,66.7-3c11.1-2,22.8-6,35.5-11c10.4-4,19.5-8,30.2-11c6.8-3,12.6-5,19.5-8
						c16.2-6,31.1-8,46.9-11c20.3-5,40.7-10,61.3-14c6.1-1,11.3-1,15.5,0c31.7,6,63.7,9,91,17c27.9,2,56.7,3,84.9,6
						c7.8,0,13.3,1,22,0c25.7-4,49.2-7,72-8"/>
				</g>
				<g class="st14">
					<path class="st1" d="M397.7,256.3c17.5,3,38.1,2,58.9,2c3.9,0,10.2-1,16.3-3c31.7-10,63.7-24,94.4-32c19.8-4,39.9-7,59.7-11
						c12.3-3,22.1-5,33.3-7c8.8-1,14.2,0,20.9,1c29.5,5,58.6,8,83.8,16c40.9-2,74.7,4,116.7,1c25.6-6,46.2-6,69.7-10"/>
				</g>
				<g class="st60">
					<path class="st1" d="M402.6,258.3c23.6,2,42.6,9,78,0c34-9,69.5-26,101.2-31c27.9-4,54.4-9,83.4-14c5-1,9,0,12.9,0
						c29.2,6,59.4,9,87.6,16c7.9,1,17.1,2,27.3,1c34.4-3,61.9-1,95.2-3c27.4-6,51.3-9,75.3-12"/>
				</g>
				<g class="st61">
					<path class="st1" d="M407.5,259.3c14.7,4,34.3,5,50.2,8c32.2-3,74.1-22,110.6-31c5.1-1,10.1-2,15.2-3c29.4-3,58.3-9,87.7-12
						c2.6,0,6.5,0,9,0c31.8,6,64.7,10,94.2,17c33.3-2,65.4-4,98.6-6c29.6-1,66.6-11,98.1-15"/>
				</g>
				<g class="st62">
					<path class="st1" d="M410.3,261.3c5.5,2,14.6,2,18.9,5c8.2,3,18.8,4,30.6,5c10.6,1,25.4-4,40.4-8c5-1,11.1-4,14.8-5
						c16.2-4,33.3-11,48.2-15c5-1,10-2,16.4-3c26.7-3,49.5-6,76.1-9c6.3-1,13.9-2,19-2c34.5,5,66.6,11,98.8,17
						c41.9-4,81.7-6,128.1-13c23.9-3,50.6-11,74.5-14"/>
				</g>
				<g class="st34">
					<path class="st1" d="M413.5,262.3c12.8,6,29,9,46.5,12c19,4,50.2-9,79.5-18c13.4-4,26.9-8,39.4-10c25.5-2,50.7-5,77.3-8
						c5.2,0,12.7-1,17.9-1c34.7,5,63.5,12,99.5,16c2.8,1,8,1,13,0c36.4-5,68-8,105.3-14c28.7-4,59-12,89.4-19"/>
				</g>
				<g>
					<path class="st1" d="M447.4,270.3c30.1-7,58.9-14,88.9-22c7.8-2,14.3-2,19.5-2c29.8-1,62.3-4,86.8,0c33.7,6,54.5,20,94.8,21
						c46.7-9,93.2-18,142.2-29c32.2-8,74.3-27,97.6-25c17,9,32.9,18,45,30c5.3,3,10.6,6,19.7,6c27.3,2,55.9,2,84.5,3"/>
				</g>
				<g>
					<path class="st1" d="M452,271.3c30.1-7,60.1-14,90-21c33.7-2,63.5,0,95.9-1c25.9,8,50.6,16,79.3,23c5.2,1,13,1,20.8,0
						c42.8-7,85.4-17,127.9-25c32.1-10,64.1-21,96.1-30c7.7-2,12.8-2,16.7-1c22.2,8,35.7,21,51.8,33c3.9,1,5.3,3,10.5,3
						c28.6,1,62.2-1,88.3,2"/>
				</g>
				<g>
					<path class="st1" d="M461.1,271.3c25.9-4,55.7-13,84.1-18c11.6-2,22-2,29.8-1c22.1,2,50.5-2,67.5,3c27.5,8,49.9,17,81.4,23
						c9.2,1,22-2,34.9-4c28.3-5,57.8-11,86.1-16c25.6-5,53.4-16,82.5-26c20.3-6,42.9-16,53.4-12c25,7,40.1,19,55.4,32
						c2.8,2,8,3,15.7,2c28.5,0,58.3,0,85.6,1"/>
				</g>
				<g>
					<path class="st1" d="M468.7,272.3c21.8-5,41.1-8,61.5-13c43.5-9,68.6-1,103.5-2c9.1,0,14.5,3,21.1,5c18.9,9,40.2,15,64.1,21
						c5.3,1,10.5,1,18.2,0c38.4-6,75.4-13,113.6-20c33.9-10,66.2-23,102.4-35c10-3,21.2-7,25.3-5c27.7,5,40.7,17,57.6,28
						c4.1,2,8.2,3,12.3,5c6.7,2,15.7,1,24.8,1c25.6-2,46.6,0,71.1-1"/>
				</g>
				<g>
					<path class="st1" d="M474.9,273.3c21.6-5,43.4-8,65.1-13c6.4-1,14.1-2,19.3-2c27.2,0,50.9,4,78.1,4c18.7,5,32.4,12,49.9,18
						c14.6,3,23.3,10,45.1,8c36-3,74.1-10,114.5-19c16.5-3,36.2-11,55.8-19c24.7-9,49.2-19,71.8-24c7.6-1,14.2,0,18.3,2
						c18,9,37.1,16,50.6,28c3,3,9.7,4,18.6,3c29.6-1,59.4-1,87.9-1"/>
				</g>
				<g>
					<path class="st1" d="M484.8,273.3c25.4-4,54.2-11,76.2-11c25.9,0,49.7,3,74.4,4c3.9,0,7.9,1,10.7,2c18,7,33.6,15,54.1,21
						c10.9,3,19.4,7,36,5c33.1-4,67.1-10,99.9-15c41.9-12,84.7-32,129.7-47c7.4-2,16-4,21.4-3c23.7,9,43.9,20,65.4,30
						c5.8,3,13.8,4,23.9,3c29.1-3,52.7-2,79.6-3"/>
				</g>
				<g>
					<path class="st1" d="M491.5,274.3c25.3-4,50.5-8,73.5-10c23.8,3,49.9,4,74,8c17.2,2,26.3,9,38.9,14c19.2,5,30.2,15,57.3,14
						c41.3-8,73.1-5,120.3-21c20.6-7,40.7-16,62.3-24c2.4-1,5.8-3,8.2-4c21.8-7,47.2-21,63.3-18c32.3,6,48.6,21,74.2,31
						c32.4,0,67.7-4,99-3"/>
				</g>
				<g>
					<path class="st1" d="M498.5,274.3c24.4-1,55.2-9,75.2-6c21.3,3,42.3,4,62.5,8c17.5,3,29.2,9,40.8,15c14.1,5,28.2,10,43.4,14
						c34.9-1,72.7-6,112.6-13c9.9-2,20.6-6,30.1-10c5.8-3,10.5-5,16.5-7c2.4-1,5.8-3,8.1-4c22.7-8,43.6-18,65.1-25
						c15.9-9,30.9-11,42.8-10c2.8,1,4.6,3,7.4,4c23.7,7,39.4,18,60.8,26c2.6,0,5.4,1,8,1c29.8,0,66-5,95.7-5"/>
				</g>
				<g>
					<path class="st1" d="M504.7,275.3c15.3-1,30.4-3,45.6-4c9.1,0,17.9-1,25.9,0c24.8,6,58,4,78.4,13c19.2,9,37.2,18,59.6,24
						c7,2,12.8,4,22.9,3c33.7-5,62.6-4,98.7-14c25.3-7,52.4-21,79-32c5.9-2,10.5-4,16.4-6c2.3-1,5.6-3,7.9-4c18.7-7,38.8-18,53.5-16
						c33,7,51.3,21,79.9,30c5.5,1,12,1,19.4,0c29.8-4,54.4-4,82.2-6"/>
				</g>
				<g>
					<path class="st1" d="M509.8,276.3c14-1,29.2-2,42.2-2c33.4-1,56.3,7,86.9,10c5.5,1,11.2,3,15.7,5c18.4,10,38.9,18,60.8,26
						c29.5,3,69-4,104.5-7c3.9,0,10.8-3,15.7-4c48.7-19,92.1-42,143.4-60c5.8-2,12-3,16.2-2c33.1,7,51.8,21,81.9,30
						c2.9,1,9.1,0,12.9,0c31-4,60.1-6,88.2-7"/>
				</g>
				<g>
					<path class="st1" d="M517,276.3c16.8,0,34.6-1,50.5,0c18.7,2,33.5,8,53.2,9c6.8,1,11.3,3,19.1,3c5.2,0,7.1,2,11.3,3
						c24.2,11,44.3,25,76.2,31c27-1,55.9-4,85.1-6c8.8-1,17.2-3,26.2-7c32.9-14,65-30,98.1-43c2.2-1,5.4-3,7.7-4
						c22.8-9,48.4-21,62-15c2.9,1,4.9,3,9.1,4c24,6,40.5,16,62.3,23c8.5,2,19.4,0,30.7-1c27-4,49-4,75-7"/>
				</g>
				<g>
					<path class="st1" d="M523.5,277.3c18.4,1,37.5,0,54.1,3c6.8,1,11.4,3,17.2,5c18.9,6,47.1,5,61.9,14c15.8,8,34.2,16,51.4,24
						c7.6,3,16.1,5,27.8,5c24.3-1,48.3-3,73.6-5c7.4-1,17.1-3,25-6c49.8-23,95.5-46,147.4-66c7.9-3,15.6-3,21.2-2
						c27.2,7,50,16,73.3,26c6,2,12.8,3,22.8,2c32.9-5,61.5-8,89.5-9"/>
				</g>
				<g>
					<path class="st1" d="M528.5,278.3c18.5,1,36,3,53.9,6c1.3,0,2,2,3.3,2c8.5,2,17.9,3,25.5,6c11.5,3,27,3,37.6,7
						c6.3,3,12.3,5,16.4,9c16.4,9,30.7,19,54.4,23c26.7,5,58.9,1,90.6-1c12.6-1,27.6-9,40.7-15c44.3-22,86.8-42,133.4-61
						c7.8-3,14.3-3,19.8-2c29.1,8,53.8,18,82.1,27c4.3,1,11.6,0,16.8,0c31.9-4,60.4-7,90.1-10"/>
				</g>
				<g>
					<path class="st1" d="M534.7,278.3c41.5,7,80.4,17,119.3,27c17.4,11,38,20,57.7,30c4.7,2,11.6,3,18.6,4c23.8,1,50.7,0,77.2-2
						c7.4-1,14.3-3,20.8-6c21.7-10,42.1-20,63.4-31c34.6-16,65.3-32,100.2-44c3.4-1,7.3-1,9.9-1c30.1,7,56.8,15,83.1,25
						c4.8,2,10.4,3,19,2c34-5,64.5-9,94.6-11"/>
				</g>
				<g>
					<path class="st1" d="M539.7,279.3c22.8,5,43.5,11,64.6,18c14.7,4,31.1,6,43.7,11c28.2,11,44.9,28,79.3,35c21.8,5,48.2,3,73.7,2
						c13.8-1,29.3-7,43.3-16c2.1-1,5.6-2,7.7-3c5.1-3,9.4-5,14.5-8c41.3-20,78.6-40,121.1-57c5.5-2,11.5-3,16.7-3
						c32.5,6,57.4,15,84.1,25c4.4,1,10,2,16,1c31.4-2,66.7-9,98.9-12"/>
				</g>
				<g>
					<path class="st1" d="M545.3,279.3c33.4,14,72,25,110.3,35c20.3,13,42.3,24,65.7,35c23.5,3,50.8,3,76.9,3c11.2-1,22.8-4,35-11
						c52.7-28,101.4-53,157-77c7.6-3,14-3,19.7-2c33.1,7,59.4,16,89.7,25c3.1,1,9,0,12.9,0c33.7-5,64-9,96.3-14"/>
				</g>
				<g>
					<path class="st1" d="M549.9,280.3c9.7,4,17.7,10,28.7,14c7.4,2,12.8,5,18.9,7c16.2,4,30.3,9,46.5,13c20.3,7,33.5,18,50.2,28
						c4.9,2,9.8,4,14.7,6c0.5,1,2.3,2,2.8,3c4.9,2,11.1,4,18.9,4c24.4,2,48.1,5,75.6,3c25.8-8,49.3-23,73.7-36
						c34-17,64.6-33,99.1-49c6.2-3,12.4-6,18.3-7c5.9-1,10.6-2,15-1c13.2,3,25,6,38.2,9c16.8,5,32.3,10,49.2,15c7,1,13.5,1,22,0
						c31.7-6,59.8-9,90.7-14"/>
				</g>
				<g>
					<path class="st1" d="M558.6,285.3c10.9,4,20.3,10,31.2,14c11.5,5,23.7,9,36.9,12c30.3,9,50.2,23,72.7,37c2.3,2,7.5,2,9.8,4
						c0.5,1,2.3,2,2.8,3c24,9,60.7,7,90.9,10c18-3,34.9-13,51.1-22c2.1-1,5.5-2,7.5-3c45.5-25,88.5-47,136.4-67c5.4-2,9.8-1,15-1
						c29.7,5,54,12,80.1,20c8,3,17.6,4,29.5,2c32.5-7,62.6-11,93.5-16"/>
				</g>
				<g>
					<path class="st1" d="M568.1,289.3c23.1,16,56.7,24,87.4,34c7.9,3,13.8,7,19.6,11c11.4,10,24.8,16,37,25c5.4,3,11.6,5,19.9,6
						c23.6,3,46.7,5,71.9,6c6.5,0,16.2-4,23.7-7c4.2-2,9.1-5,14.6-7c49-26,95-50,145.3-73c5.4-2,11.6-5,16.8-5
						c37.9,1,64.8,13,98.1,20c5.7,1,10.9,1,18.1,0c33.8-7,66.7-13,98.9-18"/>
				</g>
				<g>
					<path class="st1" d="M575.2,294.3c17.3,9,34.7,18,57,24c3.1,1,5.4,3,8.5,4c3.1,1,8.3,1,11.4,2c6.2,2,11.1,4,15.2,7
						c8.7,7,17.7,12,25.7,20c2.3,2,6.2,2,8.5,4c16,16,47.2,16,77.3,19c10.9,1,20.3,4,33.6,2c6-1,11.4-3,17.7-6
						c54.7-27,105.5-56,162.2-81c7.5-3,16-4,21.6-3c33.1,4,60,11,89.6,18c4.4,1,10.9,1,16.8,0c34.4-8,67.9-13,101.5-20"/>
				</g>
				<g>
					<path class="st1" d="M581.4,299.3c5.9,4,13.8,7,19.7,11c1.8,1,5.7,1,7.5,2c2.3,2,6.7,3,9,5c15.5,5,33,9,47,16
						c19.2,12,32.7,28,55.6,37c0.5,1,1.1,2,2.4,2c29.9,5,56.5,11,91.9,9c2.6,0,7.3-1,10.6-2c48.1-24,91.5-47,139.4-71
						c11.5-5,21.2-11,32.5-14c14.6-4,23.2,0,34.1,1c26.1,3,46.2,9,70.9,14c7,1,14.2,0,21.4-1c34.3-8,66.6-15,98.6-20"/>
				</g>
				<g>
					<path class="st1" d="M587.2,304.3c21.5,11,44.5,20,69.6,28c3.7,2,7.4,4,11.1,6c17.6,13,29.9,28,52.5,36c22,9,51.2,10,79.5,14
						c6.5,0,13.6,1,21.5-1c3.3-1,6.7-2,10.7-4c29-15,54.7-29,83.7-44c24.2-12,46.4-25,73.7-36c3.3-1,7.9-2,10.5-2
						c36.9-1,66.7,6,98,13c4.5,1,10.9,1,16.8,0c37.2-7,73.3-18,107.8-23"/>
				</g>
				<g>
					<path class="st1" d="M593.1,309.3c21.1,12,46.4,20,71.1,29c14.8,12,28.9,25,45.8,36c18.2,11,44.1,13,70.6,16
						c7.1,1,14.8,3,21.9,4c9.7,1,20.1,1,32.1-5c4.7-3,8.7-5,13.9-7c2-1,4.7-3,6.7-4c2-1,5.3-2,7.3-3c4.7-3,8.6-5,13.3-8
						c2-1,5.3-2,7.3-3c33.8-19,65.5-35,100.5-52c11.2-5,22.2-6,31.8-5c28.9,3,53.4,7,81,12c15.5,2,35-4,52.6-9c3.3-1,3.9,0,7.1-1
						c22.8-7,44.1-10,65.5-15"/>
				</g>
				<g>
					<path class="st1" d="M598.5,313.3c17.5,12,39.8,19,62.8,27c3.2,1,5,4,8.2,5c12,9,19.4,19,33.4,27c2.5,2,3.8,4,6.3,6
						c3.8,2,7,5,12.8,6c31.6,7,60.6,16,98.4,16c5.2,0,10.4-2,16.4-5c49.9-26,95-51,145.3-76c5.9-3,12.4-5,17.5-5
						c34.9,0,65.2,5,96.8,10c5.2,0,11,1,16.8,0c36.9-9,73-19,109.2-27"/>
				</g>
				<g>
					<path class="st1" d="M604.6,318.3c17.2,11,39.1,19,61,27c17.3,15,32.7,31,54.7,43c28.6,8,59.1,13,92.3,18c5.2,0,8.5,1,15-1
						c14.3-4,25.9-12,38.9-18c34.2-19,65.8-36,100.6-54c13.5-7,27.6-13,40.6-13c29.7,2,57.6,5,87.4,9c5.8,1,14.2,0,21.3-1
						c36-10,71.9-20,106.5-28"/>
				</g>
				<g>
					<path class="st1" d="M610.7,323.3c2,3,7.8,4,11.7,6c11,7,25.3,11,37,17c22.1,10,32.1,27,50.6,41c2.6,2,7.2,3,9.8,5
						c29.4,9,61.4,14,95.4,20c9.2,2,21.4-3,32.3-8c42.7-23,82.2-45,125.4-67c9.5-5,20.3-10,28.8-9c27.1,0,53.1,2,79.7,5
						c9,0,15,3,25.3,1c39-9,77.2-21,116.6-31"/>
				</g>
				<g>
					<path class="st1" d="M617.3,328.3c13.1,8,27.5,14,43.2,20c18.4,10,27.3,25,42.7,38c3.4,3,8.6,5,12,8c2,1,5.3,2,7.3,3
						c29.6,9,59.1,16,93.8,21c8.5,1,16.9,0,26.4-5c43.1-22,82.2-44,123.8-66c12.6-6,23.9-12,36.2-13c36.2,0,68.1,5,104.3,5
						c3.9,0,8.9-2,13.4-3c34.8-11,69.6-22,103.3-29"/>
				</g>
				<g>
					<path class="st1" d="M624.1,332.3c2.8,4,8,6,12.7,9c12.6,7,29,10,38.5,20c11.1,14,24.8,26,39.1,37c25.3,10,53.5,15,82,22
						c11.8,2,21.9,7,37.3,3c6.4-2,11.4-4,17.1-7c33.2-17,63.7-34,96.1-52c18.1-9,35.9-22,54-22c33.5-2,66.5-1,96.6,3
						c24.4-2,49.2-14,73.8-21c15.1-4,30.3-8,45.9-13c3.1-1,4.4-1,7-1"/>
				</g>
				<g>
					<path class="st1" d="M630.3,337.3c1.4,2,4.7,3,6.2,5c11.5,7,25.3,10,34.4,19c12.6,12,22,25,37.2,37c4.1,2,7.5,5,11.6,7
						c32.6,9,63.9,18,100.3,25c10.6,2,21.9-2,33.1-8c1.9-1,4.3-3,6.1-4c42.8-21,80.2-44,122.9-65c6.3-2,13.1-5,19.6-5
						c32.3,0,63.4,0,95.1,1c5.9,1,14.2,0,22.3-3c36-14,71.1-24,105.6-33"/>
				</g>
				<g>
					<path class="st1" d="M635.4,342.3c9.6,6,18.6,13,30.6,17c17,16,27.2,35,50.5,47c15.1,8,32.4,12,49.1,17c3.4,1,8.6,1,11.9,2
						c14.2,5,28.1,8,44.7,11c9.9,1,22.1,0,31.6-8c43.8-21,83.7-47,128.5-68c6.2-2,13-5,18.2-5c29-1,58-2,85.4,0c9.8,1,20.7,0,31.8-4
						c16.6-7,30.3-11,46.4-17c20.4-7,40.3-13,61-18"/>
				</g>
				<g>
					<path class="st1" d="M641.7,347.3c12.5,8,26.1,14,34.9,24c9.1,12,17.5,23,29,33c11,11,30.2,14,46.5,20c11.4,3,21.5,6,33.5,8
						c20,4,34.3,14,58.2,8c46.5-22,90.4-49,137.7-73c6.2-2,12.4-4,18.1-5c36.5-3,68.6,0,105-3c2.6,0,5.7-1,8.8-2
						c38.6-15,73.8-26,110.8-38"/>
				</g>
				<g>
					<path class="st1" d="M648.2,352.3c23,13,36,33,51.4,51c4.4,4,7.6,8,13.8,11c33.9,15,72.2,24,112.7,34c6,1,13.8,1,20.5-2
						c47.4-22,86.6-46,130.9-70c1.8-1,2.6,0,4.4-1c5.9-4,12.8-5,18.5-6c33.8-3,66.2-3,99-4c8.2-1,16.2-4,24.1-7
						c35.2-14,67.6-25,101.3-36"/>
				</g>
				<g>
					<path class="st1" d="M655.5,356.3c8.1,7,16.2,14,22.6,22c6.6,10,14.3,18,21,28c4.8,6,11.4,11,19.8,15c5.5,2,11,4,17,5
						c29.6,11,60.3,20,92.8,28c6,1,13.8,1,20.5-2c39.1-19,73-38,110.4-59c13.7-7,26.6-15,40.5-17c34.3-4,65.8-5,98.6-6
						c2.6,0,6.9-1,10-2c39.9-16,77.4-30,116.6-42"/>
				</g>
				<g>
					<path class="st1" d="M658.9,361.3c7,4,11.8,10,17.1,15c10.7,15,20.5,29,33.1,43c36.1,19,79.5,31,123.1,43c7-1,13.5-1,21.9-5
						c42.6-21,81.7-43,123.4-65c5.3-3,11.4-5,17.6-7c35.2-6,65.8-5,99.1-7c6.9-1,13.9-2,21.7-5c37.2-16,72.5-28,109-40"/>
				</g>
				<g>
					<path class="st1" d="M663.1,366.3c3.2,4,6.9,7,11.4,11c16.6,19,24.8,42,50,54c33.8,16,67.8,29,107.7,38c10.8,2,24-4,34.7-10
						c36.8-20,72.5-38,109.2-58c22.5-12,44.4-9,68.2-13c3.9,0,9.1,0,12.9,0c12.1-1,22.9-2,34.6-2c5.2,0,12.6-2,18.7-4
						c39.7-16,77.1-30,115.3-43"/>
				</g>
				<g>
					<path class="st1" d="M666.5,371.3c9.8,9,17.9,19,23.7,31c6.8,10,17.2,18,24,28c33.2,20,73.7,33,114.8,45c5.6,2,11.6,3,19.5,0
						c41-18,76.3-38,114.7-59c4.8-2,8.3-4,13.2-6c1.8-1,2.2-2,4-3c6.6-3,13.5-4,19.6-6c8.2-1,16.5-2,24.7-3c21.2-1,41.5-3,62.7-4
						c4.3-1,9.1,0,13.9-2c27.9-10,52.3-21,80.1-31c15.2-5,29.9-9,44.2-15"/>
				</g>
				<g>
					<path class="st1" d="M671,376.3c2.4,3,6.1,6,8.6,9c11.2,17,18.6,34,35.7,47c31.7,26,75.4,38,118.2,52c4.7,1,10.9-1,15.2-2
						c11-4,21.1-9,31.2-14c29.5-16,59.4-30,89.3-47c8.3-4,17.1-9,27.1-11c8.2-1,15.2-2,22.1-3c24.7-3,48.4-4,72.6-6
						c5.6-1,11.3-2,17.3-4c23-8,43.1-18,66-26c17.4-7,34.6-11,50.7-18"/>
				</g>
				<g>
					<path class="st1" d="M674.3,381.3c2.1,1,4.2,2,4.5,4c13.2,21,23.1,41,43.5,58c14.2,11,32.2,17,49.2,25c20.9,8,38.8,17,62,23
						c4.7,1,9.9,1,14.8-1c43.4-18,79.1-39,119.9-60c8.3-4,18.4-9,27.1-11c32.5-6,62.7-7,95.1-10c4.3-1,8.7-2,13-3
						c28.2-11,54.3-23,83.3-33c13.4-4,25.5-8,38-13"/>
				</g>
				<g>
					<path class="st1" d="M679.3,385.3c12,21,23.3,41,40.7,59c19.3,17,47,27,72.6,39c12,5,24,10,36,15c6.4,3,16.4,1,24.8-3
						c45.1-19,83.2-40,125.6-62c10-5,18.7-7,28.2-8c27.2-3,52.3-7,77.4-8c9.5-1,16.4-2,26-6c40.3-18,77.1-31,115-44"/>
				</g>
				<g>
					<path class="st1" d="M683.8,390.3c9.5,21,22.1,41,38.4,59c4.6,4,7.9,8,14.3,11c31,17,60.9,34,97,46c3.4,1,9.9,1,14.8-1
						c38.5-16,70.9-33,107.5-51c1.7-1,3.9-3,5.7-4c9.6-4,17-9,26.1-12c32.5-9,64-10,96.4-13c6.9-1,14.3-3,21.6-5
						c41.1-17,78.7-32,119.6-46"/>
				</g>
				<g>
					<path class="st1" d="M687,395.3c12.4,26,23.5,52,51.5,70c31.4,19,58.6,39,100,48c3.4,1,9.1,0,13.9-2c27.5-12,52-23,77.3-36
						c18.8-10,37.1-19,56.7-28c7.8-3,16.5-5,24.7-6c25.5-2,51-7,76.5-9c4.3-1,8.6-2,13-3c42.4-17,82.1-34,124.3-48"/>
				</g>
				<g>
					<path class="st1" d="M691.5,400.3c5.6,13,10,26,17.4,38c5.4,8,11.2,15,18.8,21c29.2,27,65.1,45,106,61c6.5,3,15.6,0,25.2-4
						c46.6-20,84.5-41,131.4-62c3-1,6.5-3,10.4-3c28.9-4,57-9,85.1-11c9.5-1,19-5,28.5-9c38.4-17,72.4-30,110.3-43"/>
				</g>
				<g>
					<path class="st1" d="M694.8,405.3c5.7,10,7.2,21,12.5,32c15.8,25,38.7,43,67.8,59c3,2,4.7,4,7.7,6c15.9,8,30,17,47.3,25
						c5.6,2,11.7,3,18.2,0c47.8-17,91.4-42,138.2-63c34.6-11,68.3-11,103.6-18c3.9,0,8.2-1,12.9-3c43.1-19,80.5-34,122.6-48"/>
				</g>
				<g>
					<path class="st1" d="M699.2,410.3c4.4,13,7.1,27,15.9,39c8.8,12,16.8,23,30.4,33c28.6,20,55.7,38,88,53c4.3,2,12.6,1,18.6-1
						c44.3-18,81.2-37,123.7-57c13-6,25.1-10,37.6-12c20.7-3,40.6-7,60.4-8c8.2-1,16.4-2,24.1-5c43.9-18,83.8-36,127.2-50"/>
				</g>
				<g>
					<path class="st1" d="M702.9,414.3c3.2,13,7.3,24,11.9,37c6.3,12,17,20,25.9,29c10.7,11,22.2,20,36.4,29c2.2,1,3.5,1,5.6,2
						c15.5,12,31,21,47.5,31c3,2,7.8,3,13.4,2c48.6-16,90.1-40,137.6-60c33.2-14,65.1-16,97.9-20c4.3-1,9.9-2,14.2-3
						c19.8-7,36.5-16,55.4-24c26.1-10,51-20,76.2-28"/>
				</g>
				<g>
					<path class="st1" d="M707.2,419.3c0.3,11,6.6,20,6.9,31c18.6,31,47.3,54,81.4,77c8.6,4,13.8,10,21.2,14c5.6,2,9.5,5,13.4,8
						c5.2,3,14.3,3,22.1,0c49.4-18,93.4-42,139.5-62c30.2-7,59.5-12,90.9-16c8.2-1,14.6-4,22.3-7c40.3-19,78.8-34,119.4-48"/>
				</g>
				<g>
					<path class="st1" d="M710.4,424.3c4.1,14,4.4,28,11.6,41c3.8,6,9.8,10,13.7,16c27,30,62.4,53,97.5,77c11.7,3,26.4-4,39.4-10
						c3-1,4.3-1,7.4-2c9.5-4,16.4-8,25.9-12c3-1,4.3-1,7.3-2c25.9-12,50-23,74.5-35c29.7-9,59.9-13,90.4-18c5.6-1,11.2-2,17.2-4
						c9-3,17.6-8,25.7-12c21.8-9,39.4-17,60.7-25c15-5,29.1-11,43.6-15"/>
				</g>
				<g>
					<path class="st1" d="M714.3,429.3c0.8,10,2.1,19,4.2,29c4.3,14,14.6,23,24.1,34c27.3,27,54.7,51,90.8,73c5.2,3,12.6,1,19.9-1
						c9.1-3,17.2-7,26.3-10c6.5-3,12.9-6,19.4-9c3-1,4.3-1,7.3-2c32.2-15,61-28,91-41c27.1-6,52.5-11,80-15c6.9-1,14.2-3,21.9-6
						c43.1-20,82.2-37,125.3-51"/>
				</g>
				<g>
					<path class="st1" d="M716.6,434.3c2.2,16,1.9,32,11.9,45c16.1,20,34,36,53.7,54c3.1,2,6.1,4,9.2,6c15.8,12,24.7,28,46.9,34
						c3.5,1,10,1,14.7-1c49.4-19,94-39,140.1-60c29.6-9,60.6-12,90.5-19c6-2,12-4,17.9-6c41.6-20,80.2-36,121.9-50"/>
				</g>
				<g class="st32">
					<path class="st1" d="M848.9,194.3c34.5,30,118.4,17,182.1,20c10.4,0,17.9,2,26.7,4c1.3,0,2.4,2,3.7,2c3.1,1,8.3,1,11.4,2
						c17.5,6,33,13,52.7,18c14.7,3,29.5,4,44.2,7"/>
				</g>
				<g class="st12">
					<path class="st1" d="M853.5,196.3c12.5,7,20.8,16,37.9,19c37,4,74.5,4,117.7,0c50.2-3,80.5,15,117.6,26c14.6,3,29.5,4,44.2,7"
						/>
				</g>
				<g class="st59">
					<path class="st1" d="M858.1,197.3c12.3,9,23.8,19,44.8,22c26.9,2,54.1,2,83.4,1c18.9-1,40-5,55.9-2c33.2,4,57.4,15,86.5,23
						c12.6,4,28.8,5,42.2,8"/>
				</g>
				<g class="st63">
					<path class="st1" d="M863.8,199.3c12.1,9,21.4,20,42.4,23c23,2,47.6,2,73,1c21.5-1,44-5,63.9-4c24.3,2,43.6,9,62.2,17
						c19.4,7,42.6,9,65.6,13"/>
				</g>
				<g class="st14">
					<path class="st1" d="M868.4,200.3c10.6,11,22.6,22,45.7,24c35,5,73.6,2,116.2-3c6.5,0,11.6,0,18.1,0c10.9,1,19,4,29.1,6
						c20.9,5,35.6,13,57.3,17c12.1,3,24.3,4,37.2,6"/>
				</g>
				<g class="st64">
					<path class="st1" d="M873,202.3c14.5,11,26.7,25,53.1,26c34.7,2,70,0,110.1-5c17.1-2,28.2,2,41.5,5c10.7,3,21.4,6,30,10
						c18.1,7,43.4,8,64.3,13"/>
				</g>
				<g class="st60">
					<path class="st1" d="M877.6,204.3c13.9,10,24.2,23,48.2,27c35.7,4,78-2,120-6c15-1,23.6,3,36.3,5c19,4,31,12,50.1,16
						c14.1,2,27.6,3,41,6"/>
				</g>
				<g class="st16">
					<path class="st1" d="M882.2,205.3c13.1,11,27,21,45.2,29c33.9,3,72.9-2,112.3-6c41.9-4,60,13,93.8,18c14.1,2,24.1,6,39.7,6"/>
				</g>
				<g class="st33">
					<path class="st1" d="M886.8,207.3c11.2,10,22.5,20,39.7,26c28,12,77,1,118.2-2c12.4-1,22.8-1,32.4,0c21.5,4,36.1,12,57,17
						c12.8,2,26.3,3,39.1,5"/>
				</g>
				<g class="st62">
					<path class="st1" d="M891.4,209.3c17.3,12,29.6,27,57.5,31c17,3,39.7-1,60-2c25.7-3,52.5-9,72.6-5c19.4,5,34.2,11,54.5,15
						c12,3,25.5,4,38.3,6"/>
				</g>
				<g class="st18">
					<path class="st1" d="M896,210.3c4.8,2,5.5,6,9.5,9c3.1,1,5.3,3,7.6,5c1.8,1,3.1,1,4.9,2c0.5,1,2.3,2,2.8,3c1.8,1,3.1,1,4.9,2
						c0.5,1,2.3,2,2.8,3c8.5,4,16.2,9,27.8,9c33.5,2,72.2-6,108.7-8c27.5-2,43.9,7,64,13c3.7,2,10.9,1,15.4,2c10.2,2,21.1,3,30,5"/>
				</g>
				<g class="st65">
					<path class="st1" d="M900.6,212.3c5.2,3,8.4,7,12.8,11c12,9,23.5,17,40.7,23c11.4,2,23.9,1,37.7,0c32.3-3,68-12,95.9-8
						c17.4,1,28.2,7,41.9,11c14.6,3,29.4,4,44.7,6"/>
				</g>
				<g class="st19">
					<path class="st1" d="M905.2,214.3c20.1,13,34.9,31,65.8,36c32-1,66.7-7,101.1-11c9.9-1,18.9-1,25.1,1c23.5,8,49.4,13,78.2,16"
						/>
				</g>
				<g class="st66">
					<path class="st1" d="M911,215.3c9.5,12,24.9,20,39.6,29c10.2,5,20.5,10,36.9,9c33.6-3,71.9-12,102.2-11c16.9,0,28.5,5,42.3,9
						c13.3,3,30.2,3,43.5,6"/>
				</g>
				<g class="st67">
					<path class="st1" d="M915.6,217.3c16.4,16,36.8,29,63.2,38c6.2,2,14.8,1,23.4,0c27.1-3,53.2-8,80.2-11c5.2,0,11.7,0,16.9,0
						c16.6,2,28.7,8,45.4,10c10.9,1,21.8,2,32,4"/>
				</g>
				<g class="st21">
					<path class="st1" d="M920.2,219.3c18.2,15,37.8,30,65.3,39c31.7,1,69.9-9,104.8-12c8.6-1,14.3,0,21.2,1c19.8,6,42.1,9,65.2,11"
						/>
				</g>
				<g class="st35">
					<path class="st1" d="M924.8,220.3c17,16,39.2,29,65.1,39c6.2,2,13.3,3,23.2,2c35-5,71-13,101.4-12c18.9,6,42.8,7,64,10"/>
				</g>
			</g>
		</g>
	</g>
</g>
</svg>
