<?xml version="1.0" encoding="utf-8"?>
<!-- Generator: Adobe Illustrator 25.0.1, SVG Export Plug-In . SVG Version: 6.00 Build 0)  -->
<svg version="1.1" id="Waveform" xmlns="http://www.w3.org/2000/svg" xmlns:xlink="http://www.w3.org/1999/xlink" x="0px" y="0px"
	 viewBox="0 0 1440 700" style="enable-background:new 0 0 1440 700;" xml:space="preserve">
<style type="text/css">
	.st0{opacity:0.8;}
	.st1{fill:none;stroke:#5C0099;stroke-width:0.4;stroke-miterlimit:10;}
	.st2{opacity:0.97;enable-background:new    ;}
	.st3{opacity:0.94;enable-background:new    ;}
	.st4{opacity:0.91;enable-background:new    ;}
	.st5{opacity:0.88;enable-background:new    ;}
	.st6{opacity:0.86;enable-background:new    ;}
	.st7{opacity:0.83;enable-background:new    ;}
	.st8{opacity:0.8;enable-background:new    ;}
	.st9{opacity:0.77;enable-background:new    ;}
	.st10{opacity:0.74;enable-background:new    ;}
	.st11{opacity:0.71;enable-background:new    ;}
	.st12{opacity:0.68;enable-background:new    ;}
	.st13{opacity:0.65;enable-background:new    ;}
	.st14{opacity:0.63;enable-background:new    ;}
	.st15{opacity:0.6;enable-background:new    ;}
	.st16{opacity:0.57;enable-background:new    ;}
	.st17{opacity:0.54;enable-background:new    ;}
	.st18{opacity:0.51;enable-background:new    ;}
	.st19{opacity:0.48;enable-background:new    ;}
	.st20{opacity:0.45;enable-background:new    ;}
	.st21{opacity:0.42;enable-background:new    ;}
	.st22{opacity:0.39;enable-background:new    ;}
	.st23{opacity:0.37;enable-background:new    ;}
	.st24{opacity:0.34;enable-background:new    ;}
	.st25{opacity:0.31;enable-background:new    ;}
	.st26{opacity:0.28;enable-background:new    ;}
	.st27{opacity:0.25;enable-background:new    ;}
	.st28{opacity:0.95;enable-background:new    ;}
	.st29{opacity:0.9;enable-background:new    ;}
	.st30{opacity:0.85;enable-background:new    ;}
	.st31{opacity:0.75;enable-background:new    ;}
	.st32{opacity:0.7;enable-background:new    ;}
	.st33{opacity:0.55;enable-background:new    ;}
	.st34{opacity:0.5;enable-background:new    ;}
	.st35{opacity:0.4;enable-background:new    ;}
	.st36{opacity:0.35;enable-background:new    ;}
	.st37{opacity:0.3;enable-background:new    ;}
	.st38{opacity:0.2;enable-background:new    ;}
	.st39{opacity:0.19;enable-background:new    ;}
	.st40{opacity:0.18;enable-background:new    ;}
	.st41{opacity:0.17;enable-background:new    ;}
	.st42{opacity:0.16;enable-background:new    ;}
	.st43{opacity:0.15;enable-background:new    ;}
	.st44{opacity:0.14;enable-background:new    ;}
	.st45{opacity:0.13;enable-background:new    ;}
	.st46{opacity:0.12;enable-background:new    ;}
	.st47{opacity:0.11;enable-background:new    ;}
	.st48{opacity:0.1;enable-background:new    ;}
	.st49{opacity:9.000000e-02;enable-background:new    ;}
	.st50{opacity:8.000000e-02;enable-background:new    ;}
	.st51{opacity:7.000000e-02;enable-background:new    ;}
	.st52{opacity:6.000000e-02;enable-background:new    ;}
	.st53{opacity:5.000000e-02;enable-background:new    ;}
	.st54{opacity:0.84;enable-background:new    ;}
	.st55{opacity:0.81;enable-background:new    ;}
	.st56{opacity:0.78;enable-background:new    ;}
	.st57{opacity:0.72;enable-background:new    ;}
	.st58{opacity:0.69;enable-background:new    ;}
	.st59{opacity:0.66;enable-background:new    ;}
	.st60{opacity:0.59;enable-background:new    ;}
	.st61{opacity:0.56;enable-background:new    ;}
	.st62{opacity:0.53;enable-background:new    ;}
	.st63{opacity:0.64;enable-background:new    ;}
	.st64{opacity:0.61;enable-background:new    ;}
	.st65{opacity:0.49;enable-background:new    ;}
	.st66{opacity:0.46;enable-background:new    ;}
	.st67{opacity:0.44;enable-background:new    ;}
</style>
<g class="st0">
	<g>
		<g id="Waveform2_10_">
			<g>
				<g>
					<path class="st1" d="M97.3,427.3c18.7-36,42.3-71,80.4-102c46.3-38,98.9-66,160.4-79c64-13,127.5-9,172.6,21
						c24,17,38,38,41.7,64c2.9,19-2,38-12,57c-7.5,14-17,26-25.5,39c-2.6,5-4.9,9-4.9,14c-0.2,6,2.4,11,6.3,16c1,1,0.3,4-1.3,5
						c-19.4,15-57.3,26-50,48c8.6,7,19,12,32.6,15c34.4,8,71,2,108.9-4c1.3,0,2.6,0,1.8,3c3.9,0,1.8,3,4.2,4c4.7,2,11.2,2,16.2,3
						c10.4,0,21.3-2,32.2-4c36.1-9,68.7-25,97-45"/>
				</g>
				<g>
					<path class="st1" d="M94.8,451.3c30.6-84,119.5-164,231.9-193c67.7-17,138.9-13,184.1,21c26,19,37.6,44,36.5,73
						c-2.6,30-25.2,57-44.1,85c-2.1,3-5.7,7-5.5,11c-0.5,7,4.9,11,4.7,17c0.5,8-12.2,12-21.3,17c-1.8,2-4.7,3-7.8,5
						c-12.5,8-19.8,21-11.7,30c15.6,15,43.7,17,69.7,17c10.1,1,19.3,1,30.2-1c17.7-3,33-7,48.9-8c6.8,9,22.7,8,37.5,6
						c42.3-8,78.4-27,111.2-49"/>
				</g>
				<g>
					<path class="st1" d="M92.6,475.3c20.7-66,70.9-131,152.7-175c75.6-41,167.3-56,236-28c45.3,19,71,59,56.8,103
						c-8.1,26-32,48-48.7,72c-6.5,10-1.1,19,1.7,28c-0.3,1-2.1,3-3.6,4c-12.5,8-26.8,13-32.6,25c-3.1,7-2.4,14,2.8,19
						c12.7,11,32.7,14,53,16c27.8,3,55.9,0,85.1-7c6.8-1,13.8-3,20-2c5.7,3,13,5,21.1,4c46.5-4,87.5-27,123.8-52"/>
				</g>
				<g>
					<path class="st1" d="M92.3,491.3c15.7-57,54.4-113,115.6-157c55.8-39,124.5-64,190.6-65c32.2,0,61.9,5,87.1,17
						c27.5,13,45.2,34,52.9,59c5.6,23-0.7,47-18.4,70c-6,8-12.3,17-20.8,25c-5.5,6-10.9,12-14.1,19c-5.2,10-0.9,18,3.3,27
						c-0.3,1-0.5,2-0.8,3c-7,7-16.9,10-24,17c-2.4,4-7,7-6.8,11s0.5,8,2,12c11.6,15,34.3,18,57.1,20c33.3,2,67.6-5,100.9-13
						c4.2-1,7.5,1,11.2,2c13.5,3,28.6,0,42.6-4c32.5-10,62.3-25,87.9-44"/>
				</g>
				<g>
					<path class="st1" d="M91.5,505.3c9.2-38,31.1-75,61.5-110c30.3-35,70.4-63,118.7-84c66-29,135.7-39,193.8-20
						c40.4,13,70.9,39,72.8,76c1.2,15,0.1,29-7.8,44c-11.5,19-25.8,34-40.7,51c-4.2,6-8.4,12-8.7,18c-0.8,8,4.3,13,7.7,20
						c0.5,3-2.6,5-4.5,7c-10.7,6-20.6,14-21.7,23c-1.4,10,5.9,17,16.5,21c42.9,15,97,7,146.4-8c5.5-1,10.1,1,15.1,2
						c4.9,1,12-1,17.2-1c5.5-1,11.2-3,16.9-5c30.4-7,56.6-23,81.8-40"/>
				</g>
				<g>
					<path class="st1" d="M90.9,518.3c16.1-67,67.8-132,146.5-178c58.1-33,125.2-52,187.8-45c48.7,6,89,24,106.8,59
						c11.2,21,9.2,43-1,67c-8.9,19-25.9,34-40.8,51c-4.2,6-8.4,12-10,18c-1.1,9,4.8,16,9.2,24c1,1,0.2,4-1.3,5
						c-9.7,7-19.3,14-19.4,24c0.5,8,6.4,15,14.7,18c43.9,16,99.8,6,151.1-11c2.9-1,5.7-2,8.1-1c10.9,3,23.4,0,35.9-3
						c29.4-8,54-23,77.7-39"/>
				</g>
				<g>
					<path class="st1" d="M90.4,531.3c22-92,118.7-188,245.4-217c78.4-18,161.6-6,192.5,47c16,27,14.4,57-6.6,87
						c-10,13-22.3,25-33.5,38c-11.6,14-11.7,29,1.2,39c0.8,2,2.6,5,0.7,7c-8.6,8-17.6,17-14.8,26c1,1,1.8,3,2.6,5
						c3.3,7,13.2,9,21.5,12c19.5,5,41.6,5,64.5,2c29.7-4,57-14,85.1-22c38.5,2,76.7-20,107.1-42"/>
				</g>
				<g>
					<path class="st1" d="M89.4,544.3c21.3-84,100-170,211.4-208c62.6-21,132.1-25,182.2-1c23.8,12,42.4,29,50.7,51
						c6,16,5,34-1.2,52c-1.9,7-7.4,13-10.6,20c-11.1,17-27.6,30-39.7,46c-10,13-3.2,26,7.3,35c2.1,2,2.3,6,0.2,9
						c-15.2,13-10.5,29,5.1,34c45.4,15,101.9,3,151.7-18c4.4-2,8.6-3,12.8-4c36.9-2,70.8-22,99.4-42"/>
				</g>
				<g>
					<path class="st1" d="M88.4,557.3c10.8-42,34.6-84,72.7-122c22.8-21,45.1-40,72.9-56c44.6-25,93.5-43,143.7-47
						c49.8-3,96.9,4,128.4,30c16.8,14,28.1,29,30.4,49c1.8,17-1.3,33-10.2,51c-10.1,18-27.2,33-42,49c-13.2,15-9.9,31,5.6,41
						c2,2,3.5,6,1.1,10c-9.3,10-5.8,21,3,27c5.4,4,12.9,5,20.2,7c52.2,9,103.1-11,153.8-30c4.4-2,9.9-3,15.1-3c2.9-1,5.7-2,9.9-3
						c26.1-10,50.3-23,69.2-40"/>
				</g>
				<g>
					<path class="st1" d="M87,571.3c11.3-43,34.3-86,73.8-124c22.9-21,44-40,73.2-56c27.3-14,54-26,82.4-35c40.8-12,80.4-15,119-10
						c29.5,5,54.1,14,72.8,30c17.7,15,27.9,34,27.9,57c-0.3,15-3.9,28-12,43c-10.2,18-27.4,33-42.2,49c-15.2,17-6.7,33,10,43
						c1,1,1.5,4,1.2,5c-2,7-5.2,14-0.4,20c2.3,1,3.1,3,5.1,5c5.4,4,12.3,7,19.9,8c46.5,6,94-6,139-28c13.3-6,25.9-9,38.6-13
						c5.7-2,10.5-5,16.2-7c4.4-2,9.2-5,13.6-7c15.4-9,29.6-18,41.6-29"/>
				</g>
				<g>
					<path class="st1" d="M85.8,584.3c19.6-79,90.4-161,194.5-203c51.3-21,102.9-30,152.5-23c17.2,3,33.1,6,46.6,13
						c12.5,6,23.4,13,32.4,22c17.7,15,23.6,35,23.9,57c-1.3,32-28.4,59-53.9,85c-5.9,7-9.2,14-10.2,22c0.8,11,9.2,18,20.5,24
						c2.3,1,4.1,4,3.5,6c-6.1,17,11.9,27,30.8,29c15,2,29.6,1,45.8-1c44.9-7,84-26,123-45c31.3-10,55-30,77.1-49"/>
				</g>
				<g>
					<path class="st1" d="M84.5,597.3c20.3-80,89.9-161,195.8-204c46.9-19,95.7-27,141.3-24c65.6,5,118.1,42,112.9,96
						c-3.2,29-26.2,55-52.9,80c-5.9,7-10.5,14-11.6,22c-0.9,12,8.5,20,21.1,26c2.3,1,4.3,3,5.1,5c1.3,9,3.9,18,14.5,22
						c45.9,17,107.2-2,156.2-28c19.7-10,39.1-19,57.8-30c20.5-13,37.7-28,53.6-43"/>
				</g>
				<g>
					<path class="st1" d="M84.5,597.3c20.3-80,89.9-161,195.8-204c46.9-19,95.7-27,141.3-24c65.6,5,118.1,42,112.9,96
						c-3.2,29-26.2,55-52.9,80c-5.9,7-10.5,14-11.6,22c-0.9,12,8.5,20,21.1,26c2.3,1,4.3,3,5.1,5c1.3,9,3.9,18,14.5,22
						c45.9,17,107.2-2,156.2-28c19.7-10,39.1-19,57.8-30c20.5-13,37.7-28,53.6-43"/>
				</g>
				<g>
					<path class="st1" d="M83.7,611.3c5.2-17,10.1-33,19.2-50c20.4-37,45.4-68,83.2-99c54.7-44,121.5-73,191.6-79
						c38-2,73.2,1,102.6,15c27.2,13,45.8,33,52.7,58c7.9,35-15.6,71-52.1,103c-7.2,7-10.6,14-11.6,22c-1.6,10,5.7,16,13,22
						c4.3,3,11.8,4,13,9c5.3,22,34.8,28,62.6,26c41.5-4,81.6-17,117.8-39c2.9-1,5.8-2,7.4-3c17.4-11,35.6-20,52.2-33
						c20.1-16,35-32,50.5-50"/>
				</g>
				<g>
					<path class="st1" d="M83.1,625.3c21.8-92,120.1-189,247-220c69.9-18,143.6-10,182.4,29c17.9,18,24.1,41,19.3,66
						c-4.6,29-31.1,53-55.1,77c-3.8,4-5.3,9-8,14c-1.5,5-0.4,10,1.1,14c5.8,11,19,15,28,24c3.1,16,26.9,19,45.9,21
						c28.3,1,58-7,86.6-16c23.1-8,43.7-21,64.1-33c42.5-26,74-59,97.2-95"/>
				</g>
				<g>
					<path class="st1" d="M527.3,270.3c-5,4-8.9,9-13.3,11c-6,3-13.8,3-18.4-4c3.4-3,7.9-5,8.7-8c1.8-2,0.1-5-2.2-6
						c-3.6-1-10.3,0-14.8,2c-4.4,2-8.5,7-12.2,11"/>
				</g>
				<g>
					<path class="st1" d="M526.6,271.3c-6,8-20.4,23-33.8,10c-1-1-0.2-4,8.7-8c2.9-1,4.2-6-6.6-9c-8.7-1-17.6,3-24.9,15"/>
				</g>
				<g>
					<path class="st1" d="M524.7,272.3c-3.5,8-9.6,16-26.5,16c-5.2,0-11.4-1-6.2-10c1.6-1,4.2-1,5.8-2c3.7-4,3.6-8-6.2-10
						c-9.7-2-18.9,3-26.7,16"/>
				</g>
				<g>
					<path class="st1" d="M524.2,273.3c-4.7,8-8.1,16-25.8,19c-6.5,0-12.5-2-10.5-9c0.1-5,13-5,6.4-14c-2.8-4-13.4-3-24.1,3
						c-5,4-7.7,9-11.5,13"/>
				</g>
				<g>
					<path class="st1" d="M523.7,274.3c-4.8,8-7,16-25.1,20c-6.8,1-14.6,1-15.2-6c-0.4-3,3-6,8.8-8c4.7-3,4.9-8-2.3-10
						c-11.7-4-27.7,2-36.3,18"/>
				</g>
				<g>
					<path class="st1" d="M522.9,275.3c-5,9-8.7,18-25.3,22c-6.8,1-14.6,1-17.6-7c-0.5-3,2.7-5,8.7-8c4.7-3,4.5-7-2.1-11
						s-16.2-2-27.5,6c-5.3,5-6.7,10-10.8,15"/>
				</g>
				<g>
					<path class="st1" d="M520.9,277.3c-3.4,8-8.4,17-22.8,22c-7,2-15.1,3-21-4c-4.8-6,6.1-8,10.1-13c2.4-4,2.2-8-6.3-10
						c-3.6-1-8.7-1-12.9,0c-12.5,3-19.9,11-24.7,23"/>
				</g>
				<g>
					<path class="st1" d="M520.3,278.3c-2.4,9-7.2,17-21.8,23c-7.3,3-16.7,4-23.1-1c-3.1-3-5.3-9,7.8-14c3.1-2,4.3-6,0.2-10
						c-5.3-4-13.1-4-22.9-1c-11.5,4-17.7,12-22.2,23"/>
				</g>
				<g>
					<path class="st1" d="M519.6,279.3c-3.2,12-14.6,25-34.6,27c-9.1,0-19.7-4-13.2-13c2.4-4,11.2-3,11.1-12c-1.2-5-7.1-7-14.8-7
						c-16.1,2-30.6,12-35,27"/>
				</g>
				<g>
					<path class="st1" d="M519,280.3c-3.5,13-16.1,26-36.4,29c-6.5,0-14-1-16.2-7c-0.9-6,6.4-9,11.4-13s2.5-9-3.1-12
						c-6.9-3-14.9-2-25.1,2c-11.8,5-18,13-21.5,25"/>
				</g>
				<g>
					<path class="st1" d="M517.1,281.3c-1.8,16-23.1,32-45.9,30c-1.5-4-16.5-6-4.8-15c6-3,13.6-7,9.2-14c-5.7-7-19.6-8-33.6,0
						c-11.1,7-16.3,16-20.6,26"/>
				</g>
				<g>
					<path class="st1" d="M516.6,282.3c-3.1,16-21.1,34-45.2,32c-7.5-1-15.2-6-10.3-14c2.2-3,7.6-4,11.1-7c2.1-3,2.3-8-0.7-11
						c-8.6-6-21.8-5-35.7,3c-11.1,7-16.1,15-19.4,26"/>
				</g>
				<g>
					<path class="st1" d="M516,283.3c-2.5,9-6.5,19-19.1,27s-36.1,13-41-2c-0.9-6,9-9,14.1-13c5.9-7-1.5-13-11.2-15
						c-22.6-2-43.4,16-47.4,34"/>
				</g>
				<g>
					<path class="st1" d="M515.3,284.3c-4.7,17-20.3,36-46.4,36c-6.5,0-12.4-2-16.2-7c-1.7-3-0.6-7,4.5-11c3.2-2,8.9-4,9.8-7
						c3.3-7-4-13-14.1-14c-23.2,0-42.8,18-46.8,36"/>
				</g>
				<g>
					<path class="st1" d="M513.6,285.3c-2.3,13-11.3,27-30.4,35c-8.6,3-17,5-25.3,2c-5.6-3-13.6-7-5.8-16c3.2-2,7.3-3,10.8-6
						c5.6-6,2.4-13-5.8-16c-12-3-25.8,0-38.8,9c-9.8,7-15.1,16-17,27"/>
				</g>
				<g>
					<path class="st1" d="M512.9,286.3c-3.4,17-18.2,38-46.1,40c-11.7,0-25.6-6-17.3-17c2.2-3,7.9-5,10-8c8-10-4.2-17-17.1-17
						c-23.5,1-43.6,21-46.6,40"/>
				</g>
				<g>
					<path class="st1" d="M512.3,287.3c-1.7,20-26.9,45-56.9,41c-8.5-2-19.2-10-7.5-19c3.2-2,8.9-4,11.4-8c3.3-7-2.7-13-11.2-15
						c-8.4-2-16.8,0-27,4c-17.9,8-29.6,21-30.5,37"/>
				</g>
				<g>
					<path class="st1" d="M511.4,289.3c-3.6,13-10,27-28.4,37c-12.4,7-26.7,7-37.2,3c-5.6-3-9.1-9-3.2-16c3.5-3,7.6-4,11.1-7
						c3.4-3,3.3-7,1.8-11c-4.4-7-13.9-10-26.4-7c-23.7,6-41.7,23-43.4,42"/>
				</g>
				<g>
					<path class="st1" d="M509.6,290.3c-0.8,17-16.5,36-40.5,43c-8.4,2-16.2,2-23.4,0c-6.9-3-11.7-9-8.4-16c2.2-3,6.6-5,11.1-7
						c9.8-7,6.2-17-3.3-20c-16.6-5-36.7,2-50.9,15c-7.9,9-11.9,18-14.8,28"/>
				</g>
				<g>
					<path class="st1" d="M509.2,291.3c-2.5,18-15.8,38-42.5,45c-11.3,3-24,2-31-5c-4-4-3.3-11,3.4-16c3.2-2,8.9-4,11.1-7
						c4.6-7-0.1-13-8.3-16c-16.3-6-37,3-52.2,15c-10.5,9-14.8,19-15.5,30"/>
				</g>
				<g>
					<path class="st1" d="M508.4,292.3c-1,22-23,45-55,48c-7.8,0-14.3,0-19.4-5c-4-4-9.1-9-0.5-16c6.1-3,13.7-7,13.8-12
						c2.9-10-6.7-17-22.5-16c-29.3,3-53,26-56,49"/>
				</g>
				<g>
					<path class="st1" d="M507.8,293.3c-2.6,14-7.7,28-25.1,39c-12.3,7-25.7,13-40.8,11c-6.2-1-11.9-4-14.6-8c-3.5-6-1.2-14,11.7-18
						c4.5-2,6.9-6,6.7-10c-0.6-7-5.6-12-15.3-14c-13.6-2-28,3-40.7,11c-15.9,10-22.7,24-25.8,39"/>
				</g>
				<g>
					<path class="st1" d="M507.2,294.3c-2.6,14-8.1,29-27,41c-15.8,10-35.4,15-50.1,7c-5.3-4-10.7-8-5.8-16c2.2-3,6.6-5,11.1-7
						c7.6-4,8.3-11,5.9-16c-7.4-10-25.5-10-41.1-5c-24.6,9-38.4,29-41.5,48"/>
				</g>
				<g>
					<path class="st1" d="M505.3,295.3c0.8,25-29.9,56-65.4,53c-9.1,0-17.1-4-19.9-12c-1.9-7,6.4-13,15.3-17c4.7-3,5.9-7,4.5-11
						c-1.9-7-9.7-11-19.8-12c-33.2-1-66.2,27-66.2,53"/>
				</g>
				<g>
					<path class="st1" d="M504.6,296.3c-0.3,25-27.9,55-64.3,55c-11.7,0-24.9-4-24.1-16c0.1-5,7.7-9,13.7-12c10.7-6,7.1-16,2-21
						c-11.9-8-28-6-45.8,2c-25.1,11-37.2,30-37.5,49"/>
				</g>
				<g>
					<path class="st1" d="M503.9,297.3c-2,22-19.3,48-52.7,56c-15.1,3-31.8,2-37.8-9c-1.9-7,1.6-15,13.1-19c7.3-3,10.5-10,7-16
						c-2.8-4-7.1-7-13-9c-12.3-2-25.2-2-38.8,5c-24.1,12-36.4,32-39.2,51"/>
				</g>
				<g>
					<path class="st1" d="M503.1,298.3c-2.4,14-7.7,29-22.8,42c-14.9,12-35.2,20-53.7,16c-12.5-2-25.3-12-11.6-24c3.4-3,7.6-4,11-7
						c12.1-11,1.9-21-11.5-24c-18.2-4-38.5,4-53.6,16c-15.3,13-20.6,27-23.6,42"/>
				</g>
				<g>
					<path class="st1" d="M490.3,276.3c-0.6,17-15.6,35-40.6,41c-10.9,2-20.8,0-25.1-8c-2.5-5,2.4-9,10-13c9.4-6,4.3-16-8-18
						c-14.7-3-28.2,4-40,14c-8.7,8-11.5,18-13,28"/>
				</g>
				<g class="st2">
					<path class="st1" d="M485.5,279.3c-1.8,17-14.5,36-41.8,41c-12,1-27.5-4-19.1-16c4.2-6,17.2-11,9-19c-11.5-10-32.7-3-47.4,8
						c-10,8-12.8,18-14.6,29"/>
				</g>
				<g class="st3">
					<path class="st1" d="M480.6,282.3c-0.6,17-15.9,36-41.6,40c-10.7,1-20-3-20.7-10c-1.2-5,6.3-9,11.3-13c7.1-7-0.4-13-7.6-15
						c-12.4-2-26.4,2-38.2,12c-8.7,8-13.8,17-14.3,28"/>
				</g>
				<g class="st4">
					<path class="st1" d="M474.5,285.3c-0.5,17-14.8,37-42.6,39c-6.5,0-13,0-16.6-6c-3.8-5,0.1-10,8.9-14c7.8-5,4.8-13-3.5-16
						c-7.2-2-15.2-1-25.1,2c-18.7,7-26.5,21-29.4,36"/>
				</g>
				<g class="st5">
					<path class="st1" d="M469.7,288.3c-0.8,13-7,27-27.6,36c-8.6,3-16.7,4-25,1c-3.4-2-6.4-5-6.4-10c0.8-3,5.2-5,9.9-8
						c3.4-3,4.7-8,3-11c-6.1-6-15.6-9-30.2-3c-17.4,7-28.6,19-29.2,35"/>
				</g>
				<g class="st6">
					<path class="st1" d="M464.8,292.3c0.1,14-9.8,27-30.1,35c-7.3,3-15.4,4-23.1-1c-3.3-2-6.1-6-2.1-11c2.1-3,7.9-5,10-8
						c2.4-4,0.9-8-3.4-11c-9.9-6-25.2-2-37.9,6c-9.8,7-15.2,17-15.8,28"/>
				</g>
				<g class="st7">
					<path class="st1" d="M460,295.3c-1.1,9-3.5,18-14.9,27c-11,7-24.3,13-36.7,6c-3.3-2-4.8-6-3.5-11c8.9-4,17.3-11,7.6-18
						c-9.9-6-23.7-3-36.6,6c-9.8,7-14.9,16-15.5,27"/>
				</g>
				<g class="st8">
					<path class="st1" d="M455,298.3c-0.3,16-17,35-41.7,35c-7.5-1-14.2-5-12-13c6.6-5,17.2-11,7.5-18c-5.3-4-11.8-4-21.7-1
						c-17.2,6-27.1,18-28.7,33"/>
				</g>
				<g class="st9">
					<path class="st1" d="M450.3,301.3c-1.6,16-17.1,36-42.6,34c-4.9-1-9.6-3-10.6-9c-0.5-3,4.2-6,8.9-9c6.8-6,0.9-13-7.9-14
						c-22.7-2-41.6,15-43,34"/>
				</g>
				<g class="st10">
					<path class="st1" d="M445.4,304.3c-1.3,15-16.8,35-42.3,33c-4.9-1-9.6-3-9.3-9c-0.5-3,2.6-5,8.6-8c6.5-5,0.6-12-6.9-13
						c-20.8-4-40,14-42.4,32"/>
				</g>
				<g class="st11">
					<path class="st1" d="M439.2,308.3c0.2,9-2.2,18-16,26c-10.4,5-23.8,11-32.5,0c-3.5-6,6.4-9,10.3-14c4.8-8-7-12-17.9-10
						c-17.6,3-30.1,15-32.1,31"/>
				</g>
				<g class="st12">
					<path class="st1" d="M434.3,311.3c0.5,13-9.4,26-30,30c-8.3,2-17.9-1-16.8-10c6.5-5,15.2-13,3.6-18c-6.9-3-16.2-2-25.6,4
						s-14.9,16-16.4,26"/>
				</g>
				<g class="st13">
					<path class="st1" d="M429.5,314.3c-1,9-4.7,18-17.1,26c-7.6,4-15.9,6-25.2,2c-3.4-2-7.7-5-0.9-11c5-4,11.2-8,3.8-14
						c-5.4-4-14.7-3-25.1,2c-10.7,6-15.8,15-17.6,26"/>
				</g>
				<g class="st14">
					<path class="st1" d="M424.6,317.3c-1,9-3.1,17-16.9,25c-7.5,4-14.6,6-23.9,2c-5.7-3-4.3-8,3.5-13c6.8-6,0.9-13-10.7-13
						c-17,1-28.4,14-31.3,29"/>
				</g>
				<g class="st15">
					<path class="st1" d="M419.8,320.3c-2.3,9-4.9,19-19.8,26c-7.3,3-15.4,4-21.8-1c-5.1-5,4-10,6.4-14c3.7-4-0.4-8-9.2-9
						c-16.5-1-30.5,12-33.4,27"/>
				</g>
				<g class="st16">
					<path class="st1" d="M414.9,324.3c-4,10-8.3,26-31.7,26c-5.2,0-11.1-2-9.5-8c0.8-3,6.9-6,9-9c1.1-4-3.2-7-10.7-8
						c-17.5-2-28.3,13-32.1,26"/>
				</g>
				<g class="st17">
					<path class="st1" d="M410.1,327.3c-2.9,11-10.1,24-30.2,26c-5.2,0-12.5-2-9.3-9c0.5-2,6.5-5,7.3-8c2.2-8-10.2-10-21.6-6
						c-10.4,5-16.6,13-18.3,24"/>
				</g>
				<g class="st18">
					<path class="st1" d="M405.2,330.3c-2.1,8-3.1,17-20.2,23c-7,2-13.8,3-18.7-3c-0.5-3,1.6-6,6.3-9c3.4-3,2.1-8-5.3-9
						c-7.2-2-17.3,2-24.4,9c-4,5-4.1,10-6.8,15"/>
				</g>
				<g class="st19">
					<path class="st1" d="M399,333.3c-0.7,8-2.8,16-17.5,23c-6,3-13.8,3-18.4-4c-0.8-2,1.3-5,6-8c3.4-3,2.9-6-5.4-9
						c-7.2-2-17,1-23.1,9c-3.7,4-5.1,9-6.4,14"/>
				</g>
				<g class="st20">
					<path class="st1" d="M394.1,337.3c-2.1,8-4.4,17-20,22c-4.2,1-7.8,0-11.4-1c-8.3-3,1.1-9,3.8-14c3.7-4-0.4-8-13.9-6
						c-11.2,3-17,10-20.4,22"/>
				</g>
				<g class="st21">
					<path class="st1" d="M389.4,340.3c-0.9,8-4.3,16-19.9,21c-5.5,1-12,1-13.9-6c-0.2-4,12-6,4.9-13c-5.3-4-14.9-2-23.7,6
						c-5,4-5.2,9-7.9,14"/>
				</g>
				<g class="st22">
					<path class="st1" d="M384.5,343.3c-1.9,7-4.3,16-20.9,20c-2.6,0-7.5-1-9.8-2c-0.7-2-8.3-3,5.1-9c1.1-4,0.9-8-10.7-8
						c-10.6,1-17.8,8-21.2,20"/>
				</g>
				<g class="st23">
					<path class="st1" d="M379.6,346.3c-1.9,7-4.2,16-20.6,19c-4.2,1-11.7,0-8.5-7c0.6-2,6.3-4,3.8-9c-2.3-1-5.9-2-8.5-2
						c-9.3,1-16.2,7-20.9,19"/>
				</g>
				<g class="st24">
					<path class="st1" d="M374.7,349.3c-3.1,7-4,16-21.4,18c-2.9,1-7.5-1-7-3c-0.5-3,5.7-7,5.2-10c-0.8-2-4.1-4-6.7-4
						c-4.1,1-11.1,3-13,5c-5,4-6.3,9-9,14"/>
				</g>
				<g class="st25">
					<path class="st1" d="M369.9,353.3c-3.1,7-4,15-21.1,16c-2.9,1-5.9-2-5.7-3c-0.5-3,5.5-6,5.1-9c-0.7-2-4.1-4-6.6-4
						c-3.9,0-9.6,2-11.4,4c-5,4-6.4,9-9.2,14"/>
				</g>
				<g class="st26">
					<path class="st1" d="M363.8,356.3c-2.9,6-2.1,13-18.5,16c-2.6,0-6-2-7-3c-0.5-3,4.2-6,5-9c0.3-1-2.8-4-5.4-4
						c-3.9,0-9.6,2-12.7,4c-3.7,4-5.1,9-7.6,13"/>
				</g>
				<g class="st27">
					<path class="st1" d="M359,359.3c-4.2,6,0,15-20.6,14c-2.6,0-6.2-1,0.9-8c1.6-1-0.2-4-2.5-5c-3.9,0-9,0-12.2,2
						c-3.7,4-6.4,9-8.8,13"/>
				</g>
				<g>
					<path class="st1" d="M481.2,298.3c28-23,73.2-36,105.2-22c13,6,22.4,17,17.3,30c-1,5-4.4,9-11.2,11c-9.3,1-17.9-1-26.1,1
						c-21.9,6-29.9,26-24.9,40c7.2,16,25.7,27,50.2,28c31,1,62.2-12,85.3-31"/>
				</g>
				<g>
					<path class="st1" d="M482.6,297.3c28-23,73-35,105-21c13.2,5,21.3,16,17.5,29c-0.8,4-3.1,9-10.1,12c-7.1,3-12.7-1-19.4,0
						c-14.6,2-26.4,9-31.4,21c-5.2,13-1,24,8.9,33c13.4,11,31.9,16,53.1,14c26.4-2,52.1-14,70.8-30"/>
				</g>
				<g>
					<path class="st1" d="M483.7,296.3c30.9-25,86.6-39,116.5-14c11.1,9,12.2,30-6.9,35c-8.4,3-16.8,0-25,2c-23.2,6-28.9,28-22.7,42
						c9.6,17,32.7,25,59.1,23c26.4-2,53-12,71.9-29"/>
				</g>
				<g>
					<path class="st1" d="M485,295.3c23.1-18,53.5-28,82.8-26c24.1,2,48.2,17,40.2,38c-2.3,5-5.7,9-12.5,11c-6.9,2-11.6,0-18.1,0
						c-20.9,1-34.5,17-33.6,32c2.9,18,19.9,30,43,32c31.7,4,66.2-6,89.7-27"/>
				</g>
				<g>
					<path class="st1" d="M487.4,294.3c27.7-22,72.8-35,104.7-20c5.9,3,10.3,7,14.5,12c6.9,11,6,29-14.2,33c-6.9,2-14-1-22,0
						c-18.9,4-27.4,21-24.8,34c3.9,13,15.2,22,31.1,27c33.4,9,73.4-3,99.6-25"/>
				</g>
				<g>
					<path class="st1" d="M488.7,293.3c18.5-15,42.4-25,68.4-26c21.9,0,42.7,6,52.7,21c5.8,10,3.7,28-15.2,32c-6.7,1-14-1-20.5-1
						c-14.4,1-24.6,13-26.5,23c-2.5,13,4.6,23,16,31c34,19,81.9,7,112.5-18"/>
				</g>
				<g>
					<path class="st1" d="M489.9,292.3c21.5-17,52.1-28,81.1-25c16.4,2,32.2,7,38.7,20c4.9,8,4.5,17-1.1,26c-6.9,9-21,8-32.4,7
						c-6.3-1-12,2-18.2,7c-12.7,12-12.9,26-3.3,37c18.2,20,54.4,21,86.4,10c12.5-4,24.3-12,34.7-19"/>
				</g>
				<g>
					<path class="st1" d="M491.2,291.3c32.3-26,89.6-36,116.7-9c8.8,8,9.3,19,3.5,29c-2.2,5-9.3,8-14.8,10c-9.4,2-18.8-3-28.5,0
						c-9.6,3-13.6,10-16.1,16c-13,27,20.1,44,51.3,44c26.2-1,51.5-11,72.4-26"/>
				</g>
				<g>
					<path class="st1" d="M492.5,290.3c27-19,65.5-31,97.1-21c18.2,6,32,22,23.4,40c-2.4,6-8.6,11-16.7,13c-6.7,1-11.5-1-17.7-2
						c-10.2-1-19.3,6-24.5,13c-6,11-5.6,22,3.1,31c27.5,26,85,18,118.6-9"/>
				</g>
				<g>
					<path class="st1" d="M494.9,289.3c23.1-19,55.8-28,85.8-23c13.8,2,24.3,8,31.6,17c5.2,7,7.7,14,3.5,23c-4.1,8-10.9,17-22.4,16
						c-7.8,0-16.3-3-24.6,0c-15.4,6-20.8,21-16.5,32c10.5,20,40,29,69.6,24c20.2-4,38.4-11,53.6-23"/>
				</g>
				<g>
					<path class="st1" d="M496.3,287.3c33.2-25,90.5-35,116.1-6c5.2,7,7.8,14,6.1,23c-2.2,5-5.9,11-11.8,15c-5.9,4-13.9,5-22.6,3
						c-12.2-4-25.4,4-29.8,14c-4.8,12,0.9,23,9.8,31c28.4,22,79.7,12,111.3-12"/>
				</g>
				<g>
					<path class="st1" d="M497.5,286.3c32.8-23,82.5-34,111.6-10c11.1,10,17.4,25,4.7,38c-6.1,5-15,11-23.7,9c-10.9-4-27-1-32.8,9
						s-6.5,21,2.4,29c7.8,7,17.1,13,30.8,16c16.5,2,33.5,2,50.1-4c12.6-5,24.1-11,34.4-18"/>
				</g>
				<g>
					<path class="st1" d="M498.8,285.3c25.2-17,56.6-26,86.6-21c21.2,4,34.5,16,36.5,33c0.8,10-6.2,20-18.8,25c-9.8,4-16.8,0-25.7-1
						c-10.4,0-18.1,7-20.9,15c-3.4,11-0.2,22,10,30c30.1,20,77.3,11,108.5-11"/>
				</g>
				<g>
					<path class="st1" d="M501.2,284.3c28.3-20,71.4-30,102-14c15.1,9,25.4,24,16,40c-5.3,8-17.1,16-27,13c-12.2-4-28.5,0-34.4,11
						c-4.1,8-1.5,15,1.1,22c6.5,14,26.4,19,44.4,20c25.7,2,50.7-7,71.3-21"/>
				</g>
				<g>
					<path class="st1" d="M502.5,283.3c31.2-22,80.6-31,110.1-9c10.2,8,14.5,20,9.6,33c-4.2,9-14.7,17-26.4,17c-6.5,0-11.3-2-17.6-3
						c-10.2-1-18.3,8-20.9,15c-5.3,15,5.3,28,21.1,34c29.1,12,69.5,4,96.2-15"/>
				</g>
				<g>
					<path class="st1" d="M503.8,282.3c25.1-17,60.3-26,91.1-18c24.6,7,38.7,29,24.8,49c-3.1,3-6.2,6-10.5,8c-10.1,6-19.6,1-28.7,1
						c-16.5-2-24.8,15-22.9,26c2.3,9,8.8,16,19.6,21c28.9,13,69.1,6,97.3-14"/>
				</g>
				<g>
					<path class="st1" d="M505,281.3c21.9-14,47.9-22,73.5-21c26.7,2,49.7,18,47.2,40c-0.1,8-6.9,17-18.1,22c-8.3,3-17.2,2-24.4-1
						c-6.1-2-13.1,1-17.9,6c-11,11-7.1,25,1.7,34c25.8,23,75.2,16,107.6-6"/>
				</g>
				<g>
					<path class="st1" d="M507.5,280.3c23.6-16,56-24,84.6-18c21.1,5,34.4,17,36.7,34c0.3,13-11,26-29.5,28c-10.4,0-19.7-6-29.8,0
						c-5.9,4-9.6,10-10.6,16c0.5,12,6.5,22,19.7,28c29.1,12,67.7,7,95.8-13"/>
				</g>
				<g>
					<path class="st1" d="M508.6,279.3c26.3-17,60.1-26,89.5-17c18.3,6,32.9,19,31.3,36c-1.1,14-16.1,26-34.3,26
						c-8.4-4-21.2-5-28.9,2c-11,11-8.3,25,1.8,34c26.3,21,73.8,17,106.1-5"/>
				</g>
				<g>
					<path class="st1" d="M510,278.3c19.3-14,46.3-21,70.5-19c25.6,1,49.2,14,50.8,35c0.2,14-12.5,28-31,30c-10.4,0-19.3-8-29.6-1
						c-16.2,11-9.9,27,0,37c24.8,22,72.8,15,103.5-5"/>
				</g>
				<g>
					<path class="st1" d="M511.1,277.3c21.8-14,49-22,75.6-19c27.7,4,51.9,21,44,45c-4.9,14-24.9,25-40.8,19c-10.8-5-20.9,1-26.2,9
						c-9.6,18,7.3,33,27.1,39c27.4,7,58.3,1,83.1-15"/>
				</g>
				<g>
					<path class="st1" d="M513.7,275.3c20.3-13,44.7-20,70.2-18s48,14,49.7,35c0,8-3.8,15-10.1,22c-9.3,9-25,10-37.4,7
						c-14.9-4-25.2,11-24.3,21c2.3,17,20.1,27,41.7,30c24.2,3,48.8-4,70.4-17"/>
				</g>
				<g>
					<path class="st1" d="M514.9,274.3c34.6-21,88.6-28,113.3,2c7.6,9,8.3,20,2.7,31c-2,4-6.3,7-10.7,10c-11.7,8-24.3,6-35.6,4
						c-16.2-4-22.8,12-21.9,22c1.7,13,14.8,20,28.3,25c26,8,58.2,2,82.7-13"/>
				</g>
				<g>
					<path class="st1" d="M516.2,273.3c26-16,59.4-23,87.4-13c13.5,4,25.3,11,29.8,23c3.4,11,2.7,23-9.1,32c-7.1,4-15.7,9-24.5,7
						c-6.5,0-11.2-3-17.8-2c-18.1,0-21.2,18-16.3,28c17.1,30,73.2,29,108,7"/>
				</g>
				<g>
					<path class="st1" d="M517.5,272.3c31.4-18,77.7-25,105.2-4c9.2,7,13.1,15,14,25c-0.5,11-8.9,23-24,28c-9.6,3-18.1,0-26.9-2
						c-16.3-3-23.1,14-22,23c1.9,12,13.6,20,27.1,25c26,8,57.9,4,82.5-12"/>
				</g>
				<g>
					<path class="st1" d="M519.8,271.3c37.5-24,99.4-24,115.9,10c5.7,13,1.7,30-19,38c-12.5,5-22.2,1-33.5-1c-3.9,0-7.9,1-11,4
						c-14,14-7.5,30,6.7,39c27.3,16,64.7,10,94.5-6"/>
				</g>
				<g>
					<path class="st1" d="M521.1,270.3c28.6-17,65.5-22,94.6-10c13.1,7,23.1,17,23.7,30c0.4,14-13.9,31-34.7,31
						c-7.8,0-16.2-4-24.1-3c-6.8,2-11.5,7-13.6,12c-7.1,20,12.7,34,35.3,39c24.1,4,48.6-3,71.1-14"/>
				</g>
				<g>
					<path class="st1" d="M113.4,291.3c27.2-44,79.9-82,142.3-89c29.4-4,57.8,1,75.9,16c11.4,11,17.9,26,7.6,41
						c-5.7,7-13.9,14-24.8,16c-12.2,2-22.5,2-33.4,9c-12.4,8-20.2,18-21.7,29c-4.4,22,11.8,40,35.4,49c26.3,9,57.5,9,88.2,1
						c53.1-15,96.4-48,119-87"/>
				</g>
				<g class="st28">
					<path class="st1" d="M119.4,293.3c23.5-40,70.5-76,127.5-87c27.1-5,53.9-4,74.3,7c20.4,11,34.2,33,13.4,54c-4.9,4-9.5,7-16.3,8
						c-23.8,2-48.9,14-55.1,33c-8.5,28,14.4,50,46.2,58c29.4,7,61.9,2,93.3-9c45.8-17,80.5-47,99.2-81"/>
				</g>
				<g class="st29">
					<path class="st1" d="M125.1,296.3c19.9-36,60.7-68,108.3-82c40.5-12,86.7-11,106.9,16c7.5,11,8.9,26-4.5,38
						c-9.8,8-21.7,9-33.9,11c-11.1,3-20.4,9-27.4,16c-6,8-9.3,16-10.1,24c0.8,32,36.5,50,76.8,50c33.8,0,67.8-11,96.7-28
						c29.1-18,49.1-41,64.1-65"/>
				</g>
				<g class="st30">
					<path class="st1" d="M129.9,298.3c16.5-28,41.3-53,78.1-70c25.1-12,50.4-20,75.7-18c21.7,1,43.6,6,55.7,19
						c11.1,12,13.5,33-9,45c-10.3,5-21.5,3-33.1,8c-9.1,5-17.1,11-22.8,18c-14.5,21-4.2,41,13.3,54c38.8,26,99.9,16,147-11
						c30.5-18,53-41,67.3-67"/>
				</g>
				<g class="st8">
					<path class="st1" d="M135.6,301.3c20.3-37,59.9-69,110-83c22.2-6,45.7-7,66.3-2c18.1,5,32.2,15,36.1,30c2.3,11-3.6,24-19.4,30
						c-4.1,1-8.3,2-12.4,3c-18.6,2-34.5,13-41.7,26c-2.6,5-4.2,11-4.2,16c2.1,7,2.8,14,6.5,20c9.3,14,25.5,22,46.5,26
						c73.9,11,151-37,178.7-91"/>
				</g>
				<g class="st31">
					<path class="st1" d="M140.1,304.3c24.5-43,76.5-83,137.2-88c28.9-2,58,5,69.6,25c5.2,10,5.4,24-11.1,33c-10.4,5-22,5-32.4,10
						c-16.1,7-27,19-29.1,32c-3.4,23,15.5,40,39.4,48c32.5,10,73.1,4,108.6-13c37.3-19,64.5-45,79.8-75"/>
				</g>
				<g class="st32">
					<path class="st1" d="M145.9,306.3c15.3-28,40.2-53,77.3-71c38.3-18,82.5-24,112.3-5c10.8,8,18.3,19,13.6,32
						c-1.3,5-4.9,9-10.9,12c-10.4,5-21,6-31.1,10c-20.2,8-30.6,23-29.4,38c0.5,13,5.1,25,18.6,33c10.1,6,19.5,10,33.3,12
						c72.9,10,147.4-38,172.3-91"/>
				</g>
				<g class="st13">
					<path class="st1" d="M151.6,309.3c16.4-32,47.2-60,89.2-77c33.1-13,70-16,95.5,0c10.8,8,18.6,18,13.9,31c-2.6,5-6.7,11-14,14
						c-14.2,5-29,7-40.4,16c-13,10-17.7,23-15.7,35c2.6,15,15.3,26,31.6,33c36.4,15,86.9,6,125.2-17c30.5-18,52.1-42,65.1-68"/>
				</g>
				<g class="st15">
					<path class="st1" d="M156.4,311.3c16.5-32,49-61,90.8-77c29.8-10,60.2-13,85.7-2c14.9,7,24.4,20,17.9,35c-2.6,5-9.1,10-16.1,12
						c-17.9,4-35.3,11-45.2,24c-4.5,7-7.6,14-6.9,21c2,7,2.8,14,7.7,20c14,16,37.9,24,65.2,24c64-1,124.6-45,146.9-92"/>
				</g>
				<g class="st33">
					<path class="st1" d="M162.2,314.3c18.6-35,53.4-68,102-81c20.9-6,43.4-8,61.2-2c11.8,4,22.9,11,26.5,22c3.1,8,2.8,19-10.4,25
						c-14.5,6-27.7,7-39.1,16c-13,10-17.7,23-15.7,35s8.7,21,21.2,28c31.4,19,77.2,13,117.2-6c38.3-18,63.3-45,77.4-75"/>
				</g>
				<g class="st34">
					<path class="st1" d="M168.1,316.3c18-42,71.3-81,129.1-85c26.1-1,52.3,7,57.6,26c0.7,7-0.4,16-10.7,21c-17.6,8-38.1,12-48.3,26
						c-4.5,7-7.6,14-6.9,21c2.4,20,19.5,34,43.9,40s51.5,2,77.2-7c44.4-16,77.2-48,92.4-82"/>
				</g>
				<g class="st20">
					<path class="st1" d="M172.5,319.3c20.4-41,70.7-83,129.3-85c22.2-1,44.8,6,52.2,22c3.3,7,2.2,16-7.2,22c-13.2,6-27,9-38.2,17
						c-14.4,10-17.9,23-15.9,35c4.9,30,45.9,42,86.5,36c59.6-9,106-48,123.3-90"/>
				</g>
				<g class="st35">
					<path class="st1" d="M178.2,322.3c18-41,68.1-82,125.4-84c17-1,33,2,44.7,11c9.5,8,12.9,24-3.5,32c-24.9,6-51.8,24-49.8,45
						c2.1,21,21.4,36,48.9,40c68.9,10,140.2-39,158.6-90"/>
				</g>
				<g class="st36">
					<path class="st1" d="M184.2,324.3c15.7-47,85.5-94,146.7-82c11.1,2,18.5,8,24.4,15c4.6,7,4.2,18-7.5,23
						c-20.5,9-43.9,19-48.5,36c-4.9,18,5.1,34,23.4,43c24.1,12,56.9,11,86.8,1c45.8-16,79-49,93.2-84"/>
				</g>
				<g class="st37">
					<path class="st1" d="M188.6,327.3c14.7-34,49.8-67,96-80c19.4-5,37.5-5,54.2,0c14.1,5,28.7,18,14.6,32c-6.5,5-13.5,7-22.1,10
						c-10.4,5-18.3,10-23,18c-2.7,5-5.3,10-6.7,15c-2.3,13,5.4,23,14.6,32c14.9,12,38.8,15,62.8,13c60.4-7,108.8-48,123.9-91"/>
				</g>
				<g class="st27">
					<path class="st1" d="M194.5,329.3c10.2-27,34-52,67.2-69c27.1-14,58.1-19,81.2-9c12.8,5,25.6,20,8.4,31c-15.1,8-32,13-40.7,26
						c-4.2,6-7.4,13-6.8,20c1.6,18,16.8,29,35.7,36c12.2,3,26.2,4,40.8,3c59.1-7,108.8-48,122.6-91"/>
				</g>
				<g class="st38">
					<path class="st1" d="M200.3,332.3c5.2-14,14.4-28,25.8-41c16.7-18,39.4-30,64.6-37c28.3-9,66.1-6,69.9,18c0.2,4-3.5,8-8.2,11
						c-12.5,8-26.3,11-35.5,21s-10.7,20-9.5,30c6.1,25,40.6,37,75.5,33c59.1-7,107.5-48,120.1-91"/>
				</g>
				<g class="st38">
					<path class="st1" d="M397.2,320.3c-14.8,28-60.6,55-96.3,42c-8.1-4-14.6-9-16.4-17c-0.5-8,5.5-16,16.4-18s18.6-7,21.7-14
						c3.9-10-3.9-20-15.7-24c-34.8-10-79.6,13-95.4,43"/>
				</g>
				<g class="st39">
					<path class="st1" d="M393.3,323.3c-9.7,23-37.9,42-69.1,47c-20.3,3-40.6-4-43.1-19c-0.2-9,7.6-19,22.4-21c6.5,0,11.9-6,14.8-12
						c3.9-15-11.8-24-28.3-25c-35.3-3-69.6,19-83.5,46"/>
				</g>
				<g class="st40">
					<path class="st1" d="M390.4,326.3c-12.1,22-35.9,44-68.4,49c-13.5,2-26.3,1-36.1-6c-7.5-6-12.9-15-5.1-25c3.9-5,10.9-7,17.7-8
						c8-1,12.5-8,15.1-13c2.9-11-5.3-19-17.2-23c-36-10-80.8,17-95.4,47"/>
				</g>
				<g class="st41">
					<path class="st1" d="M386.3,330.3c-11.1,23-33.7,45-67.5,50c-13.5,2-26,0-36.1-6s-14.4-19-0.3-28c10.7-6,24.9-6,26.8-18
						c0-5-0.2-9-3-13c-8.9-10-24.9-13-42.5-10c-31.3,6-57.5,26-67.8,49"/>
				</g>
				<g class="st42">
					<path class="st1" d="M383.6,333.3c-11,27-44.9,52-81.5,53c-18.2,0-34-9-32.4-24c0.6-7,10-13,21.2-16c13.8-3,16.3-17,10.7-25
						c-8.9-10-24.8-13-42.4-10c-33.6,5-56.6,27-68.6,51"/>
				</g>
				<g class="st43">
					<path class="st1" d="M379.2,337.3c-9.4,26-40.8,52-77.8,54c-18.5,1-34.5-7-35.9-21c0.1-10,12.1-16,23.3-19
						c11.4-4,12.8-14,9.5-21c-5.3-14-27.4-18-48.1-13c-30.3,7-54.6,29-63.6,52"/>
				</g>
				<g class="st44">
					<path class="st1" d="M376.6,340.3c-11.3,33-60.7,67-101.2,53c-8.3-3-11.5-10-13.5-17c-1.1-10,12.2-16,23.7-20
						c10.4-5,11.6-14,8.4-21c-8-13-28.9-17-49.6-12c-30.6,8-53.7,30-63.2,54"/>
				</g>
				<g class="st45">
					<path class="st1" d="M372.3,344.3c-7.4,23-30.4,46-61.4,55c-18.3,5-34.6,3-46.7-5c-7.2-7-11.4-20,3.8-28c4.4-2,8.3-2,12.8-4
						c10.7-6,11.9-15,8.6-22c-10.3-19-43.3-16-67-5c-22.8,12-40.5,29-46.3,49"/>
				</g>
				<g class="st45">
					<path class="st1" d="M369.8,347.3c-6.7,20-19.6,39-46.3,51c-25.1,11-55.9,14-67.7-4c-1.5-4-1.6-8-0.5-12c1.2-9,13.2-10,21.1-15
						c4.4-2,6.6-5,9-9c4.1-10-3.7-19-14.2-23c-15.3-5-34.3-2-53.3,6c-25.4,12-40,31-47.2,51"/>
				</g>
				<g class="st46">
					<path class="st1" d="M365.6,351.3c-4.9,23-26.7,46-57,57c-23,8-51.1,6-57.7-12c-2.6-9,4.3-20,19.2-22c12.3-7,14.4-19,8.6-26
						c-10.8-12-34-12-53.8-6c-31.3,10-51.2,34-59.2,57"/>
				</g>
				<g class="st47">
					<path class="st1" d="M362.8,354.3c-6.4,19-18.1,38-41.4,52c-23.1,13-54.1,17-70.7,2c-6.1-6-6.1-15,2.6-23c6.9-6,17.5-7,22.1-14
						c3.3-7,2.4-13-2.7-18c-15.1-15-45.9-11-69,2c-23.2,13-37.8,32-42.3,52"/>
				</g>
				<g class="st48">
					<path class="st1" d="M358.9,358.3c-5.7,30-40.8,63-84.2,65c-14.3,0-25.6-6-30.8-15c-4.2-8,2.9-19,17-23c10.2-4,14.3-14,11.2-21
						c-4.9-10-16.4-15-30.8-14c-41.3,0-78.2,33-84.8,64"/>
				</g>
				<g class="st49">
					<path class="st1" d="M354.8,361.3c-3.5,27-28.3,56-65.9,65c-16.7,4-33.4,3-44.1-5c-6.1-6-9-14-2.5-23c3.7-4,11.1-7,16.8-9
						c7.6-4,9.3-10,9.7-16c-0.8-11-12.2-16-24.6-18c-18.8-2-37,3-54.4,14c-20.9,14-35.6,33-38.9,53"/>
				</g>
				<g class="st50">
					<path class="st1" d="M351.9,365.3c-3.8,23-19.4,47-50.6,61c-20.7,9-45,12-60.1,1c-3-3-4.2-8-5.6-12c-2.6-9,9.8-16,20.3-21
						c12.6-8,10.9-20,1.3-27c-15.2-10-37.7-8-59.7,1c-30,14-47.2,37-51.7,61"/>
				</g>
				<g class="st51">
					<path class="st1" d="M347.9,368.3c-0.4,20-13.4,39-34.7,55c-16.1,11-36.2,18-56.5,16c-9.8-2-17.8-6-23.9-12c-4.8-6-4.5-16,6-21
						c15-7,25.6-17,18.4-28c-14.6-21-54.3-13-80,4c-21.3,15-35,35-35.8,55"/>
				</g>
				<g class="st52">
					<path class="st1" d="M345.3,371.3c-1.9,30-31.2,65-75.1,73c-8.1,1-16.9,0-24.4-1c-11.1-2-18.2-9-19.2-19c0.5-6,3.2-11,10.9-15
						c7.3-3,13.1-5,16.1-11c6.1-12-3.9-22-17.3-25c-7.4-1-16.2-2-24.2-1c-43.7,8-74.3,41-75.9,72"/>
				</g>
				<g class="st53">
					<path class="st1" d="M340.7,375.3c-2.3,23-14.1,48-44.3,64c-22.7,12-52.4,16-68.1,2c-6.1-6-6.5-14-0.4-22c5.3-5,12-6,17.3-11
						s6.6-10,4.4-16c-5.2-14-25-17-43.9-14c-43.6,8-71.7,43-74.1,74"/>
				</g>
				<g>
					<path class="st1" d="M342.4,291.3c4-14,14.5-28,34.6-35c12.7-4,26.5-7,35.9,1c4.1,4,7.3,11-0.8,17c-3.1,2-8.6,3-11.8,5
						c-10.3,9-2.4,18,8.4,21c27.5,4,55-16,62.2-38"/>
				</g>
				<g>
					<path class="st1" d="M344.9,290.3c6.5-18,25.6-35,51-38c8-1,15.2,1,20.5,5c4.1,4,7.6,10-0.8,17c-3.1,2-8.6,3-11.8,5
						c-10,8-2.4,18,8.4,21c27.3,5,56-15,61.9-37"/>
				</g>
				<g>
					<path class="st1" d="M348.2,290.3c4-14,16.8-27,35.8-35c13-5,26.2-6,35.6,2c4.1,4,7.6,10-0.8,17c-3.1,2-8.6,3-11.7,5
						c-10,8-2.4,18,8.5,21c27,6,55-16,63.2-37"/>
				</g>
				<g>
					<path class="st1" d="M351.7,290.3c3.1-15,18.2-27,37.3-35c15.9-6,33.4-4,39.1,8c2.9,8-7.8,14-17.4,16c-10.3,9-2.5,18,8.4,21
						c25.9,5,55.5-13,63-36"/>
				</g>
				<g>
					<path class="st1" d="M355.7,289.3c6.4-18,25.4-35,51.8-37c8-1,15.2,1,20.6,5c3.1,3,4.5,7,3.2,12c-1.6,6-11,7-17.2,11
						c-6,3-6.9,11-0.5,16c8.5,7,21.2,8,35.6,3c17.5-7,31-19,36.5-35"/>
				</g>
				<g>
					<path class="st1" d="M357.7,289.3c6.6-14,18.1-27,38.4-35c13-5,25.6-4,35.3,3c3,3,4.5,7,3.2,12c-1.6,6-11,7-17.3,11
						c-7.6,4-5.9,12-0.8,17c5.4,4,11.6,5,20.7,5c25.2-2,45.1-18,52.7-37"/>
				</g>
				<g>
					<path class="st1" d="M361.5,288.3c5.3-14,19-26,38-34c13-5,25.6-4,35.3,3c3.1,3,4.6,7,3.2,12c-1.6,6-11,7-17.2,11
						c-7.6,4-5.9,12-0.8,17c8.8,6,21.5,7,35.6,3c18.5-6,32.3-19,37.8-35"/>
				</g>
				<g>
					<path class="st1" d="M365,288.3c8.5-21,36.4-42,65.7-36c10.8,3,18.7,12,6.9,22c-5,4-13.8,3-17,10c-2.7,5-1.2,9,2.9,13
						c5.4,4,12.7,6,20.5,6c25.2-2,46.1-17,54-37"/>
				</g>
				<g>
					<path class="st1" d="M368.3,288.3c7.6-22,39.3-43,67-36c8.2,3,14.3,9,10.8,17c-2.7,5-11,7-17,10c-12.3,7-5.5,20,5.6,22
						c26.7,7,57.8-12,66.5-35"/>
				</g>
				<g>
					<path class="st1" d="M370.8,287.3c8.7-21,37.4-40,65.7-35c11,2,18.9,11,10.9,21c-5,4-12.8,4-17.8,8c-7.7,9-1.5,19,11,21
						c27.2,5,55.5-13,65.4-35"/>
				</g>
				<g>
					<path class="st1" d="M374.3,287.3c7.6-18,27.2-33,52.8-37c11.9-1,22.7,2,26.7,11c1.5,4,0.5,8-3.2,12c-5,4-12.7,4-17.7,8
						c-7.6,9-1.2,19,11,22c27,6,55.6-14,65.2-36"/>
				</g>
				<g>
					<path class="st1" d="M377.7,287.3c5.2-14,19.1-27,37.8-34c15.8-6,36.2-5,41.8,8c1.3,5,1,11-7.9,15c-4.2,1-9.6,2-13,5
						c-5.5,6-3.5,13,1.7,18c8.5,7,22.9,7,37.2,2c18.4-6,29.6-19,38.3-33"/>
				</g>
				<g>
					<path class="st1" d="M381.4,286.3c8.5-21,37.3-41,66.6-35c8.5,2,14.6,8,13.8,16c-0.8,3-3.2,7-8.9,9c-10.9,2-19.3,9-16.3,17
						s13.7,12,26.9,11c23.9-2,45.8-16,53.6-36"/>
				</g>
				<g>
					<path class="st1" d="M383.8,286.3c7.8-14,18.9-26,40.1-33c12.7-4,27.2-5,36.9,2c6.4,5,8.7,16-4.1,20c-10.1,4-19.5,10-16.5,18
						c4.3,8,12.1,13,26.7,12c23.9-2,46-17,53.5-36"/>
				</g>
				<g>
					<path class="st1" d="M387.2,286.3c9.1-14,18.2-28,40.5-34c16.6-4,35.9-4,41.5,9c2.3,6-2.7,15-16.5,18c-8,1-10.2,9-9.2,15
						c3,8,13.7,12,26.9,11c25.2-2,46-17,54.9-36"/>
				</g>
				<g>
					<path class="st1" d="M390.9,285.3c8.9-18,30.5-35,55-35c11.9-1,22.7,2,26.7,11c2.3,6-2.7,15-16.5,18c-8,1-10.2,9-9.3,15
						c4.5,12,25.1,13,41.8,9c19.5-5,31.2-20,40-34"/>
				</g>
				<g>
					<path class="st1" d="M394.2,285.3c9.7-21,39.8-41,69.1-35c9.8,2,15.4,10,13.3,18c-1.3,5-7.6,9-17.2,11c-8,1-10.2,9-9.2,15
						c3,8,15,12,26.9,11c23.7-1,46.8-15,55.9-35"/>
				</g>
				<g>
					<path class="st1" d="M139.1,257.3c19.6-35,60.3-67,111.4-75c17.3-2,34-2,49.5,3c18.9,7,34.2,23,22.9,42c-2.3,4-8.5,8-12.9,10
						c-14,4-28.5,5-40.1,15c-20.2,18-18.1,40-0.6,53c15.6,10,33.9,15,56,15c57.5-1,113.7-39,135.7-81"/>
				</g>
				<g class="st2">
					<path class="st1" d="M136.4,259.3c19.9-31,53.4-60,96.5-72c26.3-7,53.7-8,75.3,3c13.7,7,21,19,17.4,33c-2,8-10.3,15-20.9,16
						c-20.2,3-36.7,12-45.5,26c-9.8,18-3.6,34,13.1,45c19,12,41.9,14,68.7,11c55.1-7,100.1-42,121.4-81"/>
				</g>
				<g class="st3">
					<path class="st1" d="M135.1,261.3c17.5-32,53-59,96.7-73c22.5-7,45.7-7,66-1c17.8,6,32.3,20,28,37c-3.8,15-26.3,17-41.8,22
						c-32.9,12-37.5,45-18.2,61c14.1,11,32.1,17,52.6,18c20.8,0,42.6-4,64.1-12c37.7-16,64.9-42,81.1-71"/>
				</g>
				<g class="st4">
					<path class="st1" d="M133.8,263.3c20.7-34,58.8-66,109.2-76c32.5-6,63.7-2,79.2,18c6.5,10,6.8,24-7.4,34c-7.5,4-15.5,5-23.5,6
						c-30.3,7-43.7,34-34.4,53c11.2,22,42.7,31,74.5,29c58.2-4,112.9-41,133.8-84"/>
				</g>
				<g class="st5">
					<path class="st1" d="M132.5,265.3c18.6-31,52.1-60,94.3-73c39.2-12,92.1-7,99.4,25c1.8,8-1.8,17-10.8,22
						c-16.3,8-33.1,8-46.1,18c-8.5,8-14.8,17-16.1,27c-1.3,15,8.3,28,23.2,36c8.3,3,15.4,6,24,8c15.1,2,30.7,2,46.8,0
						c54.5-10,99.3-44,119.4-83"/>
				</g>
				<g class="st54">
					<path class="st1" d="M131.1,267.3c19.7-35,60.1-66,109.5-77c25.8-5,50-4,69.1,7c12.4,7,19.7,19,15.1,32c-2.8,6-6.9,12-15.5,15
						c-14,4-28.5,5-39.8,14c-11.4,9-16.8,20-17.1,31c3.2,43,69.8,52,119.6,35c44-15,79.8-44,95.9-78"/>
				</g>
				<g class="st55">
					<path class="st1" d="M129.6,269.3c13.9-28,42.2-52,78.7-68c34.6-14,72.3-20,100.1-3c11.1,7,18.1,15,17.6,27
						c-0.7,8-5.1,15-15.4,20c-11.4,4-23,4-33.6,10c-18.1,10-26.4,27-24.8,41c3.4,22,27.6,34,55.5,37c66.9,8,137.4-35,161.4-85"/>
				</g>
				<g class="st56">
					<path class="st1" d="M128.2,272.3c23.8-46,88.9-87,150.7-82c26.3,3,50.9,18,46.3,41c-1.5,6-6.7,11-14.2,15
						c-11.6,5-23,4-33.6,10c-9.3,6-18.9,13-22.8,23c-6,13-3.6,24,4.2,34c12.8,16,36.7,24,62.8,24c63.7,0,125.9-41,149.1-88"/>
				</g>
				<g class="st31">
					<path class="st1" d="M125.6,274.3c22-39,68.8-74,125.1-82c30.7-4,60.1,2,72.8,23c5.2,10,3.7,21-7.7,30c-9.3,6-19.7,6-29.5,9
						c-18.4,6-31.1,20-34.7,34c-4.4,27,20.8,45,53.3,50c21.3,3,42.9,0,65.2-6c47.7-14,84.2-46,102-81"/>
				</g>
				<g class="st57">
					<path class="st1" d="M124.3,276.3c18.6-31,49.6-60,92.3-75c38.2-13,85.9-13,105,13c5.4,9,5.2,20-2.3,29c-8.8,9-23,9-34.4,13
						c-32.6,11-43,41-28.5,60c14.8,18,41.1,27,71.3,26c22.4-1,44.4-6,66.4-16c11.9-6,21.2-12,32-19c9.8-8,18.3-16,27-25
						s15.1-19,20.4-30"/>
				</g>
				<g class="st58">
					<path class="st1" d="M122.9,278.3c20.7-39,67.2-73,121.4-83c17.5-3,34.1-2,49.8,2c12.9,5,25.3,12,30.2,23c3.1,8,2.1,17-5.1,25
						c-8.5,8-22.7,8-34.1,12c-22.8,8-36.5,26-35.7,43c2.4,26,31,41,62.8,44c69,5,138.4-39,162.7-90"/>
				</g>
				<g class="st59">
					<path class="st1" d="M121.7,280.3c26.5-51,106.3-99,171.2-81c17,4,29.9,14,32.8,28c1.3,10-4.6,23-19.9,27
						c-12.4,3-24.6,5-35.5,12c-20.5,14-26.2,36-16.1,52c21.4,33,75.5,35,122.2,20c46.9-16,83.1-47,99.8-83"/>
				</g>
				<g class="st14">
					<path class="st1" d="M120.3,282.3c23.9-46,86.3-87,149.3-86c28.1,1,56,13,56.3,37c0.3,9-8.5,18-19.9,22c-12.7,4-24.6,5-35.4,12
						c-11.1,8-20.5,19-22,30c-4.1,36,41.7,55,85.4,52c63.7-5,123.5-47,143.9-93"/>
				</g>
				<g class="st60">
					<path class="st1" d="M118.8,284.3c21.9-43,77.5-82,136.6-86c26.3-2,51.8,4,64.5,20c10.9,13,6.5,35-19.1,39
						c-25.9,5-48.4,22-52.1,41c-1.3,10,0.2,19,5.9,27c21.6,27,68.4,32,111.6,21c52.9-14,93.1-50,114.2-88"/>
				</g>
				<g class="st61">
					<path class="st1" d="M116.3,286.3c21-35,59.5-68,108.4-82c37.7-11,81.8-7,98.1,20c7.5,11,1.9,28-16.3,33
						c-15.3,4-29.2,8-41.9,17c-14.8,12-20.2,28-16.1,42c11.7,30,54.9,44,99.9,36c61.3-11,111-49,133.6-93"/>
				</g>
				<g class="st62">
					<path class="st1" d="M114.6,289.3c11.6-19,25.5-37,46.5-53c22.3-16,45.9-27,73.3-33c31.5-7,64-3,82.8,14c8.3,8,10.3,20,3.6,31
						c-7.2,13-26.6,13-42.4,19c-30.6,13-39.2,41-26,60c19.8,29,67.6,35,112.1,24c55.3-13,97.2-51,118.6-90"/>
				</g>
				<g class="st34">
					<path class="st1" d="M113.4,291.3c26.9-52,101.3-99,172-88c18.3,4,33,12,38.4,26c3.9,10,0.3,24-12.9,30c-12.9,5-27.4,6-39.6,13
						c-21.5,13-29.6,34-22.4,51c7.3,17,24.2,27,46,33c29.4,7,62.2,1,93.8-11c44.6-17,79.6-48,96-83"/>
				</g>
				<g>
					<path class="st1" d="M400,239.3c3.1-42,25.8-85,67.6-121c53-46,126.5-69,194.7-57c48.1,10,79.3,39,89.6,75
						c-1.5,19-15.7,37-33.4,53c-20.5,17-45.2,23-69.8,35c-3,2-4.8,4-7.8,6c-4.1,1-7.1,3-10.2,5c-1.5,1-2.8,1-4.1,1
						c-16.7,5-16.3,21-10.5,30c6,8,15.1,14,26.2,17c30.8,8,65.9,8,100.1,0c43.7-10,80.7-31,112.2-57"/>
				</g>
				<g class="st2">
					<path class="st1" d="M401.5,240.3c5.1-50,39.1-102,96.4-138c57.2-36,132.6-50,189.8-29c34.5,13,53.4,39,64,67
						c0.6,21-17,42-38.4,57c-19.9,14-44.8,21-67.8,31c-6.5,6-15,9-22.8,15c-12.6,10-6,21-0.2,30c7.1,9,19,14,32.6,17
						c72.4,14,154.5-17,206.2-64"/>
				</g>
				<g class="st3">
					<path class="st1" d="M402.6,242.3c6.4-44,33.1-86,79-122c15.9-13,32-21,50.6-29c53.5-25,112.7-30,160.2-12
						c18.8,8,31.9,19,42.9,33c8.9,12,11.2,25,16.1,38c-1.7,25-26,47-56.6,62c-20.4,10-44,11-59,26c0,0-1.5,1-2.8,1c-1.5,1-2,3-3.5,4
						c-1.3,0-2.8,1-2.8,1c-16.8,17-3.8,34,12.4,43c23.1,13,53.2,12,82.7,8c57.5-7,110.2-34,147.9-70"/>
				</g>
				<g class="st4">
					<path class="st1" d="M404.1,243.3c10.8-62,67.1-125,147.8-155c52.1-19,109.3-21,151,0c33.3,18,52.4,48,44.7,82
						c-13.5,31-56.4,49-95.2,60c-15.2,4-29.6,16-30,29c-2.3,27,32,42,64.3,43c71.1,2,144.7-31,190.2-78"/>
				</g>
				<g class="st5">
					<path class="st1" d="M405.4,245.3c7.4-31,22.2-60,48.3-88c15.7-17,34.3-30,55.5-43c63.2-38,147.4-51,202.8-17
						c27.9,19,43.5,47,35.4,77c-4.8,21-30.5,37-56.1,47c-5.6,2-9.8,3-15.4,5c-12.4,3-24.5,5-34.7,10c-7.6,5-12.9,11-15.8,18
						c-8.5,20,8.6,36,27.7,43c76.4,30,178-17,230.8-73"/>
				</g>
				<g class="st54">
					<path class="st1" d="M406.9,246.3c7.4-25,20-50,38.5-73c12.9-16,29-29,47.7-42c40.8-30,92.6-47,143.2-48c15.5,0,30.5,2,45.2,5
						c4.7,2,10.9,3,15.6,5c36.3,16,59.6,49,51.4,84c-4.6,20-29.1,36-53.5,46c-5.7,2-9.8,3-15.4,5c-10.8,2-20.4,4-31.5,7
						c-15.2,4-24.8,17-24.8,28c0.4,26,27.6,43,59.4,46c78.3,10,161-33,208.1-86"/>
				</g>
				<g class="st55">
					<path class="st1" d="M408.3,248.3c14.8-55,62.5-107,132.1-138c59.2-26,126.6-33,173.9-4c21.2,14,32.7,31,35.3,53
						c0.6,14-0.3,29-12.4,42c-15.4,16-37.2,26-60.4,31c-13.4,2-27.9,3-40,10c-12.3,8-15.4,21-12.6,31c4.8,18,22.3,32,45.8,37
						c81.2,20,180.7-28,226.9-88"/>
				</g>
				<g class="st56">
					<path class="st1" d="M410.1,249.3c5-15,12.7-30,21.6-45c12.2-18,26.6-34,46-50c23.8-18,48.2-33,76.7-44
						c45.4-17,94.6-23,135.6-11c45.7,14,71.3,53,56.4,94c-6.1,15-23,26-41.8,34c-17.2,7-33,8-50.6,11c-20.2,3-31.3,17-30.8,31
						c1.8,25,26.5,41,56.1,48c34.8,7,71.3,1,106.6-11c49.7-18,91.9-49,118.4-85"/>
				</g>
				<g class="st31">
					<path class="st1" d="M411.5,251.3c22.9-65,92.3-125,179-147c28.8-7,57.4-8,84.8-4c12.2,3,23.3,5,33.7,10
						c36.9,18,51.8,53,36.6,89c-3,7-8.1,12-14.7,18c-8.2,7-19.5,11-29.5,15c-19.8,7-39,6-58.4,11c-23.4,11-23.4,32-14.1,47
						c15.2,23,44,33,76.2,34c81.2,3,164.3-46,206.2-103"/>
				</g>
				<g class="st57">
					<path class="st1" d="M413.4,252.3c16.1-38,43.6-75,86.9-103c18-10,35-21,54.8-28c13.9-4,27-10,40.7-13c32.4-6,65.2-8,95.5,0
						c51,13,77.1,60,49.9,103c-5.8,8-15.1,14-25.3,19c-21.9,10-41.3,10-64.1,13c-18.9,3-28.8,17-29.2,29c1,33,36.4,53,75.7,57
						c87.8,8,178.9-47,219.5-109"/>
				</g>
				<g class="st58">
					<path class="st1" d="M415,254.3c19-44,55.6-86,110.5-114c20.6-10,38.1-18,60.3-24c40.2-11,81.7-12,116.4-1
						c44.1,15,65.9,58,40.6,98c-14.7,23-51.4,30-79.9,30c-10.4,0-21.7,4-29.9,11c-10,9-12.7,20-10,30c14,43,77.7,59,138.1,46
						c71.5-16,132.6-60,162.9-111"/>
				</g>
				<g class="st59">
					<path class="st1" d="M416.7,255.3c11.6-25,29.2-48,51.6-70c27.1-25,58.8-43,95.9-57c56.9-21,121.1-25,163.1,3
						c28.6,20,36.1,53,16.8,84c-7.9,11-18.1,21-33.3,25c-16.5,4-33.6,5-49.2,5c-14.5,1-29.5,9-34.8,20c-14.8,28,7,50,33.7,63
						c7.3,2,13.1,5,20.4,7c31.8,8,67.7,5,102.6-5c65.9-20,117.8-63,147.4-111"/>
				</g>
				<g class="st14">
					<path class="st1" d="M418.5,256.3c21-41,56.4-78,107.3-105c17.8-9,35.3-17,53.6-23c56.2-18,120.6-18,156.8,13
						c22.2,20,27.2,52,7.3,80c-8.4,13-24.6,21-42.5,25c-19.1,4-36.8-3-55.7,5c-20.7,10-27.8,28-22.5,43c12,35,58.5,52,105.8,50
						c88.9-2,173.6-62,208.5-126"/>
				</g>
				<g class="st60">
					<path class="st1" d="M421.4,258.3c23.1-54,83.8-99,153.2-123c60.8-21,134.5-22,168.9,16c11,13,15.8,30,12.9,47
						c-1.2,5-3.8,10-5,15c-2.8,6-8.2,12-13.5,18c-3.8,5-10.3,10-18.8,13c-19.9,7-37.3,4-57,5s-35.4,17-38.9,31
						c-4.5,18,4.4,34,19.6,46c25.9,21,64.8,27,106.3,22c88.3-10,162.1-68,194.1-131"/>
				</g>
				<g class="st61">
					<path class="st1" d="M423.7,259.3c28.8-56,94.2-104,167.7-124c53.9-14,111.9-14,147.4,14c14.8,13,22.5,29,20.4,48
						c-2.9,17-10,35-29.8,47c-3.1,2-7.2,3-10.3,5c-17,6-34.2,2-51,2c-19.7,1-35.7,13-43.1,27c-11.5,25,5.5,45,26.7,59
						c38,25,94.1,24,144.9,8c71.9-23,127.1-74,153-128"/>
				</g>
				<g class="st62">
					<path class="st1" d="M425.2,260.3c25.9-50,82.6-94,148.9-116c53.6-18,111.6-23,154.8,0c38.7,21,45.4,72-2,101
						c-15.2,9-32.8,7-48.9,4c-12.5-2-25.4,3-36.2,10c-9.5,7-15.5,15-20.3,24c-3.1,7-2.2,14-1.2,20c6.7,30,38.6,48,77.1,55
						c48.7,8,99.3-2,145.7-27c53.8-29,89.4-69,111.5-112"/>
				</g>
				<g class="st34">
					<path class="st1" d="M427.1,260.3c22.3-41,63.9-77,117.9-101c59.8-27,128.6-39,179.3-15c21.8,11,35.6,28,35.1,51
						c0.7,13-4.9,25-14.1,36c-10.3,10-24.4,20-41,19c-15-2-28.5-5-43.8-1c-29.7,10-46.7,36-41.6,57c9.1,36,53.5,56,100.9,59
						c34.6,2,70.2-5,104.8-19c66.6-28,113-75,135.6-126"/>
				</g>
				<g>
					<path class="st1" d="M479.6,270.3c24.9-53,70.5-101,133.7-137c79.2-44,182.7-56,245.6-12c26.4,19,37.4,54,8.5,83
						c-1.8,2-5.9,3-7.7,5c-10.2,10-20.3,20-34.2,24c-19.6,6-38.7,10-54.5,22c-11,8-17.6,19-20,29c-4.3,23,6.4,43,22,59
						c11.4,12,16.1,25,31.8,35c20.5,12,43.8,18,69.6,19c19.3,1,39.3-1,58.6-6c87.9-20,161.6-74,204.3-135"/>
				</g>
				<g>
					<path class="st1" d="M482.3,271.3c33.2-65,98.3-129,185.5-158c70.2-23,153.2-25,197.7,15c15.7,15,22.6,35,14.9,56
						c-6.4,16-26.1,28-39.9,42c-14.9,8-32.4,11-49.4,17c-4.4,2-9,5-13.4,7c-25.9,16-29.4,41-23.9,61c5,22,26.1,37,36.8,57
						c31.5,31,91,38,146.1,25c88.2-21,161.6-74,203.3-136"/>
				</g>
				<g>
					<path class="st1" d="M485.1,271.3c31.7-64,95.9-124,179.3-153c63.5-22,133.1-27,184.5,0c29.7,16,47.3,50,21.9,80
						c-6.9,7-13.7,14-22.2,22c-4.6,3-9.2,6-13.8,9c-26,11-57.8,14-72.2,36c-16.5,25-12.7,52,4.4,72c10.5,10,15.4,22,24.4,33
						c24.9,26,70.8,35,116.3,30c101.4-11,188.6-72,236.1-142"/>
				</g>
				<g>
					<path class="st1" d="M488.8,270.3c36.3-67,107.9-131,200.3-155c56.6-15,115.1-17,159.8,6c28.4,16,47,46,25.7,75
						c-6.3,10-14.9,19-25.1,29c-14.6,12-34.2,13-51.2,19c-15.7,6-27,15-35.1,27c-4.8,9-7.2,19-8.1,28c-2,24,14.9,40,29.7,59
						c2.9,4,4.8,7,6.4,11c27.9,35,88.2,44,144.4,32c41.2-9,78.5-24,113.8-47c41.4-27,74.6-58,97.3-94"/>
				</g>
				<g>
					<path class="st1" d="M491.9,270.3c26.4-43,61.3-84,113-115c7.5-4,13.6-8,21.1-12c72.4-37,160.5-49,222.6-18
						c26.5,13,42.6,37,33.5,64c-3.7,10-12.1,18-20.8,27c-1.8,2-2.5,5-4.3,7c-7.1,8-17.6,14-30,17c-19.1,4-38.7,10-52.2,23
						c-23,25-21,54-5.6,76c9.8,13,19.9,25,29.7,38c22,27,67.4,33,109.3,32c103-12,197.1-75,242.8-148"/>
				</g>
				<g>
					<path class="st1" d="M496.4,270.3c24.1-44,65.2-84,117-115c49.9-29,109.1-44,164.3-43c23,1,43.9,5,64.1,12
						c15.3,6,27.3,15,35.7,28c7.2,13,11.8,26,4.2,41c-6,14-15.4,26-28.7,38c-11.3,9-26.2,12-39.9,15c-15.2,4-28.8,12-38,23
						c-11.5,15-15.4,31-14.1,47c2,13,8.4,24,16.3,34c3.2,3,5.3,5,8.4,8c10.1,12,14.4,26,30.4,35c25,15,54.7,21,87.7,19
						c105.5-6,203.4-74,249.6-149"/>
				</g>
				<g>
					<path class="st1" d="M499.6,270.3c35.2-57,93.5-109,170-136c60.5-20,126.7-27,177.8-4c24.2,12,40.2,31,39.5,55
						c-1.1,15-14.3,27-22.7,40c-4.3,7-12,12-20.7,16c-21.4,8-46.5,10-61,27c-5.9,8-11.7,16-15,24c-9.2,27,1.5,52,21.7,70
						c1.1,1,1.9,3,2.7,5c2.1,2,5.5,4,6.3,6c3.3,13,15.9,20,28.2,28c12.6,7,26.2,10,42.3,13c30,5,61.9,2,92.7-7
						c37.3-9,71-25,101.9-46c40.4-28,70.2-61,94-96"/>
				</g>
				<g>
					<path class="st1" d="M502.9,270.3c24.4-40,61.8-75,109.1-104c50.1-30,108.3-46,163.8-46c31,0,59.4,5,82.8,20
						c21.3,13,31.9,33,27.8,55c-10.1,15-15.8,33-34.3,45c-15.1,9-30.7,9-46.6,16c-14.7,7-22.3,17-28.9,28c-21.6,35-2.3,67,23.2,90
						c16.4,39,77,52,133.8,43c103.7-15,185.4-80,226.8-151"/>
				</g>
				<g>
					<path class="st1" d="M506.1,270.3c36.6-52,90.1-100,161.2-126c58.2-21,121.6-27,172.8-10c32.1,11,55.4,37,45.5,67
						c-11.2,14-13,32-32.3,42c-13.1,6-25.5,9-37.9,12c-46.1,24-56.7,72-32.7,101c2.9,4,6.3,6,9,11c1.9,3,6.6,5,8.4,8
						c24.3,49,103.9,59,171.1,39c86.8-26,156.2-83,193.4-147"/>
				</g>
				<g>
					<path class="st1" d="M509.1,271.3c23.7-32,52.1-62,89.4-87c71.3-47,167.3-70,241.3-46c31.1,10,57.4,34,46.2,64
						c-3.8,10-9,21-15.4,31c-7.4,9-19.5,16-31.9,19c-8.3,2-17.8,4-25.3,8c-1.8,2-4.6,3-7.7,5c-3.6,4-8.5,8-12,12
						c-7.7,10-14,20-17.8,30c-6.3,20-1.9,39,10,54c11.3,12,21.3,24,31.1,37c22.7,24,66.7,30,107.3,29c105.9-13,201.6-82,243-158"/>
				</g>
				<g>
					<path class="st1" d="M513.6,271.3c37.9-52,96.4-99,168.1-122c60.3-19,127.5-25,176.8,0c15.8,9,25.8,21,31.1,36
						c5.1,16-7.1,34-16.2,50c-8.4,13-27.7,18-44.7,24c-26.8,9-40.6,33-49.4,53c-5.5,17-3.3,34,6.2,48c11.9,15,24.2,28,37.7,42
						c20.1,24,60,31,99.7,28c110.7-6,205.8-83,248.8-160"/>
				</g>
				<g>
					<path class="st1" d="M516.7,272.3c25.5-34,60.6-65,101.9-90c15.2-9,30.9-15,46.9-22c55.9-22,114.6-30,166.8-17
						c32.8,8,59.9,29,59.2,58c-6.3,15-7.9,32-24.3,46c-9.5,7-20.8,11-33,13c-25.5,14-43.9,36-52,58c-6.3,20-0.6,39,12.5,54
						c10.3,11,19.7,20,28.4,32c21.1,25,63.1,34,104.4,30c109.9-8,207.6-85,246.9-163"/>
				</g>
				<g>
					<path class="st1" d="M520,272.3c33.8-41,76.6-77,133.3-102c70.8-30,152.7-43,210.3-10c18.2,10,31.3,25,29.1,44
						c-1.7,12-7,23-12.5,35c-1.8,2-3.6,4-5.6,7c-1.8,2-4.9,4-7.7,5c-1.5,1-1.8,2-3.3,3c-7.2,3-12.9,5-19.8,7
						c-22.4,7-32.1,25-45.9,39c-12.6,14-15.2,30-13.8,45c2.8,20,17.3,35,33.3,49c6.1,7,10.6,15,18,22c23.9,19,61.7,24,98.4,23
						c110.8-12,205.7-88,245.3-167"/>
				</g>
				<g>
					<path class="st1" d="M523.3,273.3c10.1-9,17.8-19,26.9-29c27.1-25,55.5-45,91.1-63c34-17,66-26,102.1-31
						c44.3-7,86.6-6,120.6,13c16.9,10,28.1,22,30.3,39c0.7,13-5.1,26-10.9,39c-1.8,2-3.6,4-5.6,7c-7.2,8-18.5,12-29.8,16
						c-19.9,7-29,23-42.6,36c-7.2,8-10.5,16-13.8,24c-8.8,25,0,47,17.8,64c11.8,10,19,23,30.8,33c33.9,26,89.3,28,139.6,14
						c94.7-26,168.9-92,202.5-162"/>
				</g>
				<g>
					<path class="st1" d="M527.3,275.3c31.8-38,72.3-70,124.9-94c69.8-31,148.7-42,208.2-17c14.3,10,28.6,20,33.6,36
						c3.2,13-3.9,26-7.1,39c-1.2,5-5.1,10-10.2,15c-4.9,4-11,8-18,10c-6.7,1-12.6,4-17.5,8c-9.5,12-23.6,22-33.1,34
						c-11.3,14-17.6,29-17.5,44c0.1,10,4.8,17,7.8,26c5.3,10,15.2,17,24.9,25c6.1,7,10.8,14,16.9,21c35.5,30,100,32,155.2,14
						c90.4-30,157.7-94,190.9-162"/>
				</g>
				<g>
					<path class="st1" d="M530.3,276.3c25.8-30,58.4-56,97.6-78c74.7-40,170.3-61,236.6-27c16.1,8,28.6,20,31.1,36
						c1.7,14-1.8,28-10.4,42c-1.8,2-3.8,5-5.6,7c-2.8,1-4.6,3-7.7,5c-7.7,5-17,6-25,12c-3.3,3-4.3,7-6.4,10c-15.9,17-36.7,33-43,53
						c-4,16-4.1,32,5.4,46c8.7,12,22,21,32.5,31c17.6,34,73.6,44,125.3,35c111-18,196-96,228.9-174"/>
				</g>
				<g>
					<path class="st1" d="M533.6,277.3c32.6-36,75.2-66,126.3-89c55.2-24,111.9-34,166.6-26c19.9,3,37.7,9,50.5,20
						c9.4,9,19,17,18.3,30c0.9,17,0.9,38-20.5,51c-7.5,4-16,7-22.4,12c-3.6,4-5.1,10-8.7,14c-15.9,17-36.8,33-43.1,53
						c-10.9,33,16.1,55,39.4,76c4.2,4,6.6,10,10.8,14c28.3,22,71.1,28,116,20c110.2-20,192.6-98,225.9-177"/>
				</g>
				<g>
					<path class="st1" d="M541.1,281.3c30.5-33,65.9-60,112.9-82c60.1-28,121.1-40,180.5-30c22.2,4,40.6,13,52.6,27
						c3.9,5,7.8,10,8.9,16c1.7,14,2.1,28-5.3,42c-6.1,9-16.4,14-28,19c-6.2,4-10,9-11.5,15c-1,4-5.9,8-9.2,11
						c-18.7,18-37.3,35-38.9,57c-1.4,16,2.4,32,14.9,44c11.8,10,19.7,20,28.6,31c11.3,12,27.8,19,47.3,24c6.3,1,12.5,2,18.8,3
						c16.7,1,33.3,2,52.3-1c15-3,27.2-5,41.5-10c91.2-33,160.3-99,187.4-169"/>
				</g>
				<g>
					<path class="st1" d="M548.6,285.3c66.8-74,189.7-131,295.1-109c15.8,4,29.5,11,39.9,21c5,6,9.9,12,12.1,19c1.6,9,2,18,2.1,28
						c-0.6,13-12.7,25-29.4,30c-4.4,2-7.7,5-10,9c-4,16-21.2,28-33.5,41c-23.1,25-24.1,55-6,76c10.2,11,18.2,21,28.2,33
						c11.9,15,30.7,23,55.7,27c23.7,4,45.8,4,70.2,0c7-2,13.7-3,20.7-5c98-29,173.4-100,201.5-174"/>
				</g>
				<g>
					<path class="st1" d="M556.1,289.3c64.8-71,177.9-125,280.6-108c28.7,4,51,18,57.4,39c5.3,15,11.4,32-5.5,48c-2.8,1-4.6,3-7.7,5
						c-7.5,4-17,6-18.8,13s-4.5,13-8.6,19c-8.7,9-18.5,17-27.2,26c-14.4,16-18.9,34-15.3,51c3.8,16,16.6,27,27.4,41
						c2.9,4,4.5,8,7.4,12c25.3,29,76.7,37,125.7,28c111.5-20,195.6-100,224.8-179"/>
				</g>
				<g>
					<path class="st1" d="M563.6,293.3c62.9-69,180-124,278.7-106c15.3,6,32.1,11,42.3,22c11,13,15.3,27,16.5,43
						c0.7,13-14.5,22-29.1,29c-1.5,1-4.6,3-5.1,5c-2.2,14-11.6,26-23.4,37c-8.2,7-14.9,13-19.2,20c-4.8,9-8.1,17-9,26
						c-2.9,22,9.8,39,23.8,56c2.9,4,3.2,8,6.1,12c29.3,34,91.3,41,146.8,27c18.1-5,35.4-12,54.2-20c17.8-9,32.9-18,48.3-28
						c20.7-16,40.1-32,56.1-50c20.2-25,35.5-51,47.1-78"/>
				</g>
				<g>
					<path class="st1" d="M571,297.3c51.8-56,131.1-99,215.7-107c38.1-3,73.8,4,97.2,24c10.2,16,27.5,35,12,56c-1.5,1-3.3,3-5.1,5
						c-6.7,6-17.2,7-20.3,14c-2.2,9-2.9,17-10.1,25c-12,12-26.2,22-33.5,36c-4.8,9-8.1,17-9,26c-1,25,16.9,42,27.3,63
						c21.1,25,62.4,37,104.5,35c66-4,126.7-35,174.5-77c37.7-33,59-68,74.5-106"/>
				</g>
				<g>
					<path class="st1" d="M578.5,301.3c47.9-51,118.7-91,199.1-103c26.8-4,52.3-3,73.8,4c4.7,2,8.3,3,13,5c8,4,16.1,8,20.8,15
						c1,1,0.5,3,1.6,4c9.2,10,17,20,16.4,33c-0.4,12-11.6,21-26,27c-1.5,1-2,3-3.8,5c-2.8,6-0.4,12-3.1,18c-5.8,13-19.4,21-29.9,32
						c-19.7,22-23.3,47-11.6,68c11.1,18,14.2,37,34.7,49c23.9,14,53.4,21,85.1,19c120-7,223.1-96,250.2-183"/>
				</g>
				<g>
					<path class="st1" d="M586.5,304.3c65.4-69,199.7-131,286.5-86c13.8,12,30,25,32,43c0.1,10-7.8,21-21.9,26c-5.7,2-6.9,7-6.3,10
						c-0.9,9-3.1,18-9.3,27c-31.8,24-50.4,57-36.8,86c0.6,3,4,5,4.8,7c5.9,18,14.5,36,33.9,47c4.7,2,10.5,5,15.2,7
						c29.8,11,65.5,14,102.6,6c107.4-25,188-102,213-180"/>
				</g>
				<g>
					<path class="st1" d="M593.9,308.3c49.2-51,124.1-92,202-99c25-2,48.5,2,68.2,11c16.1,8,27.3,20,38.3,33c2.6,5,2.7,10,2.8,15
						c-0.4,12-14.8,18-24.5,26c-1.8,2-2.8,6-2,8c3.8,11-3.1,23-13.1,32c-21,17-34.6,35-34.6,56c-1.1,20,6.7,36,15.2,54
						c18.4,31,62.2,43,107.2,40c120-7,222.2-98,247.8-184"/>
				</g>
				<g>
					<path class="st1" d="M601.5,312.3c48.4-48,118.1-89,193.4-96c22.4-2,43.6,1,62.5,8c15,7,28.3,16,40,26c8.4,8,10.8,19,5.5,30
						c-4.1,6-11.3,9-17.7,14c-1.5,1-3.3,3-3.8,5c-1.5,6,3.5,12,0.7,18c-1,4-0.7,8-4.2,12c-20.2,19-41.7,38-43.5,61
						c-1.1,15,3.5,28,8,41c0.6,3,1.1,6,1.7,9c17.9,38,71,55,127.6,47c117.2-17,206.2-102,230.8-184"/>
				</g>
				<g>
					<path class="st1" d="M609.4,315.3c36.3-36,85.3-66,138.6-83c7-2,13.7-3,20.6-5c5.4-1,12.1-2,17.5-3c17.3-2,34-2,50,1
						c28.2,6,52.5,17,67,37c2.6,5,3.7,11,2.3,17c-2.8,6-8.1,12-16.9,16c-4.4,2-5.6,7-5.1,10c0.8,2,1.6,4,2.1,7c-0.2,1,2.1,2,1.8,3
						c0.9,7-2.2,14-7.5,20c-7.4,9-16.9,16-25.6,25c-10.7,12-16.3,24-15.6,37c-1.6,17,2.2,33,8.6,49c16.5,33,63.3,49,112.2,46
						c43.6-3,85-18,122.7-40c62.3-38,105.8-90,121.4-145"/>
				</g>
				<g>
					<path class="st1" d="M617.1,319.3c19.4-20,42.9-36,68.9-52c16.8-10,33.8-16,52.6-24c30.1-12,59-14,88.2-12
						c24,2,43.4,12,62.9,22c10.1,6,16.9,15,16.8,26c-0.4,7-6.1,14-16.4,19c-7.7,5-2.7,11-0.1,16c6.6,15-8.8,30-25,43
						c-10,9-14.6,17-19.7,27c-7.6,20-3.3,39,2.4,58c8.2,35,54.4,53,101.2,53c45.3,1,92.1-15,132.7-38c65-38,106.4-92,123.5-147"/>
				</g>
				<g>
					<path class="st1" d="M624.8,323.3c7-7,13.7-13,22-20c17.6-13,33.6-25,54.2-35c22.2-11,42.5-20,65.7-25c25.8-5,52.3-8,75.3-2
						c25.3,7,54.8,13,63.7,34c1.6,4,1.9,8-0.7,13c-2.3,4-4.6,8-9.2,11c-2.8,1-5.7,2-6.2,4c-2.5,5,0.1,10,3,14c4.8,12-1.1,25-14.2,36
						c-18.2,16-32.6,32-32.2,51c0,5-2.8,11-1.4,16c2.4,11,2,23,7.1,34c4.2,9,10.3,16,19.2,22c7.9,5,14.4,10,24.1,13
						c15.4,6,34.2,9,52.1,10c64.8,1,128.8-27,179-68c42.4-36,67.5-76,80.2-118"/>
				</g>
				<g>
					<path class="st1" d="M633.1,326.3c24.3-24,53.6-42,87.7-59c26.6-13,53.9-19,81.3-20c37.9-2,76.4,4,99.4,25c1.8,3,3.4,7,5.2,10
						c2.6,5-1.2,10-3.8,15c-3.3,3-9,5-11.3,9c-0.8,3-2.8,6-0.7,8c8.3,8,8.1,19,4.1,30c-17.7,19-41.7,37-44.9,60
						c-2.2,24-3.6,50,15.3,68c17.8,17,42.9,26,72,29c16.4,2,32,2,49.7-1c46.4-9,88.5-27,124.8-53c33.1-24,57.8-51,75.4-81
						c9.3-17,14.5-33,21.2-50"/>
				</g>
				<g>
					<path class="st1" d="M640.7,330.3c42.2-38,97.2-71,159.1-76c22.4-2,43.3,2,64.3,6c9.8,2,16.8,5,25.1,8c5.7,3,9.6,8,13.7,12
						c8.1,9,0.9,22-11.4,30c-1.8,2,0,5,0.8,7c5.2,5,7.6,11,8.6,17c1.3,5-0.2,11-4,16c-16.2,18-37.1,34-42.4,55c-3,17-6.2,35,0.1,51
						c17.5,39,72.8,57,131,48c51.4-8,95.5-29,133.8-58c47.7-36,79.3-81,89.1-127"/>
				</g>
				<g>
					<path class="st1" d="M650.3,333.3c37.6-35,90.9-66,147.2-69c37.9-2,80.7-3,103.5,19c8,9,3.7,21-7.7,30c-1.8,2-0.8,3,0,5
						c3.1,8,13.5,13,12.2,23c0,5-2.5,10-6.4,15c-12.6,14-28.9,27-36.9,43c-7.2,18-10.5,36-7.1,53c6.4,31,39.2,50,79.6,55
						c72.7,11,145.9-22,200.1-68c41-35,66.3-75,75.3-117"/>
				</g>
				<g>
					<path class="st1" d="M658.2,336.3c26.7-23,58.1-44,94.5-55c5.7-2,12.4-3,18.1-5c28.9-7,57-6,85.1-5c17.8,1,33,7,43.6,16
						c4.1,4,6.2,11,4.7,17c-2.6,5-10.1,9-11.6,15c-0.5,2,1.6,4,2.6,5c11.1,7,17.4,18,11.5,31c-6.7,11-16.5,19-26.6,28
						c-17.6,18-21.2,37-23.4,56c-1.3,15,3.2,28,13.1,40c15.9,19,42,29,72.2,33c26.6,3,54.9-1,82.9-9c17.1-6,32.6-11,48.9-19
						c35.6-18,62.9-39,86.2-65c26.6-29,45.8-60,51.3-93"/>
				</g>
				<g>
					<path class="st1" d="M660.8,342.3c32.9-27,71.5-51,117.7-60c29.7-5,58.6-7,87.2-3c15,2,26.6,7,34.9,15c4.1,4,5.4,9,5.5,14
						c-1.5,6-7.7,10-11.6,15c-1.8,2-1.3,5,0.8,7c13.2,9,21,24,8.4,38c-10.8,12-24,23-32.5,36c-2.8,6-5.4,11-8.2,17
						c-4.6,13-6.6,26-4.8,39c5.3,30,35.3,50,73.9,57c58.6,10,121.1-11,171.9-43c58.4-37,95.7-89,107.1-141"/>
				</g>
				<g>
					<path class="st1" d="M664.5,348.3c19.2-19,43.5-33,71.2-45c14.5-6,28.7-11,43.6-14c17.5-3,34.6-4,52.9-5c23.5-1,44.6,2,62.7,12
						c12.4,7,15.6,20,2.2,32c-8.2,7,6,12,9.9,17c4.7,7,8.1,14,3.2,23c-7.4,14-22.7,23-32.2,35c-13.7,18-19.8,37-19.7,57
						c2,33,33,54,71.3,62c56.8,12,121.6-8,172.4-40c59.9-38,97.3-90,110.2-143"/>
				</g>
				<g>
					<path class="st1" d="M667,354.3c18.4-16,38.3-28,62.1-40c17.6-8,34.3-13,52.1-17c30.2-7,60.4-9,88.5-3c18.6,3,42.1,12,36.3,30
						c-2.3,4-6.9,7-10.3,10c-1.8,2-2.6,5-0.5,7c6.2,6,14.3,10,17.4,18c2.1,7-0.2,16-5.8,23c-7.5,9-18.5,17-26,26
						c-11.6,15-18.2,31-21,47c-5.2,36,25.1,65,68.3,74c67,13,141.3-14,195.5-55c49.2-37,77-82,88.2-128"/>
				</g>
				<g>
					<path class="st1" d="M670.9,360.3c53.8-48,138.9-73,208.6-58c15.8,4,30.5,12,27,26c-0.5,2-0.2,6-3.3,8s-6.2,4-8.2,7
						c-0.3,1-0.8,3,0.3,4c7.5,6,15.3,11,18.7,18c7.1,18-14.8,33-28.9,48c-15.7,16-22.8,34-24.8,52c-3.4,34,26.5,60,65.6,70
						c26.9,7,57.3,5,87.6-2c103.6-25,183.2-102,198.1-180"/>
				</g>
				<g>
					<path class="st1" d="M673.8,365.3c29.2-23,63.8-42,102.5-52c35.8-9,72.5-11,105.5-4c14.5,4,30.3,13,25.2,28
						c-2.5,5-9.8,8-12.3,13c-0.5,2,1.6,4,2.4,6c10.1,6,19,12,20.1,23c0,5-1.2,10-5.1,15c-12.6,14-28.5,26-37.7,42
						c-9.5,17-15,34-12.6,50c2.7,15,12.7,27,25.5,38c9.7,8,24.1,13,37.4,17c41.5,11,90.3,3,135.2-16c36.1-15,65.4-34,90.9-59
						c32.6-33,52.9-69,60.5-106"/>
				</g>
				<g>
					<path class="st1" d="M676,372.3c16-12,31.8-23,51.1-33c16.3-8,33.3-14,49.8-18c37.6-11,78.4-14,111.5-2c8.5,2,16.3,7,19.7,14
						c4.4,8-4,16-12.2,23c-1.5,1-0.8,3,0.3,4c10.9,8,21.8,16,22.5,29c0,5-3.8,10-7.6,15c-11,13-27.5,22-33.9,37c-0.3,1-3.3,3-3.6,4
						c-8.4,18-14.2,36-9.4,53c7.2,23,30.2,40,58.2,48c58.2,17,128.4-4,183.5-38c59.6-37,95.4-89,106.6-141"/>
				</g>
				<g>
					<path class="st1" d="M679.8,378.3c56-47,150.8-75,215.5-50c10.6,4,17.6,12,12.3,23c-2.5,5-8.5,8-12,12c-0.3,1-0.8,3,0.3,4
						c5.2,5,13.5,8,18.7,13c7,8,7.9,20-1,30c-10.3,10-20.3,19-30.8,30c-7.4,9-11,18-14.5,27c-3.8,10-6.3,20-4.9,30
						c4.5,34,39.3,56,82.5,60c67,8,137.5-20,189.5-63c42.4-36,69-77,76.8-120"/>
				</g>
				<g>
					<path class="st1" d="M682.4,384.3c16.3-13,34.8-25,55.2-34c20.1-8,40.2-16,61.9-20c28.3-5,54.6-7,80.2-1c17.1,4,37,12,28.9,29
						c-2.8,6-13.6,8-13.8,14c0,5,7.5,6,12.2,8c17.1,9,19.9,29,2.2,43c-33.9,27-53.3,63-41.3,93c10.4,21,30,36,58,44
						c38.9,11,83.8,3,124.9-11c28.4-10,52.6-24,76.1-41c47.5-36,76.4-81,84.8-127"/>
				</g>
				<g>
					<path class="st1" d="M685,390.3c1.5-1,2.8-1,4.4-2c26.5-23,59.5-36,93-46c41.5-11,86.6-16,119.5,2c7.8,5,14.3,15,4.6,23
						c-1.5,1-3.3,3-5.1,5s-4.4,2-6.2,4c-0.2,1-0.5,2-0.5,2c6,7,17.9,11,24,18c14.7,19-13.3,38-28.9,54c-13.8,14-20.2,29-23.9,44
						s2.1,28,10.6,41c13.5,19,36.5,31,65.5,35c59.2,8,119.9-12,169.2-44c55.6-37,90.8-87,100.3-138"/>
				</g>
				<g>
					<path class="st1" d="M687.3,397.3c30.4-23,67-40,105.7-50c38.4-9,79.4-13,109.9,4c6.7,4,11.5,11,7.1,18c-2.3,4-4.3,7-8.9,10
						c-2.8,1-4.4,2-6.2,4c-2,3,1.3,5,3.7,6c17.6,7,34.6,22,20.1,39c-13,16-30.5,29-41.2,46c-0.2,1-0.7,3-1,4
						c-18.6,28-10.3,57,12.3,76c18.4,15,42.4,23,70.8,24c40.1,1,80-8,119.7-27c77.7-37,120.2-96,133.2-156"/>
				</g>
				<g>
					<path class="st1" d="M691.1,403.3c33.7-26,77-44,121.9-53c25.5-4,49-5,72.2,0c13.4,3,26.1,9,27,21c0.6,8-11,13-17.6,19
						c-2,3,1.3,5,3.7,6c18.9,7,35.9,22,21.1,40c-9.7,13-26.6,24-36.6,38c-8.7,14-14.7,28-15.6,42c-0.7,29,22.5,51,53.8,61
						c53.1,17,118.7,4,172.7-26c65.9-37,106.4-93,118.4-149"/>
				</g>
				<g>
					<path class="st1" d="M693.5,410.3c30.9-25,71.1-41,112.3-51c5.4-1,12.1-2,17.5-3c34.5-4,76-5,89.5,19c0.4,9-9.1,16-18.3,22
						l-0.5,2c5.2,5,12.5,7,19.5,10c15.1,7,16.1,24,6.4,37c-23.6,17-42,39-48.9,62c-11.4,41,24.4,75,74.7,82c26.3,4,53.3,0,80.8-6
						c99.6-25,173.3-101,185.6-175"/>
				</g>
				<g>
					<path class="st1" d="M696,416.3c36.5-27,82.1-44,129.5-53c24.2-4,48.7-4,68.9,3c10.6,4,20.5,11,18.1,21c-2.8,6-10.2,10-16.6,15
						c-6.6,6,6.8,9,11.5,11c6,2,10.4,5,14.6,9c2.1,2,2.7,5,4.7,7c2.4,6,2,13-2.1,19c-7.9,11-21.5,19-30.4,29c-14.8,18-26,37-24.1,56
						c1.7,14,8.1,25,17.1,36c10.5,10,22.9,18,38.6,23c40.2,11,88.5,5,132.7-11c85.6-32,142.8-99,153.2-165"/>
				</g>
				<g>
					<path class="st1" d="M698.4,423.3c36.5-27,80.8-44,128-52c32.4-6,67.3-6,85.8,13c2.9,4,1.7,9-0.6,13c-3.8,5-9.7,8-15.9,12
						s2.2,7,5.5,9c16.9,5,32.3,16,27.1,32c-1.2,5-6.6,11-11.4,15c-22.3,17-37.6,37-42.7,58c-11.9,43,31.5,78,85.4,81
						c59.1,3,121.6-19,168.9-54c47.4-36,76.1-81,84.3-127"/>
				</g>
				<g>
					<path class="st1" d="M700.8,429.3c31.6-23,70-37,108.8-48c34.5-9,72.6-12,98.1,5c13.3,9-0.5,23-15.3,31c-3.1,2,1.4,5,3.7,6
						c18.4,4,34.3,13,33,29c-1.1,15-20.6,26-32.6,38c-14.3,16-23.9,34-24.4,52c0.5,30,24.7,53,58.7,63c46.3,13,100.7,3,150.4-20
						c76-36,120.9-95,130.8-154"/>
				</g>
				<g>
					<path class="st1" d="M703.5,434.3c35.8-24,77.4-41,122-49c29.9-6,61.3-8,82.1,7c13,10-4.6,24-18.2,32c-3.1,2,2.9,4,4.2,4
						c13,5,26.5,8,33.1,18c11.4,17-11.7,32-25.5,46c-11.8,11-19.6,22-23.9,34c-5,15-7.1,29-1.2,42c11,24,34.2,41,69.4,46
						c37.6,6,76.7,0,115.2-14c82.7-31,140.7-96,152.1-161"/>
				</g>
				<g class="st32">
					<path class="st1" d="M834.9,194.3c32-32,77.5-56,126.4-61c44.8-4,88,10,97.5,43c3.8,12-1.7,25-10.6,36
						c-12.2,14-33.4,16-51.9,18c-23.8,2-36.3,23-33.4,39c5.4,22,26.7,37,55.5,42c62.8,10,129.4-21,166-64"/>
				</g>
				<g class="st12">
					<path class="st1" d="M839.7,196.3c30.5-31,76.3-56,125-60c25-2,50.1,1,69.7,11c15,8,23.9,20,25.7,35c0.6,9-1.7,19-8.9,28
						c-5.2,6-10.2,11-17.4,14c-12.8,5-24.2,4-37.8,7c-17.5,3-29.6,16-30.1,30c-0.7,26,23.8,44,54.9,50c61.5,10,127.1-22,164.5-63"/>
				</g>
				<g class="st59">
					<path class="st1" d="M844.7,197.3c23.7-24,55-42,91.1-53c20.7-6,40.1-6,60.5-5c33.1,2,61.7,18,64.7,45c1.4,17-9.6,37-35.6,43
						c-10.8,2-22.5,2-33.7,6c-8.7,4-16.8,11-19.9,19c-7.2,20,3,38,22.6,49c60.7,31,148.8-3,190.7-52"/>
				</g>
				<g class="st63">
					<path class="st1" d="M850.6,199.3c25.9-28,65.6-49,108.5-56s84.7,2,99.9,32c5.3,11,3.9,23-3.9,35c-9.2,12-27.6,19-44.6,20
						c-6.5,0-13.4,2-19.3,5c-20.9,12-23,33-13.5,48c17.5,26,53.4,34,92.5,28c47.1-7,87.4-31,114.9-62"/>
				</g>
				<g class="st14">
					<path class="st1" d="M855.5,200.3c27.2-28,67-49,109.6-55c36-5,72,1,90,24c5.7,9,8.9,18,6.4,29c-4,12-13.4,25-31.1,29
						c-8.2,2-15.5,0-24,3c-11.5,5-21.9,11-26.6,20c-8.4,14-3.8,28,4.1,39c10.3,12,25.8,18,44.4,22c58.9,10,121.6-21,157.6-61"/>
				</g>
				<g class="st64">
					<path class="st1" d="M860.3,202.3c25.7-27,62.9-48,105.6-54c20-3,38.9-1,55.8,4c12.2,3,24,8,32.3,17c11.3,13,13.9,30-0.1,46
						c-10.5,12-27.3,12-43.5,15c-2.8,1-5.6,2-8.5,3c-1.8,2-4.6,3-7.6,5c-14,10-18.5,24-14.7,36c4.5,20,25.2,32,51.4,37
						c59.1,9,120.1-20,154.9-60"/>
				</g>
				<g class="st60">
					<path class="st1" d="M865.1,204.3c18.7-19,43.4-36,71.6-46c29.4-10,60.6-11,87.4-4c18.2,5,32.7,15,38.3,30
						c5.6,15-3.2,37-26.4,42c-12.3,3-23.8,2-34.4,9c-6.3,5-12.7,10-16.9,17c-11.4,27,9.5,49,40.2,57c12.1,4,26.4,4,40.9,3
						c49-4,91-29,121.2-60"/>
				</g>
				<g class="st16">
					<path class="st1" d="M870,205.3c16.2-14,32.5-28,54.2-38c34.5-15,70.5-20,101.7-10c25.3,8,48.1,27,34.6,52
						c-4.2,7-9.4,13-19.4,17c-11,3-22.2,1-32.7,7c-8.9,5-15.5,11-19.7,18c-16,30,12.3,54,47.3,60c56.7,8,117.6-20,150.8-59"/>
				</g>
				<g class="st33">
					<path class="st1" d="M874.8,207.3c34.9-38,102.9-64,153.1-47c4.7,2,8.3,3,13,5c16.8,11,30.4,25,20.7,45c-4.4,8-11,14-20.2,15
						c-17.7,4-34,7-44.5,19c-9.3,12-12.5,26-6.2,38c7.2,14,20.9,22,39.3,27c19.7,5,42,4,63.9-1c38.4-9,69.1-30,92.8-55"/>
				</g>
				<g class="st62">
					<path class="st1" d="M879.4,209.3c33.1-36,96.2-63,145.6-48c18.2,5,32.7,15,38.5,29c4,11,0.1,28-18.3,35c-9.7,3-21.4,3-31.6,8
						c-10.5,6-17.5,14-20.9,23c-12.4,31,21.6,53,57.3,56c52.4,4,105.3-23,137.7-58"/>
				</g>
				<g class="st18">
					<path class="st1" d="M884.3,210.3c36.1-38,105.9-66,154.5-42c18.6,9,34.1,26,21.8,46c-3.5,4-8.5,9-14.2,11
						c-9.5,2-18.6,2-27.3,6c-16.1,8-25.6,21-26,34c-1,27,26.2,44,59.4,47c20.6,1,40.5-1,61.8-9c17.2-7,33-14,46.9-24
						c9.6-8,17.8-16,26.1-24"/>
				</g>
				<g class="st65">
					<path class="st1" d="M889,212.3c17.4-19,41.4-33,68.3-43c36.3-12,78.7-11,98.7,14c7.2,8,11.4,18,6.3,29
						c-5.6,13-23.7,13-37.8,18c-25.6,10-34.2,36-25.2,53c10.1,18,30.2,27,55.7,29c51.4,3,102.4-22,132.2-57"/>
				</g>
				<g class="st19">
					<path class="st1" d="M893.7,214.3c26.3-29,69.7-49,112.5-50c19.3,0,37.3,6,48.7,18c2.1,2,2.7,5,4.8,7c3.6,7,5.6,15,2.5,23
						s-13.3,13-23.9,14c-10.8,2-21,7-27.8,14c-15.4,16-14.4,34-4.9,49c11.1,14,30.3,21,51.9,23c50,3,101.4-23,130.7-56"/>
				</g>
				<g class="st66">
					<path class="st1" d="M899.8,215.3c31.8-36,100.3-64,144.8-39c13.6,8,25.7,23,15.6,39c-4.2,7-15.2,10-24.8,12
						c-16.5,4-28.3,16-32.4,28c-4.1,12-1.4,23,5.3,33c9.5,15,28.7,22,50.6,23c48.5,4,100.7-20,129-54"/>
				</g>
				<g class="st67">
					<path class="st1" d="M904.4,217.3c31.8-36,98.8-63,142.5-40c13.6,8,17.1,21,15.4,34c-1.4,6-7.5,10-14.6,13
						c-12.6,4-25.1,8-33.7,17c-11.6,11-12.3,25-8.4,36c2.4,12,12,21,26,28c9.3,5,19.4,6,29.8,6c48.3,5,97-21,127.5-53"/>
				</g>
				<g class="st21">
					<path class="st1" d="M909.2,219.3c19.5-22,49.1-38,80.4-45c29.8-6,66.2-2,72.3,22c-0.2,1-0.5,2-0.7,3c3.3,8-0.7,20-11.8,23
						c-26.7,9-46.8,29-43.7,49c3.8,23,28.7,39,58.1,41c47.4,3,95.7-21,125.1-54"/>
				</g>
				<g class="st35">
					<path class="st1" d="M914.1,220.3c15.2-15,32.5-28,55.3-37c14.1-5,26.2-7,40.8-9c23.7-2,45.3,5,53.2,21c-0.8,9-1.2,22-14.2,28
						c-18.4,7-35.4,19-40.2,34c-3.5,15,0.8,30,14.1,40c20,15,49,19,79.2,12c35.6-8,65.6-26,86.4-50"/>
				</g>
			</g>
		</g>
	</g>
</g>
</svg>
