<?xml version="1.0" encoding="utf-8"?>
<!-- Generator: Adobe Illustrator 25.0.1, SVG Export Plug-In . SVG Version: 6.00 Build 0)  -->
<svg version="1.1" id="Waveform" xmlns="http://www.w3.org/2000/svg" xmlns:xlink="http://www.w3.org/1999/xlink" x="0px" y="0px"
	 viewBox="0 0 1440 2040.6" style="enable-background:new 0 0 1440 2040.6;" xml:space="preserve">
<style type="text/css">
	.st0{fill:none;stroke:#5C0099;stroke-miterlimit:20;}
	.st1{fill:none;stroke:#5C0099;stroke-width:0.7;stroke-miterlimit:20;}
	.st2{opacity:0.97;enable-background:new    ;}
	.st3{opacity:0.94;enable-background:new    ;}
	.st4{opacity:0.91;enable-background:new    ;}
	.st5{opacity:0.88;enable-background:new    ;}
	.st6{opacity:0.86;enable-background:new    ;}
	.st7{opacity:0.83;enable-background:new    ;}
	.st8{opacity:0.8;enable-background:new    ;}
	.st9{opacity:0.77;enable-background:new    ;}
	.st10{opacity:0.74;enable-background:new    ;}
	.st11{opacity:0.71;enable-background:new    ;}
	.st12{opacity:0.68;enable-background:new    ;}
	.st13{opacity:0.65;enable-background:new    ;}
	.st14{opacity:0.63;enable-background:new    ;}
	.st15{opacity:0.6;enable-background:new    ;}
	.st16{opacity:0.57;enable-background:new    ;}
	.st17{opacity:0.54;enable-background:new    ;}
	.st18{opacity:0.51;enable-background:new    ;}
	.st19{opacity:0.48;enable-background:new    ;}
	.st20{opacity:0.45;enable-background:new    ;}
	.st21{opacity:0.42;enable-background:new    ;}
	.st22{opacity:0.39;enable-background:new    ;}
	.st23{opacity:0.37;enable-background:new    ;}
	.st24{opacity:0.34;enable-background:new    ;}
	.st25{opacity:0.31;enable-background:new    ;}
	.st26{opacity:0.28;enable-background:new    ;}
	.st27{opacity:0.25;enable-background:new    ;}
	.st28{opacity:0.95;enable-background:new    ;}
	.st29{opacity:0.9;enable-background:new    ;}
	.st30{opacity:0.85;enable-background:new    ;}
	.st31{opacity:0.75;enable-background:new    ;}
	.st32{opacity:0.7;enable-background:new    ;}
	.st33{opacity:0.55;enable-background:new    ;}
	.st34{opacity:0.5;enable-background:new    ;}
	.st35{opacity:0.4;enable-background:new    ;}
	.st36{opacity:0.35;enable-background:new    ;}
	.st37{opacity:0.3;enable-background:new    ;}
	.st38{opacity:0.2;enable-background:new    ;}
	.st39{opacity:0.19;enable-background:new    ;}
	.st40{opacity:0.18;enable-background:new    ;}
	.st41{opacity:0.17;enable-background:new    ;}
	.st42{opacity:0.16;enable-background:new    ;}
	.st43{opacity:0.15;enable-background:new    ;}
	.st44{opacity:0.14;enable-background:new    ;}
	.st45{opacity:0.13;enable-background:new    ;}
	.st46{opacity:0.12;enable-background:new    ;}
	.st47{opacity:0.11;enable-background:new    ;}
	.st48{opacity:0.1;enable-background:new    ;}
	.st49{opacity:9.000000e-02;enable-background:new    ;}
	.st50{opacity:8.000000e-02;enable-background:new    ;}
	.st51{opacity:7.000000e-02;enable-background:new    ;}
	.st52{opacity:6.000000e-02;enable-background:new    ;}
	.st53{opacity:5.000000e-02;enable-background:new    ;}
	.st54{opacity:0.84;enable-background:new    ;}
	.st55{opacity:0.81;enable-background:new    ;}
	.st56{opacity:0.78;enable-background:new    ;}
	.st57{opacity:0.72;enable-background:new    ;}
	.st58{opacity:0.69;enable-background:new    ;}
	.st59{opacity:0.66;enable-background:new    ;}
	.st60{opacity:0.59;enable-background:new    ;}
	.st61{opacity:0.56;enable-background:new    ;}
	.st62{opacity:0.53;enable-background:new    ;}
	.st63{opacity:0.64;enable-background:new    ;}
	.st64{opacity:0.61;enable-background:new    ;}
	.st65{opacity:0.49;enable-background:new    ;}
	.st66{opacity:0.46;enable-background:new    ;}
	.st67{opacity:0.44;enable-background:new    ;}
</style>
<g>
	<g>
		<g id="Waveform2_6_">
			<g>
				<path class="st0" d="M750.1,2206.8c-80.9-367.5,81.2-395.3,35.2-768.8c-13.6-110-170-109.8-153.9-219.5
					c13.9-94.4,169.9-48.9,206.8-136.9c41.1-98.1-103.3-184.2-36.5-267"/>
			</g>
			<g>
				<path class="st0" d="M764,2206.9c-81.8-370.5,81.6-399,33.2-775.4c-13.7-107-171.9-105.9-157-212.7
					c13.3-95.4,171.6-52,207-141.5c37.8-95.7-109.6-179.2-47-260.8"/>
			</g>
			<g>
				<path class="st0" d="M777.9,2206.9c-82.8-373.6,81.9-402.7,31.3-782C795.2,1321,635.4,1323,649,1219
					c12.6-96.4,173.3-55.1,207.1-146.3c34.5-93.2-116-174-57.4-254.3"/>
			</g>
			<g>
				<path class="st0" d="M791.8,2207c-83.7-376.6,82.3-406.5,29.3-788.6c-14-100.9-175.7-98-163.3-199.2
					c11.9-97.5,175.1-58.3,207.2-151.1c31.4-90.7-122.4-168.5-67.9-247.5"/>
			</g>
			<g>
				<path class="st0" d="M805.7,2207.1c-84.6-379.6,82.7-410.2,27.4-795.1c-14.1-98-177.6-94-166.4-192.4
					c11.2-98.5,177-61.6,207.3-155.9c28.3-88.3-128.8-162.7-78.4-240.5"/>
			</g>
			<g>
				<path class="st0" d="M819.6,2207.1c-85.5-382.6,83.2-414,25.4-801.7c-14.1-95-179.5-90.1-169.5-185.6
					c10.4-99.5,178.9-65,207.3-160.9c25.4-85.8-135.2-156.7-88.9-233.3"/>
			</g>
			<g>
				<path class="st0" d="M833.5,2207.2c-86.5-385.6,83.6-417.7,23.5-808.3c-14.2-92-181.5-86-172.6-178.7
					c9.6-100.5,180.8-68.5,207.3-165.9c22.6-83.3-141.6-150.4-99.4-225.7"/>
			</g>
			<g>
				<path class="st0" d="M847.4,2207.3c-87.4-388.6,84.1-421.5,21.5-814.9c-14.2-89.1-183.5-82-175.7-171.9
					c8.8-101.5,182.8-72,207.2-171c19.9-80.9-147.9-143.7-109.9-217.8"/>
			</g>
			<g>
				<path class="st0" d="M861.3,2207.3c-88.3-391.6,84.6-425.3,19.5-821.5c-14.2-86.2-185.6-78-178.8-165
					c7.9-102.5,184.9-75.7,207.1-176.1c17.4-78.5-154.3-136.7-120.3-209.6"/>
			</g>
			<g>
				<path class="st0" d="M875.2,2207.4c-89.3-394.6,85.1-429.1,17.6-828c-14.1-83.2-187.6-73.9-181.9-158.1
					c7-103.6,186.9-79.5,206.9-181.4c14.9-76.1-160.5-129.4-130.6-201"/>
			</g>
			<g>
				<path class="st0" d="M889.1,2207.4c-90.2-397.6,85.7-432.9,15.6-834.6c-14-80.4-189.7-69.8-185-151.2
					c6.1-104.6,189-83.4,206.7-186.6c12.6-73.8-166.7-121.6-140.9-192"/>
			</g>
			<g>
				<path class="st0" d="M903,2207.5c-91.1-400.7,86.2-436.7,13.6-841.2c-13.9-77.5-191.9-65.7-188.1-144.3
					c5.1-105.6,191.2-87.4,206.4-192c10.5-71.7-172.7-113.5-151-182.6"/>
			</g>
			<g>
				<path class="st0" d="M903,2207.5c-91.1-400.7,86.2-436.7,13.6-841.2c-13.9-77.5-191.9-65.7-188.1-144.3
					c5.1-105.6,191.2-87.4,206.4-192c10.5-71.7-172.7-113.5-151-182.6"/>
			</g>
			<g>
				<path class="st0" d="M917.8,2207.5c-91.1-400.7,87.3-437.2,13.6-841.4c-14.1-77.4-193.9-64.7-190.7-143.3
					c4.3-105.6,195.2-91,206.9-196.1c7.8-70.4-181.3-102.2-165.6-171.3"/>
			</g>
			<g>
				<path class="st0" d="M932.5,2207.5c-91.1-400.7,88.3-437.7,13.5-841.7c-14.3-77.3-196-63.8-193.3-142.3
					c3.6-105.6,199.2-94.8,207.2-200.2c5.3-69.6-189.2-90.5-179.6-159.6"/>
			</g>
			<g>
				<path class="st1" d="M755.8,1362.5c2.9,49.6-196.7,61.4-193.8,111"/>
			</g>
			<g>
				<path class="st1" d="M756.9,1363.9c4.1,53.2-195.4,68.4-191.3,121.6"/>
			</g>
			<g>
				<path class="st1" d="M757.9,1365.6c5.2,56.9-194,75-188.8,131.9"/>
			</g>
			<g>
				<path class="st1" d="M758.9,1367.5c6.3,60.6-192.6,81.2-186.4,141.8"/>
			</g>
			<g>
				<path class="st1" d="M760,1369.5c7.4,64.2-191.3,87.1-183.9,151.4"/>
			</g>
			<g>
				<path class="st1" d="M761,1371.7c8.5,67.9-189.9,92.8-181.4,160.7"/>
			</g>
			<g>
				<path class="st1" d="M762,1373.9c9.6,71.6-188.6,98.2-179,169.8"/>
			</g>
			<g>
				<path class="st1" d="M763.1,1376.3c10.7,75.3-187.2,103.5-176.5,178.8"/>
			</g>
			<g>
				<path class="st1" d="M764.1,1378.7c11.9,78.9-185.9,108.7-174.1,187.6"/>
			</g>
			<g>
				<path class="st1" d="M765.2,1381.2c13,82.6-184.6,113.6-171.6,196.2"/>
			</g>
			<g>
				<path class="st1" d="M766.2,1383.8c14.1,86.3-183.3,118.5-169.2,204.8"/>
			</g>
			<g>
				<path class="st1" d="M767.3,1386.3c15.2,90-182,123.3-166.8,213.3"/>
			</g>
			<g>
				<path class="st1" d="M768.4,1389c16.3,93.6-180.7,128-164.4,221.6"/>
			</g>
			<g>
				<path class="st1" d="M769.4,1391.7c17.4,97.3-179.4,132.6-162,229.9"/>
			</g>
			<g>
				<path class="st1" d="M770.5,1394.4c18.5,101-178.2,137.1-159.6,238.1"/>
			</g>
			<g>
				<path class="st1" d="M771.6,1397.2c19.7,104.7-176.9,141.6-157.2,246.2"/>
			</g>
			<g>
				<path class="st1" d="M772.7,1399.9c20.8,108.3-175.6,146-154.9,254.3"/>
			</g>
			<g>
				<path class="st1" d="M773.7,1402.7c21.9,112-174.4,150.4-152.5,262.4"/>
			</g>
			<g>
				<path class="st1" d="M774.8,1405.5c23,115.7-173.2,154.7-150.1,270.4"/>
			</g>
			<g>
				<path class="st1" d="M775.9,1408.4c24.1,119.4-171.9,159-147.8,278.3"/>
			</g>
			<g>
				<path class="st1" d="M777,1411.3c25.2,123-170.7,163.2-145.5,286.2"/>
			</g>
			<g>
				<path class="st1" d="M778.1,1414.1c26.3,126.7-169.5,167.4-143.1,294.1"/>
			</g>
			<g>
				<path class="st1" d="M779.2,1417c27.5,130.4-168.2,171.6-140.8,302"/>
			</g>
			<g>
				<path class="st1" d="M780.3,1419.9c28.6,134-167,175.8-138.4,309.8"/>
			</g>
			<g>
				<path class="st1" d="M781.4,1422.9c29.7,137.7-165.8,179.9-136.1,317.6"/>
			</g>
			<g>
				<path class="st1" d="M782.5,1425.8c30.8,141.4-164.6,184-133.8,325.3"/>
			</g>
			<g>
				<path class="st1" d="M783.6,1428.8c31.9,145.1-163.4,188-131.5,333.1"/>
			</g>
			<g>
				<path class="st1" d="M759.4,1445.4c23.2,102.7-171.9,146.7-148.7,249.4"/>
			</g>
			<g class="st2">
				<path class="st1" d="M762.8,1455.9c22.6,100.2-172.5,144.2-149.8,244.4"/>
			</g>
			<g class="st3">
				<path class="st1" d="M766.2,1466.5c22.1,97.7-173,141.7-151,239.4"/>
			</g>
			<g class="st4">
				<path class="st1" d="M769.6,1477c21.5,95.2-173.6,139.2-152.1,234.4"/>
			</g>
			<g class="st5">
				<path class="st1" d="M773,1487.5c20.9,92.7-174.2,136.7-153.3,229.4"/>
			</g>
			<g class="st6">
				<path class="st1" d="M776.3,1498c20.4,90.2-174.8,134.2-154.4,224.5"/>
			</g>
			<g class="st7">
				<path class="st1" d="M779.7,1508.5c19.8,87.8-175.3,131.7-155.5,219.5"/>
			</g>
			<g class="st8">
				<path class="st1" d="M783.1,1519c19.2,85.3-175.9,129.2-156.7,214.5"/>
			</g>
			<g class="st9">
				<path class="st1" d="M786.5,1529.5c18.6,82.8-176.5,126.7-157.8,209.5"/>
			</g>
			<g class="st10">
				<path class="st1" d="M789.9,1540c18.1,80.3-177.1,124.2-159,204.5"/>
			</g>
			<g class="st11">
				<path class="st1" d="M793.3,1550.5c17.5,77.8-177.6,121.7-160.1,199.5"/>
			</g>
			<g class="st12">
				<path class="st1" d="M796.7,1561c16.9,75.3-178.2,119.2-161.3,194.5"/>
			</g>
			<g class="st13">
				<path class="st1" d="M800,1571.5c16.4,72.8-178.8,116.7-162.4,189.5"/>
			</g>
			<g class="st14">
				<path class="st1" d="M803.4,1582c15.8,70.4-179.4,114.2-163.6,184.5"/>
			</g>
			<g class="st15">
				<path class="st1" d="M806.8,1592.5c15.2,67.9-179.9,111.6-164.7,179.5"/>
			</g>
			<g class="st16">
				<path class="st1" d="M810.2,1603.1c14.7,65.4-180.5,109.1-165.9,174.5"/>
			</g>
			<g class="st17">
				<path class="st1" d="M813.6,1613.6c14.1,62.9-181.1,106.6-167,169.5"/>
			</g>
			<g class="st18">
				<path class="st1" d="M817,1624.1c13.5,60.4-181.7,104.1-168.2,164.5"/>
			</g>
			<g class="st19">
				<path class="st1" d="M820.4,1634.6c12.9,58-182.3,101.5-169.3,159.5"/>
			</g>
			<g class="st20">
				<path class="st1" d="M823.7,1645.1c12.4,55.5-182.8,99-170.5,154.5"/>
			</g>
			<g class="st21">
				<path class="st1" d="M827.1,1655.7c11.8,53-183.4,96.5-171.6,149.5"/>
			</g>
			<g class="st22">
				<path class="st1" d="M830.5,1666.2c11.2,50.5-184,93.9-172.8,144.4"/>
			</g>
			<g class="st23">
				<path class="st1" d="M833.9,1676.7c10.7,48-184.6,91.4-173.9,139.4"/>
			</g>
			<g class="st24">
				<path class="st1" d="M837.3,1687.3c10.1,45.5-185.2,88.8-175.1,134.3"/>
			</g>
			<g class="st25">
				<path class="st1" d="M840.7,1697.8c9.5,43.1-185.8,86.2-176.2,129.3"/>
			</g>
			<g class="st26">
				<path class="st1" d="M844.1,1708.3c9,40.6-186.3,83.7-177.4,124.3"/>
			</g>
			<g class="st27">
				<path class="st1" d="M847.5,1718.9c8.4,38.1-186.9,81.1-178.6,119.2"/>
			</g>
			<g>
				<path class="st1" d="M588,1430.3c22.1-108.6,225.1-73,241.2-182.6c13.9-94.4-190.8-117.8-183-212.9"/>
			</g>
			<g>
				<path class="st1" d="M586.8,1427.2c21.5-106.1,223.7-70.3,239.9-177.4c14.4-95.3-189.4-120.3-180.3-216.3"/>
			</g>
			<g>
				<path class="st1" d="M585.6,1424.2c20.8-103.6,222.3-67.7,238.5-172.2c14.9-96.3-188-122.8-177.7-219.6"/>
			</g>
			<g>
				<path class="st1" d="M584.5,1421.2c20.2-101.1,221-65.1,237.2-166.9c15.5-97.2-186.6-125.2-175.1-223"/>
			</g>
			<g>
				<path class="st1" d="M583.3,1418.2c19.5-98.6,219.6-62.5,235.9-161.7c16.1-98.2-185.1-127.6-172.4-226.3"/>
			</g>
			<g>
				<path class="st1" d="M582.1,1415.2c18.9-96.2,218.3-59.9,234.5-156.5c16.6-99.2-183.7-130-169.7-229.6"/>
			</g>
			<g>
				<path class="st1" d="M580.9,1412.2c18.2-93.7,217-57.2,233.2-151.3c17.2-100.2-182.2-132.4-167.1-232.9"/>
			</g>
			<g>
				<path class="st1" d="M579.7,1409.3c17.6-91.2,215.7-54.6,231.8-146.1c17.9-101.2-180.8-134.8-164.4-236.2"/>
			</g>
			<g>
				<path class="st1" d="M578.5,1406.3c16.9-88.7,214.4-52,230.5-140.9c18.5-102.2-179.3-137.1-161.7-239.4"/>
			</g>
			<g>
				<path class="st1" d="M577.3,1403.4c16.3-86.2,213.1-49.4,229.1-135.7c19.1-103.2-177.8-139.5-158.9-242.7"/>
			</g>
			<g>
				<path class="st1" d="M576.1,1400.4c15.6-83.8,211.9-46.8,227.8-130.5c19.8-104.2-176.3-141.8-156.2-245.9"/>
			</g>
			<g>
				<path class="st1" d="M575,1397.5c15-81.3,210.6-44.2,226.4-125.3c20.5-105.2-174.8-144.1-153.5-249.1"/>
			</g>
			<g>
				<path class="st1" d="M573.8,1394.6c14.3-78.8,209.4-41.6,225.1-120.1c21.2-106.2-173.3-146.4-150.8-252.3"/>
			</g>
			<g>
				<path class="st1" d="M572.6,1391.7c13.7-76.3,208.2-39,223.7-114.9c21.9-107.3-171.8-148.6-148-255.5"/>
			</g>
			<g>
				<path class="st1" d="M571.4,1388.8c13-73.8,207-36.4,222.4-109.8c22.7-108.3-170.3-150.9-145.3-258.7"/>
			</g>
			<g>
				<path class="st1" d="M570.2,1385.9c12.4-71.3,205.9-33.8,221-104.6c23.4-109.3-168.7-153.1-142.5-261.8"/>
			</g>
			<g>
				<path class="st1" d="M569,1383.1c11.7-68.9,204.7-31.3,219.7-99.5c24.2-110.3-167.2-155.4-139.7-264.9"/>
			</g>
			<g>
				<path class="st1" d="M567.7,1380.3c11.1-66.4,203.6-28.7,218.3-94.4c25-111.4-165.7-157.6-137-268.1"/>
			</g>
			<g>
				<path class="st1" d="M566.5,1377.5c10.4-63.9,202.5-26.2,217-89.3c25.9-112.4-164.1-159.8-134.2-271.2"/>
			</g>
			<g>
				<path class="st1" d="M565.3,1374.7c9.8-61.4,201.4-23.7,215.6-84.2c26.7-113.4-162.5-162-131.4-274.3"/>
			</g>
			<g>
				<path class="st1" d="M564.1,1372c9.1-58.9,200.3-21.2,214.3-79.1c27.6-114.5-161-164.1-128.6-277.4"/>
			</g>
			<g>
				<path class="st1" d="M562.9,1369.3c8.5-56.4,199.2-18.7,212.9-74.1c28.5-115.5-159.4-166.3-125.8-280.5"/>
			</g>
			<g>
				<path class="st1" d="M561.6,1366.7c7.8-54,198.2-16.3,211.5-69.2c29.4-116.5-157.8-168.5-123-283.5"/>
			</g>
			<g>
				<path class="st1" d="M560.4,1364.1c7.1-51.5,197.2-13.9,210.2-64.2c30.4-117.6-156.2-170.7-120.2-286.6"/>
			</g>
			<g>
				<path class="st1" d="M559.2,1361.5c6.5-49,196.2-11.5,208.8-59.3c31.3-118.6-154.7-172.8-117.4-289.7"/>
			</g>
			<g>
				<path class="st1" d="M557.9,1359.1c5.8-46.5,195.2-9.2,207.4-54.5c32.3-119.6-153.1-174.9-114.5-292.7"/>
			</g>
			<g>
				<path class="st1" d="M556.7,1356.7c5.2-44,194.3-7,206.1-49.7c33.3-120.6-151.4-177.1-111.7-295.7"/>
			</g>
			<g>
				<path class="st1" d="M577.8,2220.3c0-238,205-240.1,200-478c-2.9-138.7-207.8-130.6-215.8-269.1"/>
			</g>
			<g class="st28">
				<path class="st1" d="M580.5,2208.7c-0.4-234.3,205.1-237.1,199.2-471.3c-3.4-136.5-208.7-127.2-217.6-263.4"/>
			</g>
			<g class="st29">
				<path class="st1" d="M583.2,2197.1c-0.8-230.6,205.1-234,198.3-464.6c-3.9-134.3-209.6-123.7-219.4-257.7"/>
			</g>
			<g class="st30">
				<path class="st1" d="M586,2185.5c-1.2-227,205.1-231,197.5-457.9c-4.4-132.1-210.4-120.2-221.3-251.9"/>
			</g>
			<g class="st8">
				<path class="st1" d="M588.7,2173.9c-1.6-223.3,205.2-228,196.7-451.2c-4.9-130-211.3-116.7-223.1-246.2"/>
			</g>
			<g class="st31">
				<path class="st1" d="M591.4,2162.3c-2-219.7,205.2-225,195.9-444.5c-5.4-127.8-212.1-113.1-224.9-240.3"/>
			</g>
			<g class="st32">
				<path class="st1" d="M594.1,2150.7c-2.4-216,205.2-222.1,195.1-437.9c-5.9-125.6-213-109.4-226.7-234.5"/>
			</g>
			<g class="st13">
				<path class="st1" d="M596.8,2139.1C594,1926.8,802.1,1920,791,1707.9c-6.4-123.5-213.8-105.8-228.4-228.6"/>
			</g>
			<g class="st15">
				<path class="st1" d="M599.5,2127.6c-3.2-208.7,205.3-216.3,193.4-424.6c-6.9-121.4-214.6-102-230.2-222.6"/>
			</g>
			<g class="st33">
				<path class="st1" d="M602.2,2116c-3.6-205,205.3-213.4,192.6-418.1c-7.4-119.2-215.4-98.3-231.9-216.6"/>
			</g>
			<g class="st34">
				<path class="st1" d="M604.9,2104.4c-4-201.4,205.3-210.6,191.7-411.5c-7.9-117.1-216.1-94.4-233.6-210.5"/>
			</g>
			<g class="st20">
				<path class="st1" d="M607.6,2092.8c-4.4-197.7,205.3-207.8,190.9-405c-8.4-115-216.9-90.5-235.3-204.4"/>
			</g>
			<g class="st35">
				<path class="st1" d="M610.4,2081.3c-4.8-194.1,205.3-205,190-398.5c-8.9-112.9-217.6-86.6-237-198.2"/>
			</g>
			<g class="st36">
				<path class="st1" d="M613.1,2069.8c-5.2-190.4,205.3-202.3,189.1-392.1c-9.5-110.8-218.3-82.6-238.6-192"/>
			</g>
			<g class="st37">
				<path class="st1" d="M615.8,2058.2c-5.6-186.8,205.3-199.6,188.3-385.6c-10-108.8-219-78.5-240.3-185.6"/>
			</g>
			<g class="st27">
				<path class="st1" d="M618.5,2046.7c-6-183.1,205.3-196.9,187.4-379.2c-10.5-106.7-219.6-74.4-241.8-179.3"/>
			</g>
			<g class="st38">
				<path class="st1" d="M621.2,2035.2c-6.4-179.4,205.3-194.3,186.5-372.9c-11-104.7-220.2-70.2-243.4-172.8"/>
			</g>
			<g class="st38">
				<path class="st1" d="M808.2,1669.2c6.4,179.4-193.4,186.6-187,366"/>
			</g>
			<g class="st39">
				<path class="st1" d="M811.8,1677c8.6,179.7-191.2,189.3-182.6,369"/>
			</g>
			<g class="st40">
				<path class="st1" d="M815.4,1684.8c10.7,180-188.9,191.9-178.2,372"/>
			</g>
			<g class="st41">
				<path class="st1" d="M819,1692.6c12.8,180.4-186.7,194.5-173.8,374.9"/>
			</g>
			<g class="st42">
				<path class="st1" d="M822.5,1700.5c15,180.7-184.4,197.2-169.4,377.9"/>
			</g>
			<g class="st43">
				<path class="st1" d="M826.1,1708.3c17.1,181-182,199.8-164.9,380.8"/>
			</g>
			<g class="st44">
				<path class="st1" d="M829.6,1716.1c19.2,181.3-179.6,202.4-160.4,383.7"/>
			</g>
			<g class="st45">
				<path class="st1" d="M833.1,1724c21.4,181.6-177.3,205-155.9,386.6"/>
			</g>
			<g class="st45">
				<path class="st1" d="M836.6,1731.9c23.5,181.9-174.8,207.5-151.3,389.4"/>
			</g>
			<g class="st46">
				<path class="st1" d="M840.1,1739.7c25.6,182.2-172.4,210.1-146.8,392.3"/>
			</g>
			<g class="st47">
				<path class="st1" d="M843.6,1747.6c27.8,182.5-170,212.6-142.2,395.1"/>
			</g>
			<g class="st48">
				<path class="st1" d="M847.1,1755.5c29.9,182.8-167.5,215.1-137.6,397.9"/>
			</g>
			<g class="st49">
				<path class="st1" d="M850.5,1763.4c32,183.1-165,217.6-132.9,400.7"/>
			</g>
			<g class="st50">
				<path class="st1" d="M854,1771.3c34.2,183.5-162.4,220.1-128.3,403.5"/>
			</g>
			<g class="st51">
				<path class="st1" d="M857.4,1779.2c36.3,183.8-159.9,222.5-123.6,406.3"/>
			</g>
			<g class="st52">
				<path class="st1" d="M860.8,1787.1c38.4,184.1-157.3,225-118.9,409"/>
			</g>
			<g class="st53">
				<path class="st1" d="M864.2,1795.1c40.6,184.4-154.8,227.4-114.2,411.8"/>
			</g>
			<g>
				<path class="st1" d="M578.6,1757c-14.9-118,183.5-143.2,168.5-261.2"/>
			</g>
			<g>
				<path class="st1" d="M578.2,1749.6c-14.5-118.9,184-143.1,169.5-262.1"/>
			</g>
			<g>
				<path class="st1" d="M577.7,1742.2c-14.1-119.8,184.6-143.1,170.5-262.9"/>
			</g>
			<g>
				<path class="st1" d="M577.3,1734.7c-13.6-120.7,185.1-143.1,171.5-263.8"/>
			</g>
			<g>
				<path class="st1" d="M576.9,1727.3c-13.2-121.6,185.7-143.1,172.5-264.8"/>
			</g>
			<g>
				<path class="st1" d="M576.5,1720c-12.7-122.5,186.2-143.2,173.5-265.7"/>
			</g>
			<g>
				<path class="st1" d="M576,1712.6c-12.3-123.4,186.7-143.2,174.4-266.6"/>
			</g>
			<g>
				<path class="st1" d="M575.6,1705.2c-11.8-124.3,187.3-143.3,175.4-267.5"/>
			</g>
			<g>
				<path class="st1" d="M575.2,1697.8c-11.4-125.2,187.8-143.3,176.4-268.5"/>
			</g>
			<g>
				<path class="st1" d="M574.8,1690.4c-11-126.1,188.3-143.4,177.3-269.5"/>
			</g>
			<g>
				<path class="st1" d="M574.3,1683.1c-10.5-127,188.8-143.5,178.3-270.4"/>
			</g>
			<g>
				<path class="st1" d="M573.9,1675.7c-10.1-127.9,189.3-143.6,179.2-271.5"/>
			</g>
			<g>
				<path class="st1" d="M573.5,1668.4c-9.6-128.8,189.8-143.7,180.2-272.5"/>
			</g>
			<g>
				<path class="st1" d="M573.1,1661c-9.2-129.7,190.3-143.8,181.1-273.5"/>
			</g>
			<g>
				<path class="st1" d="M572.7,1653.7c-8.7-130.6,190.8-143.9,182.1-274.5"/>
			</g>
			<g>
				<path class="st1" d="M572.3,1646.3c-8.3-131.5,191.3-144.1,183-275.5"/>
			</g>
			<g>
				<path class="st1" d="M571.9,1639c-7.8-132.4,191.8-144.2,183.9-276.5"/>
			</g>
			<g>
				<path class="st1" d="M542,2173.9c0-220.3,206.5-223.4,200-443.5c-2.7-91.7-208.7-78.1-218-169.4"/>
			</g>
			<g class="st2">
				<path class="st1" d="M544.2,2176.8c0-221.4,206.7-224.5,200-445.8c-2.9-93.4-209.1-79.5-218.7-172.5"/>
			</g>
			<g class="st3">
				<path class="st1" d="M546.5,2179.7c0-222.5,207-225.8,200-448.1c-3-95.1-209.4-80.9-219.4-175.5"/>
			</g>
			<g class="st4">
				<path class="st1" d="M548.7,2182.6c0-223.6,207.2-226.9,199.9-450.4c-3.1-96.8-209.7-82.3-220.1-178.6"/>
			</g>
			<g class="st5">
				<path class="st1" d="M551,2185.5c0-224.7,207.4-228.1,199.9-452.7c-3.3-98.5-210-83.8-220.7-181.7"/>
			</g>
			<g class="st54">
				<path class="st1" d="M553.2,2188.4c0-225.8,207.6-229.3,199.9-455c-3.4-100.2-210.4-85.2-221.4-184.8"/>
			</g>
			<g class="st55">
				<path class="st1" d="M555.4,2191.3c0-226.9,207.8-230.5,199.9-457.3c-3.5-101.9-210.7-86.6-222.1-187.9"/>
			</g>
			<g class="st56">
				<path class="st1" d="M557.7,2194.2c0-228,208-231.7,199.9-459.6c-3.7-103.6-211.1-88.1-222.8-191"/>
			</g>
			<g class="st31">
				<path class="st1" d="M559.9,2197.1c0-229.1,208.2-232.9,199.9-461.9c-3.8-105.3-211.4-89.5-223.5-194.1"/>
			</g>
			<g class="st57">
				<path class="st1" d="M562.2,2200c0-230.2,208.5-234.1,199.9-464.2c-4-107-211.7-91-224.2-197.3"/>
			</g>
			<g class="st58">
				<path class="st1" d="M564.4,2202.9c0-231.3,208.7-235.3,199.9-466.4c-4.1-108.7-212.1-92.4-224.9-200.4"/>
			</g>
			<g class="st59">
				<path class="st1" d="M566.6,2205.8c0-232.4,208.9-236.5,199.9-468.7c-4.3-110.4-212.4-93.9-225.6-203.5"/>
			</g>
			<g class="st14">
				<path class="st1" d="M568.9,2208.7c0-233.5,209.1-237.6,199.9-471c-4.4-112.1-212.7-95.3-226.3-206.7"/>
			</g>
			<g class="st60">
				<path class="st1" d="M571.1,2211.6c0-234.7,209.3-238.8,199.9-473.3c-4.5-113.8-213.1-96.8-226.9-209.8"/>
			</g>
			<g class="st61">
				<path class="st1" d="M573.4,2214.6c0-235.8,209.5-240,199.9-475.6c-4.7-115.5-213.4-98.3-227.6-213"/>
			</g>
			<g class="st62">
				<path class="st1" d="M575.6,2217.4c0-236.9,209.7-241.2,199.9-477.8c-4.8-117.2-213.7-99.8-228.3-216.1"/>
			</g>
			<g class="st34">
				<path class="st1" d="M577.8,2220.3c0-238,209.9-242.4,199.9-480.1c-5-118.9-214.1-101.3-229-219.3"/>
			</g>
			<g>
				<path class="st1" d="M534.6,1596.7c-21.3-41.3,156.4-133,135.1-174.3c-27.6-53.4-212.7,33.3-236.1-22
					c-29.2-69.1,145-109.2,142.2-184.1c-4.6-124-190.8-144.8-161.6-265.4C432.4,875.4,653,926.2,668.1,850
					c17.7-89.1-195.1-113.5-192.2-204.3"/>
			</g>
			<g class="st2">
				<path class="st1" d="M534,1589.8c-19.7-43.1,162.1-128.3,141.7-171c-26.1-54.6-214.4,28.1-236.8-28.2
					c-28.1-70.3,148.1-108.4,145.8-184.1c-3.7-123.5-189.5-143.2-162.2-263.7c17.5-76.9,236.2-31.1,249.9-108.7
					c15.5-87.8-196.6-108.6-194.7-197.8"/>
			</g>
			<g class="st3">
				<path class="st1" d="M533.8,1583c-18.1-44.9,167.5-123.6,147.8-167.8c-24.7-55.7-215.9,22.8-237.4-34.2
					c-27-71.5,151-107.6,149.2-184c-2.9-123-188.3-141.7-162.7-262c16.7-78.5,233.5-37.4,245.8-116.7
					c13.4-86.4-198-103.7-197.2-191.2"/>
			</g>
			<g class="st4">
				<path class="st1" d="M533.8,1576.3c-16.6-46.7,172.5-119,153.6-164.8c-23.3-56.8-217.2,17.6-237.8-40.3
					c-25.9-72.7,154-106.7,152.7-183.9C600.2,1064.8,415.2,1047.2,439,927c15.9-80.2,230.8-43.6,241.6-124.6
					c11.4-85-199.3-98.7-199.6-184.5"/>
			</g>
			<g class="st5">
				<path class="st1" d="M534,1569.7c-15-48.5,177.1-114.5,159.1-161.9c-22-57.9-218.5,12.5-238.1-46.2
					c-24.8-73.9,156.9-105.9,156.1-183.9c-1.3-122-185.8-138.6-163.7-258.7c15.1-81.9,228.1-49.7,237.4-132.5
					c9.4-83.5-200.6-93.7-201.9-177.8"/>
			</g>
			<g class="st54">
				<path class="st1" d="M534.5,1563.3c-13.4-50.3,181.4-110.1,164.3-159.2c-20.6-58.9-219.5,7.5-238.3-52.1
					c-23.7-75.2,159.7-105.1,159.4-183.9c-0.5-121.5-184.6-137.2-164.2-257c14.3-83.8,225.4-55.8,233.1-140.4
					c7.5-82-201.9-88.6-204.2-171"/>
			</g>
			<g class="st55">
				<path class="st1" d="M535.1,1557c-11.8-52.1,185.4-105.9,169.1-156.7c-19.2-59.9-220.5,2.5-238.3-57.9
					c-22.5-76.4,162.5-104.2,162.7-183.9c0.3-121-183.4-135.8-164.6-255.3c13.4-85.7,222.6-61.8,228.8-148.3
					c5.7-80.5-203-83.5-206.4-164.2"/>
			</g>
			<g class="st56">
				<path class="st1" d="M535.9,1550.9c-10.2-53.9,189.2-101.9,173.8-154.5c-17.8-60.9-221.3-2.5-238.2-63.6
					c-21.4-77.7,165.2-103.4,165.9-183.9c1.1-120.5-182.2-134.4-165-253.7C485,807.5,692.3,827.5,696.7,739
					c3.9-79-204.2-78.3-208.6-157.3"/>
			</g>
			<g class="st31">
				<path class="st1" d="M536.9,1544.9c-8.6-55.6,192.7-98,178.2-152.4c-16.5-61.8-222-7.3-238-69.3
					c-20.3-78.9,167.9-102.5,169.1-184c1.8-120-181-133.1-165.4-252.1c11.7-89.8,217.2-73.5,219.9-164
					c2.3-77.4-205.2-73.1-210.7-150.4"/>
			</g>
			<g class="st57">
				<path class="st1" d="M538,1539.1c-7.1-57.4,195.9-94.4,182.3-150.6c-15.2-62.7-222.6-12.1-237.6-74.8
					c-19.2-80.2,170.5-101.7,172.3-184.1c2.6-119.5-179.8-131.8-165.8-250.5c10.8-91.9,214.5-79.3,215.3-171.8
					c0.7-75.9-206.2-67.8-212.7-143.4"/>
			</g>
			<g class="st58">
				<path class="st1" d="M539.2,1533.5c-5.5-59.2,199-90.9,186.3-149c-13.9-63.6-223.1-16.8-237.2-80.3
					c-18.1-81.4,173.1-100.8,175.4-184.2c3.3-118.9-178.6-130.5-166.2-248.8c9.9-94.1,211.8-85,210.7-179.6
					c-0.9-74.3-207.1-62.5-214.6-136.4"/>
			</g>
			<g class="st59">
				<path class="st1" d="M540.5,1528c-3.9-61,201.9-87.6,190.2-147.6c-12.6-64.5-223.5-21.4-236.6-85.7
					c-16.9-82.7,175.7-100,178.5-184.4c4-118.4-177.4-129.3-166.5-247.2c8.9-96.3,209.1-90.7,206.1-187.4
					c-2.3-72.7-207.9-57.1-216.5-129.3"/>
			</g>
			<g class="st14">
				<path class="st1" d="M541.9,1522.6c-2.3-62.8,204.6-84.5,193.8-146.4c-11.3-65.3-223.7-25.9-236-91
					c-15.8-84,178.2-99.2,181.6-184.6c4.7-117.9-176.2-128.1-166.8-245.6c7.9-98.7,206.5-96.3,201.3-195.1
					c-3.7-71.1-208.6-51.7-218.3-122.2"/>
			</g>
			<g class="st60">
				<path class="st1" d="M543.4,1517.4c-0.7-64.6,207.2-81.5,197.4-145.4c-10.1-66.1-223.9-30.3-235.3-96.2
					c-14.7-85.3,180.6-98.4,184.6-184.9c5.4-117.3-175-126.9-167.1-244.1c6.9-101,203.8-101.8,196.6-202.8
					c-5-69.5-209.3-46.2-220-115"/>
			</g>
			<g class="st61">
				<path class="st1" d="M544.9,1512.4c0.9-66.4,209.6-78.8,200.8-144.6c-8.9-66.9-224.1-34.7-234.5-101.3
					c-13.5-86.6,183-97.6,187.6-185.1C705,964.5,525,955.5,531.5,838.8c5.8-103.4,201.2-107.3,191.8-210.4
					c-6.2-67.9-209.9-40.7-221.7-107.8"/>
			</g>
			<g class="st62">
				<path class="st1" d="M546.5,1507.4c2.4-68.2,211.9-76.2,204.2-144.1c-7.7-67.7-224.1-38.9-233.6-106.4
					c-12.4-87.9,185.4-96.8,190.5-185.4C714.4,955.3,534.8,947,540,830.6c4.7-105.8,198.6-112.8,186.9-218.1
					c-7.4-66.3-210.4-35.1-223.2-100.5"/>
			</g>
			<g class="st34">
				<path class="st1" d="M548.1,1502.6c4-70,214-73.8,207.5-143.6c-6.5-68.4-224.1-43.1-232.6-111.3
					c-11.2-89.2,187.7-96,193.5-185.7c7.5-115.7-171.7-123.5-167.8-239.4c3.6-108.3,196-118.2,182-225.7
					c-8.5-64.7-210.8-29.4-224.7-93.1"/>
			</g>
			<g>
				<path class="st1" d="M559.1,1393c-16.9-66.6,170.9-102.2,162.3-170.3c-11.2-89.2-210.3-83.9-204.5-173.6
					c7.5-115.7,227.8-104,231.7-219.9c3.6-107.8-202-98.5-216-205.5c-8.5-65.1,168.5-71.8,171.1-137.4
					C707.6,381.7,536,372.8,545,268.5c8.2-95.1,196-90.5,192.5-185.9"/>
			</g>
			<g>
				<path class="st1" d="M559.4,1386.2c-15.6-64.9,173-98.1,165.4-164.4c-10.2-89.5-209.5-85.9-203.2-175.7
					c8-114.1,227.7-101.2,232.2-215.5c4.2-106.4-199.9-97.5-214.1-203c-9.4-69.4,165.5-77.3,167.2-147.4
					c2.6-105.7-167.8-112.7-159.3-218.1c7.6-94.9,195.4-91.4,191.3-186.5"/>
			</g>
			<g>
				<path class="st1" d="M559.8,1379.4c-14.2-63.2,175.1-94,168.6-158.4c-9.1-89.7-208.6-87.9-201.8-177.9
					c8.5-112.5,227.6-98.4,232.8-211.1c4.8-104.9-197.8-96.5-212.2-200.6c-10.2-73.8,162.5-82.7,163.3-157.2
					c1.2-106.8-168.1-112-160.1-218.5c7.1-94.6,194.8-92.3,190-187"/>
			</g>
			<g>
				<path class="st1" d="M560.1,1372.4c-12.9-61.5,177.3-89.7,171.7-152.3c-8-90-207.7-90-200.4-180c9.1-111,227.5-95.5,233.3-206.7
					c5.4-103.5-195.7-95.6-210.3-198.2c-11.1-78.1,159.5-88.1,159.4-166.9C713.7,360.5,545.5,356.9,553,249.4
					c6.6-94.3,194.2-93.1,188.8-187.6"/>
			</g>
			<g>
				<path class="st1" d="M560.4,1365.3c-11.5-59.8,179.4-85.3,174.8-146c-6.8-90.3-206.9-92.1-199-182.3
					c9.6-109.4,227.4-92.6,233.9-202.2c6-102.1-193.6-94.6-208.3-195.8c-12-82.4,156.6-93.3,155.5-176.6
					C715.8,353.6,548.7,351.6,555.7,243c6.1-94.1,193.6-94,187.5-188.1"/>
			</g>
			<g>
				<path class="st1" d="M560.8,1358.1c-10.2-58,181.6-80.7,178-139.6c-5.6-90.5-206-94.2-197.5-184.5
					c10.1-107.8,227.3-89.7,234.4-197.8c6.6-100.7-191.6-93.7-206.4-193.5c-12.9-86.7,153.8-98.5,151.5-186.1
					c-2.8-109.9-168.9-110.3-162.3-220C564,142.8,751.3,141.7,744.7,48"/>
			</g>
			<g>
				<path class="st1" d="M561.1,1350.8c-8.8-56.3,183.8-76,181-133c-4.4-90.8-205.1-96.4-196.1-186.8
					c10.6-106.2,227.2-86.8,235-193.3c7.2-99.2-189.5-92.8-204.5-191.2C562.7,555.5,727.5,543,724.1,450.9
					c-4-110.9-169.1-109.9-163-220.7c5.1-93.6,192.3-95.7,185-189.2"/>
			</g>
			<g>
				<path class="st1" d="M561.5,1343.4c-7.5-54.6,186-71.2,184.1-126.3c-3.2-91-204.2-98.6-194.6-189.1
					C562,923.4,778,944.1,786.4,839.2c7.8-97.8-187.5-91.9-202.5-188.9c-14.8-95.4,148.1-108.6,143.6-205.1
					c-5.2-111.9-169.3-109.5-163.7-221.4c4.6-93.3,191.6-96.6,183.7-189.7"/>
			</g>
			<g>
				<path class="st1" d="M561.9,1335.8c-6.1-52.9,188.2-66.1,187.1-119.4c-1.9-91.3-203.2-100.8-193.1-191.5
					c11.5-103.1,226.9-80.9,236-184.2c8.4-96.4-185.4-91-200.6-186.6c-15.8-99.8,145.4-113.6,139.7-214.5
					c-6.4-112.9-169.4-109.2-164.4-222.2c4.2-93.1,191-97.5,182.4-190.3"/>
			</g>
			<g>
				<path class="st1" d="M562.3,1328.1c-4.8-51.2,190.4-60.9,190-112.3c-0.6-91.5-202.3-103.1-191.6-193.9
					c12-101.5,226.8-77.9,236.5-179.7c9-95-183.4-90.2-198.6-184.4c-16.8-104.1,142.6-118.6,135.7-223.8
					c-7.5-113.9-169.6-109-165.1-223.1c3.7-92.8,190.3-98.3,181.1-190.8"/>
			</g>
			<g>
				<path class="st1" d="M562.7,1320.2c-3.4-49.5,192.5-55.4,192.9-105c0.8-91.7-201.3-105.4-190-196.4
					c12.4-99.9,226.6-74.9,236.9-175.1c9.6-93.5-181.4-89.4-196.6-182.2c-17.8-108.5,139.9-123.5,131.7-233.1
					c-8.6-114.9-169.8-108.8-165.7-223.9c3.2-92.6,189.6-99.2,179.8-191.3"/>
			</g>
			<g>
				<path class="st1" d="M563.2,1312.1c-2.1-47.8,194.6-49.7,195.8-97.5c2.2-91.9-200.4-107.7-188.4-198.9
					C583.5,917.5,797,943.9,808,845.4c10.2-92.1-179.4-88.5-194.6-180C594.5,552.6,750.6,537,741.1,423.1
					c-9.7-115.9-169.9-108.6-166.4-224.8c2.8-92.4,188.9-100.1,178.5-191.9"/>
			</g>
			<g>
				<path class="st1" d="M563.8,1303.9c-0.7-46.1,196.7-43.7,198.5-89.8c3.6-92.1-199.4-110.1-186.8-201.4
					c13.3-96.7,226.2-68.8,237.8-165.8c10.9-90.7-177.4-87.7-192.6-177.8C600.8,552,755.3,535.9,744.4,417.6
					c-10.7-116.8-170-108.5-167.1-225.8C579.7,99.7,765.6,90.9,754.6-0.6"/>
			</g>
			<g>
				<path class="st1" d="M564.5,1295.4c0.6-44.4,198.7-37.5,201.1-81.8c5-92.2-198.4-112.6-185.2-204
					c13.7-95.2,226.1-65.7,238.3-161.1c11.5-89.3-175.4-87-190.7-175.8C607.1,551.3,760,534.9,747.8,412.2
					c-11.7-117.8-170.1-108.4-167.7-226.8C582,93.5,767.6,83.6,756-7.6"/>
			</g>
			<g>
				<path class="st1" d="M565.2,1286.7c2-42.7,200.6-31,203.6-73.5c6.5-92.3-197.3-115-183.5-206.6C599.5,912.9,811.2,944,824,850.2
					c12.1-87.9-173.4-86.2-188.7-173.7c-22-125.8,129.3-142.7,115.8-269.7C738.5,288,580.9,298.4,582.8,179
					c1.4-91.7,186.8-102.7,174.6-193.5"/>
			</g>
			<g>
				<path class="st1" d="M566.1,1277.7c3.4-40.9,202.4-24.1,206-65c8.1-92.5-196.3-117.5-181.8-209.2
					c14.6-92,225.6-59.4,239.1-151.6C842,765.3,658,766.4,642.7,680.2c-23.1-130.2,126.7-147.4,111.8-278.8
					c-13.6-119.8-170.3-108.4-169-228.9c1-91.4,186.1-103.5,173.2-194.1"/>
			</g>
			<g>
				<path class="st1" d="M567.1,1268.4c4.7-39.2,204.1-16.9,208.2-56.2c9.6-92.6-195.2-120.1-180-211.9
					c14.9-90.5,225.4-56.2,239.5-146.8C848,768.4,665.3,768.8,650.1,684c-24.2-134.5,124.2-152.1,107.8-287.7
					c-14.6-120.8-170.4-108.5-169.6-230.1c0.6-91.2,185.4-104.4,171.9-194.6"/>
			</g>
			<g>
				<path class="st1" d="M572.1,1253.3c4.6-37.6,203.9-14.8,207.9-52.5c9.3-87.5-195.5-115.6-180.8-202.3
					c15-88.4,225.2-53.1,239.5-141.7c14.3-88.4-167.6-89.4-182.6-177.7C633.3,545.1,781.9,528,765.2,393.1
					c-14.8-119.8-171.4-106.6-171.8-227.3C593.1,74,777.8,59.1,763.3-31.6"/>
			</g>
			<g>
				<path class="st1" d="M577.1,1238.2c4.5-35.9,203.8-12.7,207.6-48.7c8.9-82.3-195.8-111.2-181.4-192.8
					c15.2-86.4,225.1-50.1,239.4-136.6c15.3-91.8-165.8-94-180.6-185.8C640.7,540.7,789.4,524.2,772.5,390
					c-15-118.8-172.3-104.7-173.9-224.4C597.5,73.1,781.9,56.4,766.5-34.7"/>
			</g>
			<g>
				<path class="st1" d="M582.1,1223.1c4.4-34.2,203.6-10.5,207.4-44.9c8.5-77.2-196-106.9-182.1-183.3
					c15.3-84.4,224.9-47,239.4-131.5c16.3-95.1-164.1-98.5-178.5-193.9C648.1,536.4,797,520.3,779.8,386.8
					c-15.2-117.9-173.3-102.8-176-221.6c-2.1-93,182.1-111.4,165.8-203"/>
			</g>
			<g>
				<path class="st1" d="M587.1,1207.9c4.3-32.6,203.5-8.3,207.1-41c8.1-72.1-196.2-102.6-182.8-173.9
					c15.4-82.4,224.8-43.8,239.4-126.3c17.3-98.4-162.4-103-176.5-201.9c-18.8-132.6,130.3-148.2,112.8-281
					c-15.4-117-174.3-100.9-178.1-218.8c-3-93.6,181-113.7,163.8-205.8"/>
			</g>
			<g>
				<path class="st1" d="M592.1,1192.7c4.2-30.9,203.3-6,206.8-37.1c7.7-67-196.3-98.4-183.4-164.6
					c15.6-80.4,224.7-40.6,239.3-121.1C873.2,768.3,694.1,762.4,680.4,660c-17.6-132.1,131.8-147.3,114.1-279.4
					c-15.6-116-175.3-99-180.2-215.9C610.4,70.4,794.2,48.6,776-43.9"/>
			</g>
			<g>
				<path class="st1" d="M597.2,1177.5c4.1-29.3,203.1-3.7,206.5-33c7.3-61.9-196.4-94.3-184.1-155.4
					c15.8-78.3,224.6-37.3,239.2-115.9c19.5-105-159.1-112-172.4-217.9c-16.4-131.6,133.3-146.5,115.3-277.8
					c-15.8-115.1-176.3-97-182.2-213.1C614.7,69.5,798.3,46.1,779.2-47"/>
			</g>
			<g>
				<path class="st1" d="M602.2,1162.2c4-27.6,202.9-1.2,206.2-28.9c6.9-56.8-196.4-90.4-184.7-146.4
					c16.1-76.3,224.5-34,239.1-110.5C883.5,768.1,705.3,760,692.6,650.5c-15.2-131,134.8-145.6,116.5-276.2
					c-16-114.2-177.3-95.1-184.3-210.2C619,68.6,802.4,43.5,782.4-50"/>
			</g>
			<g>
				<path class="st1" d="M607.2,1146.8c3.9-26,202.6,1.4,205.9-24.7c6.5-51.7-196.4-86.5-185.2-137.4
					c16.3-74.2,224.4-30.5,239-105.1c21.8-111.5-156-120.8-168.2-233.8C684.6,515.3,835,501.1,816.4,371.1
					C800.2,257.8,638.1,277.9,630,163.7C623.2,67.7,806.5,40.9,785.5-53.1"/>
			</g>
			<g>
				<path class="st1" d="M612.3,1131.4c3.8-24.3,202.4,4.1,205.5-20.3c6.1-46.6-196.3-82.9-185.7-128.6
					c16.6-72.2,224.3-27,238.8-99.6c23-114.8-154.4-125.2-166.1-241.7c-13-129.9,137.7-143.9,118.9-273.1
					c-16.4-112.4-179.3-91.3-188.4-204.5c-7.8-96.7,175.2-125,153.4-219.5"/>
			</g>
			<g>
				<path class="st1" d="M617.4,1115.9c3.7-22.7,202.1,7,205.2-15.8c5.6-41.5-196.1-79.4-186.2-120.1c17-70.1,224.1-23.3,238.6-94
					c24.2-118.1-152.9-129.6-164-249.6C699,507.1,850.1,493.3,831,364.8c-16.6-111.5-180.3-89.4-190.4-201.7
					C631.8,65.9,814.6,35.9,791.8-59.1"/>
			</g>
			<g>
				<path class="st1" d="M622.5,1100.4c3.6-21,201.7,10.1,204.7-11c5.2-36.4-195.7-76.3-186.6-111.8c17.4-68,224-19.5,238.3-88.2
					c25.4-121.4-151.4-133.9-161.9-257.5C706.2,503,857.7,489.5,838.3,361.7C821.5,251,657,274.2,645.9,162.9
					C636.1,65,818.7,33.4,795-62.1"/>
			</g>
			<g>
				<path class="st1" d="M627.6,1084.6c3.5-19.3,201.3,13.5,204.2-5.9c4.8-31.2-195.2-73.4-186.9-103.9
					c17.9-65.9,223.8-15.5,238-82.3C909.6,767.8,733,754.2,723.2,627.1c-9.9-128.2,142.1-141.5,122.4-268.6
					c-17-109.8-182.3-85.5-194.5-196c-10.8-98.4,171.6-131.7,147-227.6"/>
			</g>
			<g>
				<path class="st1" d="M632.8,1068.7c3.4-17.7,200.7,17.4,203.7-0.4c4.3-26.1-194.4-71-187.1-96.5
					c18.5-63.8,223.5-11.3,237.6-76.2c27.9-127.9-148.5-142.5-157.6-273.2c-8.9-127.6,143.5-140.8,123.6-267.1
					c-17.2-108.9-183.4-83.6-196.5-193.1C644.6,63.3,826.8,28.4,801.3-68"/>
			</g>
			<g>
				<path class="st1" d="M638,1052.6c3.3-16,200,21.9,202.9,5.8c3.8-21-193.4-69.3-187-89.7c19.2-61.6,223.1-6.9,237.1-69.9
					c29.2-131.2-147.1-146.8-155.5-281c-8-127,144.9-140,124.7-265.7C842.8,244.1,675.9,270.6,661.8,162
					C648.8,62.4,830.9,25.9,804.4-71"/>
			</g>
			<g>
				<path class="st1" d="M643.3,1036.3c3.2-14.4,199,27.3,202,12.9c3.3-16-191.9-68.5-186.7-83.9c20-59.3,222.6-2.1,236.5-63.2
					C925.5,767.6,749.4,751,741.7,613.3C734.7,486.9,888,474,867.5,349.1c-17.6-107.3-185.4-79.7-200.5-187.4
					C653.1,61.5,835,23.4,807.6-73.9"/>
			</g>
			<g>
				<path class="st1" d="M648.7,1019.5c3.1-12.7,197.5,34.3,200.5,21.6c2.6-10.9-189.7-69.3-185.8-79.8
					c20.9-57,221.9,3.1,235.6-56.1c31.8-137.7-144.3-155.3-151.2-296.5c-6.1-125.8,147.7-138.6,127-262.8
					C857,239.5,688.4,268.1,672.4,161.4C657.3,60.7,839,21,810.7-76.9"/>
			</g>
			<g>
				<path class="st1" d="M654.3,1011.3c3.2-12.3,196.7,38.2,200,25.8c2.8-10.6-189.3-68.9-185.7-79.2
					c5.3-15.4,193.8,54.5,199.8,39.4c16.2-40.9-168.2-97.7-158.6-140.6c30.6-136.2,251.7-117.9,245.7-257.3
					c-5.4-125.7-235.1-90.3-267-211.9c-3.9-14.8,196.1-43.4,195.7-58.6c-2.5-92-188.7-74.3-203.5-165.2
					C664.1,62.3,846.7,21,818-77.6"/>
			</g>
			<g>
				<path class="st1" d="M660,1003.1c3.4-11.9,195.9,42.2,199.3,30.2c2.9-10.2-188.1-71.9-184.4-81.9c5.5-15,193.4,56.8,199.3,42
					c16.2-40.7-168.4-98.7-158.5-141.4c31.3-134.3,252.7-114.3,247.7-252.1c-4.6-125.6-234.3-91.3-265.9-213
					c-3.8-14.7,195.9-43.4,195.4-58.6c-3-91.6-189.1-73.1-204.1-163.5C671.7,62.8,854.3,21,825.2-78.4"/>
			</g>
			<g>
				<path class="st1" d="M665.7,994.8c3.5-11.6,194.9,46.4,198.4,34.8c3-9.9-186.7-75.2-183-84.8c5.6-14.6,192.9,59.2,198.8,44.6
					c16.3-40.5-168.6-99.8-158.4-142.2c31.9-132.4,253.8-110.7,249.7-246.8c-3.8-125.6-233.6-92.4-264.8-214.1
					c-3.7-14.5,195.7-43.5,195.2-58.5c-3.4-91.1-189.5-71.9-204.8-161.8C679.4,63.2,862,21,832.5-79.2"/>
			</g>
			<g>
				<path class="st1" d="M671.5,986.4c3.6-11.2,193.8,50.8,197.4,39.6c3.1-9.6-185.3-78.5-181.5-87.9
					c5.8-14.2,192.4,61.6,198.2,47.3c16.4-40.3-168.8-100.8-158.3-143.1C760,712,982.3,735.4,979,601
					c-3-125.5-232.9-93.4-263.6-215.1c-3.6-14.4,195.6-43.5,194.9-58.4c-3.8-90.7-189.8-70.7-205.4-160.1
					C687,63.7,869.6,21,839.8-79.9"/>
			</g>
			<g>
				<path class="st1" d="M677.4,977.9c3.8-10.8,192.5,55.4,196.3,44.6c3.3-9.3-183.6-82.1-179.7-91.1
					c5.9-13.9,191.8,64.1,197.5,50.1c16.4-40.2-169-101.9-158.2-143.9C766.5,709,989.2,734.2,986.9,601.5
					c-2.2-125.4-232.2-94.5-262.5-216.2c-3.6-14.3,195.4-43.6,194.7-58.3c-4.2-90.2-190.2-69.4-206-158.4
					C694.6,64.1,877.3,21,847.1-80.7"/>
			</g>
			<g>
				<path class="st1" d="M683.3,969.3c3.9-10.4,191.1,60.1,195,49.7c3.4-9-181.9-85.7-177.9-94.4c6.1-13.5,191.2,66.7,196.8,53
					c16.5-40-169.2-103-158-144.8c33.9-126.7,256.9-99.7,255.5-230.8c-1.4-125.3-231.4-95.6-261.4-217.3
					c-3.5-14.2,195.2-43.6,194.4-58.2c-4.7-89.8-190.6-68.2-206.6-156.7C702.2,64.6,884.9,21,854.4-81.5"/>
			</g>
			<g>
				<path class="st1" d="M689.4,960.6c4.1-10.1,189.4,65.2,193.5,55.1c3.5-8.6-179.9-89.5-175.9-98c6.2-13.1,190.4,69.3,196,55.9
					c16.6-39.8-169.3-104.1-157.9-145.7c34.5-124.8,258-95.9,257.4-225.4c-0.5-125.3-230.7-96.7-260.3-218.4
					c-3.4-14.1,195-43.7,194.1-58.2c-5.1-89.3-191-66.9-207.2-154.9C709.8,65,892.5,21,861.6-82.2"/>
			</g>
			<g>
				<path class="st1" d="M695.6,951.7c4.2-9.7,187.5,70.4,191.7,60.7c3.6-8.3-177.8-93.6-173.7-101.7c6.4-12.7,189.6,72,195.1,58.9
					c16.7-39.6-169.5-105.3-157.7-146.6c35.1-122.9,259-92.1,259.3-219.9c0.3-125.2-229.9-97.8-259.1-219.5
					c-3.4-14,194.8-43.8,193.9-58.1c-5.5-88.9-191.4-65.7-207.8-153.2C717.4,65.5,900.2,21.1,868.9-83"/>
			</g>
			<g>
				<path class="st1" d="M701.9,942.9c4.4-9.3,185.4,75.7,189.8,66.4c3.8-8-175.4-97.7-171.3-105.5c6.5-12.3,188.7,74.8,194.2,62
					c16.8-39.4-169.6-106.5-157.5-147.5c35.8-121,260-88.3,261.2-214.5c1.2-125.1-229.2-98.9-258-220.6
					c-3.3-13.9,194.6-43.8,193.6-58.1c-6-88.4-191.8-64.4-208.4-151.5C725,65.9,907.8,21.1,876.2-83.8"/>
			</g>
			<g>
				<path class="st1" d="M708.3,933.9c4.5-8.9,183,81.3,187.5,72.3c3.9-7.7-172.8-102.1-168.6-109.6c6.7-11.9,187.7,77.7,193.1,65.1
					c16.8-39.2-169.8-107.6-157.3-148.4c36.4-119.2,261-84.5,263.1-209c2.1-125-228.4-100-256.8-221.8
					c-3.2-13.8,194.4-43.9,193.3-58c-6.4-87.9-192.2-63.2-209-149.7C732.6,66.4,915.5,21.1,883.5-84.5"/>
			</g>
			<g>
				<path class="st1" d="M714.9,924.7c4.7-8.6,180.3,87.1,185,78.6c4-7.3-170-106.6-165.7-113.8c6.9-11.5,186.6,80.6,191.9,68.3
					C943,918.8,756.2,849,769,808.4c37-117.3,262-80.5,264.9-203.5C1036.9,480,806.3,503.7,778.2,382c-3.1-13.7,194.1-44,193-58
					c-6.8-87.5-192.6-61.9-209.5-148C740.2,66.8,923.1,21.1,890.8-85.3"/>
			</g>
			<g>
				<path class="st1" d="M721.6,915.5c4.8-8.2,177.3,93.1,182.1,84.9c4.1-7-166.9-111.2-162.5-118.1c7-11.1,185.4,83.6,190.6,71.6
					c17-38.8-170-110.1-156.9-150.4c37.7-115.5,263-76.6,266.7-198c3.8-124.8-226.9-102.3-254.5-224.1
					c-3.1-13.6,193.9-44.1,192.8-57.9c-7.3-87-193-60.6-210.1-146.3C747.8,67.3,930.8,21.2,898-86"/>
			</g>
			<g>
				<path class="st1" d="M728.6,906.2c5-7.8,173.8,99.3,178.8,91.5c4.3-6.7-163.4-116.1-159-122.7c7.2-10.7,184,86.7,189.2,75
					c17.1-38.6-170.1-111.4-156.6-151.4c38.3-113.7,264-72.6,268.5-192.5c4.8-124.7-226.1-103.5-253.4-225.3
					c-3-13.5,193.7-44.1,192.5-57.9c-7.7-86.6-193.3-59.4-210.7-144.5C755.4,67.8,938.4,21.2,905.3-86.8"/>
			</g>
			<g>
				<path class="st1" d="M735.7,896.8c5.1-7.4,170,105.7,175.1,98.3c4.4-6.4-159.7-121-155.2-127.3c7.3-10.3,182.5,89.8,187.6,78.3
					c17.1-38.4-170.2-112.7-156.3-152.4c38.9-111.8,264.9-68.6,270.3-186.9C1063,482.1,832,502.1,805.1,380.3
					c-3-13.4,193.5-44.2,192.2-57.9c-8.1-86.1-193.7-58.1-211.3-142.8C763,68.2,946.1,21.2,912.6-87.6"/>
			</g>
			<g>
				<path class="st1" d="M743.1,887.3c5.3-7.1,165.8,112.2,171.1,105.1c4.5-6.1-155.6-126.1-151-132.1
					c7.5-9.9,180.9,93.1,185.9,81.8c17.2-38.2-170.2-114-156-153.5c39.5-110,265.9-64.6,272.1-181.3
					c6.6-124.5-224.5-105.8-251-227.6c-2.9-13.3,193.2-44.3,191.9-57.8c-8.6-85.7-194.1-56.8-211.8-141
					C770.6,68.7,953.7,21.2,919.9-88.3"/>
			</g>
			<g>
				<path class="st1" d="M750.7,877.8c17.6-21.9,194.1,84.1,205.1,58.3c61.7-144.6-96.5-186.6-82.3-343.2
					c12.5-137.5,162.9-141.1,140.3-277.3c-14-84.5-193.7-49.7-211.6-133.5C778.2,69.1,961.4,21.2,927.2-89.1"/>
			</g>
			<g class="st32">
				<path class="st1" d="M477.1,633.2c6.4-39.9,209.2-18.4,211.3-58.7c7.9-146.6-203.8-160.4-192.2-306.7
					c9.1-114.3,220.7-94.2,233-208.2C735,5.7,530.9-7.4,532.1-61.5"/>
			</g>
			<g class="st12">
				<path class="st1" d="M478.9,622.2c7.2-43.8,210.5-21.4,213-65.7c8-143.3-204.1-157.1-193.1-300.3
					c8.4-109.7,219.8-90.1,231.4-199.4c5.6-53-198.4-65.8-197.3-119.2"/>
			</g>
			<g class="st59">
				<path class="st1" d="M480.8,611.3c8.1-47.7,211.9-24.6,214.7-72.9c8.1-140.1-204.4-153.8-194-293.8
					c7.7-105,218.8-85.9,229.7-190.7c5.4-52.2-198.4-64.7-197.4-117.2"/>
			</g>
			<g class="st63">
				<path class="st1" d="M482.6,600.5c9-51.7,213.2-27.8,216.4-80.2c8.2-136.9-204.6-150.5-194.9-287.3
					c7.1-100.3,217.9-81.8,228.1-181.9c5.2-51.4-198.5-63.6-197.6-115.3"/>
			</g>
			<g class="st14">
				<path class="st1" d="M484.3,589.8c9.9-55.6,214.6-31.1,218.1-87.5c8.3-133.7-204.9-147.1-195.8-280.7
					c6.5-95.6,217-77.8,226.5-173.2C738-2.3,534.4-14,535.2-64.9"/>
			</g>
			<g class="st64">
				<path class="st1" d="M486.1,579.1c10.8-59.5,215.9-34.5,219.8-94.8c8.4-130.4-205.1-143.8-196.8-274.2
					C515,119.1,725.2,136.3,734,45.6c4.8-49.9-198.7-61.3-198-111.4"/>
			</g>
			<g class="st60">
				<path class="st1" d="M487.9,568.4c11.7-63.4,217.2-37.8,221.5-102.2C717.8,339,504,325.9,511.7,198.6
					c5.2-86.3,215.2-69.8,223.2-155.8c4.6-49.1-198.8-60.1-198.1-109.4"/>
			</g>
			<g class="st16">
				<path class="st1" d="M489.7,557.7c12.6-67.4,218.5-41.2,223.2-109.6c8.5-124-205.6-136.9-198.6-261
					c4.6-81.6,214.2-65.9,221.6-147.3c4.4-48.3-198.9-58.8-198.3-107.3"/>
			</g>
			<g class="st33">
				<path class="st1" d="M491.4,547.1c13.4-71.3,219.8-44.7,224.9-117c8.5-120.8-205.8-133.4-199.5-254.3
					c4-76.9,213.3-62,219.9-138.7c4.1-47.5-199-57.6-198.5-105.3"/>
			</g>
			<g class="st62">
				<path class="st1" d="M493.2,536.5c14.3-75.2,221.1-48.1,226.6-124.5c8.5-117.6-206-129.9-200.4-247.7
					c3.4-72.2,212.3-58.2,218.3-130.3c3.9-46.7-199.2-56.3-198.7-103.2"/>
			</g>
			<g class="st18">
				<path class="st1" d="M495,526c15.2-79.1,222.4-51.6,228.3-132c8.5-114.3-206.2-126.4-201.3-241c2.9-67.5,211.4-54.5,216.7-121.9
					c3.6-45.9-199.3-54.9-198.8-101"/>
			</g>
			<g class="st65">
				<path class="st1" d="M496.7,515.4c16.1-83.1,223.6-55.1,230.1-139.5c8.5-111.1-206.3-122.8-202.2-234.2
					C526.9,78.9,735,90.8,739.7,28.1c3.4-45.2-199.4-53.5-199-98.8"/>
			</g>
			<g class="st19">
				<path class="st1" d="M498.5,504.9c17-87,224.9-58.7,231.8-147c8.4-107.9-206.5-119.2-203.1-227.4
					C529,72.4,736.6,83.1,740.7,25.1c3.1-44.4-199.5-52.1-199.2-96.6"/>
			</g>
			<g class="st66">
				<path class="st1" d="M500.3,494.4c17.9-90.9,226.1-62.2,233.5-154.5c8.4-104.7-206.6-115.5-204-220.5
					c1.3-53.4,208.4-44,211.8-97.4c2.8-43.6-199.6-50.6-199.4-94.3"/>
			</g>
			<g class="st67">
				<path class="st1" d="M502,483.8c18.8-94.8,227.4-65.8,235.3-162.1c8.3-101.5-206.7-111.7-204.9-213.5
					c0.8-48.7,207.4-40.7,210.2-89.4C745.1-24,542.9-30.2,543-73.1"/>
			</g>
			<g class="st21">
				<path class="st1" d="M503.8,473.3c19.6-98.8,228.6-69.3,237-169.7C749,205.4,534.1,195.8,535,97.2c0.4-44,206.3-37.6,208.6-81.6
					c2.2-42-199.8-47.4-199.7-89.5"/>
			</g>
			<g class="st35">
				<path class="st1" d="M505.5,462.8c20.5-102.7,229.8-72.9,238.7-177.2c8.2-95.1-206.7-103.9-206.7-199.3
					c0-39.4,205.2-34.7,207-74c1.8-41.2-199.9-45.7-199.9-87"/>
			</g>
		</g>
	</g>
</g>
</svg>
