<?xml version="1.0" encoding="utf-8"?>
<!-- Generator: Adobe Illustrator 25.0.1, SVG Export Plug-In . SVG Version: 6.00 Build 0)  -->
<svg version="1.1" id="Waveform" xmlns="http://www.w3.org/2000/svg" xmlns:xlink="http://www.w3.org/1999/xlink" x="0px" y="0px"
	 viewBox="0 0 1440 2040.6" style="enable-background:new 0 0 1440 2040.6;" width="100%" height="100%" xml:space="preserve">
<style type="text/css">
	.st0{opacity:0.6;}
	.st1{fill:none;stroke:#5C0099;stroke-miterlimit:20;}
	.st2{fill:none;stroke:#5C0099;stroke-width:0.7;stroke-miterlimit:20;}
	.st3{opacity:0.97;enable-background:new    ;}
	.st4{opacity:0.94;enable-background:new    ;}
	.st5{opacity:0.91;enable-background:new    ;}
	.st6{opacity:0.88;enable-background:new    ;}
	.st7{opacity:0.86;enable-background:new    ;}
	.st8{opacity:0.83;enable-background:new    ;}
	.st9{opacity:0.8;enable-background:new    ;}
	.st10{opacity:0.77;enable-background:new    ;}
	.st11{opacity:0.74;enable-background:new    ;}
	.st12{opacity:0.71;enable-background:new    ;}
	.st13{opacity:0.68;enable-background:new    ;}
	.st14{opacity:0.65;enable-background:new    ;}
	.st15{opacity:0.63;enable-background:new    ;}
	.st16{opacity:0.6;enable-background:new    ;}
	.st17{opacity:0.57;enable-background:new    ;}
	.st18{opacity:0.54;enable-background:new    ;}
	.st19{opacity:0.51;enable-background:new    ;}
	.st20{opacity:0.48;enable-background:new    ;}
	.st21{opacity:0.45;enable-background:new    ;}
	.st22{opacity:0.42;enable-background:new    ;}
	.st23{opacity:0.39;enable-background:new    ;}
	.st24{opacity:0.37;enable-background:new    ;}
	.st25{opacity:0.34;enable-background:new    ;}
	.st26{opacity:0.31;enable-background:new    ;}
	.st27{opacity:0.28;enable-background:new    ;}
	.st28{opacity:0.25;enable-background:new    ;}
	.st29{opacity:0.95;enable-background:new    ;}
	.st30{opacity:0.9;enable-background:new    ;}
	.st31{opacity:0.85;enable-background:new    ;}
	.st32{opacity:0.75;enable-background:new    ;}
	.st33{opacity:0.7;enable-background:new    ;}
	.st34{opacity:0.55;enable-background:new    ;}
	.st35{opacity:0.5;enable-background:new    ;}
	.st36{opacity:0.4;enable-background:new    ;}
	.st37{opacity:0.35;enable-background:new    ;}
	.st38{opacity:0.3;enable-background:new    ;}
	.st39{opacity:0.2;enable-background:new    ;}
	.st40{opacity:0.19;enable-background:new    ;}
	.st41{opacity:0.18;enable-background:new    ;}
	.st42{opacity:0.17;enable-background:new    ;}
	.st43{opacity:0.16;enable-background:new    ;}
	.st44{opacity:0.15;enable-background:new    ;}
	.st45{opacity:0.14;enable-background:new    ;}
	.st46{opacity:0.13;enable-background:new    ;}
	.st47{opacity:0.12;enable-background:new    ;}
	.st48{opacity:0.11;enable-background:new    ;}
	.st49{opacity:0.1;enable-background:new    ;}
	.st50{opacity:9.000000e-02;enable-background:new    ;}
	.st51{opacity:8.000000e-02;enable-background:new    ;}
	.st52{opacity:7.000000e-02;enable-background:new    ;}
	.st53{opacity:6.000000e-02;enable-background:new    ;}
	.st54{opacity:5.000000e-02;enable-background:new    ;}
	.st55{opacity:0.84;enable-background:new    ;}
	.st56{opacity:0.81;enable-background:new    ;}
	.st57{opacity:0.78;enable-background:new    ;}
	.st58{opacity:0.72;enable-background:new    ;}
	.st59{opacity:0.69;enable-background:new    ;}
	.st60{opacity:0.66;enable-background:new    ;}
	.st61{opacity:0.59;enable-background:new    ;}
	.st62{opacity:0.56;enable-background:new    ;}
	.st63{opacity:0.53;enable-background:new    ;}
	.st64{opacity:0.64;enable-background:new    ;}
	.st65{opacity:0.61;enable-background:new    ;}
	.st66{opacity:0.49;enable-background:new    ;}
	.st67{opacity:0.46;enable-background:new    ;}
	.st68{opacity:0.44;enable-background:new    ;}
</style>
<g class="st0">
	<g>
		<g id="Waveform2_7_">
			<g>
				<path class="st1" d="M88.9,2207.8C8,1840.3,170.1,1812.5,124,1439.1c-13.6-110-170-109.8-153.9-219.5
					c13.9-94.4,169.9-48.9,206.8-136.9c41.1-98.1-103.3-184.2-36.5-267"/>
			</g>
			<g>
				<path class="st1" d="M102.8,2207.9c-81.8-370.5,81.6-399,33.2-775.4c-13.7-107-171.9-105.9-157-212.7
					c13.3-95.4,171.6-52,207-141.5c37.8-95.7-109.6-179.2-47-260.8"/>
			</g>
			<g>
				<path class="st1" d="M116.7,2208c-82.8-373.6,81.9-402.7,31.3-782c-14-103.9-173.8-102-160.2-206
					c12.6-96.4,173.3-55.1,207.1-146.3c34.5-93.2-116-174-57.4-254.3"/>
			</g>
			<g>
				<path class="st1" d="M130.6,2208c-83.7-376.6,82.3-406.5,29.3-788.6c-14-100.9-175.7-98-163.3-199.2
					c11.9-97.5,175.1-58.3,207.2-151.1c31.4-90.7-122.4-168.5-67.9-247.5"/>
			</g>
			<g>
				<path class="st1" d="M144.5,2208.1c-84.6-379.6,82.7-410.2,27.4-795.1c-14.1-98-177.6-94-166.4-192.4
					c11.2-98.5,177-61.6,207.3-155.9C241.1,976.4,84,902,134.4,824.2"/>
			</g>
			<g>
				<path class="st1" d="M158.4,2208.2c-85.5-382.6,83.2-414,25.4-801.7c-14.1-95-179.5-90.1-169.5-185.6
					c10.4-99.5,178.9-65,207.3-160.9c25.4-85.8-135.2-156.7-88.9-233.3"/>
			</g>
			<g>
				<path class="st1" d="M172.3,2208.2c-86.5-385.6,83.6-417.7,23.5-808.3c-14.2-92-181.5-86-172.6-178.7
					c9.6-100.5,180.8-68.5,207.3-165.9C253,972,88.8,904.9,131,829.6"/>
			</g>
			<g>
				<path class="st1" d="M186.2,2208.3c-87.4-388.6,84.1-421.5,21.5-814.9c-14.2-89.1-183.5-82-175.7-171.9
					c8.8-101.5,182.8-72,207.2-171c19.9-80.9-147.9-143.7-109.9-217.8"/>
			</g>
			<g>
				<path class="st1" d="M200.1,2208.4c-88.3-391.6,84.6-425.3,19.5-821.5c-14.2-86.2-185.6-78-178.8-165
					c7.9-102.5,184.9-75.7,207.1-176.1C265.3,967.3,93.6,909,127.6,836.2"/>
			</g>
			<g>
				<path class="st1" d="M214,2208.4c-89.3-394.6,85.1-429.1,17.6-828c-14.1-83.2-187.6-73.9-181.9-158.1
					c7-103.6,186.9-79.5,206.9-181.4c14.9-76.1-160.5-129.4-130.6-201"/>
			</g>
			<g>
				<path class="st1" d="M227.9,2208.5c-90.2-397.6,85.7-432.9,15.6-834.6c-14-80.4-189.7-69.8-185-151.2
					c6.1-104.6,189-83.4,206.7-186.6c12.6-73.8-166.7-121.6-140.9-192"/>
			</g>
			<g>
				<path class="st1" d="M241.8,2208.5c-91.1-400.7,86.2-436.7,13.6-841.2c-13.9-77.5-191.9-65.7-188.1-144.3
					c5.1-105.6,191.2-87.4,206.4-192c10.5-71.7-172.7-113.5-151-182.6"/>
			</g>
			<g>
				<path class="st1" d="M241.8,2208.5c-91.1-400.7,86.2-436.7,13.6-841.2c-13.9-77.5-191.9-65.7-188.1-144.3
					c5.1-105.6,191.2-87.4,206.4-192c10.5-71.7-172.7-113.5-151-182.6"/>
			</g>
			<g>
				<path class="st1" d="M256.5,2208.5c-91.1-400.7,87.3-437.2,13.6-841.4c-14.1-77.4-193.9-64.7-190.7-143.3
					c4.3-105.6,195.2-91,206.9-196.1c7.8-70.4-181.3-102.2-165.6-171.3"/>
			</g>
			<g>
				<path class="st1" d="M271.3,2208.5c-91.1-400.7,88.3-437.7,13.5-841.7c-14.3-77.3-196-63.8-193.3-142.3
					c3.6-105.6,199.2-94.8,207.2-200.2c5.3-69.6-189.2-90.5-179.6-159.6"/>
			</g>
			<g>
				<path class="st2" d="M94.6,1363.5c2.9,49.6-196.7,61.4-193.8,111"/>
			</g>
			<g>
				<path class="st2" d="M95.7,1365c4.1,53.2-195.4,68.4-191.3,121.6"/>
			</g>
			<g>
				<path class="st2" d="M96.7,1366.7c5.2,56.9-194,75-188.8,131.9"/>
			</g>
			<g>
				<path class="st2" d="M97.7,1368.6c6.3,60.6-192.6,81.2-186.4,141.8"/>
			</g>
			<g>
				<path class="st2" d="M98.7,1370.6c7.4,64.2-191.3,87.1-183.9,151.4"/>
			</g>
			<g>
				<path class="st2" d="M99.8,1372.7c8.5,67.9-189.9,92.8-181.4,160.7"/>
			</g>
			<g>
				<path class="st2" d="M100.8,1375c9.6,71.6-188.6,98.2-179,169.8"/>
			</g>
			<g>
				<path class="st2" d="M101.9,1377.3c10.7,75.3-187.2,103.5-176.5,178.8"/>
			</g>
			<g>
				<path class="st2" d="M102.9,1379.8c11.9,78.9-185.9,108.7-174.1,187.6"/>
			</g>
			<g>
				<path class="st2" d="M104,1382.3c13,82.6-184.6,113.6-171.6,196.2"/>
			</g>
			<g>
				<path class="st2" d="M105,1384.8c14.1,86.3-183.3,118.5-169.2,204.8"/>
			</g>
			<g>
				<path class="st2" d="M106.1,1387.4c15.2,90-182,123.3-166.8,213.3"/>
			</g>
			<g>
				<path class="st2" d="M107.1,1390c16.3,93.6-180.7,128-164.4,221.6"/>
			</g>
			<g>
				<path class="st2" d="M108.2,1392.7c17.4,97.3-179.4,132.6-162,229.9"/>
			</g>
			<g>
				<path class="st2" d="M109.3,1395.4c18.5,101-178.2,137.1-159.6,238.1"/>
			</g>
			<g>
				<path class="st2" d="M110.4,1398.2c19.7,104.7-176.9,141.6-157.2,246.2"/>
			</g>
			<g>
				<path class="st2" d="M111.4,1401c20.8,108.3-175.6,146-154.9,254.3"/>
			</g>
			<g>
				<path class="st2" d="M112.5,1403.8c21.9,112-174.4,150.4-152.5,262.4"/>
			</g>
			<g>
				<path class="st2" d="M113.6,1406.6c23,115.7-173.2,154.7-150.1,270.4"/>
			</g>
			<g>
				<path class="st2" d="M114.7,1409.4c24.1,119.4-171.9,159-147.8,278.3"/>
			</g>
			<g>
				<path class="st2" d="M115.8,1412.3c25.2,123-170.7,163.2-145.5,286.2"/>
			</g>
			<g>
				<path class="st2" d="M116.9,1415.2c26.3,126.7-169.5,167.4-143.1,294.1"/>
			</g>
			<g>
				<path class="st2" d="M118,1418.1c27.5,130.4-168.2,171.6-140.8,302"/>
			</g>
			<g>
				<path class="st2" d="M119.1,1421c28.6,134-167,175.8-138.4,309.8"/>
			</g>
			<g>
				<path class="st2" d="M120.2,1423.9c29.7,137.7-165.8,179.9-136.1,317.6"/>
			</g>
			<g>
				<path class="st2" d="M121.3,1426.9c30.8,141.4-164.6,184-133.8,325.3"/>
			</g>
			<g>
				<path class="st2" d="M122.4,1429.8c31.9,145.1-163.4,188-131.5,333.1"/>
			</g>
			<g>
				<path class="st2" d="M98.2,1446.5c23.2,102.7-171.9,146.7-148.7,249.4"/>
			</g>
			<g class="st3">
				<path class="st2" d="M101.6,1457c22.6,100.2-172.5,144.2-149.8,244.4"/>
			</g>
			<g class="st4">
				<path class="st2" d="M105,1467.5c22.1,97.7-173,141.7-151,239.4"/>
			</g>
			<g class="st5">
				<path class="st2" d="M108.4,1478c21.5,95.2-173.6,139.2-152.1,234.4"/>
			</g>
			<g class="st6">
				<path class="st2" d="M111.7,1488.5c20.9,92.7-174.2,136.7-153.3,229.4"/>
			</g>
			<g class="st7">
				<path class="st2" d="M115.1,1499c20.4,90.2-174.8,134.2-154.4,224.5"/>
			</g>
			<g class="st8">
				<path class="st2" d="M118.5,1509.5C138.3,1597.3-56.8,1641.3-37,1729"/>
			</g>
			<g class="st9">
				<path class="st2" d="M121.9,1520c19.2,85.3-175.9,129.2-156.7,214.5"/>
			</g>
			<g class="st10">
				<path class="st2" d="M125.3,1530.5c18.6,82.8-176.5,126.7-157.8,209.5"/>
			</g>
			<g class="st11">
				<path class="st2" d="M128.7,1541c18.1,80.3-177.1,124.2-159,204.5"/>
			</g>
			<g class="st12">
				<path class="st2" d="M132.1,1551.5C149.6,1629.3-45.5,1673.2-28,1751"/>
			</g>
			<g class="st13">
				<path class="st2" d="M135.4,1562.1c16.9,75.3-178.2,119.2-161.3,194.5"/>
			</g>
			<g class="st14">
				<path class="st2" d="M138.8,1572.6c16.4,72.8-178.8,116.7-162.4,189.5"/>
			</g>
			<g class="st15">
				<path class="st2" d="M142.2,1583.1c15.8,70.4-179.4,114.2-163.6,184.5"/>
			</g>
			<g class="st16">
				<path class="st2" d="M145.6,1593.6c15.2,67.9-179.9,111.6-164.7,179.5"/>
			</g>
			<g class="st17">
				<path class="st2" d="M149,1604.1c14.7,65.4-180.5,109.1-165.9,174.5"/>
			</g>
			<g class="st18">
				<path class="st2" d="M152.4,1614.6c14.1,62.9-181.1,106.6-167,169.5"/>
			</g>
			<g class="st19">
				<path class="st2" d="M155.8,1625.1c13.5,60.4-181.7,104.1-168.2,164.5"/>
			</g>
			<g class="st20">
				<path class="st2" d="M159.1,1635.7c12.9,58-182.3,101.5-169.3,159.5"/>
			</g>
			<g class="st21">
				<path class="st2" d="M162.5,1646.2c12.4,55.5-182.8,99-170.5,154.5"/>
			</g>
			<g class="st22">
				<path class="st2" d="M165.9,1656.7c11.8,53-183.4,96.5-171.6,149.5"/>
			</g>
			<g class="st23">
				<path class="st2" d="M169.3,1667.2c11.2,50.5-184,93.9-172.8,144.4"/>
			</g>
			<g class="st24">
				<path class="st2" d="M172.7,1677.8c10.7,48-184.6,91.4-173.9,139.4"/>
			</g>
			<g class="st25">
				<path class="st2" d="M176.1,1688.3c10.1,45.5-185.2,88.8-175.1,134.3"/>
			</g>
			<g class="st26">
				<path class="st2" d="M179.5,1698.8C189,1741.9-6.3,1785,3.3,1828.1"/>
			</g>
			<g class="st27">
				<path class="st2" d="M182.9,1709.4c9,40.6-186.3,83.7-177.4,124.3"/>
			</g>
			<g class="st28">
				<path class="st2" d="M186.3,1719.9c8.3,38.1-187,81.1-178.6,119.2"/>
			</g>
			<g>
				<path class="st2" d="M-73.2,1431.3c22.1-108.6,225.1-73,241.2-182.6c13.9-94.4-190.8-117.8-183-212.9"/>
			</g>
			<g>
				<path class="st2" d="M-74.4,1428.3c21.5-106.1,223.7-70.3,239.9-177.4c14.4-95.3-189.4-120.3-180.3-216.3"/>
			</g>
			<g>
				<path class="st2" d="M-75.6,1425.3c20.8-103.6,222.3-67.7,238.5-172.2c14.9-96.3-188-122.8-177.7-219.6"/>
			</g>
			<g>
				<path class="st2" d="M-76.8,1422.3c20.2-101.1,221-65.1,237.2-166.9c15.5-97.2-186.6-125.2-175.1-223"/>
			</g>
			<g>
				<path class="st2" d="M-77.9,1419.3c19.5-98.6,219.6-62.5,235.9-161.7c16.1-98.2-185.1-127.6-172.4-226.3"/>
			</g>
			<g>
				<path class="st2" d="M-79.1,1416.3c18.9-96.2,218.3-59.9,234.5-156.5c16.6-99.2-183.7-130-169.7-229.6"/>
			</g>
			<g>
				<path class="st2" d="M-80.3,1413.3c18.2-93.7,217-57.2,233.2-151.3c17.2-100.2-182.2-132.4-167.1-232.9"/>
			</g>
			<g>
				<path class="st2" d="M-81.5,1410.3c17.6-91.2,215.7-54.6,231.8-146.1C168.2,1163-30.5,1129.4-14.1,1028"/>
			</g>
			<g>
				<path class="st2" d="M-82.7,1407.4c16.9-88.7,214.4-52,230.5-140.9c18.5-102.2-179.3-137.1-161.7-239.4"/>
			</g>
			<g>
				<path class="st2" d="M-83.9,1404.4c16.3-86.2,213.1-49.4,229.1-135.7c19.1-103.2-177.8-139.5-158.9-242.7"/>
			</g>
			<g>
				<path class="st2" d="M-85.1,1401.5c15.6-83.8,211.9-46.8,227.8-130.5c19.8-104.2-176.3-141.8-156.2-245.9"/>
			</g>
			<g>
				<path class="st2" d="M-86.3,1398.5c15-81.3,210.6-44.2,226.4-125.3c20.5-105.2-174.8-144.1-153.5-249.1"/>
			</g>
			<g>
				<path class="st2" d="M-87.5,1395.6c14.3-78.8,209.4-41.6,225.1-120.1c21.2-106.2-173.3-146.4-150.8-252.3"/>
			</g>
			<g>
				<path class="st2" d="M-88.7,1392.7c13.7-76.3,208.2-39,223.7-114.9c21.9-107.3-171.8-148.6-148-255.5"/>
			</g>
			<g>
				<path class="st2" d="M-89.9,1389.8c13-73.8,207-36.4,222.4-109.8c22.7-108.3-170.3-150.9-145.3-258.7"/>
			</g>
			<g>
				<path class="st2" d="M-91.1,1387c12.4-71.3,205.9-33.8,221-104.6c23.4-109.3-168.7-153.1-142.5-261.8"/>
			</g>
			<g>
				<path class="st2" d="M-92.3,1384.2c11.7-68.9,204.7-31.3,219.7-99.5c24.2-110.3-167.2-155.4-139.7-264.9"/>
			</g>
			<g>
				<path class="st2" d="M-93.5,1381.3c11.1-66.4,203.6-28.7,218.3-94.4c25-111.4-165.7-157.6-137-268.1"/>
			</g>
			<g>
				<path class="st2" d="M-94.7,1378.5c10.4-63.9,202.5-26.2,217-89.3c25.9-112.4-164.1-159.8-134.2-271.2"/>
			</g>
			<g>
				<path class="st2" d="M-95.9,1375.8c9.8-61.4,201.4-23.7,215.6-84.2c26.7-113.4-162.5-162-131.4-274.3"/>
			</g>
			<g>
				<path class="st2" d="M-97.1,1373c9.1-58.9,200.3-21.2,214.3-79.1c27.6-114.5-161-164.1-128.6-277.4"/>
			</g>
			<g>
				<path class="st2" d="M-98.3,1370.3c8.5-56.4,199.2-18.7,212.9-74.1c28.5-115.5-159.4-166.3-125.8-280.5"/>
			</g>
			<g>
				<path class="st2" d="M-99.6,1367.7c7.8-54,198.2-16.3,211.5-69.2C141.4,1182-45.9,1130.1-11,1015"/>
			</g>
			<g>
				<path class="st2" d="M-100.8,1365.1c7.1-51.5,197.2-13.9,210.2-64.2c30.4-117.6-156.2-170.7-120.2-286.6"/>
			</g>
			<g>
				<path class="st2" d="M-102,1362.6c6.5-49,196.2-11.5,208.8-59.3c31.3-118.6-154.7-172.8-117.4-289.7"/>
			</g>
			<g>
				<path class="st2" d="M-103.3,1360.1c5.8-46.5,195.2-9.2,207.4-54.5C136.4,1186-49,1130.7-10.4,1012.9"/>
			</g>
			<g>
				<path class="st2" d="M-104.5,1357.7c5.2-44,194.3-7,206.1-49.7c33.3-120.6-151.4-177.1-111.7-295.7"/>
			</g>
			<g>
				<path class="st2" d="M-83.4,2221.4c0-238,205-240.1,200-478c-2.9-138.7-207.8-130.6-215.8-269.1"/>
			</g>
			<g class="st29">
				<path class="st2" d="M-80.7,2209.8c-0.4-234.3,205.1-237.1,199.2-471.3c-3.4-136.5-208.7-127.2-217.6-263.4"/>
			</g>
			<g class="st30">
				<path class="st2" d="M-78,2198.2c-0.8-230.6,205.1-234,198.3-464.6c-3.9-134.3-209.6-123.7-219.4-257.7"/>
			</g>
			<g class="st31">
				<path class="st2" d="M-75.3,2186.5c-1.2-227,205.1-231,197.5-457.9c-4.4-132.1-210.4-120.2-221.3-251.9"/>
			</g>
			<g class="st9">
				<path class="st2" d="M-72.5,2175c-1.6-223.3,205.2-228,196.7-451.2c-4.9-130-211.3-116.7-223.1-246.2"/>
			</g>
			<g class="st32">
				<path class="st2" d="M-69.8,2163.4c-2-219.7,205.2-225,195.9-444.5c-5.4-127.8-212.1-113.1-224.9-240.3"/>
			</g>
			<g class="st33">
				<path class="st2" d="M-67.1,2151.8c-2.4-216,205.2-222.1,195.1-437.9c-5.9-125.6-213-109.4-226.7-234.5"/>
			</g>
			<g class="st14">
				<path class="st2" d="M-64.4,2140.2c-2.8-212.4,205.3-219.1,194.2-431.2c-6.4-123.5-213.8-105.8-228.4-228.6"/>
			</g>
			<g class="st16">
				<path class="st2" d="M-61.7,2128.6c-3.2-208.7,205.3-216.3,193.4-424.6c-6.9-121.4-214.6-102-230.2-222.6"/>
			</g>
			<g class="st34">
				<path class="st2" d="M-59,2117c-3.6-205,205.3-213.4,192.6-418.1c-7.4-119.2-215.4-98.3-231.9-216.6"/>
			</g>
			<g class="st35">
				<path class="st2" d="M-56.3,2105.5c-4-201.4,205.3-210.6,191.7-411.5c-7.9-117.1-216.1-94.4-233.6-210.5"/>
			</g>
			<g class="st21">
				<path class="st2" d="M-53.6,2093.9c-4.4-197.7,205.3-207.8,190.9-405c-8.4-115-216.9-90.5-235.3-204.4"/>
			</g>
			<g class="st36">
				<path class="st2" d="M-50.9,2082.3c-4.8-194.1,205.3-205,190-398.5c-8.9-112.9-217.6-86.6-237-198.2"/>
			</g>
			<g class="st37">
				<path class="st2" d="M-48.1,2070.8c-5.2-190.4,205.3-202.3,189.1-392.1c-9.5-110.8-218.3-82.6-238.6-192"/>
			</g>
			<g class="st38">
				<path class="st2" d="M-45.4,2059.3c-5.6-186.8,205.3-199.6,188.3-385.6c-10-108.8-219-78.5-240.3-185.6"/>
			</g>
			<g class="st28">
				<path class="st2" d="M-42.7,2047.8c-6-183.1,205.3-196.9,187.4-379.2c-10.5-106.7-219.6-74.4-241.8-179.3"/>
			</g>
			<g class="st39">
				<path class="st2" d="M-40,2036.3c-6.4-179.4,205.3-194.3,186.5-372.9c-11-104.7-220.2-70.2-243.4-172.8"/>
			</g>
			<g class="st39">
				<path class="st2" d="M147,1670.2c6.4,179.4-193.4,186.6-187,366"/>
			</g>
			<g class="st40">
				<path class="st2" d="M150.6,1678.1c8.6,179.7-191.2,189.3-182.6,369"/>
			</g>
			<g class="st41">
				<path class="st2" d="M154.2,1685.9c10.7,180-188.9,191.9-178.2,372"/>
			</g>
			<g class="st42">
				<path class="st2" d="M157.8,1693.7c12.8,180.4-186.7,194.5-173.8,374.9"/>
			</g>
			<g class="st43">
				<path class="st2" d="M161.3,1701.5c15,180.7-184.4,197.2-169.4,377.9"/>
			</g>
			<g class="st44">
				<path class="st2" d="M164.8,1709.3c17.1,181-182,199.8-164.9,380.8"/>
			</g>
			<g class="st45">
				<path class="st2" d="M168.4,1717.2C187.6,1898.5-11.3,1919.6,8,2100.9"/>
			</g>
			<g class="st46">
				<path class="st2" d="M171.9,1725C193.3,1906.6-5.4,1930,16,2111.6"/>
			</g>
			<g class="st46">
				<path class="st2" d="M175.4,1732.9c23.5,181.9-174.8,207.5-151.3,389.4"/>
			</g>
			<g class="st47">
				<path class="st2" d="M178.9,1740.8C204.5,1923,6.5,1950.9,32.1,2133.1"/>
			</g>
			<g class="st48">
				<path class="st2" d="M182.4,1748.7c27.8,182.5-170,212.6-142.2,395.1"/>
			</g>
			<g class="st49">
				<path class="st2" d="M185.8,1756.5c29.9,182.8-167.5,215.1-137.6,397.9"/>
			</g>
			<g class="st50">
				<path class="st2" d="M189.3,1764.4c32,183.1-165,217.6-132.9,400.7"/>
			</g>
			<g class="st51">
				<path class="st2" d="M192.8,1772.3c34.2,183.5-162.4,220.1-128.3,403.5"/>
			</g>
			<g class="st52">
				<path class="st2" d="M196.2,1780.2c36.3,183.8-159.9,222.5-123.6,406.3"/>
			</g>
			<g class="st53">
				<path class="st2" d="M199.6,1788.2c38.4,184.1-157.3,225-118.9,409"/>
			</g>
			<g class="st54">
				<path class="st2" d="M203,1796.1c40.6,184.4-154.8,227.4-114.2,411.8"/>
			</g>
			<g>
				<path class="st2" d="M-82.6,1758c-14.9-118,183.5-143.2,168.5-261.2"/>
			</g>
			<g>
				<path class="st2" d="M-83,1750.6c-14.5-118.9,184-143.1,169.5-262.1"/>
			</g>
			<g>
				<path class="st2" d="M-83.5,1743.2c-14.1-119.8,184.6-143.1,170.5-262.9"/>
			</g>
			<g>
				<path class="st2" d="M-83.9,1735.8c-13.6-120.7,185.1-143.1,171.5-263.8"/>
			</g>
			<g>
				<path class="st2" d="M-84.3,1728.4c-13.2-121.6,185.7-143.1,172.5-264.7"/>
			</g>
			<g>
				<path class="st2" d="M-84.8,1721c-12.7-122.5,186.2-143.2,173.5-265.7"/>
			</g>
			<g>
				<path class="st2" d="M-85.2,1713.6c-12.3-123.4,186.7-143.2,174.4-266.6"/>
			</g>
			<g>
				<path class="st2" d="M-85.6,1706.2c-11.8-124.3,187.3-143.3,175.4-267.5"/>
			</g>
			<g>
				<path class="st2" d="M-86,1698.9c-11.4-125.2,187.8-143.3,176.4-268.5"/>
			</g>
			<g>
				<path class="st2" d="M-86.5,1691.5c-11-126.1,188.3-143.4,177.3-269.5"/>
			</g>
			<g>
				<path class="st2" d="M-86.9,1684.1c-10.5-127,188.8-143.5,178.3-270.4"/>
			</g>
			<g>
				<path class="st2" d="M-87.3,1676.8c-10-127.9,189.3-143.6,179.3-271.5"/>
			</g>
			<g>
				<path class="st2" d="M-87.7,1669.4c-9.6-128.8,189.8-143.7,180.2-272.5"/>
			</g>
			<g>
				<path class="st2" d="M-88.1,1662.1c-9.2-129.7,190.3-143.8,181.1-273.5"/>
			</g>
			<g>
				<path class="st2" d="M-88.5,1654.7c-8.7-130.6,190.8-143.9,182.1-274.5"/>
			</g>
			<g>
				<path class="st2" d="M-88.9,1647.4c-8.3-131.5,191.3-144.1,183-275.5"/>
			</g>
			<g>
				<path class="st2" d="M-89.3,1640.1c-7.9-132.4,191.8-144.2,183.9-276.5"/>
			</g>
			<g>
				<path class="st2" d="M-119.2,2174.9c0-220.3,206.5-223.4,200-443.5c-2.7-91.7-208.7-78.1-218-169.4"/>
			</g>
			<g class="st3">
				<path class="st2" d="M-117,2177.8c0-221.4,206.7-224.5,200-445.8c-2.9-93.4-209.1-79.5-218.7-172.5"/>
			</g>
			<g class="st4">
				<path class="st2" d="M-114.7,2180.7c0-222.5,207-225.8,200-448.1c-3-95.1-209.4-80.9-219.4-175.5"/>
			</g>
			<g class="st5">
				<path class="st2" d="M-112.5,2183.6c0-223.6,207.2-226.9,199.9-450.4c-3.1-96.8-209.7-82.3-220.1-178.6"/>
			</g>
			<g class="st6">
				<path class="st2" d="M-110.3,2186.5c0-224.7,207.4-228.1,199.9-452.7c-3.3-98.5-210-83.8-220.7-181.7"/>
			</g>
			<g class="st55">
				<path class="st2" d="M-108,2189.4c0-225.8,207.6-229.3,199.9-455c-3.4-100.2-210.4-85.2-221.4-184.8"/>
			</g>
			<g class="st56">
				<path class="st2" d="M-105.8,2192.3c0-226.9,207.8-230.5,199.9-457.3c-3.5-101.9-210.7-86.6-222.1-187.9"/>
			</g>
			<g class="st57">
				<path class="st2" d="M-103.5,2195.3c0-228,208-231.7,199.9-459.6c-3.7-103.6-211.1-88.1-222.8-191"/>
			</g>
			<g class="st32">
				<path class="st2" d="M-101.3,2198.2c0-229.1,208.2-232.9,199.9-461.9c-3.8-105.3-211.4-89.5-223.5-194.1"/>
			</g>
			<g class="st58">
				<path class="st2" d="M-99.1,2201.1c0-230.2,208.5-234.1,199.9-464.2c-4-107-211.7-91-224.2-197.3"/>
			</g>
			<g class="st59">
				<path class="st2" d="M-96.8,2204c0-231.3,208.7-235.3,199.9-466.4c-4.1-108.7-212.1-92.4-224.9-200.4"/>
			</g>
			<g class="st60">
				<path class="st2" d="M-94.6,2206.9c0-232.4,208.9-236.5,199.9-468.7c-4.3-110.4-212.4-93.9-225.6-203.5"/>
			</g>
			<g class="st15">
				<path class="st2" d="M-92.3,2209.8c0-233.5,209.1-237.6,199.9-471c-4.4-112.1-212.7-95.3-226.3-206.7"/>
			</g>
			<g class="st61">
				<path class="st2" d="M-90.1,2212.7c0-234.7,209.3-238.8,199.9-473.3c-4.5-113.8-213.1-96.8-226.9-209.8"/>
			</g>
			<g class="st62">
				<path class="st2" d="M-87.9,2215.6c0-235.8,209.5-240,199.9-475.6c-4.7-115.5-213.4-98.3-227.6-213"/>
			</g>
			<g class="st63">
				<path class="st2" d="M-85.6,2218.5c0-236.9,209.7-241.2,199.9-477.8c-4.8-117.2-213.7-99.8-228.3-216.1"/>
			</g>
			<g class="st35">
				<path class="st2" d="M-83.4,2221.4c0-238,209.9-242.4,199.9-480.1c-5-118.9-214.1-101.3-229-219.3"/>
			</g>
			<g>
				<path class="st2" d="M-126.6,1597.7c-21.3-41.3,156.4-133,135.1-174.3c-27.6-53.4-212.7,33.3-236.1-22
					c-29.2-69.1,145-109.2,142.2-184.1c-4.6-124-190.8-144.8-161.6-265.4c18.2-75.4,238.8-24.7,253.9-100.8
					C24.6,762-188.2,737.6-185.3,646.8"/>
			</g>
			<g class="st3">
				<path class="st2" d="M-127.2,1590.9c-19.7-43.1,162.1-128.3,141.7-171c-26.1-54.6-214.4,28.1-236.8-28.2
					c-28.1-70.3,148.1-108.4,145.8-184.1c-3.7-123.5-189.5-143.2-162.2-263.7c17.4-76.9,236.1-31,249.8-108.7
					c15.5-87.8-196.6-108.6-194.7-197.8"/>
			</g>
			<g class="st4">
				<path class="st2" d="M-127.4,1584c-18.1-44.9,167.5-123.6,147.8-167.8C-4.3,1360.5-195.5,1439-217,1382
					c-27-71.5,151-107.6,149.2-184c-2.9-123-188.3-141.7-162.7-262C-213.8,857.5,3,898.6,15.3,819.4
					c13.4-86.4-198-103.7-197.2-191.2"/>
			</g>
			<g class="st5">
				<path class="st2" d="M-127.4,1577.4c-16.6-46.7,172.5-119,153.6-164.8c-23.3-56.8-217.2,17.6-237.8-40.3
					c-25.9-72.7,154-106.7,152.7-183.9C-61,1065.9-246,1048.3-222.1,928.1c15.9-80.2,230.8-43.6,241.6-124.6
					c11.4-85-199.3-98.7-199.6-184.5"/>
			</g>
			<g class="st6">
				<path class="st2" d="M-127.2,1570.8c-15-48.5,177.1-114.5,159.1-161.9c-22-57.9-218.5,12.5-238.1-46.2
					c-24.8-73.9,156.9-105.9,156.1-183.9c-1.3-122-185.8-138.6-163.7-258.7c15.1-81.9,228.1-49.7,237.4-132.5
					C33,704.1-177,693.9-178.3,609.8"/>
			</g>
			<g class="st55">
				<path class="st2" d="M-126.7,1564.4c-13.4-50.3,181.4-110.1,164.3-159.2c-20.6-58.9-219.5,7.5-238.3-52.1
					C-224.4,1277.9-41,1248-41.4,1169.2c-0.5-121.5-184.6-137.2-164.2-257c14.3-83.8,225.4-55.8,233.1-140.4
					c7.5-82-201.9-88.6-204.2-171"/>
			</g>
			<g class="st56">
				<path class="st2" d="M-126.1,1558.1C-137.9,1506,59.3,1452.2,43,1401.3c-19.2-59.9-220.5,2.5-238.3-57.9
					c-22.5-76.4,162.5-104.2,162.7-183.9c0.3-121-183.4-135.8-164.6-255.3c13.4-85.7,222.6-61.8,228.8-148.3
					c5.7-80.5-203-83.5-206.4-164.2"/>
			</g>
			<g class="st57">
				<path class="st2" d="M-125.3,1552c-10.2-53.9,189.2-101.9,173.8-154.5c-17.8-60.9-221.3-2.5-238.2-63.6
					c-21.4-77.7,165.2-103.4,165.9-183.9c1.1-120.5-182.2-134.4-165-253.7c12.6-87.7,219.9-67.7,224.3-156.1
					c3.9-79-204.2-78.3-208.6-157.3"/>
			</g>
			<g class="st32">
				<path class="st2" d="M-124.3,1546c-8.6-55.6,192.7-98,178.2-152.4c-16.5-61.8-222-7.3-238-69.3
					c-20.3-78.9,167.9-102.5,169.1-184c1.8-120-181-133.1-165.4-252.1c11.7-89.8,217.2-73.5,219.9-164
					c2.3-77.4-205.2-73.1-210.7-150.4"/>
			</g>
			<g class="st58">
				<path class="st2" d="M-123.2,1540.2c-7.1-57.4,195.9-94.4,182.3-150.6c-15.2-62.7-222.6-12.1-237.6-74.8
					C-197.7,1234.5-8,1213-6.2,1130.6C-3.6,1011.1-186,998.8-172,880.2c10.8-91.9,214.5-79.3,215.3-171.8
					C44,632.5-162.9,640.6-169.4,565"/>
			</g>
			<g class="st59">
				<path class="st2" d="M-122,1534.5c-5.5-59.2,199-90.9,186.3-149c-13.9-63.6-223.1-16.8-237.2-80.3
					c-18-81.4,173.2-100.8,175.5-184.2C5.9,1002-176,990.5-163.6,872.1c9.9-94.1,211.8-85,210.7-179.6
					C46.2,618.2-160,630-167.5,556.1"/>
			</g>
			<g class="st60">
				<path class="st2" d="M-120.7,1529c-3.9-61,201.9-87.6,190.2-147.6c-12.6-64.5-223.5-21.4-236.6-85.7
					c-16.9-82.7,175.7-100,178.5-184.4C15.4,992.9-166,982-155.1,864.1C-146.2,767.8,54,773.4,51,676.7
					c-2.3-72.7-207.9-57.1-216.5-129.3"/>
			</g>
			<g class="st15">
				<path class="st2" d="M-119.3,1523.7c-2.3-62.8,204.6-84.5,193.8-146.4c-11.3-65.3-223.7-25.9-236-91
					c-15.8-84,178.2-99.2,181.6-184.6C24.9,983.8-156.1,973.6-146.7,856c7.9-98.7,206.5-96.3,201.3-195.1
					c-3.7-71.1-208.6-51.7-218.3-122.2"/>
			</g>
			<g class="st61">
				<path class="st2" d="M-117.9,1518.5c-0.7-64.6,207.2-81.5,197.4-145.4c-10.1-66.1-223.9-30.3-235.3-96.2
					c-14.7-85.3,180.6-98.4,184.6-184.9c5.4-117.3-175-126.9-167.1-244.1c6.9-101,203.8-101.8,196.6-202.8
					c-5-69.5-209.3-46.2-220-115"/>
			</g>
			<g class="st62">
				<path class="st2" d="M-116.3,1513.4c0.9-66.4,209.6-78.8,200.8-144.6c-8.9-66.9-224.1-34.7-234.5-101.3
					c-13.5-86.6,183-97.6,187.6-185.1c6.1-116.8-173.9-125.7-167.3-242.5c5.8-103.4,201.2-107.3,191.8-210.4
					c-6.2-67.9-209.9-40.7-221.7-107.8"/>
			</g>
			<g class="st63">
				<path class="st2" d="M-114.7,1508.5c2.4-68.2,211.9-76.2,204.2-144.1c-7.7-67.7-224.1-38.9-233.6-106.4
					c-12.4-87.9,185.4-96.8,190.5-185.4C53.2,956.4-126.4,948-121.2,831.7c4.7-105.8,198.6-112.8,186.9-218.1
					c-7.4-66.3-210.4-35.1-223.2-100.5"/>
			</g>
			<g class="st35">
				<path class="st2" d="M-113.1,1503.7c4-70,214-73.8,207.5-143.6c-6.5-68.4-224.1-43.1-232.6-111.3
					c-11.2-89.2,187.7-96,193.5-185.7c7.5-115.7-171.7-123.5-167.8-239.4c3.6-108.3,196-118.2,182-225.7
					c-8.5-64.7-210.8-29.4-224.7-93.1"/>
			</g>
			<g>
				<path class="st2" d="M-102.1,1394.1c-16.9-66.6,170.9-102.2,162.3-170.3c-11.2-89.2-210.3-83.9-204.5-173.6
					c7.5-115.7,227.8-104,231.7-219.9c3.6-107.8-202-98.5-216-205.5c-8.5-65.1,168.5-71.8,171.1-137.4
					C46.6,382.8-125,373.9-116,269.6c8.2-95.1,196-90.5,192.5-185.9"/>
			</g>
			<g>
				<path class="st2" d="M-101.8,1387.3c-15.6-64.9,173-98.1,165.4-164.4c-10.2-89.5-209.5-85.9-203.2-175.7
					c8-114.1,227.7-101.2,232.2-215.5c4.2-106.4-199.9-97.5-214.1-203c-9.4-69.4,165.5-77.3,167.2-147.4
					C48.4,375.6-122,368.6-113.6,263.2c7.6-94.9,195.4-91.4,191.3-186.5"/>
			</g>
			<g>
				<path class="st2" d="M-101.5,1380.4c-14.2-63.2,175.1-94,168.6-158.4c-9.1-89.7-208.6-87.9-201.8-177.9
					c8.5-112.5,227.6-98.4,232.8-211.1c4.8-104.9-197.8-96.5-212.2-200.6c-10.2-73.8,162.5-82.7,163.3-157.2
					c1.2-106.8-168.1-112-160.1-218.5c7.1-94.6,194.8-92.3,190-187"/>
			</g>
			<g>
				<path class="st2" d="M-101.1,1373.4c-12.9-61.5,177.3-89.7,171.7-152.3c-8-90-207.7-90-200.4-180
					c9.1-111,227.5-95.5,233.3-206.7c5.4-103.5-195.7-95.6-210.3-198.2c-11.1-78.1,159.5-88.1,159.4-166.9
					C52.5,361.5-115.7,358-108.2,250.4c6.6-94.3,194.2-93.1,188.8-187.6"/>
			</g>
			<g>
				<path class="st2" d="M-100.8,1366.4c-11.5-59.8,179.4-85.3,174.8-146c-6.8-90.3-206.9-92.1-199-182.3
					c9.6-109.4,227.4-92.6,233.9-202.2c6-102.1-193.6-94.6-208.3-195.8c-12-82.4,156.6-93.3,155.5-176.6
					C54.6,354.6-112.5,352.7-105.5,244C-99.4,149.9,88.1,150,82,55.9"/>
			</g>
			<g>
				<path class="st2" d="M-100.5,1359.2c-10.2-58,181.6-80.7,178-139.6c-5.6-90.5-206-94.2-197.5-184.5
					c10.1-107.8,227.3-89.7,234.4-197.8C121,736.7-77.2,743.6-92,643.8c-12.9-86.7,153.8-98.5,151.5-186.1
					c-2.8-109.9-168.9-110.3-162.3-220C-97.2,143.8,90.1,142.8,83.5,49"/>
			</g>
			<g>
				<path class="st2" d="M-100.1,1351.9c-8.8-56.3,183.8-76,181-133c-4.4-90.8-205.1-96.4-196.1-186.8
					c10.6-106.2,227.2-86.8,235-193.3C127,739.6-69.7,746-84.7,647.6C-98.5,556.5,66.3,544,62.9,452c-4-110.9-169.1-109.9-163-220.7
					c5.1-93.6,192.3-95.7,185-189.2"/>
			</g>
			<g>
				<path class="st2" d="M-99.7,1344.5c-7.5-54.6,186-71.2,184.1-126.3c-3.2-91-204.2-98.6-194.6-189.1
					c11.1-104.6,227.1-83.9,235.5-188.8c7.8-97.8-187.5-91.9-202.5-188.9C-92.1,556,70.8,542.8,66.3,446.3
					C61.1,334.4-102.9,336.8-97.4,224.9c4.6-93.3,191.6-96.6,183.7-189.7"/>
			</g>
			<g>
				<path class="st2" d="M-99.4,1336.9c-6.1-52.9,188.2-66.1,187.1-119.4c-1.9-91.3-203.2-100.8-193.1-191.5
					c11.5-103.1,226.9-80.9,236-184.2c8.4-96.4-185.4-91-200.6-186.6C-85.7,555.4,75.4,541.5,69.7,440.7
					C63.3,327.8-99.7,331.4-94.7,218.5c4.2-93.1,191-97.5,182.4-190.3"/>
			</g>
			<g>
				<path class="st2" d="M-98.9,1329.2c-4.8-51.2,190.4-60.9,190-112.3c-0.6-91.5-202.3-103.1-191.6-193.9
					c12-101.5,226.8-77.9,236.5-179.7c9-95-183.4-90.2-198.6-184.4C-79.3,554.8,80,540.3,73.1,435.1c-7.5-113.9-169.6-109-165.1-223
					c3.7-92.8,190.3-98.3,181.1-190.8"/>
			</g>
			<g>
				<path class="st2" d="M-98.5,1321.3c-3.4-49.5,192.5-55.4,192.9-105c0.8-91.7-201.3-105.4-190-196.4
					c12.5-99.9,226.7-74.9,237-175.1C151,751.3-40,755.5-55.2,662.7C-73,554.2,84.7,539.2,76.5,429.6
					C67.9,314.7-93.3,320.8-89.3,205.7c3.2-92.6,189.6-99.2,179.8-191.3"/>
			</g>
			<g>
				<path class="st2" d="M-98,1313.2c-2.1-47.8,194.6-49.7,195.8-97.5c2.2-91.9-200.4-107.7-188.4-198.9
					c12.9-98.3,226.4-71.9,237.4-170.4c10.2-92.1-179.4-88.5-194.6-180C-66.7,553.6,89.4,538.1,79.9,424.1
					C70.2,308.2-90,315.5-86.6,199.3C-83.8,106.9,102.4,99.2,92,7.4"/>
			</g>
			<g>
				<path class="st2" d="M-97.4,1304.9c-0.7-46.1,196.7-43.7,198.5-89.8c3.6-92.1-199.4-110.1-186.8-201.4
					C-72.4,917,140.5,945,152.1,848C163,757.3-25.3,760.2-40.5,670.2C-60.4,553,94.1,537,83.2,418.7
					c-10.7-116.9-170-108.5-167-225.8c2.3-92.2,188.2-101,177.2-192.5"/>
			</g>
			<g>
				<path class="st2" d="M-96.8,1296.4c0.6-44.4,198.7-37.5,201.1-81.8c5-92.2-198.4-112.6-185.2-204
					c13.7-95.2,226.1-65.7,238.3-161.1c11.5-89.3-175.4-87-190.7-175.8C-54.1,552.4,98.8,535.9,86.6,413.3
					C74.9,295.4-83.5,304.8-81.1,186.4c1.9-91.9,187.5-101.8,175.9-193"/>
			</g>
			<g>
				<path class="st2" d="M-96,1287.7c2-42.7,200.6-31,203.6-73.5c6.5-92.3-197.3-115-183.5-206.6C-61.7,914,150,945,162.8,851.3
					c12.1-88-173.3-86.3-188.6-173.7C-47.8,551.8,103.5,534.9,90,407.9C77.3,289.1-80.3,299.5-78.4,180
					C-77,88.4,108.4,77.4,96.2-13.5"/>
			</g>
			<g>
				<path class="st2" d="M-95.1,1278.7c3.4-40.9,202.4-24.1,206-65c8.1-92.5-196.3-117.5-181.8-209.2
					c14.6-92,225.6-59.4,239.1-151.6c12.7-86.5-171.4-85.5-186.6-171.6C-41.5,551.1,108.3,533.9,93.3,402.5
					C79.7,282.8-77,294.1-75.7,173.6c1-91.4,186.1-103.5,173.2-194.1"/>
			</g>
			<g>
				<path class="st2" d="M-94.1,1269.5c4.7-39.2,204.1-16.9,208.2-56.2c9.6-92.6-195.2-120.1-180-211.9
					c14.9-90.5,225.4-56.2,239.5-146.8C186.8,769.5,4.1,769.8-11.1,685C-35.3,550.5,113,532.9,96.7,397.3
					C82.1,276.5-73.7,288.8-73,167.2C-72.4,76,112.4,62.8,98.9-27.4"/>
			</g>
			<g>
				<path class="st2" d="M-89.1,1254.4c4.6-37.6,203.9-14.8,207.9-52.5c9.3-87.5-195.5-115.6-180.8-202.3
					c15-88.4,225.2-53.1,239.5-141.7C191.8,769.5,9.9,768.5-5.1,680.2C-27.9,546.1,120.6,529.1,104,394.1
					C89.2,274.3-67.4,287.6-67.8,166.9C-68.1,75,116.5,60.1,102.1-30.5"/>
			</g>
			<g>
				<path class="st2" d="M-84.1,1239.3c4.5-35.9,203.8-12.7,207.6-48.7c8.9-82.3-195.8-111.2-181.4-192.8
					c15.2-86.4,225.1-50.1,239.4-136.6c15.3-91.8-165.8-94-180.6-185.8C-20.5,541.8,128.2,525.2,111.3,391
					C96.3,272.2-61,286.3-62.6,166.6C-63.8,74.1,120.7,57.5,105.3-33.7"/>
			</g>
			<g>
				<path class="st2" d="M-79.1,1224.1c4.4-34.2,203.6-10.5,207.4-44.9c8.5-77.2-196-106.9-182.1-183.3
					c15.3-84.4,224.9-47,239.4-131.5c16.2-95-164.2-98.5-178.6-193.9c-20.1-133.1,128.8-149.2,111.6-282.7
					C103.5,270-54.7,285.1-57.4,166.3c-2.1-93,182.1-111.4,165.8-203"/>
			</g>
			<g>
				<path class="st2" d="M-74.1,1209c4.3-32.6,203.5-8.3,207.1-41c8.1-72.1-196.2-102.6-182.8-173.9
					c15.4-82.4,224.8-43.8,239.4-126.3c17.3-98.4-162.4-103-176.5-201.9c-18.8-132.6,130.3-148.2,112.8-281
					c-15.3-117.1-174.3-101-178-218.9c-3-93.6,181-113.7,163.8-205.8"/>
			</g>
			<g>
				<path class="st2" d="M-69.1,1193.8c4.2-30.9,203.3-6,206.8-37.1c7.7-67-196.3-98.4-183.4-164.6C-30.1,911.7,179,951.5,193.6,871
					C212,769.3,32.8,763.4,19.2,661C1.6,528.9,151,513.7,133.3,381.6c-15.6-116-175.3-99-180.2-215.9
					C-50.8,71.4,133,49.7,114.8-42.9"/>
			</g>
			<g>
				<path class="st2" d="M-64,1178.5c4.1-29.3,203.1-3.7,206.5-33c7.3-61.9-196.4-94.3-184.1-155.4
					c15.8-78.3,224.6-37.3,239.2-115.9c19.5-105-159.1-112-172.4-217.9C8.9,524.7,158.6,509.8,140.6,378.5
					c-15.8-115.1-176.3-97-182.2-213.1C-46.5,70.5,137.1,47.1,118-46"/>
			</g>
			<g>
				<path class="st2" d="M-59,1163.2c4-27.6,202.9-1.2,206.2-28.9c6.9-56.8-196.4-90.4-184.7-146.4c16.1-76.3,224.5-34,239.1-110.5
					C222.3,769.2,44.1,761,31.4,651.5C16.1,520.5,166.2,506,147.9,375.3c-16-114.2-177.3-95.1-184.3-210.2
					C-42.3,69.6,141.2,44.5,121.2-49"/>
			</g>
			<g>
				<path class="st2" d="M-54,1147.9c3.9-26,202.6,1.4,205.9-24.7c6.5-51.7-196.4-86.5-185.2-137.4c16.3-74.2,224.4-30.5,239-105.1
					c21.8-111.5-156-120.8-168.2-233.8C23.4,516.4,173.7,502.1,155.2,372.2C139,258.9-23.1,279-31.2,164.8
					C-38,68.7,145.3,42,124.3-52"/>
			</g>
			<g>
				<path class="st2" d="M-48.9,1132.5c3.8-24.3,202.4,4.1,205.5-20.3c6.1-46.6-196.3-82.9-185.7-128.6
					c16.6-72.2,224.3-27,238.8-99.6c23-114.8-154.4-125.2-166.1-241.7C30.6,512.2,181.3,498.2,162.5,369
					C146.1,256.6-16.8,277.7-25.9,164.5C-33.7,67.8,149.3,39.5,127.5-55"/>
			</g>
			<g>
				<path class="st2" d="M-43.8,1117c3.7-22.7,202.1,7,205.2-15.8c5.6-41.5-196.1-79.4-186.2-120.1c17-70.1,224.1-23.3,238.6-94
					C237.9,769,60.8,757.5,49.7,637.5C37.8,508.1,188.9,494.4,169.8,365.9C153.2,254.4-10.5,276.5-20.6,164.2
					C-29.4,66.9,153.4,36.9,130.6-58"/>
			</g>
			<g>
				<path class="st2" d="M-38.7,1101.4c3.6-21,201.7,10.1,204.7-11c5.2-36.4-195.7-76.3-186.6-111.8c17.4-68,224-19.5,238.3-88.2
					c25.4-121.5-151.4-134-161.8-257.6C45,504.1,196.5,490.5,177.1,362.8C160.3,252.1-4.2,275.3-15.4,163.9
					C-25.2,66.1,157.5,34.4,133.8-61"/>
			</g>
			<g>
				<path class="st2" d="M-33.6,1085.7c3.5-19.3,201.3,13.5,204.2-5.9c4.8-31.2-195.2-73.4-186.9-103.9
					c17.9-65.9,223.8-15.5,238-82.3C248.4,768.8,71.8,755.3,62,628.2C52.1,500,204.1,486.6,184.4,359.6
					c-17-109.8-182.3-85.5-194.5-196C-20.9,65.2,161.6,31.9,136.9-64"/>
			</g>
			<g>
				<path class="st2" d="M-28.4,1069.8c3.4-17.7,200.7,17.4,203.7-0.4c4.3-26.1-194.4-71-187.1-96.5
					c18.5-63.8,223.5-11.3,237.6-76.2C253.7,768.8,77.3,754.2,68.2,623.5C59.3,496,211.7,482.8,191.7,356.4
					C174.5,247.5,8.4,272.9-4.8,163.3C-16.6,64.3,165.6,29.4,140.1-67"/>
			</g>
			<g>
				<path class="st2" d="M-23.2,1053.7c3.3-16,200,21.9,202.9,5.8c3.8-21-193.4-69.3-187-89.7c19.2-61.6,223.1-6.9,237.1-69.9
					C259,768.7,82.7,753.1,74.3,618.9c-8-127,144.9-140,124.7-265.7c-17.4-108-184.4-81.6-198.4-190.1
					C-12.3,63.5,169.7,27,143.3-69.9"/>
			</g>
			<g>
				<path class="st2" d="M-17.9,1037.3c3.2-14.4,199,27.3,202,12.9c3.3-16-191.9-68.5-186.7-83.9c20-59.3,222.6-2.1,236.5-63.2
					C264.3,768.6,88.1,752,80.5,614.3C73.4,488,226.8,475,206.3,350.1C188.7,242.8,20.9,270.4,5.9,162.7
					C-8.1,62.6,173.8,24.5,146.3-72.9"/>
			</g>
			<g>
				<path class="st2" d="M-12.5,1020.5c3.1-12.7,197.5,34.3,200.5,21.6c2.6-10.9-189.7-69.3-185.8-79.8
					c20.9-57,221.9,3.1,235.6-56.1C269.6,768.5,93.5,750.9,86.6,609.7C80.5,484,234.4,471.1,213.6,347
					C195.8,240.5,27.2,269.2,11.2,162.5C-3.9,61.7,177.8,22,149.5-75.8"/>
			</g>
			<g>
				<path class="st2" d="M-6.9,1012.4c3.2-12.3,196.7,38.2,200,25.8c2.8-10.6-189.3-68.9-185.7-79.2c5.3-15.4,193.8,54.5,199.8,39.4
					C223.4,957.5,39,900.7,48.6,857.8C79.2,721.6,300.2,740,294.3,600.5c-5.4-125.7-235.1-90.3-267-211.9
					C23.4,373.8,223.4,345.2,223,330c-2.5-92-188.7-74.3-203.5-165.2C2.9,63.3,185.5,22,156.8-76.6"/>
			</g>
			<g>
				<path class="st2" d="M-1.2,1004.2c3.4-11.9,195.9,42.2,199.3,30.2c2.9-10.2-188.1-71.9-184.4-81.9c5.5-15,193.4,56.8,199.3,42
					C229.1,953.7,44.5,895.7,54.4,853c31.3-134.2,252.8-114.2,247.7-252c-4.6-125.6-234.3-91.3-265.9-213
					c-3.8-14.7,195.9-43.4,195.4-58.6c-3-91.6-189.1-73.1-204.1-163.5C10.5,63.8,193.1,22,164-77.4"/>
			</g>
			<g>
				<path class="st2" d="M4.5,995.9c3.5-11.6,194.9,46.4,198.4,34.8c3-9.9-186.7-75.2-183-84.8c5.6-14.6,192.9,59.2,198.8,44.6
					C235,950,50,890.7,60.3,848.3C92.2,715.9,314.1,737.6,310,601.5c-3.8-125.6-233.6-92.4-264.8-214.1
					C41.5,372.9,241,344,240.4,329C237,237.8,51,257.1,35.7,167.2C18.1,64.3,200.8,22,171.3-78.1"/>
			</g>
			<g>
				<path class="st2" d="M10.3,987.4c3.7-11.2,193.8,50.8,197.4,39.6c3.1-9.6-185.3-78.5-181.5-87.9c5.8-14.2,192.4,61.6,198.2,47.3
					c16.4-40.3-168.8-100.8-158.3-143.1C98.8,713,321,736.4,317.8,602c-3-125.5-232.9-93.4-263.6-215.1
					c-3.6-14.4,195.6-43.5,194.9-58.4c-3.8-90.7-189.8-70.7-205.4-160.1C25.8,64.7,208.4,22.1,178.6-78.9"/>
			</g>
			<g>
				<path class="st2" d="M16.1,978.9c3.8-10.8,192.5,55.4,196.3,44.6c3.3-9.3-183.6-82.1-179.7-91.1c5.9-13.9,191.8,64.1,197.5,50.1
					c16.4-40.2-169-101.9-158.2-143.9c33.3-128.5,256-103.3,253.7-236.1C323.5,477.1,93.5,508,63.2,386.3
					C59.6,372,258.5,342.7,257.8,328c-4.2-90.2-190.2-69.4-206-158.4C33.4,65.2,216,22,185.9-79.7"/>
			</g>
			<g>
				<path class="st2" d="M22.1,970.3c3.9-10.4,191.1,60.1,195,49.7c3.4-9-181.9-85.7-177.9-94.4c6.1-13.5,191.2,66.7,196.8,53
					c16.5-40-169.2-103-158-144.8c33.9-126.7,256.9-99.7,255.5-230.8c-1.4-125.3-231.4-95.6-261.4-217.3
					c-3.5-14.2,195.2-43.6,194.4-58.2C261.9,237.8,75.9,259.3,60,170.9C41,65.6,223.7,22.1,193.2-80.4"/>
			</g>
			<g>
				<path class="st2" d="M28.2,961.6c4.1-10.1,189.4,65.2,193.5,55.1c3.5-8.6-179.9-89.5-175.9-98c6.2-13.1,190.4,69.3,196,55.9
					C258.4,934.9,72.5,870.5,83.9,829c34.5-124.8,258-95.9,257.4-225.4C340.8,478.3,110.6,506.9,81,385.2
					c-3.4-14.1,195-43.7,194.1-58.2c-5.1-89.3-191-66.9-207.2-154.9c-19.5-106,163.3-150,132.3-253.3"/>
			</g>
			<g>
				<path class="st2" d="M34.4,952.8c4.2-9.7,187.5,70.4,191.7,60.7c3.6-8.3-177.8-93.6-173.7-101.7c6.4-12.7,189.6,72,195.1,58.9
					C264.2,931.1,78,865.4,89.8,824.1c35.1-122.9,259-92.1,259.3-219.9C349.4,479,119.2,506.4,90,384.7
					c-3.4-14,194.8-43.8,193.9-58.1c-5.5-88.9-191.4-65.7-207.8-153.2C56.2,66.5,239,22.1,207.7-82"/>
			</g>
			<g>
				<path class="st2" d="M40.7,943.9c4.4-9.3,185.4,75.7,189.8,66.4c3.8-8-175.4-97.7-171.3-105.5c6.5-12.3,188.7,74.8,194.2,62
					c16.8-39.4-169.6-106.5-157.5-147.5c35.8-121,260-88.3,261.2-214.5c1.2-125.1-229.2-98.9-258-220.6
					c-3.3-13.9,194.6-43.8,193.6-58.1c-6-88.4-191.8-64.4-208.4-151.5C63.8,67,246.6,22.1,215-82.7"/>
			</g>
			<g>
				<path class="st2" d="M47.1,934.9c4.5-8.9,183,81.3,187.5,72.3c3.9-7.7-172.8-102.1-168.6-109.6c6.7-11.9,187.7,77.7,193.1,65.1
					c16.8-39.2-169.8-107.6-157.3-148.4c36.4-119.2,261-84.5,263.1-209c2.1-125-228.4-100-256.8-221.8
					c-3.2-13.8,194.4-43.9,193.3-58c-6.4-87.9-192.2-63.2-209-149.7C71.4,67.4,254.3,22.1,222.3-83.5"/>
			</g>
			<g>
				<path class="st2" d="M53.7,925.8c4.7-8.6,180.3,87.1,185,78.6c4-7.3-170-106.6-165.7-113.8c6.9-11.5,186.6,80.6,191.9,68.3
					C281.8,919.9,95,850,107.8,809.5c37-117.3,262-80.5,264.9-203.5C375.6,481,145,504.8,117,383c-3.1-13.7,194.1-44,193-58
					c-6.8-87.5-192.6-61.9-209.5-148C79,67.9,261.9,22.2,229.6-84.2"/>
			</g>
			<g>
				<path class="st2" d="M60.4,916.6c4.8-8.2,177.3,93.1,182.1,84.9c4.1-7-166.9-111.2-162.5-118.1c7-11.1,185.4,83.6,190.6,71.6
					c17-38.8-170-110.1-156.9-150.4c37.7-115.5,263-76.6,266.7-198c3.8-124.8-226.9-102.3-254.5-224.1
					c-3.1-13.6,193.9-44.1,192.8-57.9c-7.3-87-193-60.6-210.1-146.3C86.6,68.4,269.6,22.2,236.8-85"/>
			</g>
			<g>
				<path class="st2" d="M67.4,907.2c5-7.8,173.8,99.3,178.8,91.5c4.3-6.7-163.4-116.1-159-122.7c7.2-10.7,184,86.7,189.2,75
					c17.1-38.6-170.1-111.4-156.6-151.4C158,686,383.8,727,388.3,607.1c4.8-124.7-226.1-103.5-253.4-225.3
					c-3-13.5,193.7-44.1,192.5-57.9c-7.7-86.6-193.3-59.4-210.7-144.5C94.2,68.8,277.2,22.2,244.1-85.7"/>
			</g>
			<g>
				<path class="st2" d="M74.5,897.8c5.1-7.4,170,105.7,175.1,98.3c4.4-6.4-159.7-121-155.2-127.3c7.3-10.3,182.5,89.8,187.6,78.3
					c17.1-38.4-170.2-112.7-156.3-152.4c38.9-111.8,264.9-68.6,270.3-186.9c5.7-124.6-225.3-104.6-252.2-226.4
					c-3-13.4,193.5-44.2,192.2-57.9c-8.1-86.1-193.7-58.1-211.3-142.8C101.8,69.3,284.9,22.2,251.4-86.5"/>
			</g>
			<g>
				<path class="st2" d="M81.9,888.4c5.3-7.1,165.8,112.2,171.1,105.1c4.5-6.1-155.6-126.1-151-132.1c7.5-9.9,180.9,93.1,185.9,81.8
					c17.2-38.2-170.2-114-156-153.5c39.5-110,265.9-64.6,272.1-181.3c6.6-124.5-224.5-105.8-251-227.6
					c-2.9-13.3,193.2-44.3,191.9-57.8c-8.6-85.7-194.1-56.8-211.8-141C109.4,69.7,292.5,22.3,258.7-87.2"/>
			</g>
			<g>
				<path class="st2" d="M89.5,878.8c17.6-21.9,194.1,84.1,205.1,58.3c61.7-144.6-96.5-186.6-82.3-343.2
					c12.5-137.5,162.9-141.1,140.3-277.3c-14-84.5-193.7-49.7-211.6-133.5C116.9,70.2,300.2,22.3,266-88"/>
			</g>
			<g class="st33">
				<path class="st2" d="M-184.1,634.2c6.4-39.9,209.2-18.4,211.3-58.7C35.1,429-176.6,415.1-165,268.8
					c9.1-114.3,220.7-94.2,233-208.2c5.8-53.8-198.3-67-197.1-121.1"/>
			</g>
			<g class="st13">
				<path class="st2" d="M-182.3,623.3c7.2-43.8,210.5-21.4,213-65.7c8-143.3-204.1-157.1-193.1-300.3
					C-154,147.6,57.4,167.2,68.9,57.8C74.6,4.8-129.4-8-128.3-61.3"/>
			</g>
			<g class="st60">
				<path class="st2" d="M-180.5,612.4c8.1-47.7,211.9-24.6,214.7-72.9c8.1-140.1-204.4-153.8-194-293.8
					C-152.1,140.7,59,159.8,69.9,55C75.3,2.8-128.6-9.7-127.6-62.2"/>
			</g>
			<g class="st64">
				<path class="st2" d="M-178.7,601.6c9-51.7,213.2-27.8,216.4-80.2c8.2-136.9-204.6-150.5-194.9-287.3
					c7.1-100.3,217.9-81.8,228.1-181.9C76.1,0.8-127.7-11.3-126.8-63"/>
			</g>
			<g class="st15">
				<path class="st2" d="M-176.9,590.8c9.9-55.6,214.6-31.1,218.1-87.5c8.3-133.7-204.9-147.1-195.8-280.7
					c6.5-95.6,217-77.8,226.5-173.2C76.8-1.2-126.8-13-126-63.9"/>
			</g>
			<g class="st65">
				<path class="st2" d="M-175.1,580.1c10.8-59.5,215.9-34.5,219.8-94.8C53,354.9-160.4,341.6-152.1,211.1
					c5.8-90.9,216.1-73.8,224.8-164.5C77.6-3.2-126-14.6-125.2-64.7"/>
			</g>
			<g class="st61">
				<path class="st2" d="M-173.3,569.4c11.7-63.4,217.2-37.8,221.5-102.2C56.6,340-157.2,326.9-149.5,199.6
					c5.2-86.3,215.2-69.8,223.2-155.8C78.3-5.3-125.1-16.3-124.4-65.6"/>
			</g>
			<g class="st17">
				<path class="st2" d="M-171.5,558.8C-159,491.4,47,517.6,51.7,449.2c8.5-124-205.6-136.9-198.6-261
					c4.6-81.6,214.2-65.9,221.6-147.3C79-7.4-124.3-17.9-123.6-66.4"/>
			</g>
			<g class="st34">
				<path class="st2" d="M-169.8,548.2c13.4-71.3,219.8-44.7,224.9-117c8.5-120.8-205.8-133.4-199.5-254.3
					c4-76.9,213.3-62,219.9-138.7C79.6-9.3-123.5-19.4-123-67.1"/>
			</g>
			<g class="st63">
				<path class="st2" d="M-168,537.6c14.3-75.2,221.1-48.1,226.6-124.5c8.5-117.6-206-129.9-200.4-247.7
					c3.4-72.2,212.3-58.2,218.3-130.3c4-46.7-199.1-56.2-198.6-103.1"/>
			</g>
			<g class="st19">
				<path class="st2" d="M-166.2,527c15.2-79.1,222.4-51.6,228.3-132c8.5-114.3-206.2-126.4-201.3-241
					c2.9-67.5,211.4-54.5,216.7-121.9c3.6-45.9-199.3-54.9-198.8-101"/>
			</g>
			<g class="st66">
				<path class="st2" d="M-164.5,516.5c16.1-83.1,223.6-55.1,230.1-139.5c8.5-111.1-206.3-122.8-202.2-234.2
					C-134.3,80,73.8,91.9,78.5,29.2c3.4-45.2-199.4-53.5-199-98.8"/>
			</g>
			<g class="st20">
				<path class="st2" d="M-162.7,505.9c17-87,224.9-58.7,231.8-147C77.5,251-137.4,239.8-134,131.6c1.8-58.1,209.4-47.4,213.5-105.4
					C82.6-18.2-120-26-119.7-70.5"/>
			</g>
			<g class="st67">
				<path class="st2" d="M-161,495.4c17.9-90.9,226.1-62.2,233.5-154.5C81,236.1-134,225.4-131.4,120.4C-130.1,66.9,77,76.4,80.4,23
					C83.2-20.6-119.2-27.6-119-71.3"/>
			</g>
			<g class="st68">
				<path class="st2" d="M-159.2,484.9c18.7-94.8,227.4-65.8,235.3-162.1c8.3-101.5-206.7-111.7-204.9-213.5
					C-128,60.5,78.5,68.5,81.4,19.9C83.9-22.9-118.3-29.2-118.1-72"/>
			</g>
			<g class="st22">
				<path class="st2" d="M-157.5,474.4c19.6-98.8,228.6-69.3,237-169.7c8.2-98.3-206.7-107.8-205.8-206.5
					c0.4-44,206.3-37.6,208.6-81.6c2.2-42-199.8-47.4-199.7-89.5"/>
			</g>
			<g class="st36">
				<path class="st2" d="M-155.7,463.9C-135.2,361.2,74.1,391,83,286.6c8.2-95.1-206.7-103.9-206.7-199.3c0-39.4,205.2-34.7,207-74
					c1.8-41.2-199.9-45.7-199.9-87"/>
			</g>
		</g>
	</g>
</g>
<g class="st0">
	<g>
		<g id="Waveform2_8_">
			<g>
				<path class="st1" d="M1511.1-126.8c-45,413.3-279.7,397.8-289.4,813.5c-2.9,122.5,236.1,97.2,262.7,216.8
					c23,103.2-199.6,178.6-153.8,273.9c49.3,102.3,240.1-23.3,314.6,62.4"/>
			</g>
			<g>
				<path class="st1" d="M1525-127.9c-45.7,416.7-279,400.7-290.7,819.8c-3.3,119.2,234.2,95.6,259.3,212.2
					c22.5,104.4-199.7,176.5-155.3,273.6c45.8,100.1,238.2-20.8,308.5,63.9"/>
			</g>
			<g>
				<path class="st1" d="M1538.8-129.1c-46.3,420.2-278.2,403.6-292,826.1c-3.8,115.9,232.2,94,255.8,207.6
					c21.9,105.6-199.7,174.3-156.8,273.3c42.4,97.8,236.3-18.1,302.4,65.5"/>
			</g>
			<g>
				<path class="st1" d="M1552.6-130.2c-46.9,423.6-277.4,406.5-293.2,832.4c-4.2,112.7,230.2,92.5,252.3,203.1
					c21.3,106.8-199.6,172.1-158.3,272.9c39.2,95.5,234.5-15.3,296.4,67.4"/>
			</g>
			<g>
				<path class="st1" d="M1566.4-131.4c-47.6,427-276.6,409.5-294.5,838.7c-4.6,109.5,228.2,90.9,248.8,198.5
					c20.7,108-199.3,169.9-159.7,272.4c36,93.2,232.6-12.2,290.3,69.5"/>
			</g>
			<g>
				<path class="st1" d="M1580.3-132.5c-48.2,430.4-275.7,412.4-295.7,845c-4.9,106.2,226.2,89.4,245.3,194
					c20,109.2-199,167.6-161.1,271.9c33,90.9,230.8-8.8,284.3,71.8"/>
			</g>
			<g>
				<path class="st1" d="M1594.1-133.7c-48.9,433.8-274.8,415.4-297,851.3c-5.2,103,224.1,87.8,241.8,189.4
					c19.3,110.3-198.5,165.2-162.5,271.3c30.1,88.7,229-5.2,278.3,74.4"/>
			</g>
			<g>
				<path class="st1" d="M1607.9-134.8c-49.5,437.2-273.9,418.3-298.2,857.7c-5.5,99.8,221.9,86.4,238.3,184.9
					c18.6,111.5-197.9,162.8-163.9,270.7c27.3,86.4,227.2-1.3,272.3,77.3"/>
			</g>
			<g>
				<path class="st1" d="M1621.8-136c-50.1,440.6-273,421.3-299.4,864c-5.8,96.6,219.7,84.9,234.8,180.5
					c17.8,112.7-197.1,160.4-165.1,270c24.6,84.2,225.3,2.9,266.2,80.4"/>
			</g>
			<g>
				<path class="st1" d="M1635.6-137.1c-50.8,444-272,424.3-300.7,870.3c-6,93.4,217.5,83.4,231.3,176
					c17,113.9-196.3,158-166.4,269.2c22,82,223.4,7.4,260.1,83.9"/>
			</g>
			<g>
				<path class="st1" d="M1649.4-138.3c-51.4,447.4-271,427.3-301.9,876.6c-6.2,90.2,215.2,81.9,227.8,171.5
					c16.2,115.1-195.3,155.5-167.6,268.4c19.6,79.8,221.5,12.2,254,87.7"/>
			</g>
			<g>
				<path class="st1" d="M1663.3-139.4c-52,450.9-270,430.3-303.2,882.9c-6.4,87.1,212.9,80.5,224.3,167.1
					c15.3,116.3-194.2,153-168.8,267.5c17.2,77.8,219.4,17.4,247.7,91.8"/>
			</g>
			<g>
				<path class="st1" d="M1663.3-139.4c-52,450.9-270,430.3-303.2,882.9c-6.4,87.1,212.9,80.5,224.3,167.1
					c15.3,116.3-194.2,153-168.8,267.5c17.2,77.8,219.4,17.4,247.7,91.8"/>
			</g>
			<g>
				<path class="st1" d="M1677.9-140.7c-52,450.9-268.9,430.1-303.2,882.7c-6.6,87,210.9,81.6,221.7,168.2
					c14.5,116.4-191.3,148.7-169.5,263.9c14.6,76.9,216.4,27.9,238.7,103"/>
			</g>
			<g>
				<path class="st1" d="M1692.6-142c-52,450.9-267.8,430-303.1,882.4c-6.8,87,208.9,82.7,219.1,169.3
					c13.8,116.5-188.4,144.3-170.1,260.2c12,76.3,212.8,39,229,114.5"/>
			</g>
			<g>
				<path class="st2" d="M1199.8,785.6c-1.9-55,198-61.8,196.2-116.8"/>
			</g>
			<g>
				<path class="st2" d="M1200.6,780.5c-1.1-59.2,198.9-62.9,197.7-122.1"/>
			</g>
			<g>
				<path class="st2" d="M1201.4,775.6c-0.4-63.4,199.6-64.5,199.3-127.8"/>
			</g>
			<g>
				<path class="st2" d="M1202.3,770.9c0.4-67.5,200.4-66.3,200.8-133.8"/>
			</g>
			<g>
				<path class="st2" d="M1203.1,766.2c1.2-71.7,201.1-68.4,202.3-140.1"/>
			</g>
			<g>
				<path class="st2" d="M1204,761.8c1.9-75.8,201.8-70.8,203.8-146.6"/>
			</g>
			<g>
				<path class="st2" d="M1204.8,757.4c2.7-80,202.6-73.3,205.2-153.3"/>
			</g>
			<g>
				<path class="st2" d="M1205.7,753.1c3.4-84.1,203.3-76,206.7-160.2"/>
			</g>
			<g>
				<path class="st2" d="M1206.6,748.8c4.2-88.3,204-78.8,208.1-167.2"/>
			</g>
			<g>
				<path class="st2" d="M1207.5,744.6c4.9-92.5,204.6-81.8,209.6-174.2"/>
			</g>
			<g>
				<path class="st2" d="M1208.3,740.5c5.7-96.6,205.3-84.9,211-181.5"/>
			</g>
			<g>
				<path class="st2" d="M1209.2,736.4c6.4-100.8,206-88,212.5-188.8"/>
			</g>
			<g>
				<path class="st2" d="M1210.1,732.4c7.2-104.9,206.7-91.2,213.9-196.2"/>
			</g>
			<g>
				<path class="st2" d="M1211,728.4c8-109.1,207.4-94.5,215.4-203.6"/>
			</g>
			<g>
				<path class="st2" d="M1211.8,724.4c8.7-113.2,208.1-97.9,216.8-211.2"/>
			</g>
			<g>
				<path class="st2" d="M1212.7,720.4c9.5-117.4,208.8-101.3,218.3-218.7"/>
			</g>
			<g>
				<path class="st2" d="M1213.6,716.5c10.2-121.6,209.5-104.8,219.7-226.4"/>
			</g>
			<g>
				<path class="st2" d="M1214.4,712.6c11-125.7,210.2-108.3,221.2-234"/>
			</g>
			<g>
				<path class="st2" d="M1215.3,708.7C1227,578.9,1426.2,596.9,1438,467"/>
			</g>
			<g>
				<path class="st2" d="M1216.2,704.9c12.5-134,211.6-115.5,224.1-249.5"/>
			</g>
			<g>
				<path class="st2" d="M1217,701c13.2-138.2,212.3-119.1,225.6-257.3"/>
			</g>
			<g>
				<path class="st2" d="M1217.9,697.2c14-142.3,213-122.8,227-265.1"/>
			</g>
			<g>
				<path class="st2" d="M1218.8,693.4c14.8-146.5,213.7-126.5,228.5-273"/>
			</g>
			<g>
				<path class="st2" d="M1219.7,689.6c15.5-150.7,214.5-130.2,230-280.9"/>
			</g>
			<g>
				<path class="st2" d="M1220.5,685.8c16.3-154.8,215.2-133.9,231.4-288.8"/>
			</g>
			<g>
				<path class="st2" d="M1221.4,682c17-159,215.9-137.7,232.9-296.7"/>
			</g>
			<g>
				<path class="st2" d="M1222.2,678.3c17.8-163.1,216.6-141.5,234.4-304.6"/>
			</g>
			<g>
				<path class="st2" d="M1196.6,660.8c13.2-115.5,211.9-92.8,225.1-208.3"/>
			</g>
			<g class="st3">
				<path class="st2" d="M1199,648.9c12.9-112.7,211.6-90,224.4-202.7"/>
			</g>
			<g class="st4">
				<path class="st2" d="M1201.3,637c12.5-109.9,211.2-87.2,223.8-197.1"/>
			</g>
			<g class="st5">
				<path class="st2" d="M1203.7,625.1c12.2-107.1,210.9-84.5,223.1-191.6"/>
			</g>
			<g class="st6">
				<path class="st2" d="M1206.1,613.2c11.9-104.3,210.6-81.7,222.5-186"/>
			</g>
			<g class="st7">
				<path class="st2" d="M1208.4,601.3c11.5-101.5,210.3-78.9,221.8-180.4"/>
			</g>
			<g class="st8">
				<path class="st2" d="M1210.8,589.4c11.2-98.7,209.9-76.1,221.2-174.9"/>
			</g>
			<g class="st9">
				<path class="st2" d="M1213.1,577.6c10.9-95.9,209.6-73.4,220.5-169.3"/>
			</g>
			<g class="st10">
				<path class="st2" d="M1215.5,565.7c10.6-93.1,209.3-70.6,219.9-163.7"/>
			</g>
			<g class="st11">
				<path class="st2" d="M1217.8,553.8c10.2-90.3,209-67.8,219.2-158.2"/>
			</g>
			<g class="st12">
				<path class="st2" d="M1220.2,541.9c9.9-87.5,208.6-65.1,218.5-152.6"/>
			</g>
			<g class="st13">
				<path class="st2" d="M1222.5,530c9.6-84.8,208.3-62.3,217.9-147"/>
			</g>
			<g class="st14">
				<path class="st2" d="M1224.9,518.1c9.3-82,208-59.5,217.2-141.5"/>
			</g>
			<g class="st15">
				<path class="st2" d="M1227.2,506.3c8.9-79.2,207.7-56.8,216.6-135.9"/>
			</g>
			<g class="st16">
				<path class="st2" d="M1229.6,494.4c8.6-76.4,207.3-54,215.9-130.4"/>
			</g>
			<g class="st17">
				<path class="st2" d="M1231.9,482.5c8.3-73.6,207-51.2,215.3-124.8"/>
			</g>
			<g class="st18">
				<path class="st2" d="M1234.3,470.6c7.9-70.8,206.7-48.5,214.6-119.2"/>
			</g>
			<g class="st19">
				<path class="st2" d="M1236.6,458.8c7.6-68,206.4-45.7,214-113.7"/>
			</g>
			<g class="st20">
				<path class="st2" d="M1239,446.9c7.3-65.2,206-43,213.3-108.2"/>
			</g>
			<g class="st21">
				<path class="st2" d="M1241.3,435c7-62.4,205.7-40.2,212.7-102.6"/>
			</g>
			<g class="st22">
				<path class="st2" d="M1243.7,423.1c6.6-59.6,205.4-37.5,212-97.1"/>
			</g>
			<g class="st23">
				<path class="st2" d="M1246,411.3c6.3-56.8,205.1-34.8,211.4-91.6"/>
			</g>
			<g class="st24">
				<path class="st2" d="M1248.4,399.4c6-54,204.8-32,210.7-86.1"/>
			</g>
			<g class="st25">
				<path class="st2" d="M1250.7,387.5c5.6-51.2,204.4-29.3,210.1-80.5"/>
			</g>
			<g class="st26">
				<path class="st2" d="M1253.1,375.7c5.3-48.4,204.1-26.6,209.4-75"/>
			</g>
			<g class="st27">
				<path class="st2" d="M1255.4,363.8c5-45.6,203.8-23.9,208.8-69.5"/>
			</g>
			<g class="st28">
				<path class="st2" d="M1257.8,352c4.7-42.8,203.5-21.2,208.2-64"/>
			</g>
			<g>
				<path class="st2" d="M1418.1,662.5c32.6,118.1-155.5,164.9-128.9,284.5c23,103.2,213.3,66.6,230.3,171"/>
			</g>
			<g>
				<path class="st2" d="M1417.3,666.2c31.7,115.4-157,162.6-130.6,279.4c23.6,104.2,214.3,66.1,232.6,171.4"/>
			</g>
			<g>
				<path class="st2" d="M1416.4,669.9c30.8,112.7-158.6,160.3-132.3,274.2c24.2,105.2,215.4,65.6,235,171.8"/>
			</g>
			<g>
				<path class="st2" d="M1415.6,673.6c29.9,110-160.1,158.1-134.1,269.1c24.9,106.2,216.4,65.1,237.3,172.2"/>
			</g>
			<g>
				<path class="st2" d="M1414.8,677.3c29,107.3-161.5,155.7-135.8,263.9c25.5,107.3,217.5,64.7,239.7,172.7"/>
			</g>
			<g>
				<path class="st2" d="M1414,681c28.1,104.7-163,153.4-137.5,258.8c26.2,108.3,218.5,64.2,242,173.1"/>
			</g>
			<g>
				<path class="st2" d="M1413.2,684.8c27.2,102-164.5,151.1-139.3,253.6c26.9,109.3,219.5,63.8,244.3,173.6"/>
			</g>
			<g>
				<path class="st2" d="M1412.4,688.5c26.3,99.3-165.9,148.8-141,248.5c27.6,110.3,220.5,63.4,246.7,174.1"/>
			</g>
			<g>
				<path class="st2" d="M1411.6,692.3c25.4,96.6-167.3,146.5-142.7,243.3c28.3,111.4,221.5,63,249,174.6"/>
			</g>
			<g>
				<path class="st2" d="M1410.8,696c24.6,93.9-168.7,144.2-144.5,238.1c29.1,112.4,222.5,62.6,251.3,175.1"/>
			</g>
			<g>
				<path class="st2" d="M1410,699.8c23.7,91.2-170.1,141.8-146.2,233c29.8,113.4,223.5,62.3,253.6,175.6"/>
			</g>
			<g>
				<path class="st2" d="M1409.2,703.6c22.8,88.5-171.5,139.5-147.9,227.8c30.6,114.5,224.4,61.9,255.9,176.2"/>
			</g>
			<g>
				<path class="st2" d="M1408.4,707.4c21.9,85.8-172.9,137.1-149.6,222.6c31.4,115.5,225.4,61.6,258.1,176.8"/>
			</g>
			<g>
				<path class="st2" d="M1407.7,711.2c21,83.2-174.2,134.8-151.4,217.4c32.2,116.6,226.4,61.3,260.4,177.3"/>
			</g>
			<g>
				<path class="st2" d="M1406.9,715c20.1,80.5-175.5,132.4-153.1,212.2c33,117.6,227.3,61,262.7,177.9"/>
			</g>
			<g>
				<path class="st2" d="M1406.1,718.8c19.2,77.8-176.8,130-154.8,207c33.9,118.7,228.3,60.7,265,178.5"/>
			</g>
			<g>
				<path class="st2" d="M1405.3,722.7c18.3,75.1-178.1,127.6-156.5,201.8c34.8,119.7,229.3,60.4,267.2,179.1"/>
			</g>
			<g>
				<path class="st2" d="M1404.5,726.5c17.4,72.4-179.3,125.1-158.3,196.5c35.7,120.8,230.2,60.1,269.5,179.8"/>
			</g>
			<g>
				<path class="st2" d="M1403.8,730.4c16.5,69.7-180.6,122.7-160,191.3c36.6,121.8,231.1,59.9,271.7,180.4"/>
			</g>
			<g>
				<path class="st2" d="M1403,734.4c15.7,67-181.8,120.2-161.7,186c37.5,122.9,232.1,59.6,274,181"/>
			</g>
			<g>
				<path class="st2" d="M1402.3,738.3c14.8,64.3-183,117.7-163.4,180.7c38.5,123.9,233,59.4,276.2,181.7"/>
			</g>
			<g>
				<path class="st2" d="M1401.5,742.3c13.9,61.6-184.2,115.1-165.2,175.4c39.5,124.9,233.9,59.1,278.5,182.4"/>
			</g>
			<g>
				<path class="st2" d="M1400.8,746.4c13,59-185.4,112.6-166.9,170c40.5,126,234.9,58.9,280.7,183"/>
			</g>
			<g>
				<path class="st2" d="M1400,750.4c12.1,56.3-186.5,109.9-168.6,164.6c41.5,127,235.8,58.7,282.9,183.7"/>
			</g>
			<g>
				<path class="st2" d="M1399.3,754.6c11.2,53.6-187.6,107.2-170.4,159.2c42.6,128,236.7,58.5,285.1,184.4"/>
			</g>
			<g>
				<path class="st2" d="M1398.6,758.8c10.3,50.9-188.7,104.5-172.1,153.7c43.6,129.1,237.6,58.3,287.4,185.1"/>
			</g>
			<g>
				<path class="st2" d="M1397.9,763c9.4,48.2-189.8,101.7-173.8,148.1c44.7,130.1,238.5,58.1,289.6,185.8"/>
			</g>
			<g>
				<path class="st2" d="M1338.7-170.2c23,263.1-171.3,278.2-153.4,541.6c10.5,153.5,205.2,143.4,210.6,297.2"/>
			</g>
			<g class="st29">
				<path class="st2" d="M1342.5-157.3c22.3,259.1-171.7,273.7-154.9,533.1c9.8,151.1,204,142.1,208.3,293.5"/>
			</g>
			<g class="st30">
				<path class="st2" d="M1346.4-144.3c21.5,255-172,269.1-156.5,524.6C1199,529,1392.8,521.1,1396,670"/>
			</g>
			<g class="st31">
				<path class="st2" d="M1350.2-131.3c20.8,251-172.4,264.5-158,516C1200.6,531,1394,524.2,1396,670.8"/>
			</g>
			<g class="st9">
				<path class="st2" d="M1354.1-118.4c20,247-172.7,260-159.5,507.4c7.7,144,200.6,138.3,201.4,282.5"/>
			</g>
			<g class="st32">
				<path class="st2" d="M1357.9-105.4c19.2,243-173,255.3-161.1,498.8c6.9,141.6,199.5,137.2,199.1,279"/>
			</g>
			<g class="st33">
				<path class="st2" d="M1361.8-92.4c18.5,239-173.3,250.7-162.6,490.2c6.2,139.3,198.4,136,196.8,275.5"/>
			</g>
			<g class="st14">
				<path class="st2" d="M1365.6-79.4c17.7,235-173.7,246.1-164.2,481.5c5.5,136.9,197.2,135,194.5,272"/>
			</g>
			<g class="st16">
				<path class="st2" d="M1369.5-66.4c17,231-174,241.4-165.7,472.9c4.8,134.6,196,133.9,192.2,268.6"/>
			</g>
			<g class="st34">
				<path class="st2" d="M1373.4-53.4c16.2,227-174.3,236.8-167.2,464.2C1210.3,543.1,1401,543.7,1396,676"/>
			</g>
			<g class="st35">
				<path class="st2" d="M1377.2-40.4c15.5,223-174.7,232.1-168.8,455.5c3.4,129.9,193.7,132,187.5,261.8"/>
			</g>
			<g class="st21">
				<path class="st2" d="M1381.1-27.4c14.7,219-175,227.3-170.3,446.7c2.7,127.6,192.5,131.1,185.1,258.6"/>
			</g>
			<g class="st36">
				<path class="st2" d="M1384.9-14.4c14,214.9-175.3,222.6-171.9,438c2,125.3,191.2,130.3,182.7,255.3"/>
			</g>
			<g class="st37">
				<path class="st2" d="M1388.8-1.3c13.2,210.9-175.6,217.8-173.4,429.2c1.3,123.1,190,129.5,180.3,252.2"/>
			</g>
			<g class="st38">
				<path class="st2" d="M1392.6,11.7c12.5,206.9-175.9,213.1-174.9,420.4c0.6,120.8,188.7,128.8,177.9,249.1"/>
			</g>
			<g class="st28">
				<path class="st2" d="M1396.5,24.8c11.7,202.9-176.2,208.2-176.4,411.5c-0.1,118.5,187.5,128.1,175.4,246"/>
			</g>
			<g class="st39">
				<path class="st2" d="M1400.3,37.8c10.9,198.9-176.5,203.4-178,402.6c-0.8,116.2,186.2,127.6,173,243.1"/>
			</g>
			<g class="st39">
				<path class="st2" d="M1222.5,446.6c-10.9-198.9,188.8-209.9,177.8-408.8"/>
			</g>
			<g class="st40">
				<path class="st2" d="M1225.2,435.3c-8.9-199.4,191-208.3,182.1-407.7"/>
			</g>
			<g class="st41">
				<path class="st2" d="M1227.9,424c-6.8-200,193.1-206.7,186.4-406.7"/>
			</g>
			<g class="st42">
				<path class="st2" d="M1230.7,412.7C1226,212.2,1426,207.6,1421.3,7.1"/>
			</g>
			<g class="st43">
				<path class="st2" d="M1233.4,401.4c-2.6-201,197.4-203.6,194.9-404.6"/>
			</g>
			<g class="st44">
				<path class="st2" d="M1236.2,390.1c-0.5-201.6,199.5-202,199.1-403.6"/>
			</g>
			<g class="st45">
				<path class="st2" d="M1238.9,378.8c1.6-202.1,201.6-200.5,203.3-402.5"/>
			</g>
			<g class="st46">
				<path class="st2" d="M1241.7,367.5c3.7-202.6,203.7-198.9,207.4-401.5"/>
			</g>
			<g class="st46">
				<path class="st2" d="M1244.5,356.3c5.8-203.1,205.7-197.4,211.6-400.5"/>
			</g>
			<g class="st47">
				<path class="st2" d="M1247.3,345c7.9-203.7,207.8-195.9,215.7-399.6"/>
			</g>
			<g class="st48">
				<path class="st2" d="M1250.1,333.7c10-204.2,209.8-194.4,219.8-398.6"/>
			</g>
			<g class="st49">
				<path class="st2" d="M1252.9,322.5c12.1-204.7,211.8-192.9,223.9-397.6"/>
			</g>
			<g class="st50">
				<path class="st2" d="M1255.7,311.2c14.2-205.2,213.7-191.4,227.9-396.7"/>
			</g>
			<g class="st51">
				<path class="st2" d="M1258.6,300c16.3-205.8,215.7-190,232-395.8"/>
			</g>
			<g class="st52">
				<path class="st2" d="M1261.4,288.8c18.4-206.3,217.6-188.5,236-394.9"/>
			</g>
			<g class="st53">
				<path class="st2" d="M1264.3,277.5c20.5-206.8,219.5-187.1,240-394"/>
			</g>
			<g class="st54">
				<path class="st2" d="M1267.1,266.3c22.6-207.4,221.4-185.7,244-393.1"/>
			</g>
			<g>
				<path class="st2" d="M1385.1,367.2c-3.5,131.8-203.4,126.5-206.9,258.3"/>
			</g>
			<g>
				<path class="st2" d="M1385.4,374.6c-2.9,132.7-202.9,128.3-205.8,261"/>
			</g>
			<g>
				<path class="st2" d="M1385.7,381.9c-2.4,133.7-202.4,130.1-204.8,263.7"/>
			</g>
			<g>
				<path class="st2" d="M1386,389.2c-1.9,134.6-201.9,131.8-203.8,266.5"/>
			</g>
			<g>
				<path class="st2" d="M1386.3,396.5c-1.4,135.6-201.3,133.6-202.7,269.2"/>
			</g>
			<g>
				<path class="st2" d="M1386.5,403.8c-0.8,136.5-200.8,135.3-201.7,271.9"/>
			</g>
			<g>
				<path class="st2" d="M1386.8,411.2c-0.3,137.5-200.3,137-200.6,274.5"/>
			</g>
			<g>
				<path class="st2" d="M1387.1,418.5c0.2,138.4-199.8,138.8-199.5,277.2"/>
			</g>
			<g>
				<path class="st2" d="M1387.4,425.9c0.8,139.4-199.2,140.5-198.5,279.9"/>
			</g>
			<g>
				<path class="st2" d="M1387.7,433.2c1.3,140.3-198.7,142.2-197.4,282.5"/>
			</g>
			<g>
				<path class="st2" d="M1388,440.6c1.8,141.3-198.2,143.8-196.4,285.1"/>
			</g>
			<g>
				<path class="st2" d="M1388.3,447.9c2.3,142.2-197.6,145.5-195.3,287.8"/>
			</g>
			<g>
				<path class="st2" d="M1388.6,455.3c2.9,143.2-197.1,147.2-194.2,290.4"/>
			</g>
			<g>
				<path class="st2" d="M1388.9,462.7c3.4,144.1-196.5,148.9-193.2,293"/>
			</g>
			<g>
				<path class="st2" d="M1389.1,470c3.9,145.1-196,150.5-192.1,295.6"/>
			</g>
			<g>
				<path class="st2" d="M1389.4,477.4c4.5,146-195.5,152.1-191,298.2"/>
			</g>
			<g>
				<path class="st2" d="M1389.7,484.8c5,147-194.9,153.8-189.9,300.8"/>
			</g>
			<g>
				<path class="st2" d="M1307.5-115.7c21.3,243.5-171.6,257.8-156.8,501.8c6.1,101.5,199.4,96,199,197.7"/>
			</g>
			<g class="st3">
				<path class="st2" d="M1309.4-119.1c21.4,244.7-171.3,258.9-156.6,504.1c6.2,103.4,199.2,98.2,198.6,201.7"/>
			</g>
			<g class="st4">
				<path class="st2" d="M1311.4-122.5c21.5,246-170.9,260-156.4,506.5c6.2,105.2,199,100.3,198.2,205.7"/>
			</g>
			<g class="st5">
				<path class="st2" d="M1313.3-125.9c21.6,247.2-170.6,261.2-156.2,508.9c6.2,107.1,198.8,102.4,197.8,209.7"/>
			</g>
			<g class="st6">
				<path class="st2" d="M1315.3-129.4C1337,119,1145,133,1159.3,381.9c6.3,109,198.6,104.5,197.5,213.7"/>
			</g>
			<g class="st55">
				<path class="st2" d="M1317.2-132.8c21.8,249.6-170,263.4-155.8,513.6c6.3,110.9,198.5,106.6,197.1,217.7"/>
			</g>
			<g class="st56">
				<path class="st2" d="M1319.2-136.2c21.9,250.8-169.7,264.6-155.6,516c6.3,112.8,198.3,108.7,196.7,221.7"/>
			</g>
			<g class="st57">
				<path class="st2" d="M1321.1-139.6c22.1,252.1-169.3,265.7-155.4,518.4c6.3,114.7,198.1,110.8,196.3,225.7"/>
			</g>
			<g class="st32">
				<path class="st2" d="M1323.1-143c22.2,253.3-169,266.9-155.2,520.7c6.4,116.6,197.9,112.9,195.9,229.7"/>
			</g>
			<g class="st58">
				<path class="st2" d="M1325-146.4c22.3,254.5-168.7,268-154.9,523.1c6.4,118.4,197.7,115,195.6,233.6"/>
			</g>
			<g class="st59">
				<path class="st2" d="M1327-149.8c22.4,255.7-168.4,269.1-154.7,525.5c6.4,120.3,197.5,117.1,195.2,237.6"/>
			</g>
			<g class="st60">
				<path class="st2" d="M1328.9-153.2c22.5,256.9-168.1,270.3-154.5,527.9c6.4,122.2,197.3,119.2,194.8,241.5"/>
			</g>
			<g class="st15">
				<path class="st2" d="M1330.9-156.6c22.6,258.2-167.8,271.4-154.3,530.3c6.5,124.1,197.1,121.2,194.4,245.5"/>
			</g>
			<g class="st61">
				<path class="st2" d="M1332.8-160c22.7,259.4-167.4,272.6-154.1,532.6c6.5,126,196.9,123.3,194,249.4"/>
			</g>
			<g class="st62">
				<path class="st2" d="M1334.8-163.4c22.8,260.6-167.1,273.7-153.9,535c6.5,127.9,196.8,125.4,193.7,253.4"/>
			</g>
			<g class="st63">
				<path class="st2" d="M1336.7-166.8C1359.6,95,1169.9,108.1,1183,370.6c6.5,129.8,196.6,127.4,193.3,257.3"/>
			</g>
			<g class="st35">
				<path class="st2" d="M1338.7-170.2c23,263.1-166.5,276-153.5,539.8c6.5,131.7,196.4,129.5,192.9,261.2"/>
			</g>
			<g>
				<path class="st2" d="M1343.6,617.4c-17.2,47.5-205.3-20.7-222.5,26.8c-22.3,61.4,163.5,121.4,145.6,184.3
					c-22.5,79.2-236.5,56.6-232,138.9c7.4,137.2,213.6,102.1,254.5,233.3c25.3,81.1-141.9,127.6-119.7,209.6
					c26.3,97.3,207.6,62.4,219.3,162.6"/>
			</g>
			<g class="st3">
				<path class="st2" d="M1346.8,616.1c-15.5,49.4-205-11.8-221.3,37.3C1104.8,716,1290.9,771.3,1274,835
					c-21.3,80.5-234.5,60.5-229.5,143.6c8.2,136.6,215.5,101.6,254.5,232.8c24.7,83-145.9,128-124.9,211.9
					c24,96,206.9,63.5,217.4,161.9"/>
			</g>
			<g class="st4">
				<path class="st2" d="M1349.8,614.8c-13.7,51.2-204.4-3.1-219.8,47.6c-19.2,63.6,167.1,114.4,151.2,179
					c-20,81.7-232.4,64.4-226.9,148.4c9,136,217.3,101.2,254.5,232.4c24.1,84.9-149.7,128.3-129.9,214.3
					c21.8,94.6,206.3,64.6,215.6,161.2"/>
			</g>
			<g class="st5">
				<path class="st2" d="M1352.5,613.8c-12,53-203.6,5.2-218,57.7c-17.7,64.7,168.7,111.1,153.9,176.5
					c-18.8,83-230.4,68.2-224.3,153.1c9.7,135.4,219,100.9,254.4,231.9c23.5,86.9-153.5,128.5-134.9,216.7
					c19.6,93.1,205.6,65.8,213.6,160.6"/>
			</g>
			<g class="st6">
				<path class="st2" d="M1355.1,612.9c-10.2,54.9-202.5,13.3-215.9,67.5c-16.2,65.7,170.2,107.9,156.3,174.1
					c-17.6,84.2-228.3,71.9-221.6,157.7c10.5,134.8,220.7,100.5,254.4,231.4c22.9,89-157.1,128.7-139.9,219
					c17.5,91.6,204.8,67,211.7,160"/>
			</g>
			<g class="st55">
				<path class="st2" d="M1357.4,612.1c-8.5,56.7-201.1,21.1-213.5,77.1c-14.7,66.7,171.5,104.7,158.7,171.8
					c-16.3,85.5-226.2,75.6-218.9,162.3c11.2,134.1,222.4,100.1,254.3,230.9c22.3,91.2-160.7,128.8-144.8,221.4
					c15.4,90.1,204,68.2,209.7,159.4"/>
			</g>
			<g class="st56">
				<path class="st2" d="M1359.7,611.5c-6.7,58.6-199.6,28.6-210.9,86.5c-13.3,67.6,172.8,101.7,161,169.6
					c-15.1,86.7-224,79.2-216.1,166.9c12,133.5,224,99.8,254.2,230.4c21.7,93.5-164.1,128.9-149.7,223.8
					c13.5,88.6,203.2,69.5,207.6,158.9"/>
			</g>
			<g class="st57">
				<path class="st2" d="M1361.8,611.2c-5,60.4-197.8,35.9-208.2,95.6c-11.8,68.5,174,98.7,163.1,167.4
					c-13.9,88-221.8,82.8-213.4,171.5c12.7,132.9,225.5,99.5,254.1,229.9c21,95.8-167.4,128.9-154.5,226.2
					c11.6,87,202.3,70.8,205.5,158.5"/>
			</g>
			<g class="st32">
				<path class="st2" d="M1363.8,610.9c-3.2,62.3-196,42.9-205.2,104.5c-10.4,69.4,175,95.9,165.2,165.4
					c-12.6,89.3-219.6,86.3-210.6,176c13.4,132.2,227,99.2,254,229.4c20.4,98.2-170.6,128.9-159.2,228.6
					c9.7,85.4,201.3,72.2,203.3,158.1"/>
			</g>
			<g class="st58">
				<path class="st2" d="M1365.6,610.8c-1.5,64.1-194,49.6-202.1,113.2c-9,70.3,176,93.1,167.2,163.4
					c-11.4,90.6-217.4,89.8-207.7,180.5c14.1,131.6,228.5,99,253.8,228.9c19.7,100.7-173.7,128.9-163.9,231.1
					c8,83.7,200.3,73.7,201.1,157.8"/>
			</g>
			<g class="st59">
				<path class="st2" d="M1367.5,610.9c0.3,66-191.8,56.1-198.9,121.7c-7.6,71.1,176.9,90.5,169.1,161.6
					c-10.1,91.9-215.2,93.1-204.8,185c14.8,131,229.9,98.7,253.7,228.3c18.9,103.2-176.6,128.9-168.6,233.6
					c6.3,82.1,199.3,75.2,198.9,157.5"/>
			</g>
			<g class="st60">
				<path class="st2" d="M1369.2,611.2c2,67.8-189.6,62.3-195.5,129.9c-6.3,71.9,177.8,87.9,170.9,159.8
					c-8.9,93.2-212.9,96.5-201.9,189.4c15.4,130.3,231.2,98.4,253.5,227.8c18.2,105.8-179.5,128.9-173.2,236
					c4.7,80.4,198.2,76.7,196.6,157.3"/>
			</g>
			<g class="st15">
				<path class="st2" d="M1370.9,611.5c3.8,69.6-187.3,68.3-192.1,137.9c-4.9,72.8,178.5,85.5,172.7,158.2
					c-7.6,94.5-210.7,99.7-199,193.8c16.1,129.7,232.5,98.2,253.3,227.2c17.4,108.4-182.2,128.8-177.7,238.6
					c3.2,78.8,197,78.3,194.2,157.1"/>
			</g>
			<g class="st61">
				<path class="st2" d="M1372.5,612c5.5,71.5-185,74.1-188.5,145.8c-3.6,73.5,179.2,83.2,174.4,156.6
					c-6.4,95.8-208.4,103-196.1,198.2c16.7,129,233.8,98,253,226.7c16.6,111.1-184.8,128.8-182.2,241.1c1.7,77.1,195.8,80,191.7,157
					"/>
			</g>
			<g class="st62">
				<path class="st2" d="M1374.1,612.7c7.3,73.3-182.6,79.7-184.9,153.4c-2.3,74.3,179.9,80.9,176,155.2
					c-5.1,97.1-206.1,106.1-193.1,202.5c17.4,128.4,235,97.8,252.8,226.1c15.8,113.8-187.2,128.8-186.7,243.7
					c0.4,75.4,194.5,81.7,189.2,156.9"/>
			</g>
			<g class="st63">
				<path class="st2" d="M1375.7,613.4c9,75.2-180.1,85.1-181.2,160.9c-1.1,75.1,180.5,78.8,177.6,153.8
					c-3.8,98.4-203.8,109.3-190.1,206.8c18,127.7,236.1,97.6,252.5,225.5c14.9,116.5-189.6,128.8-191.1,246.3
					c-0.9,73.7,193.1,83.5,186.6,156.9"/>
			</g>
			<g class="st35">
				<path class="st2" d="M1377.2,614.3c10.8,77-177.6,90.4-177.5,168.1c0.2,75.8,181.1,76.7,179.1,152.5
					c-2.6,99.7-201.5,112.3-187.1,211c18.6,127.1,237.3,97.4,252.3,224.9c14,119.3-191.8,128.8-195.5,248.9
					c-2.2,72,191.7,85.3,184,157"/>
			</g>
			<g>
				<path class="st2" d="M1398.8,796c-10.4,75.1-217.9,58.1-219.9,133.9c-2.6,99.7,196.3,88.5,210.8,187.2
					c18.6,127.1-159.3,149.8-144.2,277.3c14,118.8,206.8,110.9,203.2,230.5c-2.2,72.5-223.6,81.5-214.7,153.5
					c14.1,114.9,239.7,80.6,258.6,194.9c17.3,104.5-192.8,127.5-187.1,233.3"/>
			</g>
			<g>
				<path class="st2" d="M1400.1,800.8c-9.3,73.1-216.6,58.5-217.7,132.1c-1.5,99.9,197.3,87.1,212.2,185.9
					c19,125.3-159.3,149-143.8,274.8c14.5,117.2,208.6,109.1,204.7,227.2c-2.6,77.3-226.4,84.3-217.9,161.2
					c12.8,116.2,239.8,83.7,258.4,199.2c16.8,104.2-193.6,126.2-188.5,231.6"/>
			</g>
			<g>
				<path class="st2" d="M1401.4,805.5c-8.1,71.1-215.2,59-215.5,130.5c-0.4,100.1,198.2,85.6,213.7,184.5
					c19.4,123.5-159.4,148.3-143.3,272.2c15,115.6,210.5,107.3,206.2,223.8c-3,82.1-229.1,87.2-221.1,169
					c11.5,117.6,239.9,86.7,258.1,203.4c16.3,104-194.3,124.8-189.9,229.9"/>
			</g>
			<g>
				<path class="st2" d="M1402.8,810.2c-6.9,69.1-213.8,59.6-213.3,129c0.8,100.3,199,84.1,215.1,183.1
					c19.7,121.7-159.4,147.6-142.8,269.7c15.4,113.9,212.3,105.5,207.7,220.4c-3.5,86.9-231.7,90.1-224.3,176.8
					c10.2,118.9,239.9,89.6,257.8,207.6c15.7,103.7-195.1,123.4-191.3,228.2"/>
			</g>
			<g>
				<path class="st2" d="M1404.1,814.8c-5.7,67.1-212.3,60.3-211,127.6c1.9,100.4,199.9,82.6,216.5,181.7
					c20.1,119.9-159.4,146.9-142.3,267.3c15.9,112.3,214,103.6,209.2,216.9c-3.9,91.7-234.2,93.1-227.4,184.7
					c9,120.1,239.9,92.5,257.4,211.7c15.2,103.5-195.8,122-192.7,226.6"/>
			</g>
			<g>
				<path class="st2" d="M1405.4,819.3c-4.5,65-210.8,61.1-208.8,126.3c3.1,100.6,200.7,81,217.9,180.2
					c20.4,118.1-159.4,146.2-141.9,264.8c16.3,110.7,215.8,101.7,210.6,213.5c-4.4,96.5-236.7,96.2-230.5,192.6
					c7.8,121.4,240,95.3,257.1,215.7c14.7,103.2-196.5,120.6-194.1,224.9"/>
			</g>
			<g>
				<path class="st2" d="M1406.6,823.6c-3.3,63-209.2,62.1-206.4,125.1c4.4,100.8,201.5,79.4,219.2,178.7
					c20.8,116.3-159.3,145.6-141.3,262.3c16.8,109.1,217.5,99.8,212.1,210c-4.9,101.4-239.2,99.4-233.6,200.7
					c6.7,122.7,240,98,256.7,219.7c14.2,103-197.3,119.3-195.5,223.2"/>
			</g>
			<g>
				<path class="st2" d="M1407.9,827.9c-2.2,61-207.5,63.2-204.1,124.1c5.6,100.9,202.3,77.8,220.6,177.2
					c21.1,114.5-159.3,145-140.8,259.9c17.3,107.5,219.2,97.8,213.6,206.5c-5.5,106.2-241.5,102.6-236.7,208.8
					c5.6,123.9,240,100.7,256.3,223.7c13.6,102.7-198,117.9-196.9,221.5"/>
			</g>
			<g>
				<path class="st2" d="M1409.1,832.1c-1,59-205.7,64.4-201.7,123.3c6.9,101,203,76.1,221.9,175.6
					c21.4,112.7-159.3,144.4-140.3,257.6c17.7,105.9,220.9,95.8,215,203c-6,111-243.9,105.8-239.8,216.9
					c4.5,125.1,240,103.3,255.9,227.5c13.1,102.5-198.7,116.5-198.2,219.8"/>
			</g>
			<g>
				<path class="st2" d="M1410.3,836.1c0.2,57-203.9,65.7-199.3,122.6c8.3,101.2,203.7,74.4,223.2,174
					c21.7,110.9-159.2,143.9-139.8,255.2c18.2,104.3,222.5,93.7,216.5,199.4c-6.6,115.8-246.1,109.1-242.9,225.1
					c3.5,126.3,240,105.9,255.5,231.4c12.7,102.2-199.4,115.1-199.6,218.2"/>
			</g>
			<g>
				<path class="st2" d="M1411.5,839.9c1.4,55-202,67.3-196.7,122c9.6,101.3,204.4,72.7,224.5,172.4
					c22,109.1-159.1,143.3-139.2,252.9c18.7,102.7,224.1,91.6,217.9,195.8c-7.2,120.7-248.4,112.5-246,233.4
					c2.5,127.6,240,108.5,255.1,235.2c12.2,102-200.1,113.7-200.9,216.5"/>
			</g>
			<g>
				<path class="st2" d="M1412.6,843.7c2.6,53-199.9,68.9-194.2,121.7c11,101.3,205,70.9,225.7,170.7
					c22.3,107.3-159,142.8-138.6,250.6c19.1,101.1,225.7,89.5,219.4,192.2c-7.8,125.5-250.6,115.9-249.1,241.7
					c1.6,128.8,240,111,254.7,238.9c11.7,101.8-200.8,112.4-202.3,214.8"/>
			</g>
			<g>
				<path class="st2" d="M1413.6,847.2c3.7,51-197.7,70.8-191.5,121.5c12.5,101.4,205.6,69.1,227,169.1
					c22.6,105.6-158.9,142.4-138.1,248.3c19.6,99.5,227.3,87.4,220.8,188.5c-8.4,130.4-252.8,119.4-252.1,250
					c0.6,130,240,113.4,254.2,242.6c11.2,101.5-201.5,111-203.6,213.1"/>
			</g>
			<g>
				<path class="st2" d="M1414.5,850.5c4.9,49-195.4,72.8-188.7,121.6c13.9,101.5,206.1,67.3,228.1,167.3
					c22.8,103.8-158.8,141.9-137.5,246c20.1,97.9,228.8,85.2,222.2,184.9c-9,135.2-254.9,122.9-255.2,258.4
					c-0.3,131.2,240,115.9,253.8,246.3c10.7,101.3-202.2,109.6-205,211.4"/>
			</g>
			<g>
				<path class="st2" d="M1415.4,853.7c6.1,47-192.9,75.1-185.8,121.9c15.5,101.5,206.6,65.4,229.3,165.5
					c23.1,102-158.7,141.5-136.8,243.8c20.6,96.3,230.4,83,223.6,181.2c-9.7,140-257,126.5-258.2,266.8
					c-1.1,132.4,239.9,118.3,253.3,249.9c10.3,101-202.9,108.2-206.3,209.7"/>
			</g>
			<g>
				<path class="st2" d="M1416.1,856.6c7.3,45-190.3,77.5-182.7,122.5c17,101.5,207.1,63.5,230.4,163.7s-158.5,141.1-136.2,241.6
					c21,94.7,231.9,80.7,225,177.5c-10.3,144.9-259.1,130-261.3,275.2c-2,133.5,239.9,120.6,252.9,253.6
					c9.8,100.8-203.5,106.8-207.6,208"/>
			</g>
			<g>
				<path class="st2" d="M1416.7,859.3c8.5,42.9-187.4,80.2-179.5,123.3c18.6,101.5,207.5,61.6,231.5,161.9
					c23.6,98.5-158.3,140.8-135.6,239.4c21.5,93.1,233.4,78.4,226.4,173.7c-11,149.7-261.2,133.7-264.3,283.7
					c-2.8,134.8,239.9,123,252.4,257.2c9.4,100.6-204.2,105.4-209,206.3"/>
			</g>
			<g>
				<path class="st2" d="M1423,875c8.2,41.1-187.6,78.7-180,120c17.7,95.9,206.5,55.4,229.6,150.1
					c23.5,96.2-158.3,139.4-135.6,235.7c22.8,96.7,235.5,80.5,229,179.6c-9.7,149.1-259.8,133.8-263.3,283.1
					c-3.1,133.7,238.9,123.3,250.2,256.6c8.6,101.3-205.1,104.4-210.7,205.9"/>
			</g>
			<g>
				<path class="st2" d="M1429.4,890.7c8,39.3-187.8,77.3-180.4,116.8c16.8,90.3,205.5,49.2,227.7,138.3
					c23.4,94-158.3,138-135.7,232.1c24.1,100.3,237.5,82.6,231.7,185.6c-8.4,148.4-258.5,133.8-262.3,282.4
					c-3.4,132.7,237.9,123.8,247.9,256.2c7.7,102-206,103.3-212.5,205.4"/>
			</g>
			<g>
				<path class="st2" d="M1435.7,906.4c7.7,37.5-187.9,75.9-180.8,113.5c15.9,84.7,204.5,42.9,225.8,126.4
					c23.3,91.7-158.2,136.6-135.7,228.5c25.5,103.8,239.5,84.7,234.4,191.5c-7.1,147.7-257.1,133.9-261.3,281.7
					c-3.7,131.8,236.9,124.2,245.7,255.7c6.9,102.7-206.9,102.2-214.3,204.9"/>
			</g>
			<g>
				<path class="st2" d="M1442,922.1c7.4,35.7-188.1,74.6-181.3,110.4c15,79,203.5,36.6,223.8,114.5
					c23.3,89.5-158.1,135.3-135.7,224.9c26.8,107.4,241.5,86.9,237.1,197.5c-5.9,147.1-255.8,133.9-260.3,281.1
					c-4,130.8,235.8,124.6,243.4,255.2c6,103.5-207.8,101.2-216,204.5"/>
			</g>
			<g>
				<path class="st2" d="M1448.3,937.7c7.2,33.8-188.2,73.3-181.7,107.3c14.1,73.4,202.5,30.2,221.8,102.4
					c23.3,87.2-157.9,133.9-135.7,221.4c28.2,111,243.4,89.1,239.7,203.5c-4.7,146.4-254.4,133.9-259.3,280.3
					c-4.3,129.8,234.7,125,241.2,254.7c5.2,104.2-208.6,100.1-217.7,204.1"/>
			</g>
			<g>
				<path class="st2" d="M1454.6,953.3c6.9,32-188.3,72.2-182.1,104.3c13.2,67.8,201.5,23.6,219.8,90.3
					c23.3,84.9-157.7,132.7-135.7,217.9c29.6,114.5,245.3,91.3,242.4,209.6c-3.6,145.7-253.1,133.9-258.3,279.6
					c-4.6,128.8,233.6,125.5,238.9,254.3c4.3,104.9-209.5,99.1-219.5,203.6"/>
			</g>
			<g>
				<path class="st2" d="M1460.9,968.9c6.6,30.2-188.5,71-182.5,101.3c12.3,62.2,200.6,17,217.8,78
					c23.3,82.7-157.5,131.5-135.6,214.5c31.1,118.1,247.1,93.6,245,215.7c-2.5,145-251.7,133.9-257.2,278.8
					c-4.9,127.8,232.5,125.9,236.6,253.8c3.4,105.6-210.3,98.1-221.2,203.2"/>
			</g>
			<g>
				<path class="st2" d="M1467.2,984.4c6.4,28.4-188.6,70-182.8,98.5c11.4,56.6,199.6,10.2,215.7,65.7
					c23.4,80.4-157.2,130.3-135.5,211.2c32.6,121.6,248.9,95.8,247.7,221.7c-1.4,144.3-250.3,133.9-256.2,278.1
					c-5.2,126.9,231.3,126.4,234.3,253.3c2.5,106.4-211.1,97.1-222.9,202.8"/>
			</g>
			<g>
				<path class="st2" d="M1473.5,999.8c6.1,26.5-188.6,69.1-183.1,95.8c10.5,51,198.6,3.3,213.5,53.1
					c23.5,78.1-156.8,129.2-135.4,207.9c34.1,125.2,250.6,98.1,250.3,227.8c-0.4,143.6-248.9,133.8-255.1,277.3
					c-5.5,125.9,230.2,126.9,232,252.9c1.6,107.1-211.9,96-224.6,202.4"/>
			</g>
			<g>
				<path class="st2" d="M1479.7,1015.2c5.9,24.7-188.7,68.4-183.4,93.3c9.6,45.4,197.5-3.8,211.3,40.4
					c23.6,75.8-156.4,128.2-135.3,204.8c35.6,128.7,252.3,100.4,252.9,233.9c0.6,142.9-247.5,133.7-254.1,276.5
					c-5.7,125,229,127.3,229.7,252.4c0.7,107.8-212.7,95-226.2,202"/>
			</g>
			<g>
				<path class="st2" d="M1486,1030.5c5.6,22.9-188.7,67.9-183.6,90.9c8.7,39.8,196.5-11.2,209.1,27.5
					c23.9,73.4-155.9,127.4-135.1,201.7c37.1,132.2,254,102.8,255.5,240.1c1.6,142.2-246.1,133.6-253,275.6
					c-6,124.1,227.7,127.8,227.4,252c-0.3,108.5-213.5,94-227.9,201.6"/>
			</g>
			<g>
				<path class="st2" d="M1492.1,1045.6c5.3,21.1-188.6,67.7-183.8,88.9c7.8,34.1,195.4-19,206.7,14.2
					c24.1,71.1-155.3,126.6-134.8,198.8c38.7,135.8,255.6,105.1,258.2,246.3c2.5,141.5-244.7,133.5-251.9,274.8
					c-6.3,123.1,226.5,128.3,225.1,251.5c-1.3,109.2-214.3,93.1-229.5,201.2"/>
			</g>
			<g>
				<path class="st2" d="M1498.3,1060.7c5.1,19.2-188.4,67.8-183.8,87.2c6.8,28.5,194.3-27.2,204.2,0.5
					c24.5,68.7-154.7,126-134.4,196.1c40.2,139.3,257.2,107.5,260.8,252.5c3.4,140.7-243.3,133.4-250.9,273.9
					c-6.6,122.2,225.2,128.8,222.8,251.1c-2.2,110-215,92.1-231.2,200.9"/>
			</g>
			<g>
				<path class="st2" d="M1504.4,1075.5c4.8,17.4-188.1,68.6-183.7,86.1c5.8,22.9,193.1-36,201.4-13.9
					c25,66.2-153.9,125.7-134,193.6c41.8,142.8,258.8,109.9,263.4,258.7c4.3,140-241.8,133.2-249.8,273.1
					c-6.9,121.3,223.9,129.2,220.4,250.7c-3.2,110.7-215.8,91.1-232.8,200.5"/>
			</g>
			<g>
				<path class="st2" d="M1510.4,1090.1c4.5,15.6-187.6,70.1-183.3,85.8c4.8,17.4,191.6-45.7,198.3-29
					c25.6,63.7-152.9,125.6-133.3,191.4c43.4,146.3,260.3,112.4,266,264.9c5.2,139.3-240.4,133.1-248.7,272.2
					c-7.2,120.4,222.6,129.7,218.1,250.3c-4.2,111.4-216.5,90.1-234.4,200.1"/>
			</g>
			<g>
				<path class="st2" d="M1516.2,1104.3c4.3,13.8-186.7,73.2-182.4,87c3.7,11.8,189.8-57.1,194.7-45.7
					c26.3,61.1-151.7,125.8-132.5,189.5c45.1,149.8,261.8,114.9,268.6,271.2c6,138.5-239,132.9-247.6,271.2
					c-7.4,119.5,221.3,130.2,215.7,249.9c-5.2,112.1-217.3,89.2-236,199.8"/>
			</g>
			<g>
				<path class="st2" d="M1521.5,1109.4c4.4,13.3-185.6,75.9-181.2,89.2c3.8,11.4,190.4-57.6,195-46.4
					c6.8,16.5-175.6,95.8-168.2,112c20.1,43.8,213-28.4,226.6,17.8c43.8,148.1-128.6,178.7-121.1,333
					c6.8,138.4,172.1,145.6,152.1,282.7c-2.4,16.8-197.9,8.8-196.8,25.7c6.4,102,218.6,101.6,212.6,203.5
					c-6.7,112.9-217.5,88.8-236.5,200.3"/>
			</g>
			<g>
				<path class="st2" d="M1526.7,1114.4c4.5,12.9-184.4,78.8-179.8,91.7c3.9,11.1,189.4-61,194-50.3
					c6.9,16.1-174.7,96.9-167.4,112.8c20.1,43.6,212.2-29.3,226.1,16.7c44.2,146-127.4,177.4-119.1,329.7
					c7.5,138.3,173,144.9,153.4,282c-2.4,16.6-198.2,8.5-197.2,25.2c5.9,101.5,218.1,101.9,211.8,203.3
					c-7.1,113.8-217.7,89.2-237.1,201.6"/>
			</g>
			<g>
				<path class="st2" d="M1531.9,1119.3c4.6,12.5-183,81.7-178.4,94.2c4,10.7,188.3-64.6,193-54.2c7,15.6-173.7,98.1-166.5,113.7
					c20.2,43.4,211.3-30.3,225.5,15.5c44.7,143.8-126.2,176.2-117.1,326.5c8.3,138.2,173.8,144.1,154.6,281.2
					c-2.3,16.5-198.5,8.2-197.6,24.8c5.4,101,217.6,102.2,211,203.1c-7.5,114.7-218,89.7-237.6,203"/>
			</g>
			<g>
				<path class="st2" d="M1536.9,1124.1c4.7,12.1-181.5,84.9-176.8,97c4,10.3,187-68.3,191.8-58.2c7.1,15.2-172.7,99.4-165.6,114.6
					c20.2,43.2,210.5-31.2,225,14.3c45.1,141.6-124.9,175-115.2,323.3c9.1,138.1,174.6,143.3,155.8,280.4
					c-2.2,16.4-198.8,7.8-198,24.3c5,100.6,217.1,102.5,210.3,202.9c-7.9,115.6-218.2,90.2-238.1,204.4"/>
			</g>
			<g>
				<path class="st2" d="M1541.9,1128.9c4.8,11.6-179.9,88.3-175.1,100c4.1,10,185.7-72.2,190.4-62.5
					c7.2,14.8-171.6,100.7-164.6,115.6c20.3,43,209.6-32.2,224.4,13c45.6,139.4-123.6,173.7-113.1,320.1
					c9.9,137.9,175.5,142.5,157,279.6c-2.2,16.2-199.1,7.5-198.4,23.9c4.5,100.1,216.6,102.8,209.5,202.8
					c-8.3,116.6-218.5,90.7-238.7,205.8"/>
			</g>
			<g>
				<path class="st2" d="M1546.8,1133.5c4.9,11.2-178.1,91.8-173.2,103c4.2,9.6,184.2-76.1,189-66.7
					c7.3,14.3-170.4,102.1-163.5,116.7c20.4,42.8,208.7-33.2,223.8,11.8c46.1,137.3-122.3,172.5-111.1,316.9
					c10.7,137.8,176.3,141.7,158.2,278.8c-2.1,16.1-199.4,7.2-198.8,23.4c4,99.7,216.1,103.1,208.7,202.6
					c-8.7,117.5-218.7,91.2-239.2,207.2"/>
			</g>
			<g>
				<path class="st2" d="M1551.7,1138c5,10.8-176.1,95.6-171,106.4c4.3,9.3,182.5-80.3,187.3-71.3c7.5,13.9-169.2,103.6-162.3,117.8
					c20.4,42.6,207.8-34.1,223.2,10.5c46.5,135.1-121,171.3-109.1,313.7c11.5,137.7,177.1,140.9,159.4,278
					c-2.1,15.9-199.7,6.9-199.2,22.9c3.6,99.2,215.6,103.5,208,202.4c-9.1,118.4-219,91.7-239.8,208.6"/>
			</g>
			<g>
				<path class="st2" d="M1556.4,1142.5c5.2,10.3-173.8,99.5-168.7,109.9c4.4,8.9,180.6-84.6,185.4-76
					c7.6,13.4-167.8,105.1-161.1,119c20.5,42.4,206.9-35.1,222.6,9.3c47,133-119.6,170.1-107,310.6
					c12.4,137.6,177.9,140.1,160.6,277.2c-2,15.8-200.1,6.5-199.6,22.4c3.1,98.7,215.1,103.8,207.2,202.2
					c-9.5,119.3-219.2,92.2-240.3,209.9"/>
			</g>
			<g>
				<path class="st2" d="M1561,1146.9c5.3,9.9-171.4,103.6-166.2,113.5c4.5,8.5,178.5-89.1,183.4-80.8
					c7.7,13-166.4,106.7-159.8,120.2c20.6,42.2,206-36.1,222,8c47.4,130.8-118.2,168.9-104.9,307.4
					c13.2,137.4,178.7,139.3,161.8,276.3c-1.9,15.7-200.4,6.2-200,22c2.6,98.3,214.5,104.1,206.4,202.1
					c-10,120.2-219.4,92.7-240.8,211.3"/>
			</g>
			<g>
				<path class="st2" d="M1565.4,1151.1c5.4,9.5-168.7,108-163.3,117.5c4.6,8.1,176.2-93.8,181.1-85.9
					c7.8,12.5-164.9,108.3-158.4,121.6c20.6,42,205-37.2,221.3,6.7c47.8,128.7-116.8,167.8-102.8,304.4
					c14.1,137.3,179.5,138.4,163,275.4c-1.9,15.6-200.7,5.8-200.3,21.5c2.1,97.8,214,104.4,205.6,201.9
					c-10.4,121.1-219.7,93.2-241.4,212.7"/>
			</g>
			<g>
				<path class="st2" d="M1569.7,1155.3c5.5,9.1-165.7,112.5-160.2,121.6c4.7,7.8,173.6-98.6,178.6-91c7.9,12.1-163.3,110-156.8,123
					c20.7,41.8,204-38.2,220.7,5.3c48.3,126.6-115.4,166.6-100.7,301.3c14.9,137.1,180.3,137.6,164.2,274.6
					c-1.8,15.4-201,5.5-200.7,21c1.7,97.3,213.5,104.8,204.9,201.7c-10.8,122-219.9,93.7-241.9,214.1"/>
			</g>
			<g>
				<path class="st2" d="M1573.9,1159.3c5.6,8.6-162.4,117.2-156.8,125.9c4.8,7.4,170.8-103.6,175.8-96.3
					c8,11.6-161.5,111.8-155.2,124.5c20.7,41.6,203.1-39.3,220,4c48.7,124.5-113.9,165.5-98.6,298.2
					c15.8,137,181.1,136.7,165.3,273.7c-1.8,15.3-201.3,5.1-201.1,20.5c1.2,96.9,212.9,105.1,204.1,201.6
					c-11.3,122.9-220.2,94.2-242.4,215.6"/>
			</g>
			<g>
				<path class="st2" d="M1577.8,1163.2c5.7,8.2-158.6,122.2-152.9,130.4c4.9,7,167.6-108.8,172.7-101.9
					c8.2,11.2-159.7,113.7-153.4,126c20.8,41.4,202-40.4,219.3,2.6c49.2,122.4-112.4,164.3-96.4,295.2
					c16.7,136.8,181.9,135.9,166.5,272.9c-1.7,15.2-201.6,4.8-201.4,20c0.7,96.4,212.4,105.5,203.3,201.5
					c-11.7,123.7-220.4,94.7-243,216.9"/>
			</g>
			<g>
				<path class="st2" d="M1581.6,1167.1c5.8,7.8-154.5,127.4-148.7,135.2c5,6.7,164.2-114.1,169.3-107.5
					c8.3,10.7-157.7,115.6-151.6,127.6c20.9,41.2,201-41.5,218.6,1.2c49.6,120.3-110.9,163.2-94.2,292.2
					c17.6,136.7,182.7,135,167.7,272c-1.6,15-201.9,4.4-201.8,19.5c0.2,95.9,211.8,105.8,202.5,201.3
					c-12.1,124.6-220.7,95.2-243.5,218.4"/>
			</g>
			<g>
				<path class="st2" d="M1585.2,1170.8c5.9,7.4-150,132.7-144.1,140c5.1,6.3,160.3-119.6,165.5-113.4
					c8.4,10.3-155.6,117.5-149.5,129.3c21,40.9,199.9-42.6,217.9-0.2c50,118.2-109.3,162.1-92.1,289.3
					c18.6,136.5,183.5,134.1,168.8,271.1c-1.6,14.9-202.1,4-202.2,19c-0.2,95.5,211.2,106.2,201.7,201.2
					c-12.6,125.5-220.9,95.7-244,219.8"/>
			</g>
			<g>
				<path class="st2" d="M1588.4,1174.5c19.7,22.6-139.1,127.8-125.9,154.8c75.7,155,296.8,85.7,325.8,255.7
					c25.7,150.4-220.7,162-230,314.3c-5.8,94.8,210.5,111.9,200.7,206.4c-13,126.4-221.2,96.2-244.6,221.2"/>
			</g>
			<g class="st33">
				<path class="st2" d="M1386.8,1561.7c10.2,43.5-182.1,79.1-176.1,123.4c22,161.4,207.8,133.7,233.5,294.5
					c20,125.4-164.6,157.1-141.4,281.9c11,59.1,204.1,30.8,210.5,90.5"/>
			</g>
			<g class="st13">
				<path class="st2" d="M1389.5,1572.6c11.4,47.8-180.1,83.9-173.4,132.6c21.8,157.8,207.2,130.2,232,287.5
					c18.9,120.3-166.1,151.6-144,271.4c10.7,58.2,204,30.2,210.2,89.1"/>
			</g>
			<g class="st60">
				<path class="st2" d="M1392.1,1583.5c12.7,52.1-178.2,88.7-170.8,141.7c21.6,154.2,206.7,126.6,230.5,280.5
					c17.8,115.2-167.6,146.2-146.6,260.9c10.5,57.3,203.9,29.6,210,87.5"/>
			</g>
			<g class="st64">
				<path class="st2" d="M1394.7,1594.5c14,56.3-176.3,93.4-168.1,150.8c21.4,150.6,206.1,123.2,229,273.6
					c16.7,110.1-169.1,140.7-149.3,250.3c10.2,56.5,203.8,29,209.7,86.1"/>
			</g>
			<g class="st15">
				<path class="st2" d="M1397.4,1605.5c15.2,60.6-174.4,98-165.5,159.8c21.2,147.1,205.6,119.7,227.5,266.7
					c15.7,105-170.6,135.2-151.9,239.7c9.9,55.6,203.7,28.4,209.5,84.6"/>
			</g>
			<g class="st65">
				<path class="st2" d="M1400,1616.6c16.5,64.9-172.5,102.6-162.9,168.8c21,143.5,205.1,116.3,226,259.8
					c14.6,99.9-172.1,129.6-154.6,229c9.6,54.8,203.6,27.9,209.2,83.2"/>
			</g>
			<g class="st61">
				<path class="st2" d="M1402.7,1627.7c17.8,69.1-170.7,107.2-160.3,177.7c20.7,139.9,204.5,112.9,224.5,252.9
					c13.5,94.8-173.6,124-157.2,218.3c9.3,53.9,203.5,27.4,209,81.8"/>
			</g>
			<g class="st17">
				<path class="st2" d="M1405.4,1638.9c19,73.4-168.9,111.7-157.7,186.6c20.4,136.4,204,109.5,223,246.1
					c12.5,89.7-175.1,118.4-159.9,207.6c9,53.1,203.4,26.9,208.8,80.4"/>
			</g>
			<g class="st34">
				<path class="st2" d="M1408.1,1650.1c20.3,77.6-167.1,116.2-155.1,195.5c20.1,132.8,203.5,106.1,221.5,239.3
					c11.4,84.5-176.6,112.7-162.6,196.8c8.7,52.2,203.3,26.4,208.5,79.1"/>
			</g>
			<g class="st63">
				<path class="st2" d="M1410.8,1661.3c21.5,81.9-165.3,120.7-152.5,204.4c19.8,129.3,203.1,102.8,220,232.5
					c10.4,79.4-178.2,106.9-165.3,186c8.4,51.4,203.2,26,208.3,77.8"/>
			</g>
			<g class="st19">
				<path class="st2" d="M1413.5,1672.4c22.8,86.2-163.6,125.2-149.9,213.2c19.5,125.7,202.6,99.5,218.6,225.8
					c9.4,74.3-179.8,101.1-167.9,175.1c8.1,50.5,203.2,25.6,208.1,76.5"/>
			</g>
			<g class="st66">
				<path class="st2" d="M1416.2,1683.7c24.1,90.4-161.8,129.6-147.3,222.1c19.2,122.2,202.2,96.3,217.1,219
					c8.4,69.2-181.4,95.2-170.6,164.1c7.7,49.7,203.1,25.2,207.8,75.2"/>
			</g>
			<g class="st20">
				<path class="st2" d="M1418.8,1694.9c25.3,94.7-160.1,134.1-144.7,230.9c18.8,118.6,201.8,93.1,215.6,212.4
					c7.4,64-183,89.2-173.3,153c7.4,48.8,203,24.9,207.6,74"/>
			</g>
			<g class="st67">
				<path class="st2" d="M1421.5,1706.1c26.6,98.9-158.4,138.5-142.1,239.7c18.5,115.1,201.4,89.9,214.1,205.8
					c6.5,58.9-184.6,83.2-176,141.8c7,48,203,24.6,207.4,72.9"/>
			</g>
			<g class="st68">
				<path class="st2" d="M1424.3,1717.4c27.9,103.2-156.7,143-139.6,248.5c18.1,111.5,201,86.9,212.6,199.3
					c5.5,53.8-186.3,77-178.7,130.5c6.6,47.1,202.9,24.4,207.2,71.8"/>
			</g>
			<g class="st22">
				<path class="st2" d="M1427,1728.7c29.1,107.5-155,147.4-137,257.3c17.7,108,200.7,83.8,211.2,192.8c4.7,48.6-188,70.6-181.5,119
					c6.2,46.3,202.9,24.3,207,70.8"/>
			</g>
			<g class="st36">
				<path class="st2" d="M1429.7,1739.9c30.4,111.7-153.4,151.8-134.4,266c17.3,104.5,200.5,80.9,209.7,186.4
					c3.8,43.5-189.7,64.1-184.2,107.4c5.8,45.4,202.8,24.3,206.8,69.9"/>
			</g>
		</g>
	</g>
</g>
</svg>
