<svg id="Waveform" xmlns="http://www.w3.org/2000/svg" viewBox="0 0 1080.2 1344.23"><defs><style>.cls-1,.cls-17{opacity:0.6;}.cls-2,.cls-3{fill:none;stroke:#5c0099;stroke-miterlimit:10.59;}.cls-2{stroke-width:0.53px;}.cls-3{stroke-width:0.37px;}.cls-4{opacity:0.97;}.cls-10,.cls-11,.cls-12,.cls-13,.cls-14,.cls-15,.cls-16,.cls-17,.cls-18,.cls-19,.cls-20,.cls-21,.cls-22,.cls-23,.cls-24,.cls-25,.cls-26,.cls-27,.cls-28,.cls-29,.cls-30,.cls-31,.cls-32,.cls-33,.cls-34,.cls-35,.cls-36,.cls-37,.cls-38,.cls-39,.cls-4,.cls-40,.cls-41,.cls-42,.cls-43,.cls-44,.cls-45,.cls-46,.cls-47,.cls-48,.cls-49,.cls-5,.cls-50,.cls-51,.cls-52,.cls-53,.cls-54,.cls-55,.cls-56,.cls-57,.cls-58,.cls-59,.cls-6,.cls-60,.cls-61,.cls-62,.cls-63,.cls-64,.cls-65,.cls-66,.cls-67,.cls-68,.cls-69,.cls-7,.cls-8,.cls-9{isolation:isolate;}.cls-5{opacity:0.94;}.cls-6{opacity:0.91;}.cls-7{opacity:0.88;}.cls-8{opacity:0.86;}.cls-9{opacity:0.83;}.cls-10{opacity:0.8;}.cls-11{opacity:0.77;}.cls-12{opacity:0.74;}.cls-13{opacity:0.71;}.cls-14{opacity:0.68;}.cls-15{opacity:0.65;}.cls-16{opacity:0.63;}.cls-18{opacity:0.57;}.cls-19{opacity:0.54;}.cls-20{opacity:0.51;}.cls-21{opacity:0.48;}.cls-22{opacity:0.45;}.cls-23{opacity:0.42;}.cls-24{opacity:0.39;}.cls-25{opacity:0.37;}.cls-26{opacity:0.34;}.cls-27{opacity:0.31;}.cls-28{opacity:0.28;}.cls-29{opacity:0.25;}.cls-30{opacity:0.95;}.cls-31{opacity:0.9;}.cls-32{opacity:0.85;}.cls-33{opacity:0.75;}.cls-34{opacity:0.7;}.cls-35{opacity:0.55;}.cls-36{opacity:0.5;}.cls-37{opacity:0.4;}.cls-38{opacity:0.35;}.cls-39{opacity:0.3;}.cls-40{opacity:0.2;}.cls-41{opacity:0.19;}.cls-42{opacity:0.18;}.cls-43{opacity:0.17;}.cls-44{opacity:0.16;}.cls-45{opacity:0.15;}.cls-46{opacity:0.14;}.cls-47{opacity:0.13;}.cls-48{opacity:0.12;}.cls-49{opacity:0.11;}.cls-50{opacity:0.1;}.cls-51{opacity:0.09;}.cls-52{opacity:0.08;}.cls-53{opacity:0.07;}.cls-54{opacity:0.06;}.cls-55{opacity:0.05;}.cls-56{opacity:0.84;}.cls-57{opacity:0.81;}.cls-58{opacity:0.78;}.cls-59{opacity:0.72;}.cls-60{opacity:0.69;}.cls-61{opacity:0.66;}.cls-62{opacity:0.59;}.cls-63{opacity:0.56;}.cls-64{opacity:0.53;}.cls-65{opacity:0.64;}.cls-66{opacity:0.61;}.cls-67{opacity:0.49;}.cls-68{opacity:0.46;}.cls-69{opacity:0.44;}</style></defs><g class="cls-1"><g id="Waveform2"><path class="cls-2" d="M23.05,1168.49C-13.1,974,59.33,959.28,38.73,761.65,32.65,703.43-37.22,703.54-30,645.48c6.21-50,75.91-25.88,92.4-72.45,18.36-51.92-46.16-97.49-16.31-141.32" transform="translate(128.6 90.09)"/><path class="cls-2" d="M29.26,1168.54C-7.29,972.46,65.72,957.37,44.09,758.16,38,701.53-32.71,702.11-26,645.59c5.94-50.49,76.67-27.52,92.48-74.89,16.89-50.65-49-94.85-21-138" transform="translate(128.6 90.09)"/><path class="cls-2" d="M35.47,1168.6c-37-197.73,36.59-213.13,14-413.88-6.25-55-77.65-54-71.57-109,5.63-51,77.43-29.16,92.53-77.43,15.41-49.32-51.83-92.09-25.65-134.59" transform="translate(128.6 90.09)"/><path class="cls-2" d="M41.68,1168.6C4.28,969.28,78.45,953.45,54.77,751.23c-6.25-53.41-78.5-51.87-73-105.43,5.32-51.6,78.23-30.86,92.57-80,14-48-54.68-89.18-30.33-131" transform="translate(128.6 90.09)"/><path class="cls-2" d="M47.89,1168.65c-37.8-200.91,37-217.1,12.24-420.81C53.83,696-19.22,698.09-14.21,646s79.08-32.6,92.61-82.51c12.65-46.73-57.54-86.11-35-127.29" transform="translate(128.6 90.09)"/><path class="cls-2" d="M54.1,1168.7C15.9,966.21,91.27,949.59,65.45,744.4c-6.3-50.28-80.2-47.69-75.73-98.23,4.65-52.66,79.93-34.4,92.62-85.16,11.34-45.41-60.41-82.93-39.72-123.47" transform="translate(128.6 90.09)"/><path class="cls-2" d="M60.31,1168.7C21.66,964.62,97.66,947.63,70.81,740.91c-6.34-48.7-81.09-45.52-77.11-94.58,4.28-53.19,80.77-36.26,92.61-87.81C96.37,514.44,23,478.92,41.86,439.07" transform="translate(128.6 90.09)"/><path class="cls-2" d="M66.52,1168.76c-39-205.67,37.57-223.09,9.61-431.29-6.35-47.16-82-43.4-78.5-91C1.56,592.77,79.3,608.38,90.2,556c8.89-42.81-66.08-76.05-49.1-115.27" transform="translate(128.6 90.09)"/><path class="cls-2" d="M72.73,1168.81C33.28,961.55,110.53,943.72,81.44,734,75.1,688.4-1.48,692.74,1.56,646.7c3.53-54.25,82.61-40.07,92.53-93.2,7.77-41.55-68.94-72.41-53.75-110.94" transform="translate(128.6 90.09)"/><path class="cls-2" d="M78.94,1168.81C39,960,117,941.71,86.8,730.59c-6.3-44-83.81-39.12-81.27-83.68C8.66,592.08,89,604.83,98,550.9c6.66-40.27-71.7-68.48-58.35-106.38" transform="translate(128.6 90.09)"/><path class="cls-2" d="M85.15,1168.86c-40.3-210.43,38.29-229.11,7-441.72-6.25-42.55-84.75-36.94-82.65-80,2.72-55.36,84.44-44.14,92.35-98.76,5.63-39.06-74.48-64.36-63-101.61" transform="translate(128.6 90.09)"/><path class="cls-2" d="M91.36,1168.86c-40.7-212.07,38.51-231.12,6.08-445.21-6.21-41-85.74-34.77-84-76.37,2.28-55.89,85.42-46.26,92.21-101.62,4.7-37.94-77.16-60.07-67.46-96.64" transform="translate(128.6 90.09)"/><path class="cls-2" d="M91.36,1168.86c-40.7-212.07,38.51-231.12,6.08-445.21-6.21-41-85.74-34.77-84-76.37,2.28-55.89,85.42-46.26,92.21-101.62,4.7-37.94-77.16-60.07-67.46-96.64" transform="translate(128.6 90.09)"/><path class="cls-2" d="M97.93,1168.86c-40.7-212.07,39-231.39,6.08-445.31-6.3-41-86.64-34.25-85.21-75.85,1.93-55.89,87.22-48.16,92.44-103.78,3.49-37.26-81-54.09-74-90.67" transform="translate(128.6 90.09)"/><path class="cls-2" d="M104.54,1168.86c-40.7-212.07,39.45-231.65,6-445.47-6.39-40.91-87.57-33.77-86.36-75.32,1.61-55.89,89-50.17,92.57-106,2.37-36.84-84.53-47.9-80.24-84.47" transform="translate(128.6 90.09)"/><path class="cls-3" d="M25.6,721.64c1.29,26.25-87.89,32.5-86.59,58.75" transform="translate(128.6 90.09)"/><path class="cls-3" d="M26.09,722.43c1.83,28.16-87.3,36.21-85.47,64.36" transform="translate(128.6 90.09)"/><path class="cls-3" d="M26.53,723.33c2.33,30.12-86.67,39.7-84.35,69.81" transform="translate(128.6 90.09)"/><path class="cls-3" d="M27,724.34c2.82,32.07-86,43-83.28,75" transform="translate(128.6 90.09)"/><path class="cls-3" d="M27.43,725.4c3.3,34-85.47,46.1-82.17,80.13" transform="translate(128.6 90.09)"/><path class="cls-3" d="M27.92,726.51c3.8,35.94-84.85,49.11-81.05,85" transform="translate(128.6 90.09)"/><path class="cls-3" d="M28.37,727.73c4.28,37.89-84.27,52-80,89.86" transform="translate(128.6 90.09)"/><path class="cls-3" d="M28.86,728.94C33.64,768.8-54.78,783.72-50,823.58" transform="translate(128.6 90.09)"/><path class="cls-3" d="M29.3,730.27c5.32,41.76-83,57.53-77.78,99.29" transform="translate(128.6 90.09)"/><path class="cls-3" d="M29.8,731.59c5.8,43.72-82.48,60.12-76.67,103.84" transform="translate(128.6 90.09)"/><path class="cls-3" d="M30.24,732.91c6.3,45.68-81.89,62.72-75.59,108.4" transform="translate(128.6 90.09)"/><path class="cls-3" d="M30.73,734.29c6.79,47.63-81.31,65.26-74.52,112.89" transform="translate(128.6 90.09)"/><path class="cls-3" d="M31.18,735.67C38.46,785.2-49.55,803.41-42.27,853" transform="translate(128.6 90.09)"/><path class="cls-3" d="M31.67,737.09c7.78,51.5-80.15,70.18-72.38,121.68" transform="translate(128.6 90.09)"/><path class="cls-3" d="M32.16,738.52c8.27,53.46-79.61,72.56-71.3,126" transform="translate(128.6 90.09)"/><path class="cls-3" d="M32.65,740c8.81,55.41-79,74.94-70.23,130.3" transform="translate(128.6 90.09)"/><path class="cls-3" d="M33.1,741.49c9.29,57.32-78.45,77.27-69.21,134.59" transform="translate(128.6 90.09)"/><path class="cls-3" d="M33.59,743c9.79,59.28-77.92,79.6-68.13,138.88" transform="translate(128.6 90.09)"/><path class="cls-3" d="M34.08,744.45C44.36,805.69-43.3,826.33-33,887.56" transform="translate(128.6 90.09)"/><path class="cls-3" d="M34.58,745.93c10.76,63.2-76.81,84.16-66,147.3" transform="translate(128.6 90.09)"/><path class="cls-3" d="M35.07,747.47c11.26,65.1-76.27,86.37-65,151.47" transform="translate(128.6 90.09)"/><path class="cls-3" d="M35.56,749c11.75,67.06-75.73,88.6-63.94,155.66" transform="translate(128.6 90.09)"/><path class="cls-3" d="M36.05,750.54c12.29,69-75.15,90.82-62.91,159.83" transform="translate(128.6 90.09)"/><path class="cls-3" d="M36.54,752.07c12.78,70.92-74.61,93-61.83,164" transform="translate(128.6 90.09)"/><path class="cls-3" d="M37,753.61C50.3,826.49-37,848.82-23.77,921.7" transform="translate(128.6 90.09)"/><path class="cls-3" d="M37.52,755.2C51.29,830-36,852.58-22.25,927.36" transform="translate(128.6 90.09)"/><path class="cls-3" d="M38,756.73c14.25,76.8-73,99.5-58.76,176.3" transform="translate(128.6 90.09)"/><path class="cls-3" d="M27.2,765.57c10.37,54.35-76.8,77.64-66.43,132" transform="translate(128.6 90.09)"/><g class="cls-4"><path class="cls-3" d="M28.72,771.13c10.1,53-77.07,76.31-66.92,129.35" transform="translate(128.6 90.09)"/></g><g class="cls-5"><path class="cls-3" d="M30.24,776.68c9.88,51.71-77.29,75-67.46,126.71" transform="translate(128.6 90.09)"/></g><g class="cls-6"><path class="cls-3" d="M31.76,782.24c9.61,50.39-77.56,73.67-67.95,124.06" transform="translate(128.6 90.09)"/></g><g class="cls-7"><path class="cls-3" d="M33.24,787.8c9.33,49.06-77.83,72.35-68.5,121.41" transform="translate(128.6 90.09)"/></g><g class="cls-8"><path class="cls-3" d="M34.75,793.35c9.12,47.74-78.09,71-69,118.82" transform="translate(128.6 90.09)"/></g><g class="cls-9"><path class="cls-3" d="M36.27,798.91C45.12,845.38-42,868.67-33.2,915.08" transform="translate(128.6 90.09)"/></g><g class="cls-10"><path class="cls-3" d="M37.79,804.47c8.58,45.14-78.59,68.38-70,113.52" transform="translate(128.6 90.09)"/></g><g class="cls-11"><path class="cls-3" d="M39.31,810c8.31,43.82-78.86,67.05-70.5,110.88" transform="translate(128.6 90.09)"/></g><g class="cls-12"><path class="cls-3" d="M40.83,815.58c8.09,42.5-79.12,65.74-71,108.24" transform="translate(128.6 90.09)"/></g><g class="cls-13"><path class="cls-3" d="M42.35,821.14C50.17,862.32-37,885.55-29.18,926.73" transform="translate(128.6 90.09)"/></g><g class="cls-14"><path class="cls-3" d="M43.82,826.75c7.55,39.85-79.61,63.09-72.06,102.94" transform="translate(128.6 90.09)"/></g><g class="cls-15"><path class="cls-3" d="M45.34,832.31c7.33,38.53-79.88,61.76-72.55,100.29" transform="translate(128.6 90.09)"/></g><g class="cls-16"><path class="cls-3" d="M46.86,837.87c7.06,37.25-80.15,60.44-73.09,97.64" transform="translate(128.6 90.09)"/></g><g class="cls-17"><path class="cls-3" d="M48.38,843.42c6.79,35.94-80.37,59.07-73.58,95" transform="translate(128.6 90.09)"/></g><g class="cls-18"><path class="cls-3" d="M49.9,849c6.57,34.61-80.64,57.74-74.12,92.35" transform="translate(128.6 90.09)"/></g><g class="cls-19"><path class="cls-3" d="M51.42,854.54c6.3,33.29-80.91,56.42-74.61,89.71" transform="translate(128.6 90.09)"/></g><g class="cls-20"><path class="cls-3" d="M52.94,860.09c6,32-81.18,55.1-75.15,87.07" transform="translate(128.6 90.09)"/></g><g class="cls-21"><path class="cls-3" d="M54.41,865.7c5.77,30.7-81.45,53.72-75.64,84.42" transform="translate(128.6 90.09)"/></g><g class="cls-22"><path class="cls-3" d="M55.93,871.26c5.54,29.38-81.67,52.4-76.17,81.77" transform="translate(128.6 90.09)"/></g><g class="cls-23"><path class="cls-3" d="M57.45,876.82c5.27,28-81.94,51.07-76.67,79.12" transform="translate(128.6 90.09)"/></g><g class="cls-24"><path class="cls-3" d="M59,882.38c5,26.72-82.21,49.69-77.2,76.42" transform="translate(128.6 90.09)"/></g><g class="cls-25"><path class="cls-3" d="M60.49,888c4.78,25.4-82.48,48.37-77.7,73.77" transform="translate(128.6 90.09)"/></g><g class="cls-26"><path class="cls-3" d="M62,893.54c4.51,24.08-82.75,47-78.23,71.08" transform="translate(128.6 90.09)"/></g><g class="cls-27"><path class="cls-3" d="M63.53,899.1c4.24,22.81-83,45.62-78.73,68.43" transform="translate(128.6 90.09)"/></g><g class="cls-28"><path class="cls-3" d="M65.05,904.71c4,21.49-83.24,44.3-79.26,65.79" transform="translate(128.6 90.09)"/></g><g class="cls-29"><path class="cls-3" d="M66.57,910.27c3.7,20.16-83.55,42.92-79.8,63.08" transform="translate(128.6 90.09)"/></g><path class="cls-3" d="M-49.37,757.52c9.87-57.47,100.57-38.63,107.76-96.64,6.21-50-85.25-62.34-81.76-112.68" transform="translate(128.6 90.09)"/><path class="cls-3" d="M-49.91,755.94C-40.3,699.78,50,718.73,57.27,662.05c6.44-50.44-84.62-63.67-80.55-114.48" transform="translate(128.6 90.09)"/><path class="cls-3" d="M-50.45,754.35c9.3-54.83,99.32-35.83,106.56-91.14,6.66-51-84-65-79.39-116.22" transform="translate(128.6 90.09)"/><path class="cls-3" d="M-51,752.76c9-53.51,98.74-34.45,106-88.33,6.93-51.45-83.37-66.26-78.23-118" transform="translate(128.6 90.09)"/><path class="cls-3" d="M-51.47,751.17c8.71-52.18,98.11-33.08,105.39-85.58,7.19-52-82.7-67.53-77-119.77" transform="translate(128.6 90.09)"/><path class="cls-3" d="M-52,749.59c8.44-50.92,97.53-31.71,104.77-82.83C60.18,614.25-29.31,598-23.06,545.24" transform="translate(128.6 90.09)"/><path class="cls-3" d="M-52.55,748c8.13-49.59,96.95-30.28,104.19-80.08,7.69-53-81.4-70.07-74.65-123.26" transform="translate(128.6 90.09)"/><path class="cls-3" d="M-53.08,746.41c7.86-48.27,96.37-28.9,103.56-77.32,8-53.57-80.78-71.35-73.45-125" transform="translate(128.6 90.09)"/><path class="cls-3" d="M-53.62,744.88c7.55-47,95.79-27.53,103-74.58,8.27-54.09-80.1-72.56-72.24-126.7" transform="translate(128.6 90.09)"/><path class="cls-3" d="M-54.16,743.29c7.29-45.62,95.21-26.15,102.36-71.82,8.54-54.62-79.44-73.83-71-128.45" transform="translate(128.6 90.09)"/><path class="cls-3" d="M-54.69,741.75C-47.72,697.4,40,717,47.09,672.68c8.84-55.14-78.77-75-69.79-130.14" transform="translate(128.6 90.09)"/><path class="cls-3" d="M-55.23,740.16c6.7-43,94.09-23.39,101.15-66.31C55.08,618.17-32.17,597.58-22.66,542" transform="translate(128.6 90.09)"/><path class="cls-3" d="M-55.76,738.63c6.39-41.71,93.55-22,100.57-63.56,9.47-56.21-77.43-77.49-67.38-133.54" transform="translate(128.6 90.09)"/><path class="cls-3" d="M-56.3,737.09c6.12-40.38,93-20.64,99.95-60.81,9.78-56.79-76.76-78.64-66.13-135.22" transform="translate(128.6 90.09)"/><path class="cls-3" d="M-56.84,735.56C-51,696.5,35.65,716.3,42.53,677.45c10.14-57.32-76.09-79.87-64.92-136.92" transform="translate(128.6 90.09)"/><path class="cls-3" d="M-57.37,734.08c5.54-37.74,92-17.89,98.74-55.36,10.45-57.85-75.38-81-63.67-138.56" transform="translate(128.6 90.09)"/><path class="cls-3" d="M-57.91,732.6c5.23-36.47,91.46-16.57,98.16-52.66,10.81-58.38-74.7-82.25-62.42-140.2" transform="translate(128.6 90.09)"/><path class="cls-3" d="M-58.44,731.06c5-35.14,91-15.19,97.53-50,11.17-59-74-83.41-61.21-141.89" transform="translate(128.6 90.09)"/><path class="cls-3" d="M-59,729.58c4.65-33.82,90.47-13.87,96.95-47.26,11.57-59.49-73.32-84.58-60-143.54" transform="translate(128.6 90.09)"/><path class="cls-3" d="M-59.52,728.15c4.38-32.5,90-12.54,96.33-44.56,11.93-60-72.6-85.74-58.71-145.18" transform="translate(128.6 90.09)"/><path class="cls-3" d="M-60,726.67C-56,695.5,29.44,715.45,35.69,684.8,48,624.2-36.24,598-21.76,538" transform="translate(128.6 90.09)"/><path class="cls-3" d="M-60.59,725.24c3.8-29.85,89-9.9,95.12-39.22,12.73-61.13-71.22-88-56.2-148.45" transform="translate(128.6 90.09)"/><path class="cls-3" d="M-61.17,723.86c3.49-28.58,88.55-8.62,94.49-36.62,13.18-61.66-70.5-89.13-54.9-150" transform="translate(128.6 90.09)"/><path class="cls-3" d="M-61.71,722.49c3.18-27.26,88.11-7.36,93.92-34,13.58-62.24-69.79-90.34-53.71-151.69" transform="translate(128.6 90.09)"/><path class="cls-3" d="M-62.24,721.16c2.9-25.93,87.66-6.08,93.29-31.38C45,627-38.07,598.32-21.41,536.45" transform="translate(128.6 90.09)"/><path class="cls-3" d="M-62.82,719.84C-60.23,695.23,24.39,715,29.84,691c14.43-63.3-68.4-92.57-51.16-154.92" transform="translate(128.6 90.09)"/><path class="cls-3" d="M-63.36,718.57c2.32-23.29,86.81-3.7,92.08-26.3,14.88-63.83-67.64-93.73-49.9-156.5" transform="translate(128.6 90.09)"/><path class="cls-3" d="M-53.93,1175.69c0-126,91.59-127.07,89.35-253C34.13,849.3-57.42,853.58-61,780.28" transform="translate(128.6 90.09)"/><g class="cls-30"><path class="cls-3" d="M-52.73,1169.55c-.17-124,91.64-125.49,89-249.44C34.75,847.87-57,852.79-60.95,780.71" transform="translate(128.6 90.09)"/></g><g class="cls-31"><path class="cls-3" d="M-51.52,1163.41c-.36-122.05,91.64-123.85,88.6-245.89-1.74-71.08-93.65-65.47-98-136.39" transform="translate(128.6 90.09)"/></g><g class="cls-32"><path class="cls-3" d="M-50.31,1157.22c-.54-120.14,91.63-122.26,88.24-242.35-2-69.91-94-63.61-98.88-133.32" transform="translate(128.6 90.09)"/></g><g class="cls-10"><path class="cls-3" d="M-49.06,1151.13c-.72-118.18,91.68-120.67,87.88-238.8-2.19-68.8-94.4-61.76-99.68-130.3" transform="translate(128.6 90.09)"/></g><g class="cls-33"><path class="cls-3" d="M-47.86,1145c-.89-116.27,91.68-119.08,87.53-235.25C37.26,842.1-55.09,849.88-60.81,782.56" transform="translate(128.6 90.09)"/></g><g class="cls-34"><path class="cls-3" d="M-46.65,1138.85C-47.72,1024.53,45,1021.31,40.52,907.09,37.88,840.62-54.65,849.19-60.77,783" transform="translate(128.6 90.09)"/></g><g class="cls-15"><path class="cls-3" d="M-45.44,1132.71c-1.25-112.41,91.72-116,86.76-228.21-2.86-65.36-95.52-56-102-121" transform="translate(128.6 90.09)"/></g><g class="cls-17"><path class="cls-3" d="M-44.24,1126.57c-1.43-110.45,91.73-114.47,86.41-224.72C39.09,837.6-53.71,847.87-60.68,784" transform="translate(128.6 90.09)"/></g><g class="cls-35"><path class="cls-3" d="M-43,1120.44c-1.61-108.5,91.72-113,86.05-221.29-3.31-63.08-96.24-52-103.61-114.63" transform="translate(128.6 90.09)"/></g><g class="cls-36"><path class="cls-3" d="M-41.82,1114.35c-1.79-106.59,91.72-111.46,85.64-217.79-3.53-62-96.55-50-104.36-111.41" transform="translate(128.6 90.09)"/></g><g class="cls-22"><path class="cls-3" d="M-40.62,1108.21c-2-104.63,91.73-110,85.29-214.35C40.92,833-52.23,846-60.45,785.68" transform="translate(128.6 90.09)"/></g><g class="cls-37"><path class="cls-3" d="M-39.41,1102.07c-2.15-102.73,91.72-108.5,84.89-210.91-4-59.75-97.22-45.83-105.89-104.9" transform="translate(128.6 90.09)"/></g><g class="cls-38"><path class="cls-3" d="M-38.16,1096c-2.32-100.77,91.72-107.06,84.49-207.52-4.25-58.64-97.54-43.71-106.61-101.61" transform="translate(128.6 90.09)"/></g><g class="cls-39"><path class="cls-3" d="M-36.95,1089.9C-39.46,991,54.77,984.26,47.17,885.82c-4.46-57.59-97.84-41.55-107.36-98.23" transform="translate(128.6 90.09)"/></g><g class="cls-29"><path class="cls-3" d="M-35.75,1083.81C-38.43,986.9,56,979.6,48,883.12c-4.69-56.47-98.11-39.38-108-94.9" transform="translate(128.6 90.09)"/></g><g class="cls-40"><path class="cls-3" d="M-34.54,1077.72c-2.86-94.94,91.72-102.83,83.32-197.36C43.87,825-49.6,843.21-60,788.91" transform="translate(128.6 90.09)"/></g><g class="cls-40"><path class="cls-3" d="M49,884c2.86,94.95-86.41,98.76-83.55,193.71" transform="translate(128.6 90.09)"/></g><g class="cls-41"><path class="cls-3" d="M50.62,888.14c3.84,95.11-85.43,100.19-81.59,195.3" transform="translate(128.6 90.09)"/></g><g class="cls-42"><path class="cls-3" d="M52.22,892.27C57,987.54-32.17,993.84-27.39,1089.16" transform="translate(128.6 90.09)"/></g><g class="cls-43"><path class="cls-3" d="M53.83,896.4c5.72,95.48-83.41,102.94-77.65,198.42" transform="translate(128.6 90.09)"/></g><g class="cls-44"><path class="cls-3" d="M55.4,900.53c6.7,95.64-82.39,104.37-75.69,200" transform="translate(128.6 90.09)"/></g><g class="cls-45"><path class="cls-3" d="M57,904.66c7.64,95.79-81.31,105.74-73.67,201.54" transform="translate(128.6 90.09)"/></g><g class="cls-46"><path class="cls-3" d="M58.57,908.84c8.58,95.95-80.29,107.12-71.67,203.07" transform="translate(128.6 90.09)"/></g><g class="cls-47"><path class="cls-3" d="M60.13,913c9.56,96.11-79.21,108.49-69.65,204.61" transform="translate(128.6 90.09)"/></g><g class="cls-47"><path class="cls-3" d="M61.7,917.15C72.19,1013.42-16.4,1027-5.9,1123.24" transform="translate(128.6 90.09)"/></g><g class="cls-48"><path class="cls-3" d="M63.26,921.33c11.44,96.43-77,111.2-65.59,207.63" transform="translate(128.6 90.09)"/></g><g class="cls-49"><path class="cls-3" d="M64.82,925.51C77.24,1022.1-11.13,1038,1.29,1134.62" transform="translate(128.6 90.09)"/></g><g class="cls-50"><path class="cls-3" d="M66.34,929.64c13.36,96.75-74.83,113.84-61.48,210.59" transform="translate(128.6 90.09)"/></g><g class="cls-51"><path class="cls-3" d="M67.91,933.82C82.2,1030.73-5.81,1049,8.53,1145.89" transform="translate(128.6 90.09)"/></g><g class="cls-52"><path class="cls-3" d="M69.47,938c15.28,97.12-72.56,116.49-57.32,213.56" transform="translate(128.6 90.09)"/></g><g class="cls-53"><path class="cls-3" d="M71,942.18c16.22,97.28-71.44,117.76-55.22,215" transform="translate(128.6 90.09)"/></g><g class="cls-54"><path class="cls-3" d="M72.51,946.42c17.15,97.43-70.28,119.08-53.12,216.46" transform="translate(128.6 90.09)"/></g><g class="cls-55"><path class="cls-3" d="M74,950.6C92.17,1048.19,4.86,1071,23,1168.54" transform="translate(128.6 90.09)"/></g><path class="cls-3" d="M-53.57,930.43c-6.66-62.45,82-75.79,75.28-138.24" transform="translate(128.6 90.09)"/><path class="cls-3" d="M-53.75,926.52C-60.23,863.59,28.45,850.78,22,787.8" transform="translate(128.6 90.09)"/><path class="cls-3" d="M-54,922.6c-6.3-63.41,82.48-75.74,76.18-139.14" transform="translate(128.6 90.09)"/><path class="cls-3" d="M-54.16,918.68C-60.23,854.8,28.54,843,22.47,779.06" transform="translate(128.6 90.09)"/><path class="cls-3" d="M-54.33,914.77c-5.9-64.36,83-75.74,77.07-140.1" transform="translate(128.6 90.09)"/><path class="cls-3" d="M-54.56,910.85C-60.23,846,28.63,835.06,23,770.23" transform="translate(128.6 90.09)"/><path class="cls-3" d="M-54.74,906.93c-5.49-65.31,83.42-75.79,77.92-141.1" transform="translate(128.6 90.09)"/><path class="cls-3" d="M-54.91,903c-5.28-65.79,83.68-75.85,78.36-141.58" transform="translate(128.6 90.09)"/><path class="cls-3" d="M-55.09,899.15c-5.1-66.26,83.9-75.84,78.81-142.1" transform="translate(128.6 90.09)"/><path class="cls-3" d="M-55.32,895.24c-4.91-66.74,84.13-75.9,79.22-142.64" transform="translate(128.6 90.09)"/><path class="cls-3" d="M-55.5,891.32c-4.69-67.22,84.36-76,79.67-143.11" transform="translate(128.6 90.09)"/><path class="cls-3" d="M-55.67,887.46c-4.47-67.7,84.57-76,80.1-143.7" transform="translate(128.6 90.09)"/><path class="cls-3" d="M-55.85,883.54c-4.29-68.17,84.8-76,80.51-144.22" transform="translate(128.6 90.09)"/><path class="cls-3" d="M-56,879.68C-60.14,811,29,803.57,24.88,734.93" transform="translate(128.6 90.09)"/><path class="cls-3" d="M-56.21,875.76C-60.1,806.64,29,799.6,25.15,730.48" transform="translate(128.6 90.09)"/><path class="cls-3" d="M-56.39,871.9c-3.71-69.6,85.47-76.27,81.76-145.81" transform="translate(128.6 90.09)"/><path class="cls-3" d="M-56.57,868C-60.1,798,29.13,791.71,25.6,721.69" transform="translate(128.6 90.09)"/><path class="cls-3" d="M-69.93,1151.08c0-116.6,92.26-118.24,89.36-234.73C18.22,867.82-73.81,875-78,826.7" transform="translate(128.6 90.09)"/><g class="cls-4"><path class="cls-3" d="M-68.94,1152.61c0-117.17,92.35-118.81,89.35-235.94C19.12,867.24-73,874.6-77.3,825.37" transform="translate(128.6 90.09)"/></g><g class="cls-5"><path class="cls-3" d="M-67.92,1154.15c0-117.76,92.49-119.51,89.36-237.16-1.34-50.33-93.56-42.82-98-92.89" transform="translate(128.6 90.09)"/></g><g class="cls-6"><path class="cls-3" d="M-66.93,1155.68c0-118.34,92.57-120.08,89.31-238.37C21,866.07-71.31,873.75-76,822.78" transform="translate(128.6 90.09)"/></g><g class="cls-7"><path class="cls-3" d="M-65.95,1157.22c0-118.93,92.66-120.72,89.31-239.6-1.47-52.13-93.82-44.35-98.6-96.16" transform="translate(128.6 90.09)"/></g><g class="cls-56"><path class="cls-3" d="M-64.92,1158.75c0-119.5,92.75-121.36,89.31-240.81-1.52-53-94-45.09-98.92-97.8" transform="translate(128.6 90.09)"/></g><g class="cls-57"><path class="cls-3" d="M-63.94,1160.29c0-120.09,92.84-122,89.31-242-1.56-53.93-94.13-45.83-99.23-99.45" transform="translate(128.6 90.09)"/></g><g class="cls-58"><path class="cls-3" d="M-62.91,1161.88c0-120.67,92.93-122.63,89.31-243.25C24.75,863.8-67.92,872-73.14,817.54" transform="translate(128.6 90.09)"/></g><g class="cls-33"><path class="cls-3" d="M-61.93,1163.41c0-121.25,93-123.26,89.31-244.46-1.7-55.73-94.45-47.37-99.85-102.73" transform="translate(128.6 90.09)"/></g><g class="cls-59"><path class="cls-3" d="M-60.95,1165c0-121.84,93.16-123.9,89.32-245.68C26.58,862.63-66.22,871.1-71.8,814.84" transform="translate(128.6 90.09)"/></g><g class="cls-60"><path class="cls-3" d="M-59.92,1166.48c0-122.42,93.24-124.53,89.31-246.84-1.83-57.53-94.76-48.91-100.48-106.07" transform="translate(128.6 90.09)"/></g><g class="cls-61"><path class="cls-3" d="M-58.94,1168c0-123,93.34-125.17,89.32-248.07-1.93-58.43-94.9-49.69-100.8-107.7" transform="translate(128.6 90.09)"/></g><g class="cls-16"><path class="cls-3" d="M-57.91,1169.55c0-123.58,93.42-125.75,89.31-249.28-2-59.33-95-50.44-101.1-109.4" transform="translate(128.6 90.09)"/></g><g class="cls-62"><path class="cls-3" d="M-56.93,1171.08c0-124.21,93.52-126.38,89.32-250.49-2-60.23-95.21-51.23-101.38-111" transform="translate(128.6 90.09)"/></g><g class="cls-63"><path class="cls-3" d="M-55.94,1172.62c0-124.8,93.6-127,89.31-251.71-2.1-61.13-95.34-52-101.69-112.74" transform="translate(128.6 90.09)"/></g><g class="cls-64"><path class="cls-3" d="M-54.91,1174.15c0-125.38,93.69-127.65,89.31-252.87-2.15-62-95.48-52.82-102-114.38" transform="translate(128.6 90.09)"/></g><g class="cls-36"><path class="cls-3" d="M-53.93,1175.69c0-126,93.78-128.29,89.31-254.1C33.15,858.67-60.28,868-66.93,805.53" transform="translate(128.6 90.09)"/></g><path class="cls-3" d="M-73.23,845.59c-9.52-21.86,69.87-70.39,60.36-92.25-12.33-28.26-95,17.63-105.49-11.64-13-36.57,64.79-57.8,63.53-97.44-2.05-65.62-85.24-76.63-72.2-140.46,8.14-39.91,106.7-13.07,113.44-53.35,7.91-47.16-87.16-60.07-85.87-108.13" transform="translate(128.6 90.09)"/><g class="cls-4"><path class="cls-3" d="M-73.5,842c-8.8-22.81,72.42-67.9,63.31-90.5C-21.85,722.59-106,766.36-116,736.57c-12.55-37.21,66.17-57.38,65.14-97.44-1.65-65.36-84.66-75.79-72.47-139.57,7.78-40.69,105.49-16.4,111.61-57.53,6.92-46.46-87.84-57.47-87-104.68" transform="translate(128.6 90.09)"/></g><g class="cls-5"><path class="cls-3" d="M-73.59,838.34c-8.09-23.76,74.84-65.41,66-88.81-11-29.48-96.46,12.07-106.06-18.1-12.06-37.84,67.46-56.95,66.66-97.38-1.3-65.1-84.13-75-72.69-138.67,7.46-41.54,104.32-19.79,109.82-61.71,6-45.73-88.47-54.88-88.11-101.19" transform="translate(128.6 90.09)"/></g><g class="cls-6"><path class="cls-3" d="M-73.59,834.85C-81,810.13,3.48,771.87-5,747.63c-10.41-30.06-97.05,9.31-106.25-21.33C-122.78,687.82-42.4,669.83-43,629c-.93-64.84-83.59-74.15-72.91-137.77C-108.8,448.76-12.78,468.13-8,425.26c5.1-45-89-52.24-89.18-97.65" transform="translate(128.6 90.09)"/></g><g class="cls-7"><path class="cls-3" d="M-73.5,831.36c-6.7-25.67,79.12-60.6,71.08-85.69C-12.25,715-100,752.28-108.8,721.22c-11.08-39.11,70.1-56.05,69.75-97.33-.58-64.57-83-73.36-73.14-136.92,6.74-43.35,101.91-26.31,106.06-70.13,4.2-44.19-89.62-49.59-90.2-94.1" transform="translate(128.6 90.09)"/></g><g class="cls-56"><path class="cls-3" d="M-73.28,828c-6-26.62,81.05-58.27,73.41-84.26-9.2-31.17-98.07,4-106.47-27.57-10.59-39.8,71.35-55.63,71.17-97.33-.22-64.31-82.47-72.62-73.36-136,6.39-44.35,100.71-29.54,104.15-74.31C-1,365.08-94.59,361.59-95.62,318" transform="translate(128.6 90.09)"/></g><g class="cls-57"><path class="cls-3" d="M-73,824.63c-5.27-27.57,82.83-56,75.55-83C-6,709.94-96,743-103.93,711c-10-40.43,72.61-55.15,72.69-97.33.14-64-81.93-71.87-73.54-135.12,6-45.35,99.46-32.7,102.23-78.49,2.54-42.6-90.7-44.19-92.22-86.9" transform="translate(128.6 90.09)"/></g><g class="cls-58"><path class="cls-3" d="M-72.65,821.41C-77.21,792.88,11.88,767.47,5,739.64-2.95,707.4-93.87,738.31-101.42,706c-9.57-41.12,73.8-54.72,74.12-97.33.49-63.77-81.41-71.13-73.72-134.27C-95.39,428-2.78,438.54-.81,391.76.93,349.94-92,350.31-94,308.5" transform="translate(128.6 90.09)"/></g><g class="cls-33"><path class="cls-3" d="M-72.2,818.23C-76,788.8,13.89,766.36,7.41,737.57,0,704.86-91.77,733.71-98.92,700.89c-9.07-41.75,75-54.24,75.55-97.38.8-63.51-80.87-70.44-73.9-133.42C-92,422.56-.23,431.18,1,383.29c1-41-91.68-38.69-94.14-79.6" transform="translate(128.6 90.09)"/></g><g class="cls-59"><path class="cls-3" d="M-71.71,815.16c-3.18-30.38,87.52-50,81.44-79.71-6.79-33.18-99.45-6.4-106.15-39.58-8.58-42.5,76.18-53.88,77-97.49,1.16-63.25-80.33-69.76-74.08-132.53,4.83-48.64,95.84-42,96.2-90.92C3,334.75-89.45,339-92.35,299" transform="translate(128.6 90.09)"/></g><g class="cls-60"><path class="cls-3" d="M-71.18,812.14c-2.45-31.33,88.91-48.11,83.24-78.86-6.21-33.66-99.68-8.89-106-42.49-8-43.09,77.38-53.35,78.41-97.49,1.48-63-79.79-69.07-74.25-131.74,4.42-49.8,94.62-45,94.13-95.05-.4-39.32-92.53-33.08-95.88-72.19" transform="translate(128.6 90.09)"/></g><g class="cls-61"><path class="cls-3" d="M-70.6,809.23c-1.74-32.28,90.21-46.36,85-78.12C8.75,697-85.47,719.79-91.33,685.76c-7.55-43.77,78.5-52.93,79.75-97.6C-9.79,525.5-90.84,519.73-86,457.33c4-51,93.43-48,92.09-99.18-1-38.48-92.89-30.22-96.73-68.44" transform="translate(128.6 90.09)"/></g><g class="cls-16"><path class="cls-3" d="M-70,806.43c-1-33.24,91.41-44.72,86.59-77.49-5.05-34.56-99.95-13.7-105.45-48.16-7-44.46,79.62-52.5,81.14-97.7,2.14-62.4-78.72-67.8-74.52-130,3.53-52.23,92.26-51,89.93-103.25-1.65-37.63-93.19-27.37-97.53-64.68" transform="translate(128.6 90.09)"/></g><g class="cls-62"><path class="cls-3" d="M-69.35,803.68c-.31-34.19,92.58-43.14,88.2-77-4.51-35-100-16-105.13-50.91C-92.85,630.66-5.59,623.73-3.8,578-1.39,515.87-82,510.79-78.46,448.76c3.08-53.46,91.05-53.88,87.84-107.34C7.14,304.64-84.13,317-88.91,280.56" transform="translate(128.6 90.09)"/></g><g class="cls-63"><path class="cls-3" d="M-68.63,801c.4-35.15,93.64-41.71,89.71-76.53C17.11,689-79,706.08-83.69,670.83c-6-45.83,81.76-51.65,83.82-98,2.72-61.82-77.7-66.53-74.75-128.35,2.59-54.72,89.89-56.79,85.7-111.35C8.31,297.23-82.7,311.63-88,276.11" transform="translate(128.6 90.09)"/></g><g class="cls-64"><path class="cls-3" d="M-67.92,798.38c1.08-36.09,94.68-40.33,91.24-76.26S-76.81,701.53-81,665.8c-5.54-46.52,82.83-51.23,85.11-98.12,3-61.5-77.2-65.95-74.88-127.5,2.1-56,88.73-59.7,83.5-115.43-3.3-35.09-94-18.58-99.72-53.19" transform="translate(128.6 90.09)"/></g><g class="cls-36"><path class="cls-3" d="M-67.2,795.84c1.79-37.05,95.61-39.06,92.71-76C22.6,683.64-74.62,697-78.42,660.93c-5-47.2,83.87-50.8,86.46-98.28,3.35-61.23-76.72-65.36-75-126.7,1.61-57.32,87.57-62.56,81.31-119.45C10.58,282.25-79.8,300.93-86,267.22" transform="translate(128.6 90.09)"/></g><path class="cls-3" d="M-62.29,737.84c-7.55-35.25,76.36-54.09,72.52-90.14-5-47.21-94-44.4-91.37-91.88,3.35-61.23,101.78-55,103.52-116.38C24,382.39-67.87,387.31-74.13,330.68c-3.79-34.46,75.29-38,76.45-72.72C4.15,202.6-72.52,197.89-68.5,142.69c3.67-50.33,87.57-47.9,86-98.39" transform="translate(128.6 90.09)"/><path class="cls-3" d="M-62.15,734.24c-7-34.35,77.29-51.92,73.9-87-4.56-47.37-93.61-45.47-90.79-93,3.57-60.39,101.73-53.56,103.74-114.06,1.88-56.31-89.31-51.6-95.65-107.44-4.2-36.73,73.94-40.91,74.7-78C5,198.79-71.18,195.08-67.42,139.3-64,89.07,19.88,90.93,18,40.59" transform="translate(128.6 90.09)"/><path class="cls-3" d="M-62,730.59c-6.34-33.45,78.23-49.75,75.33-83.84-4.07-47.47-93.2-46.52-90.16-94.15,3.8-59.55,101.69-52.08,104-111.73C29.3,385.35-61.21,389.8-67.65,334.7c-4.55-39.06,72.6-43.77,73-83.2.54-56.52-75.1-59.27-71.53-115.64,3.17-50.07,87-48.85,84.89-99" transform="translate(128.6 90.09)"/><path class="cls-3" d="M-61.84,726.88c-5.76-32.55,79.21-47.47,76.71-80.61C11.3,598.64-77.92,598.64-74.66,551-70.6,492.26,27,500.46,29.57,441.61c2.41-54.78-87.43-50.6-94-104.9-5-41.33,71.27-46.62,71.22-88.33,0-57-75.19-58.91-71.84-115.85,3-49.91,86.76-49.28,84.35-99.29" transform="translate(128.6 90.09)"/><path class="cls-3" d="M-61.71,723.18c-5.13-31.65,80.16-45.15,78.1-77.28-3-47.79-92.44-48.74-88.91-96.48,4.29-57.9,101.6-49,104.5-107,2.69-54-86.49-50.07-93.06-103.63-5.36-43.61,70-49.38,69.47-93.47-.67-57.64-75.32-58.64-72.2-116.17,2.73-49.8,86.5-49.75,83.78-99.55" transform="translate(128.6 90.09)"/><path class="cls-3" d="M-61.57,719.36c-4.56-30.69,81.13-42.71,79.53-73.88-2.51-47.9-92-49.86-88.24-97.65,4.51-57.05,101.55-47.47,104.72-104.68,3-53.25-85.6-49.6-92.21-102.41-5.77-45.89,68.71-52.14,67.68-98.5C8.66,184.08-65.55,183.86-62.6,125.8c2.5-49.69,86.18-50.22,83.24-99.87" transform="translate(128.6 90.09)"/><path class="cls-3" d="M-61.39,715.5c-3.93-29.8,82.12-40.22,80.86-70.39-2-48.06-91.63-51-87.61-98.86,4.74-56.21,101.51-45.94,105-102.31,3.22-52.5-84.66-49.11-91.36-101.19C-60.68,294.53,13,287.92,11.43,239.22c-1.78-58.69-75.55-58.16-72.82-116.8,2.28-49.54,85.91-50.65,82.65-100.14" transform="translate(128.6 90.09)"/><path class="cls-3" d="M-61.21,711.58c-3.36-28.89,83.1-37.68,82.25-66.84-1.43-48.16-91.23-52.18-86.95-100.08,5-55.36,101.47-44.41,105.22-99.93,3.49-51.76-83.77-48.63-90.47-100C-57.82,294.27,15,287.28,13,236.21,10.63,177-62.64,178.25-60.19,119c2.06-49.38,85.61-51.13,82.08-100.4" transform="translate(128.6 90.09)"/><path class="cls-3" d="M-61.08,707.56c-2.73-28,84.08-35,83.59-63.19C21.66,596.05-68.27,591-63.76,543c5.14-54.57,101.37-42.82,105.44-97.49,3.75-51-82.83-48.16-89.62-98.76C-55,294,17,286.59,14.47,233.24,11.61,173.49-61.21,175.4-59,115.64-57.1,66.37,26.35,64,22.51,14.93" transform="translate(128.6 90.09)"/><path class="cls-3" d="M-60.86,703.49C-63,676.39,24.21,671.26,24,644.05c-.27-48.43-90.38-54.56-85.6-102.62,5.36-53.72,101.33-41.23,105.66-95.11,4-50.28-81.94-47.74-88.73-97.59C-52.1,293.63,19.07,286,16,230.28c-3.35-60.28-75.77-57.69-73.76-118,1.65-49.12,85-52,80.91-101" transform="translate(128.6 90.09)"/><path class="cls-3" d="M-60.68,699.31c-1.52-26.2,86-29.32,86.19-55.58C25.86,595.2-64.43,588-59.38,539.79-53.8,486.92,41.9,500.15,46.5,447.12c4.29-49.49-81-47.27-87.83-96.38-8-57.43,62.5-65.37,58.84-123.37-3.84-60.81-75.86-57.58-74.08-118.5,1.43-49,84.71-52.5,80.33-101.25" transform="translate(128.6 90.09)"/><path class="cls-3" d="M-60.45,695c-.94-25.3,86.94-26.3,87.48-51.6,1-48.64-89.54-57-84.18-105.27C-51.38,486.12,44,500.09,48.92,448,53.47,399.22-31.24,401.12-38,352.7-46.47,293,23.27,284.79,19,224.46c-4.34-61.34-75.91-57.48-74.39-119,1.25-48.9,84.44-53,79.79-101.56" transform="translate(128.6 90.09)"/><path class="cls-3" d="M-60.19,690.63c-.31-24.4,87.89-23.13,88.69-47.53C30.11,594.35-60.59,584.83-55,536.51-49,485.33,46.1,500.15,51.29,448.81c4.87-48-79.26-46.47-86-94.1-8.9-62,60.13-70.5,55.26-133.11-4.78-61.87-75.95-57.42-74.61-119.51C-53.08,53.3,30,48.64,25.06.21" transform="translate(128.6 90.09)"/><path class="cls-3" d="M-59.92,686.13c.27-23.5,88.78-19.85,89.85-43.3,2.23-48.79-88.64-59.59-82.74-108,6.12-50.39,101-34.78,106.46-85.27,5.14-47.26-78.36-46-85.2-93-9.29-64.2,59-72.93,53.57-137.82-5.23-62.4-76-57.42-74.92-120.09C-52.06,50,30.87,44.78,25.68-3.49" transform="translate(128.6 90.09)"/><path class="cls-3" d="M-59.56,681.52c.89-22.6,89.62-16.4,91-38.9,2.91-48.85-88.15-60.86-82-109.34,6.34-49.54,100.93-33.13,106.65-82.72,5.4-46.58-77.43-45.68-84.27-91.94C-38,292,29.57,283.1,23.54,215.88,17.87,153-52.55,158.51-51.7,95.27c.63-48.48,83.46-54.31,78-102.41" transform="translate(128.6 90.09)"/><path class="cls-3" d="M-59.16,676.76c1.52-21.65,90.43-12.76,92-34.4,3.62-49-87.71-62.19-81.23-110.72C-41.82,483,52.45,500.2,58.48,451.4c5.67-45.78-76.58-45.25-83.37-90.82C-35.21,291.67,31.72,282.57,25,213c-6.07-63.36-76.08-57.38-75.5-121.15C-50,43.5,32.65,37.1,26.89-10.85" transform="translate(128.6 90.09)"/><path class="cls-3" d="M-58.71,671.89c2.1-20.75,91.19-8.94,93-29.74,4.29-49-87.21-63.57-80.42-112.15,6.65-47.9,100.7-29.75,107-77.7,5.9-45-75.73-44.88-82.52-89.76C-32.44,291.36,33.82,282,26.53,210.27,20,146.34-49.6,152.85-49.29,88.49c.27-48.27,82.84-55.25,76.81-103" transform="translate(128.6 90.09)"/><path class="cls-3" d="M-56.48,663.9c2.06-19.9,91.1-7.83,92.89-27.79C40.56,589.8-50.94,574.93-44.37,529c6.7-46.78,100.61-28.1,107-75S-12.25,406.73-18.95,360c-10.19-71,56.16-80,48.75-151.42C23.18,145.17-46.78,152.21-47,88.33-47.1,39.69,35.38,31.81,29-16.14" transform="translate(128.6 90.09)"/><path class="cls-3" d="M-54.24,655.91c2-19,91.05-6.72,92.75-25.78,4-43.56-87.48-58.85-81-102,6.79-45.73,100.57-26.51,107-72.29,6.84-48.59-74.08-49.75-80.69-98.34C-25.83,286.75,40.61,278,33.06,206.94c-6.71-62.88-77-55.41-77.7-118.77-.53-48.95,81.9-57.74,75-106" transform="translate(128.6 90.09)"/><path class="cls-3" d="M-52,647.86c2-18.1,91-5.55,92.66-23.76,3.8-40.86-87.57-56.58-81.36-97,6.84-44.67,100.48-24.88,107-69.6,7.24-50.28-73.36-52.13-79.79-102.62-9-70.45,57.54-79,49.86-149.62C29.57,142.9-41.11,150.89-42.32,88c-.93-49.23,81.36-59,74.08-107.44" transform="translate(128.6 90.09)"/><path class="cls-3" d="M-49.78,639.87c1.92-17.25,90.92-4.39,92.53-21.7,3.62-38.16-87.66-54.3-81.67-92C-32,482.52,61.52,503,68,459.29c7.73-52.08-72.56-54.51-78.86-106.86-8.4-70.18,58.22-78.43,50.4-148.72-6.84-62-77.87-53.45-79.53-115.85C-41.29,38.32,40.92,27.68,33.24-21.06" transform="translate(128.6 90.09)"/><path class="cls-3" d="M-47.54,631.83c1.87-16.36,90.83-3.18,92.39-19.64,3.44-35.46-87.7-52.08-81.94-87.11,7-42.56,100.39-21.49,106.92-64.1C78.05,407.16-2,404-8.09,349.84c-7.87-69.92,58.88-78,51-147.88-7-61.39-78.32-52.39-80.51-114.26C-39.37,37.79,42.75,26.3,34.62-22.71" transform="translate(128.6 90.09)"/><path class="cls-3" d="M-45.26,623.73c1.83-15.51,90.74-2,92.26-17.47C50.26,573.5-40.75,556.35-35.26,524c7.06-41.44,100.35-19.74,106.87-61.34C80.33,407.1.53,403.4-5.41,347.35c-7.28-69.65,59.6-77.54,51.56-147C39.09,139.41-32.62,149-35.26,87.54-37.45,37.31,44.58,24.93,36.05-24.35" transform="translate(128.6 90.09)"/><path class="cls-3" d="M-43,615.63C-41.24,601,47.62,615,49.1,600.34c3.08-30.07-87.75-47.85-82.52-77.49,7.19-40.38,100.3-18,106.82-58.48C82.65,407.1,3,402.76-2.64,344.81c-6.84-69.33,60.22-77,52.05-146.18C42.26,138.19-29.81,148.3-32.93,87.38-35.57,36.84,46.42,23.55,37.48-25.93" transform="translate(128.6 90.09)"/><path class="cls-3" d="M-40.8,607.53c1.75-13.76,90.52.74,92-13.07,2.9-27.36-87.75-45.78-82.75-72.72,7.28-39.27,100.26-16.14,106.78-55.62C85,407.1,5.53,402.18.08,342.38-6.22,273.31,60.94,265.74,52.67,197,45.43,137-27,147.66-30.61,87.22c-3-50.86,78.86-65,69.47-114.74" transform="translate(128.6 90.09)"/><path class="cls-3" d="M-38.52,599.38c1.7-12.86,90.43,2.17,91.82-10.74,2.72-24.66-87.71-43.88-83-68.06C-22.25,482.36,70.54,506.29,77,467.86,87.3,407.1,8,401.6,2.81,339.94-3,271.08,64.33,263.68,55.93,195.3,48.6,135.81-24.18,147-28.24,87.06-31.73,35.88,50,20.91,40.29-29.11" transform="translate(128.6 90.09)"/><path class="cls-3" d="M-36.24,591.18c1.65-12,90.3,3.7,91.68-8.36,2.5-22-87.61-42-83.19-63.57,7.6-37.1,100.12-12.33,106.6-49.75C89.62,407,10.49,400.91,5.53,337.4c-5.31-68.48,62.2-75.74,53.66-143.75-7.41-59-80.55-47.31-85.06-106.75C-29.81,35.41,51.87,19.53,41.68-30.7" transform="translate(128.6 90.09)"/><path class="cls-3" d="M-34,582.92c1.61-11.11,90.12,5.35,91.46-5.82,2.32-19.26-87.44-40.38-83.37-59.17,7.77-36,100.08-10.32,106.46-46.68C91.94,407,13,400.33,8.31,334.91,3.44,266.8,71.12,259.6,62.45,192c-7.5-58.58-81-46.31-86-105.26C-27.93,35,53.7,18.21,43.11-32.28" transform="translate(128.6 90.09)"/><path class="cls-3" d="M-31.68,574.61c1.56-10.21,89.94,7.15,91.23-3.12,2.15-16.51-87.21-38.85-83.5-55,8-34.88,100-8.2,106.33-43.56,11.93-66.05-67-73.19-71.35-140.46-4.42-67.85,63.49-74.94,54.69-142.16-7.6-58.11-81.45-45.25-86.9-103.73C-26,34.51,55.53,16.88,44.49-33.87" transform="translate(128.6 90.09)"/><path class="cls-3" d="M-29.36,566.2c1.52-9.37,89.67,9.21,91-.21,1.92-13.82-86.85-37.58-83.59-51.08,8.26-33.76,99.85-6,106.15-40.33C96.68,406.89,17.87,399.16,13.8,330c-4-67.48,64.11-74.47,55.18-141.36-7.69-57.64-81.9-44.2-87.79-102.2C-24.09,34,57.32,15.56,45.92-35.46" transform="translate(128.6 90.09)"/><path class="cls-3" d="M-27,557.68c1.48-8.47,89.36,11.59,90.66,3.07,1.69-11.12-86.41-36.68-83.55-47.48,8.58-32.6,99.68-3.65,105.93-37,13-69.44-65.72-77.7-69.47-148.72C13,260.34,81.26,253.46,72.24,186.93,64.47,129.77-10.15,143.75-16.4,86.32-22.17,33.61,59.15,14.29,47.35-37" transform="translate(128.6 90.09)"/><path class="cls-3" d="M-24.67,549c1.43-7.62,88.91,14.45,90.25,6.82,1.48-8.46-85.73-36.25-83.41-44.4C-8.9,480,81.62,510.31,87.83,478c13.58-71.18-65.14-80-68.53-152.85-3.18-66.84,65.36-73.72,56.2-139.83C67.64,128.5-7.33,143.11-14,86.11-20.29,33.13,61,13,48.69-38.58" transform="translate(128.6 90.09)"/><path class="cls-3" d="M-22.25,540.11c1.38-6.73,88.23,18.15,89.57,11.43,1.17-5.77-84.75-36.68-83-42.24,9.34-30.16,99.14,1.64,105.26-29.69C103.78,406.73,25.1,397.42,22,322.69c-2.72-66.53,66-73.36,56.74-139-8-56.36-83.28-41.17-90.43-97.65C-18.41,32.66,62.77,11.64,50.12-40.12" transform="translate(128.6 90.09)"/><path class="cls-3" d="M-19.75,535.82c1.43-6.51,87.88,20.22,89.35,13.65,1.25-5.61-84.57-36.46-83-41.91,2.36-8.15,86.58,28.84,89.26,20.85C83.14,506.76.75,476.7,5,454c13.68-72.09,112.41-62.35,109.78-136.18C112.41,251.29,9.78,270-4.47,205.67c-1.75-7.83,87.61-23,87.43-31C81.85,126-1.35,135.33-8,87.22-15.37,33.5,66.21,11.64,53.39-40.54" transform="translate(128.6 90.09)"/><path class="cls-3" d="M-17.21,531.48c1.52-6.3,87.53,22.33,89.05,16,1.29-5.4-84-38.05-82.39-43.34,2.46-7.94,86.41,30.06,89,22.23,7.2-21.6-75.28-52.3-70.86-74.89,14-71,113-60.45,110.67-133.38-2-66.47-104.68-48.32-118.8-112.73-1.69-7.78,87.53-23,87.3-31C85.46,125.86,2.32,135.65-4.38,87.8c-7.6-54,74-76.16,61-128.76" transform="translate(128.6 90.09)"/><path class="cls-3" d="M-14.66,527.09C-13.1,521,72.42,551.64,74,545.5c1.34-5.24-83.41-39.8-81.76-44.88C-5.28,492.9,78.4,532,81,524.23,88.32,502.79,5.67,471.41,10.27,449c14.25-70.08,113.39-58.59,111.56-130.62C120.13,251.87,17.46,269.44,3.52,205c-1.65-7.67,87.48-23,87.22-30.9C89.22,125.86,6.12,136.07-.72,88.49-8.58,34,73,11.64,59.86-41.33" transform="translate(128.6 90.09)"/><path class="cls-3" d="M-12.07,522.59c1.65-5.93,86.59,26.88,88.2,21C77.51,538.47-6.66,502-5,497c2.59-7.51,86,32.61,88.55,25,7.32-21.33-75.42-53.35-70.73-75.74,14.61-69,113.89-56.58,112.46-127.71C124,252.19,21.26,269.18,7.55,204.77c-1.61-7.62,87.39-23,87.07-30.91-1.69-48-84.8-37.42-91.77-84.73-8-54.89,73.59-77.43,60.28-130.89" transform="translate(128.6 90.09)"/><path class="cls-3" d="M-9.48,518.09c1.7-5.72,86,29.32,87.71,23.6,1.47-4.92-82-43.45-80.29-48.21C.58,486.12,83.63,527.4,86.18,520c7.33-21.27-75.51-53.93-70.68-76.16,14.88-68,114.37-54.67,113.35-124.95-1-66.37-103.75-50-117.28-114.43C10,196.88,98.82,181.38,98.51,173.6c-1.88-47.74-85-36.73-92-83.84C-1.75,34.51,79.83,11.64,66.39-42.18" transform="translate(128.6 90.09)"/><path class="cls-3" d="M-6.8,513.54C-5,508,78.58,545.35,80.33,539.84c1.52-4.76-81.27-45.36-79.49-50,2.73-7.15,85.43,35.3,87.93,28,7.37-21.17-75.6-54.51-70.59-76.64C33.32,374.24,133,388.53,132.33,319.14c-.62-66.31-103.38-50.6-116.79-115-1.56-7.51,87.21-23.07,86.86-30.8-2.06-47.47-85.16-36.09-92.26-82.88C1.65,34.72,83.27,11.7,69.65-42.55" transform="translate(128.6 90.09)"/><path class="cls-3" d="M-4.07,508.93c1.83-5.34,84.62,34.51,86.45,29.16C84,533.54,2,490.73,3.79,486.23c2.77-6.94,85.07,36.67,87.57,29.58,7.42-21-75.64-55.09-70.55-77.06,15.42-66.05,115.27-50.75,115-119.29-.23-66.32-103.08-51.18-116.3-115.59-1.52-7.46,87.12-23.13,86.72-30.8-2.28-47.27-85.34-35.41-92.57-82C5,35,86.63,11.7,72.78-43" transform="translate(128.6 90.09)"/><path class="cls-3" d="M-1.3,504.28c1.88-5.14,83.77,37.25,85.65,32.12C86,532,4.91,486.86,6.74,482.58c2.86-6.73,84.71,38.1,87.17,31.17,7.46-21-75.73-55.73-70.46-77.59,15.68-65.05,115.72-48.74,115.85-116.38C139.44,253.51,36.59,268,23.54,203.6c-1.52-7.4,87-23.18,86.63-30.74-2.46-47.06-85.51-34.78-92.84-81.09C8.44,35.2,90.11,11.7,76.13-43.4" transform="translate(128.6 90.09)"/><path class="cls-3" d="M1.51,499.56c2-4.92,82.84,40.07,84.8,35.15C88,530.47,8,483,9.78,478.87c2.9-6.51,84.31,39.59,86.76,32.81,7.51-20.85-75.77-56.36-70.36-78.06,16-64,116.16-46.73,116.7-113.53.53-66.21-102.41-52.34-115.27-116.75-1.48-7.36,86.94-23.18,86.49-30.75C111.42,125.8,28.41,138.51,21,92.41,11.83,35.46,93.51,11.7,79.39-43.77" transform="translate(128.6 90.09)"/><path class="cls-3" d="M4.37,494.8c2-4.71,81.76,43,83.77,38.27,1.75-4.08-77.2-54-75.32-58,3-6.3,83.86,41.12,86.27,34.45,7.51-20.74-75.86-56.94-70.28-78.54,16.27-63.08,116.61-44.72,117.55-110.61.94-66.16-102-52.93-114.73-117.39-1.43-7.3,86.85-23.23,86.36-30.7C115.13,125.75,32.12,138.82,24.61,93,15.23,35.67,97,11.7,82.65-44.19" transform="translate(128.6 90.09)"/><path class="cls-3" d="M7.32,490c2.1-4.56,80.56,46.09,82.66,41.59,1.78-3.86-76-56.41-74-60.22C19,465.27,99.31,514,101.68,507.5c7.55-20.64-75.91-57.63-70.19-79.07,16.53-62.08,117.06-42.6,118.36-107.7,1.29-66.16-101.74-53.56-114.25-118-1.38-7.26,86.72-23.29,86.23-30.7-3-46.31-86-32.76-93.6-78.33-9.6-57.74,72.11-81.93,57.68-138.24" transform="translate(128.6 90.09)"/><path class="cls-3" d="M10.32,485.12c2.14-4.34,79.21,49.27,81.35,44.93,1.84-3.7-74.56-58.85-72.6-62.51,3.13-5.87,82.84,44.25,85.16,37.9,7.59-20.54-75.95-58.27-70.1-79.6C51,364.71,151.63,385.3,153.29,321.05,155,255,51.91,266.9,39.58,202.44c-1.39-7.2,86.63-23.34,86.14-30.64-3.26-46.05-86.23-32.08-93.87-77.43C22,36.2,103.78,11.75,89.13-45" transform="translate(128.6 90.09)"/><path class="cls-3" d="M13.44,480.14c2.24-4.13,77.65,52.56,79.89,48.43,1.92-3.55-73-61.45-71-64.94,3.22-5.66,82.21,45.88,84.53,39.69,7.64-20.43-76-59-70-80.13,17.07-60.12,118-38.42,120-101.88,2.14-66-101-54.78-113.22-119.24-1.34-7.14,86.54-23.34,86-30.64C126.17,125.59,43.24,140,35.47,95c-10-58.54,71.71-83.2,56.92-140.31" transform="translate(128.6 90.09)"/><path class="cls-3" d="M16.62,475.17c2.27-3.92,75.95,55.94,78.23,52,2-3.39-71.35-64-69.34-67.37,3.26-5.45,81.53,47.52,83.81,41.44,7.64-20.33-76-59.65-69.83-80.66,17.38-59.17,118.35-36.31,120.77-98.92C162.8,255.74,59.6,266.32,47.58,201.86c-1.34-7.09,86.45-23.39,85.87-30.65C129.83,125.65,46.91,140.46,39,95.64c-10.23-59,71.58-83.89,56.61-141.42" transform="translate(128.6 90.09)"/><path class="cls-3" d="M19.92,470.19c2.37-3.76,74.08,59.38,76.45,55.63,2-3.23-69.52-66.74-67.47-69.92,3.35-5.24,80.82,49.27,83.06,43.29,7.68-20.21-76-60.33-69.7-81.24,17.65-58.21,118.8-34.19,121.57-95.95,2.95-65.89-100.3-56-112.14-120.46-1.3-7,86.32-23.45,85.73-30.59-3.84-45.36-86.72-30.06-94.62-74.63C32.21,36.89,114,11.8,98.91-46.15" transform="translate(128.6 90.09)"/><path class="cls-3" d="M23.32,465.11C31.18,453.52,110,509.62,115,496c27.57-76.53-43.11-98.76-36.77-181.64,5.59-72.78,72.78-74.68,62.69-146.77-6.26-44.72-86.55-26.3-94.54-70.65C35.56,37.15,117.45,11.8,102.17-46.57" transform="translate(128.6 90.09)"/><g class="cls-34"><path class="cls-3" d="M-98.92,335.65c2.86-21.11,93.46-9.73,94.4-31.06,3.53-77.54-91-84.9-85.87-162.33C-86.32,81.77,8.22,92.41,13.71,32.07,16.3,3.6-74.89-3.39-74.35-32" transform="translate(128.6 90.09)"/></g><g class="cls-14"><path class="cls-3" d="M-98.12,329.89c3.22-23.19,94.05-11.33,95.17-34.78C.62,219.27-94.14,212-89.23,136.18-85.47,78.12,9,88.49,14.11,30.59c2.55-28-88.59-34.82-88.1-63" transform="translate(128.6 90.09)"/></g><g class="cls-61"><path class="cls-3" d="M-97.31,324.12c3.61-25.25,94.67-13,95.92-38.59C2.23,211.38-92.71,204.13-88.07,130-84.63,74.47,9.69,84.58,14.56,29.11,17,1.48-74.13-5.13-73.68-32.92" transform="translate(128.6 90.09)"/></g><g class="cls-65"><path class="cls-3" d="M-96.51,318.4C-92.49,291-1.26,303.69.17,276c3.67-72.45-91.41-79.65-87.07-152C-83.73,70.81,10.45,80.61,15,27.63,17.33.42-73.72-6-73.32-33.34" transform="translate(128.6 90.09)"/></g><g class="cls-16"><path class="cls-3" d="M-95.71,312.68c4.43-29.42,95.88-16.46,97.45-46.31,3.71-70.76-91.55-77.85-87.48-148.56,2.9-50.59,96.95-41.17,101.19-91.66,2.19-26.79-88.77-33-88.41-60" transform="translate(128.6 90.09)"/></g><g class="cls-66"><path class="cls-3" d="M-94.9,307c4.82-31.49,96.46-18.26,98.2-50.17,3.71-69-91.63-76.06-87.93-145.12C-82,63.62,11.92,72.67,15.81,24.66,18-1.69-73-7.73-72.61-34.24" transform="translate(128.6 90.09)"/></g><g class="cls-62"><path class="cls-3" d="M-94.1,301.36c5.23-33.56,97-20,99-54.09C8.62,180-86.9,173-83.46,105.64-81.14,60,12.68,68.7,16.26,23.18c2-26-88.82-31.81-88.51-57.9" transform="translate(128.6 90.09)"/></g><g class="cls-18"><path class="cls-3" d="M-93.29,295.75c5.58-35.67,97.62-21.81,99.72-58,3.8-65.63-91.86-72.45-88.73-138.13,2-43.19,95.7-34.88,99-78C18.63-3.92-72.2-9.47-71.89-35.14" transform="translate(128.6 90.09)"/></g><g class="cls-35"><path class="cls-3" d="M-92.53,290.14c6-37.74,98.2-23.66,100.48-61.92C11.75,164.28-84,157.61-81.19,93.63c1.79-40.7,95.3-32.82,98.25-73.41C18.89-4.92-71.85-10.27-71.62-35.51" transform="translate(128.6 90.09)"/></g><g class="cls-64"><path class="cls-3" d="M-91.73,284.53c6.39-39.8,98.78-25.46,101.24-65.89,3.8-62.24-92-68.75-89.53-131.1,1.52-38.21,94.85-30.8,97.53-69C19.3-6.14-71.45-11.17-71.22-36" transform="translate(128.6 90.09)"/></g><g class="cls-20"><path class="cls-3" d="M-90.93,278.92c6.8-41.87,99.37-27.31,102-69.86,3.79-60.5-92.13-66.9-89.94-127.55C-77.57,45.78,15.59,52.66,18,17,19.56-7.3-71.09-12.07-70.86-36.47" transform="translate(128.6 90.09)"/></g><g class="cls-67"><path class="cls-3" d="M-90.17,273.36c7.2-44,99.9-29.16,102.81-73.83,3.8-58.8-92.17-65-90.34-123.95,1-33.24,94-26.94,96.1-60.13C19.92-8.47-70.69-12.86-70.51-36.84" transform="translate(128.6 90.09)"/></g><g class="cls-21"><path class="cls-3" d="M-89.36,267.75c7.59-46,100.48-31.07,103.56-77.8,3.76-57.11-92.26-63-90.74-120.3C-75.73,38.9,17,44.56,18.85,13.87c1.38-23.5-89.13-27.63-89-51.18" transform="translate(128.6 90.09)"/></g><g class="cls-68"><path class="cls-3" d="M-88.6,262.19c8-48.11,101-32.92,104.32-81.77,3.8-55.46-92.26-61.13-91.1-116.7.58-28.31,93.11-23.28,94.63-51.55C20.5-10.9-69.93-14.61-69.84-37.74" transform="translate(128.6 90.09)"/></g><g class="cls-69"><path class="cls-3" d="M-87.8,256.64c8.36-50.18,101.6-34.83,105.13-85.8C21,117.12-75,111.73-74.22,57.85-73.86,32,18.4,36.25,19.7,10.53c1.11-22.65-89.22-26-89.13-48.64" transform="translate(128.6 90.09)"/></g><g class="cls-23"><path class="cls-3" d="M-87,251.08c8.76-52.29,102.14-36.68,105.89-89.82,3.66-52-92.35-57-91.95-109.29.18-23.28,92.17-19.9,93.2-43.18,1-22.23-89.27-25.09-89.22-47.37" transform="translate(128.6 90.09)"/></g><g class="cls-37"><path class="cls-3" d="M-86.23,245.52c9.16-54.35,102.67-38.58,106.64-93.84,3.67-50.33-92.35-55-92.35-105.48,0-20.85,91.68-18.36,92.49-39.16.8-21.81-89.31-24.19-89.31-46" transform="translate(128.6 90.09)"/></g></g></g><g class="cls-1"><g id="Waveform2-2" data-name="Waveform2"><path class="cls-2" d="M820.93-67.11c-21,218.74-130.79,210.54-135.32,430.55C684.25,428.27,796,414.88,808.44,478.18c10.76,54.62-93.33,94.53-71.91,145,23.05,54.14,112.27-12.34,147.1,33" transform="translate(128.6 90.09)"/><path class="cls-2" d="M827.43-67.69C806.06,152.85,697,144.38,691.5,366.19,690,429.28,801,416.79,812.74,478.5c10.52,55.25-93.37,93.41-72.61,144.8,21.41,53,111.38-11,144.25,33.82" transform="translate(128.6 90.09)"/><path class="cls-2" d="M833.88-68.33C812.23,154.07,703.8,145.28,697.34,368.89,695.57,430.23,805.92,418.64,817,478.77c10.24,55.88-93.37,92.24-73.31,144.64,19.82,51.76,110.49-9.58,141.39,34.67" transform="translate(128.6 90.09)"/><path class="cls-2" d="M840.33-68.91C818.4,155.28,710.62,146.23,703.24,371.64c-2,59.65,107.63,49,118,107.5,10,56.52-93.33,91.08-74,144.43,18.33,50.54,109.65-8.1,138.59,35.67" transform="translate(128.6 90.09)"/><path class="cls-2" d="M846.78-69.54c-22.25,226-129.33,216.73-137.7,443.88-2.15,58,106.7,48.11,116.34,105.06,9.67,57.16-93.19,89.92-74.68,144.17,16.84,49.33,108.76-6.46,135.74,36.78" transform="translate(128.6 90.09)"/><path class="cls-2" d="M853.28-70.13C830.75,157.67,724.37,148.14,715,377.09c-2.29,56.21,105.77,47.32,114.7,102.68,9.35,57.8-93.05,88.7-75.33,143.91,15.43,48.1,107.92-4.66,132.93,38" transform="translate(128.6 90.09)"/><path class="cls-2" d="M859.74-70.76c-22.87,229.59-128.5,219.85-138.88,450.55C718.43,434.31,825.65,426.26,833.93,480c9,58.37-92.82,87.43-76,143.58C772,670.57,865,620.87,888.07,663" transform="translate(128.6 90.09)"/><path class="cls-2" d="M866.19-71.34C843,160.05,738.12,150,726.76,382.6c-2.58,52.82,103.75,45.73,111.42,97.86,8.7,59-92.53,86.16-76.64,143.27,12.77,45.73,106.24-.69,127.33,40.91" transform="translate(128.6 90.09)"/><path class="cls-2" d="M872.69-72C849.26,161.21,745,151,732.69,385.3c-2.71,51.12,102.73,44.93,109.79,95.53,8.33,59.65-92.16,84.89-77.2,142.9,11.51,44.56,105.35,1.53,124.48,42.55" transform="translate(128.6 90.09)"/><path class="cls-2" d="M879.14-72.56C855.39,162.43,752,152,738.54,388.05c-2.81,49.43,101.7,44.14,108.15,93.15,7.95,60.28-91.79,83.62-77.81,142.48,10.29,43.39,104.46,3.91,121.62,44.4" transform="translate(128.6 90.09)"/><path class="cls-2" d="M885.59-73.2c-24,236.79-126.71,226.16-141.16,464-2.9,47.74,100.62,43.35,106.52,90.77,7.57,60.91-91.32,82.3-78.37,142.05C781.74,665.8,876.15,630,891.35,670" transform="translate(128.6 90.09)"/><path class="cls-2" d="M892.09-73.78C867.78,164.86,765.85,154,750.32,393.5c-3,46.1,99.55,42.61,104.88,88.44,7.16,61.55-90.8,81-78.93,141.58,8.05,41.17,102.59,9.21,115.82,48.58" transform="translate(128.6 90.09)"/><path class="cls-2" d="M892.09-73.78C867.78,164.86,765.85,154,750.32,393.5c-3,46.1,99.55,42.61,104.88,88.44,7.16,61.55-90.8,81-78.93,141.58,8.05,41.17,102.59,9.21,115.82,48.58" transform="translate(128.6 90.09)"/><path class="cls-2" d="M898.92-74.47C874.61,164.18,773.19,153.17,757.15,392.71c-3.09,46,98.61,43.19,103.66,89,6.78,61.6-89.45,78.7-79.25,139.67,6.82,40.7,101.18,14.77,111.61,54.51" transform="translate(128.6 90.09)"/><path class="cls-2" d="M905.79-75.15c-24.31,238.64-125.22,227.58-141.72,467-3.18,46.05,97.68,43.77,102.45,89.6,6.45,61.66-88.1,76.38-79.54,137.72,5.61,40.38,99.5,20.64,107.08,60.6" transform="translate(128.6 90.09)"/><path class="cls-3" d="M675.37,415.78c-.89-29.11,92.58-32.7,91.74-61.81" transform="translate(128.6 90.09)"/><path class="cls-3" d="M675.74,413.08c-.51-31.33,93-33.29,92.44-64.62" transform="translate(128.6 90.09)"/><path class="cls-3" d="M676.12,410.49c-.19-33.55,93.33-34.14,93.19-67.64" transform="translate(128.6 90.09)"/><path class="cls-3" d="M676.54,408c.18-35.72,93.7-35.09,93.89-70.81" transform="translate(128.6 90.09)"/><path class="cls-3" d="M676.91,405.52c.56-37.95,94-36.21,94.59-74.15" transform="translate(128.6 90.09)"/><path class="cls-3" d="M677.33,403.19c.89-40.12,94.36-37.47,95.3-77.59" transform="translate(128.6 90.09)"/><path class="cls-3" d="M677.71,400.86c1.26-42.34,94.73-38.8,95.94-81.14" transform="translate(128.6 90.09)"/><path class="cls-3" d="M678.13,398.58c1.59-44.51,95.06-40.22,96.65-84.78" transform="translate(128.6 90.09)"/><path class="cls-3" d="M678.55,396.31c2-46.74,95.38-41.71,97.3-88.49" transform="translate(128.6 90.09)"/><path class="cls-3" d="M679,394.08c2.29-48.95,95.67-43.29,98-92.19" transform="translate(128.6 90.09)"/><path class="cls-3" d="M679.34,391.91c2.67-51.12,96-44.93,98.66-96.06" transform="translate(128.6 90.09)"/><path class="cls-3" d="M679.76,389.74c3-53.34,96.33-46.57,99.36-99.92" transform="translate(128.6 90.09)"/><path class="cls-3" d="M680.18,387.63c3.37-55.52,96.65-48.27,100-103.84" transform="translate(128.6 90.09)"/><path class="cls-3" d="M680.6,385.51c3.75-57.74,97-50,100.72-107.76" transform="translate(128.6 90.09)"/><path class="cls-3" d="M681,383.39c4.07-59.91,97.3-51.81,101.37-111.78" transform="translate(128.6 90.09)"/><path class="cls-3" d="M681.4,381.28c4.44-62.14,97.63-53.62,102.07-115.75" transform="translate(128.6 90.09)"/><path class="cls-3" d="M681.82,379.21c4.77-64.36,98-55.46,102.73-119.82" transform="translate(128.6 90.09)"/><path class="cls-3" d="M682.19,377.15c5.15-66.53,98.29-57.32,103.43-123.85" transform="translate(128.6 90.09)"/><path class="cls-3" d="M682.62,375.08c5.47-68.69,98.61-59.17,104.13-127.92" transform="translate(128.6 90.09)"/><path class="cls-3" d="M683,373.07c5.84-70.92,98.94-61.13,104.78-132" transform="translate(128.6 90.09)"/><path class="cls-3" d="M683.41,371c6.17-73.14,99.27-63,105.49-136.18" transform="translate(128.6 90.09)"/><path class="cls-3" d="M683.83,369c6.55-75.32,99.6-65,106.14-140.31" transform="translate(128.6 90.09)"/><path class="cls-3" d="M684.25,367C691.17,289.45,784.17,300,791.1,222.5" transform="translate(128.6 90.09)"/><path class="cls-3" d="M684.67,365c7.25-79.75,100.3-68.9,107.55-148.66" transform="translate(128.6 90.09)"/><path class="cls-3" d="M685.05,363c7.62-81.93,100.62-70.86,108.2-152.85" transform="translate(128.6 90.09)"/><path class="cls-3" d="M685.47,361c7.95-84.15,100.95-72.88,108.9-157" transform="translate(128.6 90.09)"/><path class="cls-3" d="M685.84,359c8.32-86.32,101.28-74.89,109.6-161.21" transform="translate(128.6 90.09)"/><path class="cls-3" d="M673.87,349.73C680,288.6,773,300.62,779.12,239.49" transform="translate(128.6 90.09)"/><g class="cls-4"><path class="cls-3" d="M675,343.43c6-59.64,98.94-47.63,104.93-107.28" transform="translate(128.6 90.09)"/></g><g class="cls-5"><path class="cls-3" d="M676.07,337.14C681.91,279,774.82,291,780.71,232.82" transform="translate(128.6 90.09)"/></g><g class="cls-6"><path class="cls-3" d="M677.19,330.84c5.71-56.69,98.61-44.72,104.32-101.41" transform="translate(128.6 90.09)"/></g><g class="cls-7"><path class="cls-3" d="M678.31,324.54c5.57-55.2,98.48-43.24,104-98.44" transform="translate(128.6 90.09)"/></g><g class="cls-8"><path class="cls-3" d="M679.39,318.24c5.38-53.72,98.33-41.76,103.71-95.48" transform="translate(128.6 90.09)"/></g><g class="cls-9"><path class="cls-3" d="M680.51,311.94c5.24-52.23,98.15-40.27,103.43-92.56" transform="translate(128.6 90.09)"/></g><g class="cls-10"><path class="cls-3" d="M681.59,305.7c5.09-50.76,98-38.85,103.1-89.6" transform="translate(128.6 90.09)"/></g><g class="cls-11"><path class="cls-3" d="M682.71,299.4c4.95-49.27,97.86-37.37,102.82-86.64" transform="translate(128.6 90.09)"/></g><g class="cls-12"><path class="cls-3" d="M683.78,293.1c4.77-47.79,97.73-35.88,102.5-83.73" transform="translate(128.6 90.09)"/></g><g class="cls-13"><path class="cls-3" d="M684.91,286.8c4.63-46.31,97.53-34.45,102.16-80.76" transform="translate(128.6 90.09)"/></g><g class="cls-14"><path class="cls-3" d="M686,280.51c4.49-44.89,97.4-33,101.89-77.8" transform="translate(128.6 90.09)"/></g><g class="cls-15"><path class="cls-3" d="M687.1,274.21c4.35-43.4,97.26-31.49,101.56-74.89" transform="translate(128.6 90.09)"/></g><g class="cls-16"><path class="cls-3" d="M688.18,268c4.16-41.91,97.12-30.06,101.28-71.92" transform="translate(128.6 90.09)"/></g><g class="cls-17"><path class="cls-3" d="M689.3,261.66c4-40.43,96.93-28.58,101-69" transform="translate(128.6 90.09)"/></g><g class="cls-18"><path class="cls-3" d="M690.38,255.37c3.88-39,96.79-27.1,100.67-66.06" transform="translate(128.6 90.09)"/></g><g class="cls-19"><path class="cls-3" d="M691.5,249.07c3.69-37.47,96.65-25.67,100.34-63.09" transform="translate(128.6 90.09)"/></g><g class="cls-20"><path class="cls-3" d="M692.57,242.82c3.56-36,96.51-24.18,100.07-60.17" transform="translate(128.6 90.09)"/></g><g class="cls-21"><path class="cls-3" d="M693.7,236.52c3.41-34.5,96.32-22.75,99.73-57.26" transform="translate(128.6 90.09)"/></g><g class="cls-22"><path class="cls-3" d="M694.77,230.23c3.28-33,96.18-21.28,99.46-54.31" transform="translate(128.6 90.09)"/></g><g class="cls-23"><path class="cls-3" d="M695.89,223.93c3.09-31.55,96.05-19.85,99.13-51.39" transform="translate(128.6 90.09)"/></g><g class="cls-24"><path class="cls-3" d="M697,217.68c2.95-30.06,95.9-18.42,98.85-48.48" transform="translate(128.6 90.09)"/></g><g class="cls-25"><path class="cls-3" d="M698.09,211.38c2.81-28.57,95.76-16.93,98.52-45.56" transform="translate(128.6 90.09)"/></g><g class="cls-26"><path class="cls-3" d="M699.17,205.09c2.62-27.1,95.57-15.51,98.24-42.61" transform="translate(128.6 90.09)"/></g><g class="cls-27"><path class="cls-3" d="M700.29,198.84c2.48-25.61,95.43-14.08,97.91-39.69" transform="translate(128.6 90.09)"/></g><g class="cls-28"><path class="cls-3" d="M701.37,192.54c2.33-24.13,95.29-12.65,97.63-36.78" transform="translate(128.6 90.09)"/></g><g class="cls-29"><path class="cls-3" d="M702.49,186.3c2.2-22.65,95.15-11.22,97.35-33.87" transform="translate(128.6 90.09)"/></g><path class="cls-3" d="M777.44,350.63c15.24,62.51-72.71,87.28-60.27,150.58,10.75,54.61,99.74,35.24,107.68,90.5" transform="translate(128.6 90.09)"/><path class="cls-3" d="M777.07,352.59c14.82,61.08-73.41,86.06-61.07,147.87,11,55.15,100.2,35,108.76,90.72" transform="translate(128.6 90.09)"/><path class="cls-3" d="M776.65,354.55c14.4,59.65-74.16,84.84-61.87,145.12,11.32,55.68,100.72,34.72,109.89,90.93" transform="translate(128.6 90.09)"/><path class="cls-3" d="M776.27,356.51c14,58.22-74.86,83.67-62.7,142.42,11.64,56.21,101.18,34.45,111,91.14" transform="translate(128.6 90.09)"/><path class="cls-3" d="M775.9,358.47c13.56,56.78-75.52,82.4-63.5,139.67,11.92,56.79,101.7,34.24,112.08,91.4" transform="translate(128.6 90.09)"/><path class="cls-3" d="M775.52,360.42c13.14,55.42-76.21,81.19-64.29,137,12.25,57.32,102.17,34,113.16,91.62" transform="translate(128.6 90.09)"/><path class="cls-3" d="M775.15,362.43c12.72,54-76.92,80-65.13,134.22,12.57,57.85,102.63,33.77,114.23,91.88" transform="translate(128.6 90.09)"/><path class="cls-3" d="M774.78,364.39c12.29,52.56-77.58,78.76-65.93,131.52,12.9,58.38,103.1,33.56,115.35,92.15" transform="translate(128.6 90.09)"/><path class="cls-3" d="M774.4,366.4c11.88,51.13-78.22,77.54-66.72,128.77,13.23,59,103.57,33.35,116.43,92.41" transform="translate(128.6 90.09)"/><path class="cls-3" d="M774,368.36c11.5,49.7-78.88,76.32-67.57,126,13.61,59.49,104,33.13,117.51,92.67" transform="translate(128.6 90.09)"/><path class="cls-3" d="M773.65,370.37c11.09,48.27-79.53,75.05-68.36,123.32,13.94,60,104.51,33,118.58,92.94" transform="translate(128.6 90.09)"/><path class="cls-3" d="M773.28,372.38c10.66,46.84-80.19,73.84-69.16,120.57,14.31,60.6,104.93,32.76,119.66,93.25" transform="translate(128.6 90.09)"/><path class="cls-3" d="M772.91,374.4C783.15,419.81,692.06,447,703,492.21c14.68,61.13,105.39,32.6,120.68,93.57" transform="translate(128.6 90.09)"/><path class="cls-3" d="M772.58,376.41c9.82,44-81.45,71.34-70.79,115.06,15.05,61.71,105.86,32.44,121.76,93.83" transform="translate(128.6 90.09)"/><path class="cls-3" d="M772.2,378.42c9.4,42.6-82.06,70.07-71.58,112.31C716.05,553,806.9,523,823.45,584.88" transform="translate(128.6 90.09)"/><path class="cls-3" d="M771.83,380.43c9,41.18-82.67,68.8-72.38,109.56,15.85,62.82,106.75,32.12,123.91,94.47" transform="translate(128.6 90.09)"/><path class="cls-3" d="M771.46,382.49C780,422.24,688.18,450,698.28,489.3c16.27,63.35,107.22,32,124.94,94.79" transform="translate(128.6 90.09)"/><path class="cls-3" d="M771.08,384.5c8.14,38.32-83.84,66.21-74,104,16.7,63.94,107.64,31.81,126,95.16" transform="translate(128.6 90.09)"/><path class="cls-3" d="M770.76,386.57c7.71,36.89-84.45,64.94-74.82,101.25,17.11,64.46,108.06,31.7,127,95.47" transform="translate(128.6 90.09)"/><path class="cls-3" d="M770.38,388.69c7.34,35.46-85,63.61-75.61,98.44,17.54,65,108.53,31.54,128.12,95.79" transform="translate(128.6 90.09)"/><path class="cls-3" d="M770.05,390.75c6.92,34-85.56,62.29-76.4,95.64,18,65.57,109,31.43,129.15,96.16" transform="translate(128.6 90.09)"/><path class="cls-3" d="M769.68,392.87c6.5,32.6-86.13,60.91-77.25,92.83C710.9,551.8,801.8,517,822.66,582.23" transform="translate(128.6 90.09)"/><path class="cls-3" d="M769.35,395c6.08,31.22-86.69,59.59-78,90,18.94,66.69,109.84,31.17,131.25,96.85" transform="translate(128.6 90.09)"/><path class="cls-3" d="M769,397.15c5.66,29.8-87.21,58.17-78.84,87.12,19.41,67.21,110.26,31.07,132.28,97.22" transform="translate(128.6 90.09)"/><path class="cls-3" d="M768.65,399.38c5.24,28.36-87.72,56.73-79.68,84.25,19.92,67.75,110.68,31,133.31,97.6" transform="translate(128.6 90.09)"/><path class="cls-3" d="M768.32,401.6c4.82,26.94-88.23,55.31-80.47,81.35,20.39,68.32,111.1,30.85,134.39,98" transform="translate(128.6 90.09)"/><path class="cls-3" d="M768,403.82c4.39,25.51-88.75,53.83-81.27,78.39,20.9,68.85,111.52,30.74,135.41,98.33" transform="translate(128.6 90.09)"/><path class="cls-3" d="M740.32-90.08c10.75,139.25-80.1,147.24-71.73,286.65,4.91,81.24,95.95,75.89,98.47,157.29" transform="translate(128.6 90.09)"/><g class="cls-30"><path class="cls-3" d="M742.09-83.25c10.43,137.13-80.28,144.86-72.43,282.14,4.59,80,95.39,75.21,97.4,155.34" transform="translate(128.6 90.09)"/></g><g class="cls-31"><path class="cls-3" d="M743.92-76.37c10.05,135-80.43,142.42-73.18,277.65C675,280,765.61,275.8,767.11,354.6" transform="translate(128.6 90.09)"/></g><g class="cls-32"><path class="cls-3" d="M745.69-69.49c9.73,132.84-80.61,140-73.88,273.09,3.93,77.43,94.36,73.84,95.3,151.42" transform="translate(128.6 90.09)"/></g><g class="cls-10"><path class="cls-3" d="M747.52-62.66c9.35,130.72-80.76,137.6-74.58,268.54,3.6,76.21,93.79,73.2,94.17,149.52" transform="translate(128.6 90.09)"/></g><g class="cls-33"><path class="cls-3" d="M749.29-55.78c9,128.61-80.89,135.12-75.33,264,3.23,74.94,93.29,72.61,93.1,147.66" transform="translate(128.6 90.09)"/></g><g class="cls-34"><path class="cls-3" d="M751.12-48.9c8.65,126.49-81,132.68-76,259.44,2.9,73.72,92.77,72,92,145.81" transform="translate(128.6 90.09)"/></g><g class="cls-15"><path class="cls-3" d="M752.89-42c8.28,124.37-81.22,130.25-76.77,254.83,2.57,72.46,92.2,71.45,90.94,144" transform="translate(128.6 90.09)"/></g><g class="cls-17"><path class="cls-3" d="M754.72-35.14c7.95,122.26-81.36,127.76-77.48,250.28,2.24,71.24,91.64,70.87,89.87,142.16" transform="translate(128.6 90.09)"/></g><g class="cls-35"><path class="cls-3" d="M756.54-28.26C764.12,91.88,675,97.07,678.36,217.42c1.92,70,91.09,70.34,88.75,140.36" transform="translate(128.6 90.09)"/></g><g class="cls-36"><path class="cls-3" d="M758.32-21.38c7.24,118-81.69,122.84-78.93,241.07C681,288.44,770,289.56,767.06,358.25" transform="translate(128.6 90.09)"/></g><g class="cls-22"><path class="cls-3" d="M760.14-14.5c6.87,115.91-81.83,120.3-79.63,236.42,1.26,67.53,90,69.38,86.55,136.86" transform="translate(128.6 90.09)"/></g><g class="cls-37"><path class="cls-3" d="M761.92-7.62c6.54,113.74-82,117.81-80.38,231.81.93,66.32,89.4,69,85.43,135.12" transform="translate(128.6 90.09)"/></g><g class="cls-38"><path class="cls-3" d="M763.74-.69c6.17,111.62-82.11,115.27-81.08,227.16C683.27,291.62,771.5,295,767,360" transform="translate(128.6 90.09)"/></g><g class="cls-39"><path class="cls-3" d="M765.52,6.19c5.84,109.51-82.25,112.79-81.78,222.5.28,63.94,88.23,68.17,83.18,131.84" transform="translate(128.6 90.09)"/></g><g class="cls-29"><path class="cls-3" d="M767.34,13.13c5.47,107.38-82.39,110.19-82.48,217.78-.05,62.72,87.67,67.8,82,130.2" transform="translate(128.6 90.09)"/></g><g class="cls-40"><path class="cls-3" d="M769.12,20c5.1,105.26-82.53,107.65-83.23,213.07-.38,61.5,87.06,67.54,80.89,128.67" transform="translate(128.6 90.09)"/></g><g class="cls-40"><path class="cls-3" d="M686,236.37C680.88,131.1,774.26,125.27,769.12,20" transform="translate(128.6 90.09)"/></g><g class="cls-41"><path class="cls-3" d="M687.24,230.39c-4.16-105.54,89.31-110.25,85.15-215.78" transform="translate(128.6 90.09)"/></g><g class="cls-42"><path class="cls-3" d="M688.51,224.4C685.33,118.55,778.8,115,775.66,9.16" transform="translate(128.6 90.09)"/></g><g class="cls-43"><path class="cls-3" d="M689.82,218.42c-2.2-106.11,91.32-108.55,89.12-214.66" transform="translate(128.6 90.09)"/></g><g class="cls-44"><path class="cls-3" d="M691.08,212.44c-1.22-106.38,92.3-107.75,91.13-214.13" transform="translate(128.6 90.09)"/></g><g class="cls-45"><path class="cls-3" d="M692.39,206.46c-.24-106.7,93.28-106.91,93.09-213.6" transform="translate(128.6 90.09)"/></g><g class="cls-46"><path class="cls-3" d="M693.65,200.48c.75-107,94.27-106.11,95.06-213" transform="translate(128.6 90.09)"/></g><g class="cls-47"><path class="cls-3" d="M695,194.5c1.73-107.23,95.25-105.27,97-212.49" transform="translate(128.6 90.09)"/></g><g class="cls-47"><path class="cls-3" d="M696.27,188.57C699,81.08,792.45,84.1,795.21-23.39" transform="translate(128.6 90.09)"/></g><g class="cls-48"><path class="cls-3" d="M697.58,182.59C701.27,74.78,794.74,78.91,798.44-28.9" transform="translate(128.6 90.09)"/></g><g class="cls-49"><path class="cls-3" d="M698.89,176.61c4.67-108.07,98.1-102.88,102.77-211" transform="translate(128.6 90.09)"/></g><g class="cls-50"><path class="cls-3" d="M700.2,170.69c5.65-108.34,99-102.1,104.69-210.44" transform="translate(128.6 90.09)"/></g><g class="cls-51"><path class="cls-3" d="M701.51,164.7C708.15,56.1,801.43,63.4,808.07-45.25" transform="translate(128.6 90.09)"/></g><g class="cls-52"><path class="cls-3" d="M702.86,158.78C710.48,49.86,803.72,58.22,811.34-50.7" transform="translate(128.6 90.09)"/></g><g class="cls-53"><path class="cls-3" d="M704.17,152.85c8.6-109.19,101.75-99.77,110.35-209" transform="translate(128.6 90.09)"/></g><g class="cls-54"><path class="cls-3" d="M705.53,146.87c9.58-109.45,102.63-99,112.22-208.53" transform="translate(128.6 90.09)"/></g><g class="cls-55"><path class="cls-3" d="M706.84,140.94c10.56-109.77,103.52-98.28,114.09-208" transform="translate(128.6 90.09)"/></g><path class="cls-3" d="M762,194.34c-1.64,69.76-95.11,67-96.74,136.71" transform="translate(128.6 90.09)"/><path class="cls-3" d="M762.15,198.26c-1.35,70.23-94.87,67.9-96.23,138.14" transform="translate(128.6 90.09)"/><path class="cls-3" d="M762.29,202.12c-1.12,70.76-94.64,68.86-95.76,139.57" transform="translate(128.6 90.09)"/><path class="cls-3" d="M762.43,206c-.89,71.23-94.4,69.75-95.29,141" transform="translate(128.6 90.09)"/><path class="cls-3" d="M762.57,209.85c-.65,71.77-94.12,70.71-94.78,142.48" transform="translate(128.6 90.09)"/><path class="cls-3" d="M762.67,213.71c-.38,72.25-93.9,71.61-94.32,143.91" transform="translate(128.6 90.09)"/><path class="cls-3" d="M762.81,217.63c-.14,72.77-93.66,72.51-93.8,145.28" transform="translate(128.6 90.09)"/><path class="cls-3" d="M763,221.49C763,294.74,669.52,295,669.66,368.2" transform="translate(128.6 90.09)"/><path class="cls-3" d="M763.09,225.41c.37,73.78-93.15,74.36-92.82,148.14" transform="translate(128.6 90.09)"/><path class="cls-3" d="M763.23,229.27c.6,74.26-92.91,75.26-92.3,149.52" transform="translate(128.6 90.09)"/><path class="cls-3" d="M763.37,233.19c.84,74.78-92.68,76.11-91.84,150.89" transform="translate(128.6 90.09)"/><path class="cls-3" d="M763.51,237.05c1.07,75.26-92.4,77-91.32,152.32" transform="translate(128.6 90.09)"/><path class="cls-3" d="M763.65,241c1.35,75.79-92.16,77.91-90.81,153.7" transform="translate(128.6 90.09)"/><path class="cls-3" d="M763.79,244.89c1.59,76.26-91.88,78.8-90.34,155.07" transform="translate(128.6 90.09)"/><path class="cls-3" d="M763.88,248.75c1.83,76.8-91.65,79.65-89.82,156.45" transform="translate(128.6 90.09)"/><path class="cls-3" d="M764,252.67c2.11,77.27-91.41,80.5-89.31,157.82" transform="translate(128.6 90.09)"/><path class="cls-3" d="M764.16,256.58c2.34,77.8-91.13,81.4-88.79,159.2" transform="translate(128.6 90.09)"/><path class="cls-3" d="M725.73-61.23c10,128.87-80.24,136.44-73.32,265.58,2.85,53.72,93.24,50.8,93.05,104.63" transform="translate(128.6 90.09)"/><g class="cls-4"><path class="cls-3" d="M726.61-63c10,129.5-80.09,137-73.22,266.79,2.9,54.73,93.14,52,92.86,106.75" transform="translate(128.6 90.09)"/></g><g class="cls-5"><path class="cls-3" d="M727.55-64.83c10.05,130.19-79.91,137.6-73.13,268.06,2.9,55.68,93.05,53.09,92.68,108.87" transform="translate(128.6 90.09)"/></g><g class="cls-6"><path class="cls-3" d="M728.44-66.63c10.1,130.83-79.77,138.24-73,269.34,2.9,56.68,93,54.19,92.49,111" transform="translate(128.6 90.09)"/></g><g class="cls-7"><path class="cls-3" d="M729.37-68.49C739.52,63,649.74,70.39,656.43,202.12c3,57.69,92.86,55.31,92.35,113.1" transform="translate(128.6 90.09)"/></g><g class="cls-56"><path class="cls-3" d="M730.26-70.29c10.2,132.11-79.49,139.41-72.85,271.83,3,58.7,92.82,56.42,92.16,115.22" transform="translate(128.6 90.09)"/></g><g class="cls-57"><path class="cls-3" d="M731.2-72.08C741.44,60.65,651.85,68,658.44,201c2.95,59.7,92.72,57.53,92,117.34" transform="translate(128.6 90.09)"/></g><g class="cls-58"><path class="cls-3" d="M732.09-73.88c10.33,133.42-79.17,140.62-72.67,274.36,3,60.71,92.63,58.64,91.79,119.46" transform="translate(128.6 90.09)"/></g><g class="cls-33"><path class="cls-3" d="M733-75.68C743.4,58.38,654,65.57,660.45,199.9c3,61.71,92.54,59.75,91.6,121.57" transform="translate(128.6 90.09)"/></g><g class="cls-59"><path class="cls-3" d="M733.91-77.48C744.34,57.21,655,64.36,661.48,199.37c3,62.66,92.44,60.87,91.46,123.63" transform="translate(128.6 90.09)"/></g><g class="cls-60"><path class="cls-3" d="M734.84-79.28C745.32,56.05,656.1,63.14,662.51,198.84c3,63.67,92.35,62,91.27,125.75" transform="translate(128.6 90.09)"/></g><g class="cls-61"><path class="cls-3" d="M735.73-81.08c10.52,136-78.6,143.06-72.24,279.39,3,64.68,92.26,63.09,91.09,127.82" transform="translate(128.6 90.09)"/></g><g class="cls-16"><path class="cls-3" d="M736.67-82.88c10.57,136.65-78.46,143.64-72.15,280.66,3,65.68,92.16,64.15,90.9,129.94" transform="translate(128.6 90.09)"/></g><g class="cls-62"><path class="cls-3" d="M737.56-84.68C748.17,52.61,659.28,59.59,665.5,197.2c3,66.69,92.07,65.26,90.71,132" transform="translate(128.6 90.09)"/></g><g class="cls-63"><path class="cls-3" d="M738.49-86.48c10.66,137.92-78.13,144.86-72,283.15,3,67.69,92,66.37,90.57,134.12" transform="translate(128.6 90.09)"/></g><g class="cls-64"><path class="cls-3" d="M739.38-88.28c10.71,138.56-78,145.49-71.87,284.42,3,68.7,91.93,67.43,90.39,136.18" transform="translate(128.6 90.09)"/></g><g class="cls-36"><path class="cls-3" d="M740.32-90.08C751.07,49.17,662.46,56,668.54,195.61c3,69.71,91.83,68.54,90.2,138.24" transform="translate(128.6 90.09)"/></g><path class="cls-3" d="M742.61,326.76c-8.05,25.14-96-10.95-104,14.19-10.43,32.49,76.45,64.25,68.08,97.54C696.13,480.41,596.06,468.44,598.17,512c3.46,72.62,99.88,54,119,123.48C729,678.4,650.82,703,661.2,746.41c12.3,51.5,97.07,33,102.54,86.06" transform="translate(128.6 90.09)"/><g class="cls-4"><path class="cls-3" d="M744.1,326.07c-7.24,26.15-95.85-6.24-103.47,19.75C631,379,718,408.22,710.06,441.93c-10,42.6-109.65,32-107.31,76,3.84,72.3,100.77,53.77,119,123.21,11.55,43.93-68.22,67.75-58.4,112.15C674.57,804.1,760.09,786.9,765,839" transform="translate(128.6 90.09)"/></g><g class="cls-5"><path class="cls-3" d="M745.51,325.39c-6.41,27.09-95.58-1.64-102.78,25.19-9,33.66,78.13,60.55,70.7,94.74-9.35,43.24-108.67,34.08-106.1,78.54,4.21,72,101.61,53.56,119,123,11.27,44.93-70,67.9-60.74,113.42,10.2,50.06,96.47,34.19,100.82,85.31" transform="translate(128.6 90.09)"/></g><g class="cls-6"><path class="cls-3" d="M746.77,324.86c-5.61,28.05-95.2,2.75-101.94,30.54-8.27,34.24,78.89,58.8,72,93.41-8.8,43.93-107.74,36.09-104.88,81,4.53,71.66,102.4,53.4,119,122.73,11,46-71.77,68-63.08,114.69,9.17,49.28,96.14,34.83,99.88,85" transform="translate(128.6 90.09)"/></g><g class="cls-7"><path class="cls-3" d="M748,324.38c-4.77,29.06-94.68,7-101,35.73-7.57,34.77,79.58,57.1,73.09,92.14-8.23,44.56-106.75,38.05-103.62,83.46,4.91,71.35,103.19,53.19,119,122.47C746.16,705.29,662,726.3,670,774.09c8.18,48.48,95.76,35.46,99,84.68" transform="translate(128.6 90.09)"/></g><g class="cls-56"><path class="cls-3" d="M749.06,324c-4,30-94,11.16-99.83,40.8-6.87,35.3,80.19,55.42,74.21,90.93-7.63,45.25-105.77,40-102.36,85.9,5.24,71,104,53,118.91,122.2C750.42,712.06,664.85,732,672.28,781c7.2,47.69,95.39,36.1,98.05,84.36" transform="translate(128.6 90.09)"/></g><g class="cls-57"><path class="cls-3" d="M750.13,323.64c-3.13,31-93.33,15.14-98.61,45.78-6.22,35.78,80.8,53.83,75.28,89.76-7.06,45.89-104.74,41.92-101,88.34,5.61,70.65,104.74,52.82,118.86,121.94,10.14,49.48-76.73,68.22-70,118.44,6.31,46.9,95,36.79,97.07,84.1" transform="translate(128.6 90.09)"/></g><g class="cls-58"><path class="cls-3" d="M751.12,323.48c-2.34,32-92.49,19-97.35,50.6-5.52,36.25,81.36,52.24,76.26,88.6-6.5,46.57-103.71,43.82-99.78,90.76,5.93,70.34,105.44,52.66,118.81,121.68,9.82,50.7-78.27,68.22-72.24,119.72,5.42,46,94.59,37.47,96.09,83.88" transform="translate(128.6 90.09)"/></g><g class="cls-33"><path class="cls-3" d="M752.05,323.32c-1.49,33-91.65,22.71-95.95,55.31-4.86,36.73,81.83,50.76,77.25,87.54-5.89,47.26-102.68,45.67-98.48,93.15,6.27,70,106.15,52.5,118.77,121.41,9.54,52-79.77,68.22-74.44,121,4.54,45.2,94.13,38.21,95.06,83.67" transform="translate(128.6 90.09)"/></g><g class="cls-59"><path class="cls-3" d="M752.89,323.27c-.7,33.92-90.71,26.25-94.5,59.91-4.2,37.21,82.3,49.28,78.18,86.48-5.33,47.95-101.65,47.53-97.11,95.53,6.59,69.65,106.84,52.4,118.67,121.15,9.21,53.3-81.22,68.22-76.64,122.31,3.74,44.3,93.66,39,94,83.52" transform="translate(128.6 90.09)"/></g><g class="cls-60"><path class="cls-3" d="M753.78,323.32c.14,34.93-89.68,29.69-93,64.41-3.55,37.63,82.71,47.9,79.07,85.53-4.73,48.64-100.63,49.27-95.76,97.91C651,640.51,751.58,623.41,762.71,692c8.84,54.62-82.57,68.22-78.83,123.64,2.94,43.45,93.19,39.8,93,83.35" transform="translate(128.6 90.09)"/></g><g class="cls-61"><path class="cls-3" d="M754.58,323.48c.93,35.88-88.66,33-91.42,68.75-2.94,38.06,83.14,46.52,79.91,84.58-4.16,49.32-99.55,51.07-94.4,100.24,7.2,69,108.1,52.08,118.53,120.56,8.51,56-83.93,68.22-81,124.91,2.19,42.55,92.67,40.59,91.92,83.25" transform="translate(128.6 90.09)"/></g><g class="cls-16"><path class="cls-3" d="M755.37,323.64c1.78,36.84-87.58,36.15-89.82,73-2.29,38.53,83.46,45.26,80.75,83.73-3.55,50-98.52,52.77-93,102.57,7.53,68.65,108.71,52,118.44,120.25,8.14,57.37-85.19,68.17-83.09,126.28,1.5,41.71,92.11,41.44,90.81,83.15" transform="translate(128.6 90.09)"/></g><g class="cls-62"><path class="cls-3" d="M756.12,323.9c2.57,37.85-86.5,39.22-88.14,77.17-1.68,38.9,83.79,44,81.55,82.88-3,50.7-97.45,54.52-91.7,104.9,7.81,68.27,109.32,51.87,118.3,120,7.76,58.8-86.41,68.17-85.19,127.61.79,40.8,91.55,42.34,89.63,83.09" transform="translate(128.6 90.09)"/></g><g class="cls-63"><path class="cls-3" d="M756.87,324.28c3.41,38.79-85.38,42.18-86.46,81.18-1.07,39.33,84.12,42.82,82.3,82.14-2.39,51.39-96.37,56.16-90.29,107.18,8.13,68,109.88,51.76,118.2,119.66,7.39,60.23-87.53,68.17-87.3,129,.19,39.91,90.95,43.24,88.47,83" transform="translate(128.6 90.09)"/></g><g class="cls-64"><path class="cls-3" d="M757.62,324.65c4.2,39.8-84.22,45-84.73,85.15-.52,39.75,84.4,41.71,83,81.4-1.77,52.08-95.29,57.85-88.89,109.45,8.42,67.59,110.4,51.66,118.07,119.35,7,61.66-88.65,68.17-89.36,130.36-.42,39,90.3,44.19,87.26,83" transform="translate(128.6 90.09)"/></g><g class="cls-36"><path class="cls-3" d="M758.32,325.12c5,40.75-83.05,47.85-83,89,.09,40.12,84.68,40.59,83.75,80.71-1.22,52.77-94.22,59.44-87.49,111.67,8.7,67.27,111,51.55,118,119,6.55,63.14-89.68,68.17-91.41,131.74-1,38.1,89.64,45.14,86,83.09" transform="translate(128.6 90.09)"/></g><path class="cls-3" d="M768.42,421.29C763.55,461,666.53,452,665.59,492.16c-1.21,52.76,91.79,46.83,98.57,99.07,8.7,67.27-74.48,79.28-67.42,146.76,6.54,62.88,96.69,58.7,95,122-1,38.37-104.55,43.13-100.39,81.24C698,1002,803.44,983.89,812.28,1044.38c8.09,55.31-90.15,67.48-87.49,123.48" transform="translate(128.6 90.09)"/><path class="cls-3" d="M769,423.83c-4.34,38.69-101.27,31-101.79,69.91-.7,52.88,92.26,46.1,99.22,98.39C775.34,658.45,692,671,699.21,737.57c6.78,62,97.54,57.74,95.72,120.25-1.22,40.91-105.86,44.61-101.89,85.31,6,61.5,112.13,44.3,120.83,105.43,7.85,55.15-90.53,66.79-88.14,122.58" transform="translate(128.6 90.09)"/><path class="cls-3" d="M769.63,426.32C765.85,464,669,457.54,668.87,495.38c-.19,53,92.67,45.31,99.92,97.65,9.07,65.36-74.53,78.49-67,144.06,7,61.19,98.42,56.79,96.41,118.45C796.8,899,691.08,901.69,694.82,945c5.38,62.24,112.17,45.88,120.68,107.65,7.62,55-90.85,66-88.79,121.67" transform="translate(128.6 90.09)"/><path class="cls-3" d="M770.29,428.8c-3.23,36.57-100,31.55-99.74,68.28.38,53.08,93.05,44.51,100.58,96.9,9.21,64.41-74.53,78.12-66.77,142.74,7.2,60.29,99.27,55.84,97.12,116.65-1.64,46-108.34,47.69-104.88,93.58,4.77,62.92,112.17,47.42,120.54,109.87,7.34,54.88-91.23,65.31-89.45,120.77" transform="translate(128.6 90.09)"/><path class="cls-3" d="M770.9,431.24c-2.67,35.51-99.27,31.91-98.67,67.53.89,53.14,93.48,43.72,101.24,96.17,9.4,63.45-74.54,77.74-66.54,141.47,7.43,59.43,100.06,54.83,97.82,114.79-1.83,48.54-109.51,49.28-106.33,97.76,4.21,63.56,112.17,48.95,120.36,112,7.1,54.78-91.56,64.57-90.11,119.93" transform="translate(128.6 90.09)"/><path class="cls-3" d="M771.5,433.62c-2.1,34.4-98.56,32.34-97.63,66.84,1.45,53.25,93.85,42.87,101.89,95.38,9.54,62.5-74.54,77.37-66.35,140.14,7.62,58.59,100.9,53.83,98.47,113-2.06,51.07-110.68,50.91-107.78,101.93,3.65,64.26,112.22,50.44,120.22,114.16,6.87,54.62-91.88,63.83-90.76,119" transform="translate(128.6 90.09)"/><path class="cls-3" d="M772.06,435.9c-1.54,33.34-97.81,32.86-96.51,66.21,2.06,53.34,94.22,42,102.5,94.57,9.73,61.56-74.49,77.06-66.07,138.83,7.85,57.74,101.7,52.82,99.17,111.14-2.29,53.67-111.84,52.61-109.22,106.22,3.13,64.94,112.22,51.87,120,116.28,6.64,54.51-92.26,63.14-91.42,118.13" transform="translate(128.6 90.09)"/><path class="cls-3" d="M772.67,438.17c-1,32.29-97,33.45-95.43,65.68,2.62,53.4,94.59,41.18,103.15,93.79,9.86,60.6-74.49,76.74-65.84,137.55,8.09,56.89,102.5,51.76,99.88,109.29-2.57,56.21-112.92,54.3-110.68,110.51,2.62,65.57,112.22,53.3,119.84,118.39,6.36,54.36-92.58,62.4-92.07,117.23" transform="translate(128.6 90.09)"/><path class="cls-3" d="M773.23,440.39c-.46,31.23-96.18,34.09-94.31,65.26,3.23,53.46,94.92,40.28,103.76,92.94,10,59.65-74.49,76.42-65.6,136.34,8.27,56,103.29,50.7,100.53,107.43-2.81,58.75-114.05,56-112.13,114.8,2.1,66.21,112.22,54.67,119.66,120.41,6.12,54.24-92.91,61.65-92.68,116.33" transform="translate(128.6 90.09)"/><path class="cls-3" d="M773.79,442.51c.1,30.17-95.34,34.77-93.19,64.89C684.49,561,775.85,546.77,785,599.49c10.15,58.69-74.44,76.16-65.37,135.06,8.51,55.21,104,49.6,101.23,105.54-3.08,61.29-115.07,57.74-113.57,119.13,1.63,66.85,112.22,56,119.47,122.47,5.93,54.09-93.24,60.92-93.34,115.49" transform="translate(128.6 90.09)"/><path class="cls-3" d="M774.36,444.52c.65,29.11-94.46,35.62-92,64.57,4.49,53.62,95.58,38.48,105,91.25,10.29,57.74-74.39,75.84-65.08,133.84,8.74,54.36,104.78,48.48,101.88,103.63-3.36,63.88-116.14,59.54-115,123.53,1.17,67.53,112.22,57.43,119.28,124.48,5.7,54-93.57,60.18-93.94,114.59" transform="translate(128.6 90.09)"/><path class="cls-3" d="M774.87,446.53c1.22,28.05-93.47,36.47-90.81,64.41,5.15,53.62,95.86,37.53,105.54,90.35,10.43,56.79-74.35,75.58-64.81,132.63,8.93,53.51,105.54,47.37,102.59,101.72C823.73,902.06,710.2,897,710.9,963.56c.75,68.17,112.22,58.75,119.1,126.44,5.47,53.88-93.89,59.49-94.59,113.69" transform="translate(128.6 90.09)"/><path class="cls-3" d="M775.34,448.39c1.73,27-92.44,37.47-89.55,64.3,5.85,53.67,96.14,36.57,106.15,89.5,10.56,55.89-74.3,75.36-64.58,131.41,9.17,52.66,106.29,46.26,103.25,99.77-3.93,69-118.21,63.19-117.88,132.31.28,68.8,112.22,60,118.86,128.4,5.23,53.72-94.22,58.75-95.2,112.78" transform="translate(128.6 90.09)"/><path class="cls-3" d="M775.76,450.13c2.29,25.94-91.37,38.53-88.24,64.36,6.5,53.72,96.37,35.62,106.66,88.54,10.66,54.94-74.25,75.11-64.29,130.2,9.4,51.82,107,45.09,103.9,97.86-4.21,71.56-119.19,65-119.33,136.76-.14,69.44,112.22,61.34,118.67,130.36,5,53.61-94.54,58-95.85,111.88" transform="translate(128.6 90.09)"/><path class="cls-3" d="M776.18,451.83C779,476.7,686,491.57,689.3,516.34c7.25,53.72,96.6,34.62,107.22,87.59,10.8,54-74.21,74.89-64,129,9.64,51,107.74,43.93,104.56,95.9-4.54,74.09-120.17,67-120.74,141.2-.51,70.08,112.18,62.61,118.44,132.26,4.82,53.46-94.87,57.27-96.46,111" transform="translate(128.6 90.09)"/><path class="cls-3" d="M776.51,453.36c3.41,23.82-89,41-85.43,64.83,7.95,53.72,96.84,33.61,107.73,86.64S724.7,679.51,735.13,732.7c9.81,50.12,108.43,42.71,105.2,93.95-4.81,76.68-121.15,68.8-122.18,145.65-.93,70.65,112.18,63.82,118.25,134.22,4.59,53.34-95.15,56.52-97.07,110.08" transform="translate(128.6 90.09)"/><path class="cls-3" d="M776.79,454.79c4,22.7-87.63,42.45-83.93,65.26,8.69,53.72,97,32.6,108.24,85.68,11,52.14-74,74.52-63.4,126.71,10,49.27,109.13,41.49,105.86,91.93C838.41,903.6,721.42,895.13,720,974.52c-1.31,71.34,112.17,65.1,118,136.12,4.4,53.25-95.48,55.79-97.72,109.19" transform="translate(128.6 90.09)"/><path class="cls-3" d="M779.73,463.1c3.84,21.75-87.72,41.65-84.16,63.51,8.27,50.76,96.55,29.32,107.35,79.44,11,50.92-74,73.78-63.4,124.75C750.18,782,849.64,773.4,846.6,825.85c-4.54,78.91-121.48,70.82-123.12,149.83-1.45,70.77,111.71,65.26,117,135.81,4,53.61-95.9,55.25-98.52,109" transform="translate(128.6 90.09)"/><path class="cls-3" d="M782.73,471.41c3.74,20.8-87.82,40.91-84.36,61.82,7.86,47.79,96.09,26,106.47,73.19,10.94,49.75-74,73-63.45,122.84,11.27,53.09,111.05,43.72,108.34,98.23C845.8,906,728.86,898.31,727.08,977c-1.59,70.24,111.24,65.53,115.92,135.6,3.6,54-96.33,54.67-99.37,108.71" transform="translate(128.6 90.09)"/><path class="cls-3" d="M785.67,479.72c3.6,19.84-87.86,40.17-84.54,60.07,7.44,44.83,95.62,22.7,105.58,66.9,10.9,48.53-74,72.29-63.45,120.93,11.92,54.94,112,44.83,109.6,101.35-3.32,78.17-120.21,70.87-122.18,149.1-1.73,69.75,110.77,65.73,114.89,135.33,3.23,54.35-96.74,54.09-100.2,108.44" transform="translate(128.6 90.09)"/><path class="cls-3" d="M788.62,488c3.46,18.89-88,39.48-84.78,58.43,7,41.81,95.16,19.37,104.65,60.6,10.89,47.37-73.93,71.61-63.45,119,12.53,56.84,112.92,46,110.86,104.52-2.76,77.86-119.61,70.87-121.71,148.78-1.87,69.23,110.26,65.94,113.81,135.06,2.81,54.78-97.16,53.57-101,108.24" transform="translate(128.6 90.09)"/><path class="cls-3" d="M791.56,496.28c3.37,17.89-88,38.8-85,56.79,6.6,38.85,94.69,16,103.71,54.2,10.9,46.15-73.83,70.87-63.45,117.18,13.19,58.74,113.81,47.15,112.08,107.7C856.74,909.63,740,903,737.7,980.5c-2,68.7,109.74,66.16,112.78,134.8,2.43,55.15-97.54,53-101.79,108" transform="translate(128.6 90.09)"/><path class="cls-3" d="M794.51,504.54c3.22,16.94-88,38.21-85.15,55.2,6.17,35.88,94.22,12.49,102.78,47.79,10.89,44.94-73.74,70.24-63.45,115.33,13.84,60.6,114.69,48.32,113.34,110.93-1.69,77.11-118.35,70.87-120.78,148-2.15,68.17,109.23,66.42,111.71,134.59,2,55.52-98,52.45-102.64,107.76" transform="translate(128.6 90.09)"/><path class="cls-3" d="M797.45,512.8c3.09,16-88.14,37.57-85.33,53.61,5.75,32.92,93.8,9,101.84,41.28,10.89,43.77-73.64,69.6-63.4,113.53,14.54,62.5,115.54,49.54,114.55,114.16-1.17,76.74-117.69,70.87-120.26,147.55-2.29,67.64,108.71,66.64,110.63,134.33,1.59,55.89-98.33,51.92-103.43,107.54" transform="translate(128.6 90.09)"/><path class="cls-3" d="M800.4,521c3,15-88.19,37-85.47,52.13,5.33,30,93.33,5.4,100.85,34.77,11,42.56-73.5,69-63.35,111.78C767.67,784,868.81,770.39,868.25,837c-.66,76.37-117,70.87-119.8,147.18C746,1051.37,856.6,1051.1,858,1118.27c1.17,56.31-98.71,51.39-104.23,107.33" transform="translate(128.6 90.09)"/><path class="cls-3" d="M803.35,529.15c2.85,14-88.19,36.57-85.62,50.7,4.91,27,92.86,1.75,99.83,28.11,11,41.33-73.32,68.38-63.31,110,15.94,66.26,117.18,51.92,117,120.56-.19,76-116.39,70.82-119.29,146.77-2.57,66.63,107.64,67.16,108.48,133.84.75,56.69-99.08,50.81-105,107.13" transform="translate(128.6 90.09)"/><path class="cls-3" d="M806.24,537.3c2.76,13.07-88.23,36.2-85.75,49.38,4.49,24,92.35-2,98.8,21.38,11,40.12-73.13,67.85-63.26,108.39,16.64,68.12,118,53.14,118.25,123.8.28,75.63-115.73,70.76-118.82,146.34-2.66,66.15,107.08,67.37,107.41,133.58.33,57-99.46,50.28-105.77,106.91" transform="translate(128.6 90.09)"/><path class="cls-3" d="M809.19,545.4c2.62,12.12-88.23,35.93-85.85,48.11,4.07,21.06,91.88-5.93,97.77,14.55,11.18,38.85-72.89,67.43-63.17,106.75,17.35,70,118.77,54.41,119.47,127.08.75,75.26-115.07,70.71-118.3,145.86-2.8,65.68,106.47,67.64,106.33,133.37-.14,57.43-99.83,49.75-106.56,106.7" transform="translate(128.6 90.09)"/><path class="cls-3" d="M812,553.39c2.48,11.17-88.18,35.83-85.94,47.05,3.65,18,91.37-10.05,96.65,7.52,11.27,37.63-72.62,67-63,105.21,18.1,71.88,119.51,55.63,120.73,130.36C881.62,918.42,766,914.18,762.67,989c-2.95,65.15,105.9,67.9,105.25,133.11-.61,57.79-100.2,49.27-107.31,106.48" transform="translate(128.6 90.09)"/><path class="cls-3" d="M814.94,561.38c2.39,10.16-88.09,35.89-85.94,46.15,3.18,15.09,90.85-14.39,95.48.27,11.46,36.36-72.33,66.68-62.84,103.78,18.79,73.73,120.26,56.9,121.94,133.64,1.59,74.47-113.76,70.6-117.31,145-3.09,64.67,105.3,68.16,104.17,132.89-1,58.22-100.53,48.75-108.1,106.33" transform="translate(128.6 90.09)"/><path class="cls-3" d="M817.79,569.21c2.25,9.21-87.95,36.31-85.89,45.57,2.71,12.12,90.29-19,94.17-7.35,11.69,35-72,66.52-62.66,102.46,19.55,75.58,121,58.17,123.17,136.92,2,74.1-113.07,70.5-116.81,144.54-3.22,64.2,104.7,68.38,103.06,132.68-1.5,58.59-100.91,48.22-108.85,106.12" transform="translate(128.6 90.09)"/><path class="cls-3" d="M820.6,576.94c2.1,8.26-87.72,37.1-85.71,45.41,2.25,9.21,89.59-24.18,92.72-15.35,12,33.72-71.49,66.48-62.33,101.3,20.3,77.43,121.72,59.49,124.38,140.2,2.43,73.73-112.41,70.45-116.29,144.07-3.36,63.72,104.09,68.64,102,132.47-2,59-101.23,47.69-109.6,105.9" transform="translate(128.6 90.09)"/><path class="cls-3" d="M823.31,584.46c2,7.3-87.3,38.74-85.29,46,1.73,6.25,88.75-30.22,91-24.18,12.3,32.33-70.93,66.58-61.95,100.29,21.09,79.28,122.41,60.81,125.59,143.53,2.81,73.31-111.75,70.34-115.77,143.54-3.46,63.24,103.47,68.91,100.86,132.26-2.44,59.33-101.61,47.21-110.35,105.74" transform="translate(128.6 90.09)"/><path class="cls-3" d="M825.79,587.16c2.06,7-86.78,40.17-84.73,47.21,1.78,6,89-30.49,91.18-24.56,3.18,8.73-82.11,50.7-78.65,59.28,9.4,23.18,99.6-15,106,9.42,20.48,78.38-60.13,94.57-56.63,176.24C806.1,928,883.4,931.81,874,1004.37c-1.12,8.89-92.53,4.66-92,13.6,3,54,102.22,53.77,99.41,107.7-3.13,59.76-101.7,47-110.58,106" transform="translate(128.6 90.09)"/><path class="cls-3" d="M828.22,589.8c2.11,6.83-86.22,41.71-84.07,48.54,1.82,5.87,88.56-32.29,90.71-26.63,3.23,8.53-81.69,51.29-78.27,59.7,9.4,23.08,99.22-15.5,105.72,8.84,20.67,77.27-59.57,93.89-55.69,174.5,3.51,73.19,80.89,76.69,71.73,149.25-1.13,8.78-92.68,4.5-92.21,13.34,2.76,53.72,102,53.93,99,107.59-3.32,60.23-101.79,47.21-110.86,106.7" transform="translate(128.6 90.09)"/><path class="cls-3" d="M830.65,592.4c2.15,6.61-85.57,43.24-83.41,49.85,1.87,5.67,88-34.19,90.24-28.68,3.27,8.25-81.22,51.92-77.85,60.17,9.44,23,98.8-16,105.44,8.21,20.9,76.1-59,93.25-54.76,172.8,3.88,73.14,81.27,76.26,72.29,148.83-1.07,8.73-92.81,4.34-92.39,13.12,2.52,53.46,101.74,54.09,98.66,107.49-3.51,60.71-101.94,47.48-111.1,107.44" transform="translate(128.6 90.09)"/><path class="cls-3" d="M833,594.94c2.2,6.4-84.87,44.93-82.67,51.33,1.87,5.46,87.44-36.14,89.68-30.8,3.32,8-80.75,52.61-77.43,60.65C772,699,861,659.61,867.78,683.69c21.09,74.95-58.4,92.62-53.87,171.11,4.26,73.09,81.64,75.84,72.85,148.41-1,8.67-93,4.12-92.58,12.86,2.34,53.24,101.51,54.24,98.33,107.38-3.69,61.18-102,47.74-111.33,108.18" transform="translate(128.6 90.09)"/><path class="cls-3" d="M835.33,597.48c2.24,6.14-84.12,46.73-81.88,52.92,1.92,5.3,86.84-38.21,89-33.08,3.37,7.84-80.23,53.3-77,61.19,9.49,22.75,98-17,104.92,6.88,21.33,73.77-57.79,91.93-52.88,169.41,4.63,73,82.06,75.42,73.41,148-1,8.58-93.09,4-92.77,12.65,2.11,53,101.28,54.41,98,107.33-3.88,61.72-102.17,48-111.61,108.92" transform="translate(128.6 90.09)"/><path class="cls-3" d="M837.62,599.91c2.29,5.93-83.28,48.59-81,54.52,2,5.08,86.13-40.28,88.38-35.31,3.41,7.57-79.68,54-76.45,61.77,9.54,22.65,97.58-17.57,104.64,6.24,21.56,72.67-57.18,91.3-52,167.72,5,72.94,82.44,75,74,147.56-1,8.52-93.24,3.81-93,12.39,1.87,52.76,101.05,54.56,97.59,107.22-4.07,62.19-102.27,48.27-111.85,109.66" transform="translate(128.6 90.09)"/><path class="cls-3" d="M839.91,602.29c2.34,5.72-82.34,50.6-80,56.32,2,4.92,85.34-42.5,87.58-37.74,3.51,7.36-79.11,54.83-75.89,62.35,9.54,22.54,97.17-18.05,104.37,5.55,21.74,71.51-56.58,90.67-51,166,5.38,72.88,82.81,74.57,74.54,147.13-1,8.42-93.38,3.66-93.14,12.12,1.68,52.51,100.81,54.78,97.25,107.13-4.25,62.66-102.4,48.53-112.12,110.4" transform="translate(128.6 90.09)"/><path class="cls-3" d="M842.11,604.68c2.43,5.45-81.27,52.66-78.88,58.16,2,4.71,84.44-44.77,86.69-40.22,3.55,7.09-78.46,55.62-75.33,63,9.58,22.44,96.74-18.58,104.08,4.92,22,70.39-55.92,90-50,164.39,5.8,72.82,83.19,74.15,75.1,146.71-.94,8.36-93.57,3.44-93.33,11.85,1.45,52.24,100.57,54.94,96.88,107-4.44,63.14-102.49,48.8-112.36,111.09" transform="translate(128.6 90.09)"/><path class="cls-3" d="M844.26,607c2.48,5.24-80.14,54.83-77.71,60.07,2.1,4.5,83.46-47.15,85.75-42.76,3.6,6.88-77.8,56.47-74.72,63.62,9.63,22.33,96.32-19.11,103.81,4.23,22.16,69.23-55.27,89.39-49,162.69,6.17,72.72,83.55,73.73,75.65,146.24-.89,8.31-93.7,3.28-93.52,11.64,1.22,52,100.3,55.1,96.51,107-4.67,63.62-102.58,49.07-112.59,111.84" transform="translate(128.6 90.09)"/><path class="cls-3" d="M846.32,609.23c2.52,5-78.88,57.16-76.36,62.18,2.15,4.29,82.39-49.64,84.68-45.46,3.65,6.62-77.11,57.32-74.07,64.36,9.64,22.23,95.86-19.69,103.48,3.54C906.4,762,829.44,782.66,836,855c6.6,72.67,83.93,73.25,76.22,145.76-.89,8.25-93.84,3.07-93.66,11.38,1,51.76,100.07,55.25,96.14,106.85-4.86,64.1-102.73,49.33-112.88,112.58" transform="translate(128.6 90.09)"/><path class="cls-3" d="M848.33,611.45c2.57,4.82-77.48,59.54-74.91,64.36,2.2,4.13,81.17-52.19,83.51-48.17,3.7,6.41-76.36,58.22-73.32,65.1,9.68,22.13,95.39-20.21,103.2,2.81,22.58,67-54,88.17-47.09,159.46,7,72.56,84.31,72.83,76.78,145.34-.84,8.15-94,2.91-93.84,11.11.79,51.5,99.83,55.47,95.81,106.75-5.05,64.57-102.83,49.59-113.11,113.32" transform="translate(128.6 90.09)"/><path class="cls-3" d="M850.29,613.57c2.62,4.55-75.93,62-73.32,66.63,2.25,3.92,79.87-54.83,82.21-51,3.74,6.14-75.52,59.17-72.57,65.89,9.68,22,95-20.79,102.87,2.12,22.77,65.89-53.26,87.59-46.11,157.83,7.39,72.5,84.68,72.35,77.29,144.85-.84,8.1-94.12,2.7-94,10.85.56,51.29,99.55,55.63,95.44,106.7-5.29,65-103,49.86-113.35,114.11" transform="translate(128.6 90.09)"/><path class="cls-3" d="M852.12,615.63c2.66,4.34-74.16,64.68-71.5,69,2.29,3.7,78.37-57.59,80.75-53.94,3.84,5.93-74.67,60.18-71.72,66.69,9.72,21.91,94.45-21.38,102.54,1.38,23,64.78-52.56,87-45.08,156.23,7.81,72.41,85.06,71.93,77.85,144.44-.79,8-94.26,2.54-94.17,10.58.33,51,99.32,55.84,95.06,106.65-5.47,65.47-103.05,50.12-113.62,114.79" transform="translate(128.6 90.09)"/><path class="cls-3" d="M853.89,617.69c2.71,4.13-72.24,67.43-69.53,71.56,2.34,3.55,76.78-60.39,79.16-56.89,3.89,5.66-73.73,61.18-70.88,67.53,9.77,21.8,94-22,102.21.63,23.19,63.67-51.85,86.38-44,154.65,8.23,72.35,85.42,71.45,78.41,144-.75,7.94-94.41,2.33-94.36,10.32.09,50.76,99,56,94.69,106.54-5.66,65.94-103.2,50.38-113.86,115.59" transform="translate(128.6 90.09)"/><path class="cls-3" d="M855.58,619.65c2.75,3.92-70.14,70.24-67.38,74.1,2.38,3.33,74.95-63.3,77.38-60,3.93,5.45-72.75,62.19-69.9,68.43,9.82,21.65,93.47-22.54,101.88-.1,23.38,62.56-51.1,85.79-43.06,153.11,8.7,72.25,85.8,71,78.93,143.48-.75,7.89-94.5,2.12-94.55,10.06-.09,50.54,98.76,56.21,94.31,106.49-5.89,66.42-103.29,50.65-114.09,116.33" transform="translate(128.6 90.09)"/><path class="cls-3" d="M857.07,621.61c9.21,12-65,67.64-58.87,81.93,35.4,82,138.78,45.36,152.34,135.33,12,79.6-103.19,85.74-107.54,166.35-2.71,50.17,98.42,59.22,93.84,109.23-6.08,66.9-103.43,50.92-114.37,117.08" transform="translate(128.6 90.09)"/><g class="cls-34"><path class="cls-3" d="M762.81,826.54c4.77,23-85.15,41.86-82.35,65.31,10.29,85.42,97.17,70.76,109.19,155.87,9.35,66.36-77,83.14-66.12,149.19,5.14,31.28,95.43,16.3,98.43,47.9" transform="translate(128.6 90.09)"/></g><g class="cls-14"><path class="cls-3" d="M764.07,832.31c5.33,25.3-84.21,44.4-81.08,70.18,10.19,83.51,96.88,68.91,108.48,152.16,8.84,63.67-77.67,80.23-67.33,143.64,5,30.8,95.38,16,98.28,47.16" transform="translate(128.6 90.09)"/></g><g class="cls-61"><path class="cls-3" d="M765.28,838.08c5.94,27.57-83.32,46.94-79.86,75,10.1,81.61,96.65,67,107.78,148.46,8.32,61-78.37,77.38-68.55,138.08,4.91,30.33,95.34,15.67,98.19,46.31" transform="translate(128.6 90.09)"/></g><g class="cls-65"><path class="cls-3" d="M766.5,843.9c6.55,29.8-82.44,49.43-78.6,79.81,10,79.71,96.37,65.21,107.08,144.81,7.8,58.27-79.07,74.46-69.81,132.47,4.76,29.9,95.29,15.35,98.05,45.57" transform="translate(128.6 90.09)"/></g><g class="cls-16"><path class="cls-3" d="M767.76,849.72c7.11,32.07-81.54,51.87-77.38,84.58,9.91,77.85,96.13,63.35,106.37,141.15,7.34,55.57-79.77,71.55-71,126.86,4.63,29.43,95.24,15,98,44.78" transform="translate(128.6 90.09)"/></g><g class="cls-66"><path class="cls-3" d="M769,855.6c7.71,34.34-80.66,54.3-76.17,89.33,9.82,76,95.9,61.56,105.67,137.5,6.83,52.88-80.47,68.6-72.29,121.2,4.49,29,95.2,14.77,97.82,44" transform="translate(128.6 90.09)"/></g><g class="cls-62"><path class="cls-3" d="M770.24,861.47c8.32,36.57-79.82,56.74-75,94,9.68,74,95.62,59.75,105,133.85,6.31,50.17-81.17,65.63-73.5,115.53,4.34,28.53,95.15,14.51,97.72,43.3" transform="translate(128.6 90.09)"/></g><g class="cls-18"><path class="cls-3" d="M771.5,867.4c8.89,38.85-79,59.12-73.74,98.76,9.54,72.19,95.39,57.95,104.28,130.25,5.84,47.47-81.88,62.66-74.77,109.87,4.21,28.1,95.11,14.24,97.63,42.55" transform="translate(128.6 90.09)"/></g><g class="cls-35"><path class="cls-3" d="M772.77,873.33c9.49,41.07-78.14,61.5-72.53,103.47,9.4,70.28,95.16,56.15,103.57,126.65,5.33,44.72-82.57,59.64-76,104.15,4.07,27.63,95.06,14,97.5,41.87" transform="translate(128.6 90.09)"/></g><g class="cls-64"><path class="cls-3" d="M774,879.25c10.05,43.35-77.29,63.88-71.31,108.18,9.26,68.44,95,54.41,102.87,123.06,4.86,42-83.32,56.57-77.29,98.44,3.93,27.2,95,13.76,97.4,41.17" transform="translate(128.6 90.09)"/></g><g class="cls-20"><path class="cls-3" d="M775.29,885.13C786,930.75,698.79,951.39,705.2,998c9.12,66.52,94.73,52.66,102.21,119.5,4.4,39.33-84.07,53.51-78.5,92.67,3.78,26.73,95,13.55,97.3,40.49" transform="translate(128.6 90.09)"/></g><g class="cls-67"><path class="cls-3" d="M776.55,891.11c11.27,47.84-75.65,68.59-68.87,117.55,9,64.67,94.54,51,101.51,115.9,3.93,36.63-84.82,50.39-79.77,86.85,3.6,26.31,95,13.34,97.16,39.8" transform="translate(128.6 90.09)"/></g><g class="cls-21"><path class="cls-3" d="M777.77,897c11.83,50.12-74.86,71-67.66,122.2,8.79,62.77,94.36,49.28,100.81,112.42,3.46,33.87-85.57,47.2-81,81,3.46,25.83,94.92,13.18,97.07,39.17" transform="translate(128.6 90.09)"/></g><g class="cls-68"><path class="cls-3" d="M779,903c12.44,52.35-74.06,73.31-66.44,126.87,8.65,60.91,94.17,47.58,100.11,108.92,3,31.17-86.32,44-82.3,75,3.28,25.4,94.92,13,97,38.58" transform="translate(128.6 90.09)"/></g><g class="cls-69"><path class="cls-3" d="M780.34,908.94c13,54.62-73.27,75.69-65.27,131.52,8.46,59,94,46,99.4,105.49,2.58,28.47-87.11,40.75-83.55,69.06,3.08,24.93,94.87,12.92,96.88,38" transform="translate(128.6 90.09)"/></g><g class="cls-23"><path class="cls-3" d="M781.6,914.93c13.61,56.89-72.47,78-64.06,136.17,8.28,57.16,93.85,44.35,98.76,102,2.2,25.73-87.91,37.37-84.87,63,2.9,24.51,94.87,12.87,96.79,37.48" transform="translate(128.6 90.09)"/></g><g class="cls-37"><path class="cls-3" d="M782.87,920.85c14.21,59.12-71.73,80.34-62.85,140.78,8.09,55.31,93.75,42.82,98.05,98.66,1.78,23-88.7,33.92-86.12,56.84,2.71,24,94.82,12.86,96.69,37" transform="translate(128.6 90.09)"/></g></g></g></svg>