<?xml version="1.0" encoding="utf-8"?>
<!-- Generator: Adobe Illustrator 23.0.1, SVG Export Plug-In . SVG Version: 6.00 Build 0)  -->
<svg version="1.1" id="Layer_1" xmlns="http://www.w3.org/2000/svg" xmlns:xlink="http://www.w3.org/1999/xlink" x="0px" y="0px"
	 viewBox="0 0 358.357 320" style="enable-background:new 0 0 358.357 320;" xml:space="preserve">
<style type="text/css">
	.st1{fill:#FFFFFF;}
	.st2{fill-rule:evenodd;clip-rule:evenodd;fill:#FFFFFF;}
</style>
<g>
	<g>
		<g>
			<polygon class="st1" points="32.014,210.332 59.43,204.226 59.43,121.956 89.141,121.956 89.141,109.756 0,109.756
				3.042,121.956 32.014,121.956 			"/>
			<path class="st2" d="M179.313,109.773c-6.609,17.425-13.038,35.052-21.34,50.771c-7.237-16.785-13.785-34.27-21.314-50.771
				h-29.298v97.499h15.564v-64.626l28.49,63.585l27.889-62.189v1.311c0.009-0.013,0.009-0.026,0.009-0.043v61.961h27.425v-97.499
				H179.313z"/>
			<path class="st1" d="M358.357,82.254h-36.664C328.216,55.913,331.68,28.355,331.68,0l-22.982,9.194
				c-4.194,148.262-109.722,271.174-249.793,301.937L55.992,320c62.008-12.659,117.614-42.899,161.419-85.29h26.634l35.071-50.294
				l35.039,50.294h44.201l-58.39-76.189L358.357,82.254z"/>
			<path class="st1" d="M269.543,133.941l-18.16-24.185h-30.465l36.318,47.359C261.962,150.141,266.475,141.843,269.543,133.941"/>
		</g>
	</g>
</g>
</svg>
