<svg id="Waveform" xmlns="http://www.w3.org/2000/svg" xmlns:xlink="http://www.w3.org/1999/xlink" width="2523.4" height="2300.8" viewBox="0 0 2523.4 2300.8"><defs><style>.cls-1,.cls-2{fill:none;stroke:#5c0099;stroke-miterlimit:20;}.cls-2{stroke-width:0.7px;}.cls-3{opacity:0.97;}.cls-10,.cls-11,.cls-12,.cls-13,.cls-14,.cls-15,.cls-16,.cls-17,.cls-18,.cls-19,.cls-20,.cls-21,.cls-22,.cls-23,.cls-24,.cls-25,.cls-26,.cls-27,.cls-28,.cls-29,.cls-3,.cls-30,.cls-31,.cls-32,.cls-33,.cls-34,.cls-35,.cls-36,.cls-37,.cls-38,.cls-39,.cls-4,.cls-40,.cls-41,.cls-42,.cls-43,.cls-44,.cls-45,.cls-46,.cls-47,.cls-48,.cls-49,.cls-5,.cls-50,.cls-51,.cls-52,.cls-53,.cls-54,.cls-55,.cls-56,.cls-57,.cls-58,.cls-59,.cls-6,.cls-60,.cls-61,.cls-62,.cls-63,.cls-64,.cls-65,.cls-66,.cls-67,.cls-68,.cls-69,.cls-7,.cls-70,.cls-71,.cls-8,.cls-9{isolation:isolate;}.cls-4{opacity:0.94;}.cls-5{opacity:0.91;}.cls-6{opacity:0.88;}.cls-7{opacity:0.86;}.cls-8{opacity:0.83;}.cls-9{opacity:0.8;}.cls-10{opacity:0.77;}.cls-11{opacity:0.74;}.cls-12{opacity:0.71;}.cls-13{opacity:0.68;}.cls-14{opacity:0.65;}.cls-15{opacity:0.63;}.cls-16,.cls-70{opacity:0.6;}.cls-17{opacity:0.57;}.cls-18{opacity:0.54;}.cls-19{opacity:0.51;}.cls-20{opacity:0.48;}.cls-21,.cls-69{opacity:0.45;}.cls-22{opacity:0.42;}.cls-23{opacity:0.39;}.cls-24{opacity:0.37;}.cls-25{opacity:0.34;}.cls-26{opacity:0.31;}.cls-27{opacity:0.28;}.cls-28{opacity:0.25;}.cls-29{opacity:0.95;}.cls-30{opacity:0.9;}.cls-31{opacity:0.85;}.cls-32{opacity:0.75;}.cls-33{opacity:0.7;}.cls-34{opacity:0.55;}.cls-35{opacity:0.5;}.cls-36{opacity:0.4;}.cls-37{opacity:0.35;}.cls-38{opacity:0.3;}.cls-39{opacity:0.2;}.cls-40{opacity:0.19;}.cls-41{opacity:0.18;}.cls-42{opacity:0.17;}.cls-43{opacity:0.16;}.cls-44{opacity:0.15;}.cls-45{opacity:0.14;}.cls-46{opacity:0.13;}.cls-47{opacity:0.12;}.cls-48{opacity:0.11;}.cls-49{opacity:0.1;}.cls-50{opacity:0.09;}.cls-51{opacity:0.08;}.cls-52{opacity:0.07;}.cls-53{opacity:0.06;}.cls-54{opacity:0.05;}.cls-55{opacity:0.84;}.cls-56{opacity:0.81;}.cls-57{opacity:0.78;}.cls-58{opacity:0.72;}.cls-59{opacity:0.69;}.cls-60{opacity:0.66;}.cls-61{opacity:0.59;}.cls-62{opacity:0.56;}.cls-63{opacity:0.53;}.cls-64{opacity:0.64;}.cls-65{opacity:0.61;}.cls-66{opacity:0.49;}.cls-67{opacity:0.46;}.cls-68{opacity:0.44;}.cls-69{fill:url(#radial-gradient);}.cls-70{fill:url(#radial-gradient-2);}.cls-71{opacity:0.42;fill:url(#linear-gradient);}</style><radialGradient id="radial-gradient" cx="1053.1" cy="-1465.49" r="553.99" gradientTransform="translate(-77.79 1122.77) scale(1.23 0.53)" gradientUnits="userSpaceOnUse"><stop offset="0" stop-color="#6900e9" stop-opacity="0.7"/><stop offset="0.01" stop-color="#6d06eb" stop-opacity="0.67"/><stop offset="0.03" stop-color="#7613f0" stop-opacity="0.61"/><stop offset="0.07" stop-color="#7c1af3" stop-opacity="0.57"/><stop offset="0.16" stop-color="#7d1cf4" stop-opacity="0.56"/><stop offset="0.28" stop-color="#8525f5" stop-opacity="0.47"/><stop offset="0.38" stop-color="#8435f5" stop-opacity="0.38"/><stop offset="0.47" stop-color="#a64bf6" stop-opacity="0.3"/><stop offset="0.56" stop-color="#b467f8" stop-opacity="0.23"/><stop offset="0.64" stop-color="#c68af9" stop-opacity="0.16"/><stop offset="0.72" stop-color="#dab4fb" stop-opacity="0.1"/><stop offset="0.8" stop-color="#f1e3fe" stop-opacity="0.03"/><stop offset="0.84" stop-color="#fff" stop-opacity="0"/></radialGradient><radialGradient id="radial-gradient-2" cx="1906.45" cy="-1523.55" r="477.56" gradientTransform="translate(-759.78 984.85) scale(1.61 0.6)" gradientUnits="userSpaceOnUse"><stop offset="0" stop-color="#8e19f4" stop-opacity="0.7"/><stop offset="0.15" stop-color="#901cf4" stop-opacity="0.58"/><stop offset="0.26" stop-color="#9426f5" stop-opacity="0.49"/><stop offset="0.37" stop-color="#9d37f5" stop-opacity="0.4"/><stop offset="0.47" stop-color="#a94ff7" stop-opacity="0.32"/><stop offset="0.57" stop-color="#b86ef8" stop-opacity="0.24"/><stop offset="0.67" stop-color="#ca94fa" stop-opacity="0.16"/><stop offset="0.76" stop-color="#e0c0fc" stop-opacity="0.09"/><stop offset="0.84" stop-color="#f9f3fe" stop-opacity="0.02"/><stop offset="0.86" stop-color="#fff" stop-opacity="0"/></radialGradient><linearGradient id="linear-gradient" x1="472.56" y1="-181.07" x2="1906.25" y2="-181.07" gradientTransform="translate(1358.33 2294.82) rotate(-90) scale(1.23 0.53)" gradientUnits="userSpaceOnUse"><stop offset="0.09" stop-color="#fff" stop-opacity="0.7"/><stop offset="0.1" stop-color="#f8f4fe" stop-opacity="0.68"/><stop offset="0.12" stop-color="#e6d6fd" stop-opacity="0.64"/><stop offset="0.14" stop-color="#c8a5fb" stop-opacity="0.56"/><stop offset="0.17" stop-color="#a062f7" stop-opacity="0.45"/><stop offset="0.19" stop-color="#8435f5" stop-opacity="0.38"/><stop offset="0.21" stop-color="#822ff5" stop-opacity="0.38"/><stop offset="0.28" stop-color="#7d1cf4" stop-opacity="0.37"/><stop offset="0.36" stop-color="#8525f5" stop-opacity="0.35"/><stop offset="0.43" stop-color="#a64bf6" stop-opacity="0.3"/><stop offset="0.49" stop-color="#b467f8" stop-opacity="0.23"/><stop offset="0.58" stop-color="#c68af9" stop-opacity="0.16"/><stop offset="0.66" stop-color="#dab4fb" stop-opacity="0.1"/><stop offset="0.72" stop-color="#f1e3fe" stop-opacity="0.03"/><stop offset="0.81" stop-color="#fff" stop-opacity="0"/></linearGradient></defs><g id="Waveform2"><path class="cls-1" d="M71,585.33c367.5-80.9,395.3,81.2,768.8,35.2,110-13.6,109.8-170,219.5-153.9,94.4,13.9,48.9,169.9,136.9,206.8,98.1,41.1,184.2-103.3,267-36.5"/><path class="cls-1" d="M70.89,599.23c370.5-81.8,399,81.6,775.4,33.2,107-13.7,105.9-171.9,212.7-157,95.4,13.3,52,171.6,141.5,207,95.7,37.8,179.2-109.6,260.8-47"/><path class="cls-1" d="M70.89,613.13c373.6-82.8,402.7,81.9,782,31.3,103.9-14,101.9-173.8,205.9-160.2,96.4,12.6,55.1,173.3,146.3,207.1,93.2,34.5,174-116,254.3-57.4"/><path class="cls-1" d="M70.79,627c376.6-83.7,406.5,82.3,788.6,29.3,100.9-14,98-175.7,199.2-163.3,97.5,11.9,58.3,175.1,151.1,207.2,90.7,31.4,168.5-122.4,247.5-67.9"/><path class="cls-1" d="M70.69,640.93c379.6-84.6,410.2,82.7,795.1,27.4,98-14.1,94-177.6,192.4-166.4s61.6,177,155.9,207.3c88.3,28.3,162.7-128.8,240.5-78.4"/><path class="cls-1" d="M70.69,654.83c382.6-85.5,414,83.2,801.7,25.4,95-14.1,90.1-179.5,185.6-169.5,99.5,10.4,65,178.9,160.9,207.3,85.8,25.4,156.7-135.2,233.3-88.9"/><path class="cls-1" d="M70.59,668.73c385.6-86.5,417.7,83.6,808.3,23.5,92-14.2,86-181.5,178.7-172.6,100.5,9.6,68.5,180.8,165.9,207.3,83.3,22.6,150.4-141.6,225.7-99.4"/><path class="cls-1" d="M70.49,682.63c388.6-87.4,421.5,84.1,814.9,21.5,89.1-14.2,82-183.5,171.9-175.7,101.5,8.8,72,182.8,171,207.2,80.9,19.9,143.7-147.9,217.8-109.9"/><path class="cls-1" d="M70.49,696.53c391.6-88.3,425.3,84.6,821.5,19.5,86.2-14.2,78-185.6,165-178.8,102.5,7.9,75.7,184.9,176.1,207.1,78.5,17.4,136.7-154.3,209.6-120.3"/><path class="cls-1" d="M70.39,710.43c394.6-89.3,429.1,85.1,828,17.6,83.2-14.1,73.9-187.6,158.1-181.9,103.6,7,79.5,186.9,181.4,206.9,76.1,14.9,129.4-160.5,201-130.6"/><path class="cls-1" d="M70.39,724.33C468,634.13,503.29,810,905,739.93c80.4-14,69.8-189.7,151.2-185,104.6,6.1,83.4,189,186.6,206.7,73.8,12.6,121.6-166.7,192-140.9"/><path class="cls-1" d="M70.29,738.23c400.7-91.1,436.7,86.2,841.2,13.6,77.5-13.9,65.7-191.9,144.3-188.1,105.6,5.1,87.4,191.2,192,206.4,71.7,10.5,113.5-172.7,182.6-151"/><path class="cls-1" d="M70.29,738.23c400.7-91.1,436.7,86.2,841.2,13.6,77.5-13.9,65.7-191.9,144.3-188.1,105.6,5.1,87.4,191.2,192,206.4,71.7,10.5,113.5-172.7,182.6-151"/><path class="cls-1" d="M70.29,753c400.7-91.1,437.2,87.3,841.4,13.6,77.4-14.1,64.7-193.9,143.3-190.7,105.6,4.3,91,195.2,196.1,206.9,70.4,7.8,102.2-181.3,171.3-165.6"/><path class="cls-1" d="M70.29,767.73C471,676.63,508,856,912,781.23c77.3-14.3,63.8-196,142.3-193.3,105.6,3.6,94.8,199.2,200.2,207.2,69.6,5.3,90.5-189.2,159.6-179.6"/><path class="cls-2" d="M915.29,591c-49.6,2.9-61.4-196.7-111-193.8"/><path class="cls-2" d="M913.89,592.13c-53.2,4.1-68.4-195.4-121.6-191.3"/><path class="cls-2" d="M912.19,593.13c-56.9,5.2-75-194-131.9-188.8"/><path class="cls-2" d="M910.29,594.13c-60.6,6.3-81.2-192.6-141.8-186.4"/><path class="cls-2" d="M908.29,595.23c-64.2,7.4-87.1-191.3-151.4-183.9"/><path class="cls-2" d="M906.09,596.23c-67.9,8.5-92.8-189.9-160.7-181.4"/><path class="cls-2" d="M903.89,597.23c-71.6,9.6-98.2-188.6-169.8-179"/><path class="cls-2" d="M901.49,598.33c-75.3,10.7-103.5-187.2-178.8-176.5"/><path class="cls-2" d="M899.09,599.33c-78.9,11.9-108.7-185.9-187.6-174.1"/><path class="cls-2" d="M896.59,600.43c-82.6,13-113.6-184.6-196.2-171.6"/><path class="cls-2" d="M894,601.43c-86.3,14.1-118.5-183.3-204.8-169.2"/><path class="cls-2" d="M891.49,602.53c-90,15.2-123.3-182-213.3-166.8"/><path class="cls-2" d="M888.79,603.63c-93.6,16.3-128-180.7-221.6-164.4"/><path class="cls-2" d="M886.09,604.63c-97.3,17.4-132.6-179.4-229.9-162"/><path class="cls-2" d="M883.39,605.73c-101,18.5-137.1-178.2-238.1-159.6"/><path class="cls-2" d="M880.59,606.83c-104.7,19.7-141.6-176.9-246.2-157.2"/><path class="cls-2" d="M877.89,607.93c-108.3,20.8-146-175.6-254.3-154.9"/><path class="cls-2" d="M875.09,608.93c-112,21.9-150.4-174.4-262.4-152.5"/><path class="cls-2" d="M872.29,610c-115.7,23-154.7-173.2-270.4-150.1"/><path class="cls-2" d="M869.39,611.13c-119.4,24.1-159-171.9-278.3-147.8"/><path class="cls-2" d="M866.49,612.23c-123,25.2-163.2-170.7-286.2-145.5"/><path class="cls-2" d="M863.69,613.33c-126.7,26.3-167.4-169.5-294.1-143.1"/><path class="cls-2" d="M860.79,614.43c-130.4,27.5-171.6-168.2-302-140.8"/><path class="cls-2" d="M857.89,615.53c-134,28.6-175.8-167-309.8-138.4"/><path class="cls-2" d="M854.89,616.63c-137.7,29.7-179.9-165.8-317.6-136.1"/><path class="cls-2" d="M852,617.73c-141.4,30.8-184-164.6-325.3-133.8"/><path class="cls-2" d="M849,618.83c-145.1,31.9-188-163.4-333.1-131.5"/><path class="cls-2" d="M832.39,594.63c-102.7,23.2-146.7-171.9-249.4-148.7"/><g class="cls-3"><path class="cls-2" d="M821.89,598c-100.2,22.6-144.2-172.5-244.4-149.8"/></g><g class="cls-4"><path class="cls-2" d="M811.29,601.43c-97.7,22.1-141.7-173-239.4-151"/></g><g class="cls-5"><path class="cls-2" d="M800.79,604.83c-95.2,21.5-139.2-173.6-234.4-152.1"/></g><g class="cls-6"><path class="cls-2" d="M790.29,608.23c-92.7,20.9-136.7-174.2-229.4-153.3"/></g><g class="cls-7"><path class="cls-2" d="M779.79,611.53c-90.2,20.4-134.2-174.8-224.5-154.4"/></g><g class="cls-8"><path class="cls-2" d="M769.29,614.93c-87.8,19.8-131.7-175.3-219.5-155.5"/></g><g class="cls-9"><path class="cls-2" d="M758.79,618.33c-85.3,19.2-129.2-175.9-214.5-156.7"/></g><g class="cls-10"><path class="cls-2" d="M748.29,621.73c-82.8,18.6-126.7-176.5-209.5-157.8"/></g><g class="cls-11"><path class="cls-2" d="M737.79,625.13c-80.3,18.1-124.2-177.1-204.5-159"/></g><g class="cls-12"><path class="cls-2" d="M727.29,628.53c-77.8,17.5-121.7-177.6-199.5-160.1"/></g><g class="cls-13"><path class="cls-2" d="M716.79,631.93c-75.3,16.9-119.2-178.2-194.5-161.3"/></g><g class="cls-14"><path class="cls-2" d="M706.29,635.23c-72.8,16.4-116.7-178.8-189.5-162.4"/></g><g class="cls-15"><path class="cls-2" d="M695.79,638.63c-70.4,15.8-114.2-179.4-184.5-163.6"/></g><g class="cls-16"><path class="cls-2" d="M685.29,642c-67.9,15.2-111.6-179.9-179.5-164.7"/></g><g class="cls-17"><path class="cls-2" d="M674.69,645.43c-65.4,14.7-109.1-180.5-174.5-165.9"/></g><g class="cls-18"><path class="cls-2" d="M664.19,648.83c-62.9,14.1-106.6-181.1-169.5-167"/></g><g class="cls-19"><path class="cls-2" d="M653.69,652.23c-60.4,13.5-104.1-181.7-164.5-168.2"/></g><g class="cls-20"><path class="cls-2" d="M643.19,655.63c-58,12.9-101.5-182.3-159.5-169.3"/></g><g class="cls-21"><path class="cls-2" d="M632.69,658.93c-55.5,12.4-99-182.8-154.5-170.5"/></g><g class="cls-22"><path class="cls-2" d="M622.09,662.33c-53,11.8-96.5-183.4-149.5-171.6"/></g><g class="cls-23"><path class="cls-2" d="M611.59,665.73c-50.5,11.2-93.9-184-144.4-172.8"/></g><g class="cls-24"><path class="cls-2" d="M601.09,669.13c-48,10.7-91.4-184.6-139.4-173.9"/></g><g class="cls-25"><path class="cls-2" d="M590.49,672.53c-45.5,10.1-88.8-185.2-134.3-175.1"/></g><g class="cls-26"><path class="cls-2" d="M580,675.93c-43.1,9.5-86.2-185.8-129.3-176.2"/></g><g class="cls-27"><path class="cls-2" d="M569.49,679.33c-40.6,9-83.7-186.3-124.3-177.4"/></g><g class="cls-28"><path class="cls-2" d="M558.89,682.73c-38.1,8.4-81.1-186.9-119.2-178.6"/></g><path class="cls-2" d="M847.49,423.23c108.6,22.1,73,225.1,182.6,241.2,94.4,13.9,117.8-190.8,212.9-183"/><path class="cls-2" d="M850.59,422c106.1,21.5,70.3,223.7,177.4,239.9,95.3,14.4,120.3-189.4,216.3-180.3"/><path class="cls-2" d="M853.59,420.83c103.6,20.8,67.7,222.3,172.2,238.5,96.3,14.9,122.8-188,219.6-177.7"/><path class="cls-2" d="M856.59,419.73c101.1,20.2,65.1,221,166.9,237.2,97.2,15.5,125.2-186.6,223-175.1"/><path class="cls-2" d="M859.59,418.53c98.6,19.5,62.5,219.6,161.7,235.9,98.2,16.1,127.6-185.1,226.3-172.4"/><path class="cls-2" d="M862.59,417.33c96.2,18.9,59.9,218.3,156.5,234.5,99.2,16.6,130-183.7,229.6-169.7"/><path class="cls-2" d="M865.59,416.13c93.7,18.2,57.2,217,151.3,233.2,100.2,17.2,132.4-182.2,232.9-167.1"/><path class="cls-2" d="M868.49,414.93c91.2,17.6,54.6,215.7,146.1,231.8,101.2,17.9,134.8-180.8,236.2-164.4"/><path class="cls-2" d="M871.49,413.73c88.7,16.9,52,214.4,140.9,230.5,102.2,18.5,137.1-179.3,239.4-161.7"/><path class="cls-2" d="M874.39,412.53c86.2,16.3,49.4,213.1,135.7,229.1,103.2,19.1,139.5-177.8,242.7-158.9"/><path class="cls-2" d="M877.39,411.33c83.8,15.6,46.8,211.9,130.5,227.8,104.2,19.8,141.8-176.3,245.9-156.2"/><path class="cls-2" d="M880.29,410.23c81.3,15,44.2,210.6,125.3,226.4,105.2,20.5,144.1-174.8,249.1-153.5"/><path class="cls-2" d="M883.19,409c78.8,14.3,41.6,209.4,120.1,225.1,106.2,21.2,146.4-173.3,252.3-150.8"/><path class="cls-2" d="M886.09,407.83c76.3,13.7,39,208.2,114.9,223.7,107.3,21.9,148.6-171.8,255.5-148"/><path class="cls-2" d="M889,406.63c73.8,13,36.4,207,109.8,222.4,108.3,22.7,150.9-170.3,258.7-145.3"/><path class="cls-2" d="M891.89,405.43c71.3,12.4,33.8,205.9,104.6,221,109.3,23.4,153.1-168.7,261.8-142.5"/><path class="cls-2" d="M894.69,404.23c68.9,11.7,31.3,204.7,99.5,219.7,110.3,24.2,155.4-167.2,264.9-139.7"/><path class="cls-2" d="M897.49,402.93c66.4,11.1,28.7,203.6,94.4,218.3,111.4,25,157.6-165.7,268.1-137"/><path class="cls-2" d="M900.29,401.73c63.9,10.4,26.2,202.5,89.3,217,112.4,25.9,159.8-164.1,271.2-134.2"/><path class="cls-2" d="M903.09,400.53c61.4,9.8,23.7,201.4,84.2,215.6,113.4,26.7,162-162.5,274.3-131.4"/><path class="cls-2" d="M905.79,399.33c58.9,9.1,21.2,200.3,79.1,214.3,114.5,27.6,164.1-161,277.4-128.6"/><path class="cls-2" d="M908.49,398.13c56.4,8.5,18.7,199.2,74.1,212.9,115.5,28.5,166.3-159.4,280.5-125.8"/><path class="cls-2" d="M911.09,396.83c54,7.8,16.3,198.2,69.2,211.5,116.5,29.4,168.5-157.8,283.5-123"/><path class="cls-2" d="M913.69,395.63c51.5,7.1,13.9,197.2,64.2,210.2,117.6,30.4,170.7-156.2,286.6-120.2"/><path class="cls-2" d="M916.29,394.43c49,6.5,11.5,196.2,59.3,208.8,118.6,31.3,172.8-154.7,289.7-117.4"/><path class="cls-2" d="M918.69,393.13c46.5,5.8,9.2,195.2,54.5,207.4,119.6,32.3,174.9-153.1,292.7-114.5"/><path class="cls-2" d="M921.09,391.93c44,5.2,7,194.3,49.7,206.1,120.6,33.3,177.1-151.4,295.7-111.7"/><path class="cls-2" d="M57.49,413c238,0,240.1,205,478,200,138.7-2.9,130.6-207.8,269.1-215.8"/><g class="cls-29"><path class="cls-2" d="M69.09,415.73c234.3-.4,237.1,205.1,471.3,199.2,136.5-3.4,127.2-208.7,263.4-217.6"/></g><g class="cls-30"><path class="cls-2" d="M80.69,418.43c230.6-.8,234,205.1,464.6,198.3,134.3-3.9,123.7-209.6,257.7-219.4"/></g><g class="cls-31"><path class="cls-2" d="M92.29,421.23c227-1.2,231,205.1,457.9,197.5,132.1-4.4,120.2-210.4,251.9-221.3"/></g><g class="cls-9"><path class="cls-2" d="M103.89,423.93c223.3-1.6,228,205.2,451.2,196.7,130-4.9,116.7-211.3,246.2-223.1"/></g><g class="cls-32"><path class="cls-2" d="M115.49,426.63c219.7-2,225,205.2,444.5,195.9,127.8-5.4,113.1-212.1,240.3-224.9"/></g><g class="cls-33"><path class="cls-2" d="M127.09,429.33c216-2.4,222.1,205.2,437.9,195.1,125.6-5.9,109.4-213,234.5-226.7"/></g><g class="cls-14"><path class="cls-2" d="M138.69,432c212.3-2.8,219.1,205.3,431.2,194.2,123.5-6.4,105.8-213.8,228.6-228.4"/></g><g class="cls-16"><path class="cls-2" d="M150.19,434.73c208.7-3.2,216.3,205.3,424.6,193.4,121.4-6.9,102-214.6,222.6-230.2"/></g><g class="cls-34"><path class="cls-2" d="M161.79,437.43c205-3.6,213.4,205.3,418.1,192.6,119.2-7.4,98.3-215.4,216.6-231.9"/></g><g class="cls-35"><path class="cls-2" d="M173.39,440.13c201.4-4,210.6,205.3,411.5,191.7,117.1-7.9,94.4-216.1,210.5-233.6"/></g><g class="cls-21"><path class="cls-2" d="M185,442.83c197.7-4.4,207.8,205.3,405,190.9,115-8.4,90.5-216.9,204.4-235.3"/></g><g class="cls-36"><path class="cls-2" d="M196.49,445.63c194.1-4.8,205,205.3,398.5,190,112.9-8.9,86.6-217.6,198.2-237"/></g><g class="cls-37"><path class="cls-2" d="M208,448.33c190.4-5.2,202.3,205.3,392.1,189.1,110.8-9.5,82.6-218.3,192-238.6"/></g><g class="cls-38"><path class="cls-2" d="M219.59,451c186.8-5.6,199.6,205.3,385.6,188.3,108.8-10,78.5-219,185.6-240.3"/></g><g class="cls-28"><path class="cls-2" d="M231.09,453.73c183.1-6,196.9,205.3,379.2,187.4,106.7-10.5,74.4-219.6,179.3-241.8"/></g><g class="cls-39"><path class="cls-2" d="M242.59,456.43c179.4-6.4,194.3,205.3,372.9,186.5,104.7-11,70.2-220.2,172.8-243.4"/></g><g class="cls-39"><path class="cls-2" d="M608.59,643.43c-179.4,6.4-186.6-193.4-366-187"/></g><g class="cls-40"><path class="cls-2" d="M600.79,647c-179.7,8.6-189.3-191.2-369-182.6"/></g><g class="cls-41"><path class="cls-2" d="M593,650.63c-180,10.7-191.9-188.9-372-178.2"/></g><g class="cls-42"><path class="cls-2" d="M585.19,654.23c-180.4,12.8-194.5-186.7-374.9-173.8"/></g><g class="cls-43"><path class="cls-2" d="M577.29,657.73c-180.7,15-197.2-184.4-377.9-169.4"/></g><g class="cls-44"><path class="cls-2" d="M569.49,661.33c-181,17.1-199.8-182-380.8-164.9"/></g><g class="cls-45"><path class="cls-2" d="M561.69,664.83C380.39,684,359.29,485.23,178,504.43"/></g><g class="cls-46"><path class="cls-2" d="M553.79,668.33c-181.6,21.4-205-177.3-386.6-155.9"/></g><g class="cls-46"><path class="cls-2" d="M545.89,671.83C364,695.33,338.39,497,156.49,520.53"/></g><g class="cls-47"><path class="cls-2" d="M538.09,675.33c-182.2,25.6-210.1-172.4-392.3-146.8"/></g><g class="cls-48"><path class="cls-2" d="M530.19,678.83c-182.5,27.8-212.6-170-395.1-142.2"/></g><g class="cls-49"><path class="cls-2" d="M522.29,682.33c-182.8,29.9-215.1-167.5-397.9-137.6"/></g><g class="cls-50"><path class="cls-2" d="M514.39,685.73c-183.1,32-217.6-165-400.7-132.9"/></g><g class="cls-51"><path class="cls-2" d="M506.49,689.23C323,723.43,286.39,526.83,103,560.93"/></g><g class="cls-52"><path class="cls-2" d="M498.59,692.63c-183.8,36.3-222.5-159.9-406.3-123.6"/></g><g class="cls-53"><path class="cls-2" d="M490.69,696c-184.1,38.4-225-157.3-409-118.9"/></g><g class="cls-54"><path class="cls-2" d="M482.69,699.43c-184.4,40.6-227.4-154.8-411.8-114.2"/></g><path class="cls-2" d="M520.79,413.83c118-14.9,143.2,183.5,261.2,168.5"/><path class="cls-2" d="M528.19,413.43c118.9-14.5,143.1,184,262.1,169.5"/><path class="cls-2" d="M535.59,412.93c119.8-14.1,143.1,184.6,262.9,170.5"/><path class="cls-2" d="M543.09,412.53c120.7-13.6,143.1,185.1,263.8,171.5"/><path class="cls-2" d="M550.49,412.13c121.6-13.2,143.1,185.7,264.8,172.5"/><path class="cls-2" d="M557.79,411.73c122.5-12.7,143.2,186.2,265.7,173.5"/><path class="cls-2" d="M565.19,411.23c123.4-12.3,143.2,186.7,266.6,174.4"/><path class="cls-2" d="M572.59,410.83c124.3-11.8,143.3,187.3,267.5,175.4"/><path class="cls-2" d="M580,410.43c125.2-11.4,143.3,187.8,268.5,176.4"/><path class="cls-2" d="M587.39,410c126.1-11,143.4,188.3,269.5,177.3"/><path class="cls-2" d="M594.69,409.53c127-10.5,143.5,188.8,270.4,178.3"/><path class="cls-2" d="M602.09,409.13c127.9-10.1,143.6,189.3,271.5,179.2"/><path class="cls-2" d="M609.39,408.73c128.8-9.6,143.7,189.8,272.5,180.2"/><path class="cls-2" d="M616.79,408.33c129.7-9.2,143.8,190.3,273.5,181.1"/><path class="cls-2" d="M624.09,407.93c130.6-8.7,143.9,190.8,274.5,182.1"/><path class="cls-2" d="M631.49,407.53c131.5-8.3,144.1,191.3,275.5,183"/><path class="cls-2" d="M638.79,407.13c132.4-7.8,144.2,191.8,276.5,183.9"/><path class="cls-2" d="M103.89,377.23c220.3,0,223.4,206.5,443.5,200,91.7-2.7,78.1-208.7,169.4-218"/><g class="cls-3"><path class="cls-2" d="M101,379.43c221.4,0,224.5,206.7,445.8,200,93.4-2.9,79.5-209.1,172.5-218.7"/></g><g class="cls-4"><path class="cls-2" d="M98.09,381.73c222.5,0,225.8,207,448.1,200,95.1-3,80.9-209.4,175.5-219.4"/></g><g class="cls-5"><path class="cls-2" d="M95.19,383.93c223.6,0,226.9,207.2,450.4,199.9,96.8-3.1,82.3-209.7,178.6-220.1"/></g><g class="cls-6"><path class="cls-2" d="M92.29,386.23c224.7,0,228.1,207.4,452.7,199.9,98.5-3.3,83.8-210,181.7-220.7"/></g><g class="cls-55"><path class="cls-2" d="M89.39,388.43c225.8,0,229.3,207.6,455,199.9,100.2-3.4,85.2-210.4,184.8-221.4"/></g><g class="cls-56"><path class="cls-2" d="M86.49,390.63c226.9,0,230.5,207.8,457.3,199.9,101.9-3.5,86.6-210.7,187.9-222.1"/></g><g class="cls-57"><path class="cls-2" d="M83.59,392.93c228,0,231.7,208,459.6,199.9,103.6-3.7,88.1-211.1,191-222.8"/></g><g class="cls-32"><path class="cls-2" d="M80.69,395.13c229.1,0,232.9,208.2,461.9,199.9,105.3-3.8,89.5-211.4,194.1-223.5"/></g><g class="cls-58"><path class="cls-2" d="M77.79,397.43c230.2,0,234.1,208.5,464.2,199.9,107-4,91-211.7,197.3-224.2"/></g><g class="cls-59"><path class="cls-2" d="M74.89,399.63c231.3,0,235.3,208.7,466.4,199.9,108.7-4.1,92.4-212.1,200.4-224.9"/></g><g class="cls-60"><path class="cls-2" d="M72,401.83c232.4,0,236.5,208.9,468.7,199.9,110.4-4.3,93.9-212.4,203.5-225.6"/></g><g class="cls-15"><path class="cls-2" d="M69.09,404.13c233.5,0,237.6,209.1,471,199.9,112.1-4.4,95.3-212.7,206.7-226.3"/></g><g class="cls-61"><path class="cls-2" d="M66.19,406.33c234.7,0,238.8,209.3,473.3,199.9,113.8-4.5,96.8-213.1,209.8-226.9"/></g><g class="cls-62"><path class="cls-2" d="M63.19,408.63c235.8,0,240,209.5,475.6,199.9,115.5-4.7,98.3-213.4,213-227.6"/></g><g class="cls-63"><path class="cls-2" d="M60.39,410.83c236.9,0,241.2,209.7,477.8,199.9,117.2-4.8,99.8-213.7,216.1-228.3"/></g><g class="cls-35"><path class="cls-2" d="M57.49,413c238,0,242.4,209.9,480.1,199.9,118.9-5,101.3-214.1,219.3-229"/></g><path class="cls-2" d="M681.09,369.83c41.3-21.3,133,156.4,174.3,135.1,53.4-27.6-33.3-212.7,22-236.1,69.1-29.2,109.2,145,184.1,142.2,124-4.6,144.8-190.8,265.4-161.6,75.5,18.2,24.7,238.8,100.9,253.9,89.1,17.7,113.5-195.1,204.3-192.2"/><g class="cls-3"><path class="cls-2" d="M688,369.23c43.1-19.7,128.3,162.1,171,141.7,54.6-26.1-28.1-214.4,28.2-236.8,70.3-28.1,108.4,148.1,184.1,145.8,123.5-3.7,143.2-189.5,263.7-162.2,76.9,17.5,31.1,236.2,108.7,249.9,87.8,15.5,108.6-196.6,197.8-194.7"/></g><g class="cls-4"><path class="cls-2" d="M694.79,369c44.9-18.1,123.6,167.5,167.8,147.8,55.7-24.7-22.8-215.9,34.2-237.4,71.5-27,107.6,151,184,149.2,123-2.9,141.7-188.3,262-162.7,78.5,16.7,37.4,233.5,116.7,245.8,86.4,13.4,103.7-198,191.2-197.2"/></g><g class="cls-5"><path class="cls-2" d="M701.49,369c46.7-16.6,119,172.5,164.8,153.6,56.8-23.3-17.6-217.2,40.3-237.8,72.7-25.9,106.7,154,183.9,152.7,122.5-2.1,140.1-187.1,260.3-163.3,80.2,15.9,43.6,230.8,124.6,241.6,85,11.4,98.7-199.3,184.5-199.6"/></g><g class="cls-6"><path class="cls-2" d="M708.09,369.23c48.5-15,114.5,177.1,161.9,159.1,57.9-22-12.5-218.5,46.2-238.1,73.9-24.8,105.9,156.9,183.9,156.1,122-1.3,138.6-185.8,258.7-163.7,81.9,15.1,49.7,228.1,132.5,237.4,83.5,9.4,93.7-200.6,177.8-201.9"/></g><g class="cls-55"><path class="cls-2" d="M714.49,369.73c50.3-13.4,110.1,181.4,159.2,164.3,58.9-20.6-7.5-219.5,52.1-238.3,75.2-23.7,105.1,159.7,183.9,159.4,121.5-.5,137.2-184.6,257-164.2,83.8,14.3,55.8,225.4,140.4,233.1,82,7.5,88.6-201.9,171-204.2"/></g><g class="cls-56"><path class="cls-2" d="M720.79,370.33c52.1-11.8,105.9,185.4,156.7,169.1,59.9-19.2-2.5-220.5,57.9-238.3,76.4-22.5,104.2,162.5,183.9,162.7,121,.3,135.8-183.4,255.3-164.6,85.7,13.4,61.8,222.6,148.3,228.8,80.5,5.7,83.5-203,164.2-206.4"/></g><g class="cls-57"><path class="cls-2" d="M726.89,371.13c53.9-10.2,101.9,189.2,154.5,173.8,60.9-17.8,2.5-221.3,63.6-238.2,77.7-21.4,103.4,165.2,183.9,165.9,120.5,1.1,134.4-182.2,253.7-165,87.7,12.6,67.7,219.9,156.2,224.3,79,3.9,78.3-204.2,157.3-208.6"/></g><g class="cls-32"><path class="cls-2" d="M732.89,372.13c55.6-8.6,98,192.7,152.4,178.2,61.8-16.5,7.3-222,69.3-238,78.9-20.3,102.5,167.9,184,169.1,120,1.8,133.1-181,252.1-165.4,89.8,11.7,73.5,217.2,164,219.9,77.4,2.3,73.1-205.2,150.4-210.7"/></g><g class="cls-58"><path class="cls-2" d="M738.69,373.23c57.4-7.1,94.4,195.9,150.6,182.3,62.7-15.2,12.1-222.6,74.8-237.6,80.2-19.2,101.7,170.5,184.1,172.3,119.5,2.6,131.8-179.8,250.5-165.8,91.9,10.8,79.3,214.5,171.8,215.3,75.9.7,67.8-206.2,143.4-212.7"/></g><g class="cls-59"><path class="cls-2" d="M744.29,374.43c59.2-5.5,90.9,199,149,186.3,63.6-13.9,16.8-223.1,80.3-237.2,81.4-18.1,100.8,173.1,184.2,175.4,118.9,3.3,130.5-178.6,248.8-166.2,94.1,9.9,85,211.8,179.6,210.7,74.3-.9,62.5-207.1,136.4-214.6"/></g><g class="cls-60"><path class="cls-2" d="M749.79,375.73c61-3.9,87.6,201.9,147.6,190.2,64.5-12.6,21.4-223.5,85.7-236.6,82.7-16.9,100,175.7,184.4,178.5,118.4,4,129.3-177.4,247.2-166.5,96.3,8.9,90.7,209.1,187.4,206.1,72.7-2.3,57.1-207.9,129.3-216.5"/></g><g class="cls-15"><path class="cls-2" d="M755.19,377.13c62.8-2.3,84.5,204.6,146.4,193.8,65.3-11.3,25.9-223.7,91-236,84-15.8,99.2,178.2,184.6,181.6,117.9,4.7,128.1-176.2,245.6-166.8,98.7,7.9,96.3,206.5,195.1,201.3,71.1-3.7,51.7-208.6,122.2-218.3"/></g><g class="cls-61"><path class="cls-2" d="M760.39,378.63c64.6-.7,81.5,207.2,145.4,197.4,66.1-10.1,30.3-223.9,96.2-235.3,85.3-14.7,98.4,180.6,184.9,184.6,117.3,5.4,126.9-175,244.1-167.1,101,6.9,101.8,203.8,202.8,196.6,69.5-5,46.2-209.3,115-220"/></g><g class="cls-62"><path class="cls-2" d="M765.39,380.13c66.4.9,78.8,209.6,144.6,200.8,66.9-8.9,34.7-224.1,101.3-234.5,86.6-13.5,97.6,183,185.1,187.6,116.9,6.2,125.9-173.8,242.6-167.3,103.4,5.8,107.3,201.2,210.4,191.8,67.9-6.2,40.7-209.9,107.8-221.7"/></g><g class="cls-63"><path class="cls-2" d="M770.39,381.73c68.2,2.4,76.2,211.9,144.1,204.2,67.7-7.7,38.9-224.1,106.4-233.6,87.9-12.4,96.8,185.4,185.4,190.5,116.2,6.8,124.5-172.8,240.9-167.6,105.8,4.7,112.8,198.6,218.1,186.9,66.3-7.4,35.1-210.4,100.5-223.2"/></g><g class="cls-35"><path class="cls-2" d="M775.19,383.33c70,4,73.8,214,143.6,207.5,68.4-6.5,43.1-224.1,111.3-232.6,89.2-11.2,96,187.7,185.7,193.5,115.7,7.5,123.5-171.7,239.4-167.8,108.3,3.6,118.2,196,225.7,182,64.7-8.5,29.4-210.8,93.1-224.7"/></g><path class="cls-2" d="M884.79,394.33c66.6-16.9,102.2,170.9,170.3,162.3,89.2-11.2,83.9-210.3,173.6-204.5,115.7,7.5,104,227.8,219.9,231.7,107.8,3.6,98.5-202,205.5-216,65.1-8.5,71.8,168.5,137.4,171.1,104.6,3.9,113.5-167.7,217.8-158.7,95.1,8.2,90.5,196,185.9,192.5"/><path class="cls-2" d="M891.59,394.63c64.9-15.6,98.1,173,164.4,165.4,89.5-10.2,85.9-209.5,175.7-203.2,114.1,8,101.2,227.7,215.5,232.2,106.4,4.2,97.5-199.9,203-214.1,69.4-9.4,77.3,165.5,147.4,167.2,105.7,2.6,112.7-167.8,218.1-159.3,94.9,7.6,91.4,195.4,186.5,191.3"/><path class="cls-2" d="M898.39,395c63.2-14.2,94,175.1,158.4,168.6,89.7-9.1,87.9-208.6,177.9-201.8,112.5,8.5,98.4,227.6,211.1,232.8,104.9,4.8,96.5-197.8,200.6-212.2,73.8-10.2,82.7,162.5,157.2,163.3,106.8,1.2,112-168.1,218.5-160.1,94.6,7.1,92.3,194.8,187,190"/><path class="cls-2" d="M905.39,395.33c61.5-12.9,89.7,177.3,152.3,171.7,90-8,90-207.7,180-200.4,111,9.1,95.5,227.5,206.7,233.3,103.5,5.4,95.6-195.7,198.2-210.3,78.1-11.1,88.1,159.5,166.9,159.4,107.8-.1,111.4-168.3,218.9-160.8,94.3,6.6,93.1,194.2,187.6,188.8"/><path class="cls-2" d="M912.49,395.63c59.8-11.5,85.3,179.4,146,174.8,90.3-6.8,92.1-206.9,182.3-199,109.4,9.6,92.6,227.4,202.2,233.9,102.1,6,94.6-193.6,195.8-208.3,82.4-12,93.3,156.6,176.6,155.5,108.8-1.5,110.8-168.6,219.4-161.6,94.1,6.1,94,193.6,188.1,187.5"/><path class="cls-2" d="M919.69,396c58-10.2,80.7,181.6,139.6,178,90.5-5.6,94.2-206,184.5-197.5,107.8,10.1,89.7,227.3,197.8,234.4,100.7,6.6,93.7-191.6,193.5-206.4,86.7-12.9,98.5,153.8,186.1,151.5,109.9-2.8,110.3-168.9,220-162.3,93.8,5.5,94.9,192.8,188.6,186.2"/><path class="cls-2" d="M927,396.33c56.3-8.8,76,183.8,133,181,90.8-4.4,96.4-205.1,186.8-196.1,106.2,10.6,86.8,227.2,193.3,235,99.2,7.2,92.8-189.5,191.2-204.5,91-13.8,103.5,151,195.6,147.6,110.9-4,109.9-169.1,220.7-163,93.6,5.1,95.7,192.3,189.2,185"/><path class="cls-2" d="M934.39,396.73c54.6-7.5,71.2,186,126.3,184.1,91-3.2,98.6-204.2,189.1-194.6,104.6,11,83.9,227,188.8,235.4,97.8,7.8,91.9-187.5,188.9-202.5,95.4-14.8,108.6,148.1,205.1,143.6,111.9-5.2,109.5-169.3,221.4-163.7,93.3,4.6,96.6,191.6,189.7,183.7"/><path class="cls-2" d="M942,397.13c52.9-6.1,66.1,188.2,119.4,187.1,91.3-1.9,100.8-203.2,191.5-193.1,103.1,11.5,80.9,226.9,184.2,236,96.4,8.4,91-185.4,186.6-200.6,99.8-15.8,113.6,145.4,214.5,139.7,112.9-6.4,109.2-169.4,222.2-164.4,93.1,4.2,97.5,191,190.3,182.4"/><path class="cls-2" d="M949.69,397.53c51.2-4.8,60.9,190.4,112.3,190,91.5-.6,103.1-202.3,193.9-191.6,101.5,12,77.9,226.8,179.7,236.5,95,9,90.2-183.4,184.4-198.6,104.1-16.8,118.6,142.6,223.8,135.7,113.9-7.5,109-169.6,223.1-165.1,92.8,3.7,98.3,190.3,190.8,181.1"/><path class="cls-2" d="M957.59,397.93c49.5-3.4,55.4,192.5,105,192.9,91.7.8,105.4-201.3,196.4-190,99.9,12.4,74.9,226.6,175.1,236.9,93.5,9.6,89.4-181.4,182.2-196.6,108.5-17.8,123.5,139.9,233.1,131.7,114.9-8.6,108.8-169.8,223.9-165.7,92.6,3.2,99.2,189.6,191.3,179.8"/><path class="cls-2" d="M965.69,398.43c47.8-2.1,49.7,194.6,97.5,195.8,91.9,2.2,107.7-200.4,198.9-188.4,98.2,12.9,71.8,226.4,170.3,237.4,92.1,10.2,88.5-179.4,180-194.6,112.8-18.9,128.4,137.2,242.3,127.7,115.9-9.7,108.6-169.9,224.8-166.4,92.4,2.8,100.1,188.9,191.9,178.5"/><path class="cls-2" d="M973.89,399c46.1-.7,43.7,196.7,89.8,198.5,92.1,3.6,110.1-199.4,201.4-186.8,96.7,13.3,68.8,226.2,165.8,237.8,90.7,10.9,87.7-177.4,177.8-192.6,117.1-19.9,133.2,134.6,251.5,123.7,116.8-10.7,108.5-170,225.8-167.1,92.1,2.4,100.9,188.3,192.4,177.3"/><path class="cls-2" d="M982.39,399.73c44.4.6,37.5,198.7,81.8,201.1,92.2,5,112.6-198.4,204-185.2,95.2,13.7,65.7,226.1,161.1,238.3,89.3,11.5,87-175.4,175.8-190.7,121.4-20.9,137.8,132,260.5,119.8,117.8-11.7,108.4-170.1,226.8-167.7,91.9,1.9,101.8,187.5,193,175.9"/><path class="cls-2" d="M991.09,400.43c42.7,2,31,200.6,73.5,203.6,92.3,6.5,115-197.3,206.6-183.5,93.7,14.2,62.6,225.9,156.4,238.7,87.9,12.1,86.2-173.4,173.7-188.7,125.8-22,142.7,129.3,269.7,115.8,118.8-12.6,108.4-170.2,227.8-168.3,91.7,1.4,102.7,186.8,193.5,174.6"/><path class="cls-2" d="M1000.09,401.33c40.9,3.4,24.1,202.4,65,206,92.5,8.1,117.5-196.3,209.2-181.8,92,14.6,59.4,225.6,151.6,239.1,86.6,12.6,85.5-171.4,171.7-186.7,130.2-23.1,147.4,126.7,278.8,111.8,119.8-13.6,108.4-170.3,228.9-169,91.4,1,103.5,186.1,194.1,173.2"/><path class="cls-2" d="M1009.39,402.33c39.2,4.7,16.9,204.1,56.2,208.2,92.6,9.6,120.1-195.2,211.9-180,90.5,14.9,56.2,225.4,146.8,239.5,85.1,13.2,84.7-169.5,169.5-184.7,134.5-24.2,152.1,124.2,287.7,107.8,120.8-14.6,108.5-170.4,230.1-169.6,91.2.6,104.4,185.4,194.6,171.9"/><path class="cls-2" d="M1024.49,407.33c37.6,4.6,14.8,203.9,52.5,207.9,87.5,9.3,115.6-195.5,202.3-180.8,88.4,15,53.1,225.2,141.7,239.5,88.4,14.3,89.4-167.6,177.7-182.6,134-22.8,151.1,125.8,286,109.1,119.8-14.8,106.6-171.4,227.3-171.8,91.8-.3,106.7,184.4,197.4,169.9"/><path class="cls-2" d="M1039.59,412.33c35.9,4.5,12.7,203.8,48.7,207.6,82.3,8.9,111.2-195.8,192.8-181.4,86.4,15.2,50.1,225.1,136.6,239.4,91.8,15.3,94-165.8,185.8-180.6,133.6-21.4,150.1,127.3,284.3,110.4,118.8-15,104.7-172.3,224.4-173.9,92.5-1.1,109.2,183.3,200.3,167.9"/><path class="cls-2" d="M1054.69,417.33c34.2,4.4,10.5,203.6,44.9,207.4,77.2,8.5,106.9-196,183.3-182.1,84.4,15.3,47,224.9,131.5,239.4,95.1,16.3,98.5-164.1,193.9-178.5,133.1-20.2,149.2,128.7,282.7,111.5,117.9-15.2,102.8-173.3,221.6-176,93-2.1,111.4,182.1,203,165.8"/><path class="cls-2" d="M1069.89,422.33c32.6,4.3,8.3,203.5,41,207.1,72.1,8.1,102.6-196.2,173.9-182.8,82.4,15.4,43.8,224.8,126.3,239.4,98.4,17.3,103-162.4,201.9-176.5,132.6-18.8,148.2,130.3,281,112.8,117-15.4,100.9-174.3,218.8-178.1,93.6-3,113.7,181,205.8,163.8"/><path class="cls-2" d="M1085.09,427.33c30.9,4.2,6,203.3,37.1,206.8,67,7.7,98.4-196.3,164.6-183.4,80.4,15.6,40.6,224.7,121.1,239.3,101.6,18.4,107.5-160.7,209.9-174.4,132.1-17.6,147.3,131.8,279.4,114.1,116-15.6,99-175.3,215.9-180.2,94.3-3.9,116.1,179.9,208.6,161.7"/><path class="cls-2" d="M1100.29,432.43c29.3,4.1,3.7,203.1,33,206.5,61.9,7.3,94.3-196.4,155.4-184.1,78.3,15.8,37.3,224.6,115.9,239.2,105,19.5,112-159.1,217.9-172.4,131.6-16.4,146.5,133.3,277.8,115.3,115.1-15.8,97-176.3,213.1-182.2,94.9-4.8,118.3,178.8,211.4,159.7"/><path class="cls-2" d="M1115.59,437.43c27.6,4,1.2,202.9,28.9,206.2,56.8,6.9,90.4-196.4,146.4-184.7,76.3,16.1,34,224.5,110.5,239.1,108.3,20.7,116.4-157.5,225.9-170.2,131-15.2,145.6,134.8,276.2,116.5,114.2-16,95.1-177.3,210.2-184.3,95.5-5.8,120.6,177.6,214.1,157.6"/><path class="cls-2" d="M1131,442.43c26,3.9-1.4,202.6,24.7,205.9,51.7,6.5,86.5-196.4,137.4-185.2,74.2,16.3,30.5,224.4,105.1,239,111.5,21.8,120.8-156,233.8-168.2,130.5-14.1,144.7,136.3,274.7,117.7,113.3-16.2,93.2-178.3,207.4-186.4,96-6.8,122.8,176.5,216.8,155.5"/><path class="cls-2" d="M1146.39,447.53c24.3,3.8-4.1,202.4,20.3,205.5,46.6,6.1,82.9-196.3,128.6-185.7,72.2,16.6,27,224.3,99.6,238.8,114.8,23,125.2-154.4,241.7-166.1,129.9-13,143.9,137.7,273.1,118.9,112.4-16.4,91.3-179.3,204.5-188.4,96.7-7.8,125,175.2,219.5,153.4"/><path class="cls-2" d="M1161.89,452.63c22.7,3.7-7,202.1,15.8,205.2,41.5,5.6,79.4-196.1,120.1-186.2,70.1,17,23.3,224.1,94,238.6,118.1,24.2,129.6-152.9,249.6-164,129.3-12,143.1,139.1,271.6,120,111.5-16.6,89.4-180.3,201.7-190.4,97.2-8.8,127.2,174,222.2,151.2"/><path class="cls-2" d="M1177.39,457.73c21,3.6-10.1,201.7,11,204.7,36.4,5.2,76.3-195.7,111.8-186.6,68,17.4,19.5,224,88.2,238.3,121.4,25.4,133.9-151.4,257.5-161.9,128.9-10.8,142.4,140.7,270.2,121.3,110.7-16.8,87.5-181.3,198.8-192.4,97.9-9.8,129.5,172.8,225,149.1"/><path class="cls-2" d="M1193.19,462.83c19.3,3.5-13.5,201.3,5.9,204.2,31.2,4.8,73.4-195.2,103.9-186.9,65.9,17.9,15.5,223.8,82.3,238,124.7,26.7,138.3-149.9,265.4-159.7,128.2-9.9,141.5,142.1,268.6,122.4,109.8-17,85.5-182.3,196-194.5,98.4-10.8,131.7,171.6,227.6,147"/><path class="cls-2" d="M1209.09,468c17.7,3.4-17.4,200.7.4,203.7,26.1,4.3,71-194.4,96.5-187.1,63.8,18.5,11.3,223.5,76.2,237.6,127.9,27.9,142.5-148.5,273.2-157.6,127.6-8.9,140.8,143.5,267.1,123.6,108.9-17.2,83.6-183.4,193.1-196.5,98.9-11.9,133.8,170.3,230.2,144.8"/><path class="cls-2" d="M1225.19,473.23c16,3.3-21.9,200-5.8,202.9,21,3.8,69.3-193.4,89.7-187,61.6,19.2,6.9,223.1,69.9,237.1,131.2,29.2,146.8-147.1,281-155.5,127-8,140,144.9,265.7,124.7,108-17.4,81.5-184.3,190.1-198.4,99.6-13,136.1,169.1,233,142.6"/><path class="cls-2" d="M1241.49,478.53c14.4,3.2-27.3,199-12.9,202,16,3.3,68.5-191.9,83.9-186.7,59.3,20,2.1,222.6,63.2,236.5,134.5,30.4,151.1-145.7,288.8-153.4,126.4-7,139.3,146.3,264.2,125.8,107.3-17.6,79.7-185.4,187.4-200.5,100.2-13.9,138.3,168,235.6,140.6"/><path class="cls-2" d="M1258.29,483.93c12.7,3.1-34.3,197.5-21.6,200.5,10.9,2.6,69.3-189.7,79.8-185.8,57,20.9-3.1,221.9,56.1,235.6,137.7,31.8,155.3-144.3,296.5-151.2,125.8-6.1,138.6,147.7,262.8,127,106.4-17.8,77.8-186.4,184.5-202.4,100.7-15.1,140.4,166.6,238.3,138.3"/><path class="cls-2" d="M1266.49,489.53c12.3,3.2-38.2,196.7-25.8,200,10.6,2.8,68.9-189.3,79.2-185.7,15.4,5.3-54.5,193.8-39.4,199.8,40.9,16.2,97.7-168.2,140.6-158.6,136.2,30.6,117.9,251.7,257.3,245.7,125.7-5.4,90.3-235.1,211.9-267,14.8-3.9,43.4,196.1,58.6,195.7,92-2.5,74.3-188.7,165.2-203.5,101.4-16.6,142.7,166,241.3,137.3"/><path class="cls-2" d="M1274.69,495.23c11.9,3.4-42.2,195.9-30.2,199.3,10.2,2.9,71.9-188.1,81.9-184.4,15,5.5-56.8,193.4-42,199.3,40.7,16.2,98.7-168.4,141.4-158.5,134.3,31.3,114.3,252.7,252.1,247.7,125.6-4.6,91.3-234.3,213-265.9,14.7-3.8,43.4,195.9,58.6,195.4,91.6-3,73.1-189.1,163.5-204.1,102-17.1,143.8,165.5,243.2,136.4"/><path class="cls-2" d="M1283,500.93c11.6,3.5-46.4,194.9-34.8,198.4,9.9,3,75.2-186.7,84.8-183,14.6,5.6-59.2,192.9-44.6,198.8,40.5,16.3,99.8-168.6,142.2-158.4,132.4,31.9,110.7,253.8,246.8,249.7,125.6-3.8,92.4-233.6,214.1-264.8,14.5-3.7,43.5,195.7,58.5,195.2,91.1-3.4,71.9-189.5,161.8-204.8,102.8-17.4,145,165.2,245.2,135.7"/><path class="cls-2" d="M1291.39,506.73c11.2,3.6-50.8,193.8-39.6,197.4,9.6,3.1,78.5-185.3,87.9-181.5,14.2,5.8-61.6,192.4-47.3,198.2,40.3,16.4,100.8-168.8,143.1-158.3,130.3,32.7,106.9,255,241.3,251.7,125.5-3,93.4-232.9,215.1-263.6,14.4-3.6,43.5,195.6,58.4,194.9,90.7-3.8,70.7-189.8,160.1-205.4,103.7-17.9,146.4,164.7,247.3,134.9"/><path class="cls-2" d="M1299.89,512.63c10.8,3.8-55.4,192.5-44.6,196.3,9.3,3.3,82.1-183.6,91.1-179.7,13.9,5.9-64.1,191.8-50.1,197.5,40.2,16.4,101.9-169,143.9-158.2,128.6,33.2,103.4,255.9,236.1,253.6,125.4-2.2,94.5-232.2,216.2-262.5,14.3-3.6,43.6,195.4,58.3,194.7,90.2-4.2,69.4-190.2,158.4-206,104.5-18.5,147.6,164.2,249.3,134"/><path class="cls-2" d="M1308.49,518.53c10.4,3.9-60.1,191.1-49.7,195,9,3.4,85.7-181.9,94.4-177.9,13.5,6.1-66.7,191.2-53,196.8,40,16.5,103-169.2,144.8-158,126.7,33.9,99.7,256.9,230.8,255.5,125.3-1.4,95.6-231.4,217.3-261.4,14.2-3.5,43.6,195.2,58.2,194.4,89.8-4.7,68.2-190.6,156.7-206.6,105.2-18.9,148.8,163.8,251.3,133.3"/><path class="cls-2" d="M1317.19,524.63c10.1,4.1-65.2,189.4-55.1,193.5,8.6,3.5,89.5-179.9,98-175.9,13.1,6.2-69.3,190.4-55.9,196,39.8,16.6,104.1-169.3,145.7-157.9,124.8,34.5,95.9,258,225.4,257.4,125.3-.5,96.7-230.7,218.4-260.3,14.1-3.4,43.7,195,58.2,194.1,89.3-5.1,66.9-191,154.9-207.2,106-19.3,150,163.4,253.2,132.5"/><path class="cls-2" d="M1326.09,530.83c9.7,4.2-70.4,187.5-60.7,191.7,8.3,3.6,93.6-177.8,101.7-173.7,12.7,6.4-72,189.6-58.9,195.1,39.6,16.7,105.3-169.5,146.6-157.7,122.9,35.1,92.1,259,219.9,259.3,125.2.3,97.8-229.9,219.5-259.1,14-3.4,43.8,194.8,58.1,193.9,88.9-5.5,65.7-191.4,153.2-207.8,106.8-19.9,151.2,162.9,255.3,131.6"/><path class="cls-2" d="M1334.89,537.13c9.3,4.4-75.7,185.4-66.4,189.8,8,3.8,97.7-175.4,105.5-171.3,12.3,6.5-74.8,188.7-62,194.2,39.4,16.8,106.5-169.6,147.5-157.5,121,35.8,88.3,260,214.5,261.2,125.1,1.2,98.9-229.2,220.6-258,13.9-3.3,43.8,194.6,58.1,193.6,88.4-6,64.4-191.8,151.5-208.4,107.7-20.5,152.5,162.3,257.4,130.7"/><path class="cls-2" d="M1343.89,543.53c8.9,4.5-81.3,183-72.3,187.5,7.7,3.9,102.1-172.8,109.6-168.6,11.9,6.7-77.7,187.7-65.1,193.1,39.2,16.8,107.6-169.8,148.4-157.3,119.2,36.4,84.5,261,209,263.1,125,2.1,100-228.4,221.8-256.8,13.8-3.2,43.9,194.4,58,193.3,87.9-6.4,63.2-192.2,149.7-209,108.4-21,153.7,161.9,259.3,129.9"/><path class="cls-2" d="M1353.09,550.13c8.6,4.7-87.1,180.3-78.6,185,7.3,4,106.6-170,113.8-165.7,11.5,6.9-80.6,186.6-68.3,191.9,39,16.9,108.8-169.9,149.4-157.1,117.3,37,80.5,262,203.5,264.9,124.9,3,101.2-227.6,222.9-255.7,13.7-3.1,44,194.1,58,193,87.5-6.8,61.9-192.6,148-209.5,109.2-21.5,154.9,161.4,261.3,129.1"/><path class="cls-2" d="M1362.29,556.83c8.2,4.8-93.1,177.3-84.9,182.1,7,4.1,111.2-166.9,118.1-162.5,11.1,7-83.6,185.4-71.6,190.6,38.8,17,110.1-170,150.4-156.9,115.5,37.7,76.6,263,198,266.7,124.8,3.8,102.3-226.9,224.1-254.5,13.6-3.1,44.1,193.9,57.9,192.8,87-7.3,60.6-193,146.3-210.1,109.9-22,156,161,263.2,128.2"/><path class="cls-2" d="M1371.59,563.83c7.8,5-99.3,173.8-91.5,178.8,6.7,4.3,116.1-163.4,122.7-159,10.7,7.2-86.7,184-75,189.2,38.6,17.1,111.4-170.1,151.4-156.6,113.7,38.3,72.6,264,192.5,268.5,124.7,4.8,103.5-226.1,225.3-253.4,13.5-3,44.1,193.7,57.9,192.5,86.6-7.7,59.4-193.3,144.5-210.7,110.6-22.5,157.2,160.5,265.2,127.4"/><path class="cls-2" d="M1381,570.93c7.4,5.1-105.7,170-98.3,175.1,6.4,4.4,121-159.7,127.3-155.2,10.3,7.3-89.8,182.5-78.3,187.6,38.4,17.1,112.7-170.2,152.4-156.3,111.8,38.9,68.6,264.9,186.9,270.3,124.7,5.8,104.7-225.2,226.5-252.1,13.4-3,44.2,193.5,57.9,192.2,86.1-8.1,58.1-193.7,142.8-211.3,111.4-23,158.4,160.1,267.2,126.6"/><path class="cls-2" d="M1390.49,578.33c7.1,5.3-112.2,165.8-105.1,171.1,6.1,4.5,126.1-155.6,132.1-151,9.9,7.5-93.1,180.9-81.8,185.9,38.2,17.2,114-170.2,153.5-156,110,39.5,64.6,265.9,181.3,272.1,124.5,6.6,105.8-224.5,227.6-251,13.3-2.9,44.3,193.2,57.8,191.9,85.7-8.6,56.8-194.1,141-211.8,112.2-23.7,159.7,159.4,269.2,125.6"/><path class="cls-2" d="M1400,585.93c21.9,17.6-84.1,194.1-58.3,205.1,144.6,61.7,186.6-96.5,343.2-82.3,137.5,12.5,141.1,162.9,277.3,140.3,84.5-14,49.7-193.7,133.5-211.6,113-24,160.9,159.2,271.2,125"/><g class="cls-33"><path class="cls-2" d="M1644.59,312.33c39.9,6.4,18.4,209.2,58.7,211.3,146.6,7.9,160.4-203.8,306.7-192.2,114.3,9.1,94.2,220.7,208.2,233,53.9,5.8,67-198.3,121.1-197.1"/></g><g class="cls-13"><path class="cls-2" d="M1655.59,314.13c43.8,7.2,21.4,210.5,65.7,213,143.3,8,157.1-204.1,300.3-193.1,109.7,8.4,90.1,219.8,199.4,231.4,53,5.6,65.8-198.4,119.2-197.3"/></g><g class="cls-60"><path class="cls-2" d="M1666.49,316c47.7,8.1,24.6,211.9,72.9,214.7,140.1,8.1,153.8-204.4,293.8-194,105,7.7,85.9,218.8,190.7,229.7,52.2,5.4,64.7-198.4,117.2-197.4"/></g><g class="cls-64"><path class="cls-2" d="M1677.29,317.83c51.7,9,27.8,213.2,80.2,216.4,136.9,8.2,150.5-204.6,287.3-194.9,100.3,7.1,81.8,217.9,181.9,228.1,51.4,5.2,63.6-198.5,115.3-197.6"/></g><g class="cls-15"><path class="cls-2" d="M1688,319.53c55.6,9.9,31.1,214.6,87.5,218.1,133.7,8.3,147.1-204.9,280.7-195.8,95.6,6.5,77.8,217,173.2,226.5,50.7,4.9,62.4-198.7,113.3-197.9"/></g><g class="cls-65"><path class="cls-2" d="M1698.69,321.33c59.5,10.8,34.5,215.9,94.8,219.8,130.4,8.4,143.8-205.1,274.2-196.8,91,5.9,73.8,216.1,164.5,224.9,49.9,4.8,61.3-198.7,111.4-198"/></g><g class="cls-61"><path class="cls-2" d="M1709.39,323.13c63.4,11.7,37.8,217.2,102.2,221.5,127.2,8.4,140.3-205.4,267.6-197.7,86.3,5.2,69.8,215.2,155.8,223.2,49.1,4.6,60.1-198.8,109.4-198.1"/></g><g class="cls-17"><path class="cls-2" d="M1720.09,324.93c67.4,12.6,41.2,218.5,109.6,223.2,124,8.5,136.9-205.6,261-198.6,81.6,4.6,65.9,214.2,147.3,221.6,48.3,4.4,58.8-198.9,107.3-198.3"/></g><g class="cls-34"><path class="cls-2" d="M1730.69,326.63c71.3,13.4,44.7,219.8,117,224.9,120.8,8.5,133.4-205.8,254.3-199.5,76.9,4,62,213.3,138.7,219.9,47.5,4.1,57.6-199,105.3-198.5"/></g><g class="cls-63"><path class="cls-2" d="M1741.29,328.43c75.2,14.3,48.1,221.1,124.5,226.6,117.6,8.5,129.9-206,247.7-200.4,72.2,3.4,58.2,212.3,130.3,218.3,46.7,3.9,56.3-199.2,103.2-198.7"/></g><g class="cls-19"><path class="cls-2" d="M1751.79,330.23c79.1,15.2,51.6,222.4,132,228.3,114.3,8.5,126.4-206.2,241-201.3,67.5,2.9,54.5,211.4,121.9,216.7,45.9,3.6,54.9-199.3,101-198.8"/></g><g class="cls-66"><path class="cls-2" d="M1762.39,331.93c83.1,16.1,55.1,223.6,139.5,230.1,111.1,8.5,122.8-206.3,234.2-202.2,62.8,2.3,50.9,210.4,113.6,215.1,45.2,3.4,53.5-199.4,98.8-199"/></g><g class="cls-20"><path class="cls-2" d="M1772.89,333.73c87,17,58.7,224.9,147,231.8,107.9,8.4,119.2-206.5,227.4-203.1,58.1,1.8,47.4,209.4,105.4,213.5,44.4,3.1,52.1-199.5,96.6-199.2"/></g><g class="cls-67"><path class="cls-2" d="M1783.39,335.53c90.9,17.9,62.2,226.1,154.5,233.5,104.7,8.4,115.5-206.6,220.5-204,53.4,1.3,44,208.4,97.4,211.8,43.6,2.8,50.6-199.6,94.3-199.4"/></g><g class="cls-68"><path class="cls-2" d="M1794,337.23c94.8,18.8,65.8,227.4,162.1,235.3,101.5,8.3,111.7-206.7,213.5-204.9,48.7.8,40.7,207.4,89.4,210.2,42.8,2.5,49-199.7,91.9-199.6"/></g><g class="cls-22"><path class="cls-2" d="M1804.49,339c98.8,19.6,69.3,228.6,169.7,237,98.2,8.2,107.8-206.7,206.4-205.8,44,.4,37.6,206.3,81.6,208.6,42,2.2,47.4-199.8,89.5-199.7"/></g><g class="cls-36"><path class="cls-2" d="M1815,340.73c102.7,20.5,72.9,229.8,177.2,238.7,95.1,8.2,103.9-206.7,199.3-206.7,39.4,0,34.7,205.2,74,207,41.2,1.8,45.7-199.9,87-199.9"/></g></g><rect class="cls-69" x="518.77" y="-19.12" width="1393.1" height="719.7"/><rect class="cls-70" x="1400.48" y="-297.78" width="1830.22" height="734.15"/><rect class="cls-71" width="2523.4" height="1760.43"/></svg>