<?xml version="1.0" encoding="utf-8"?>
<!-- Generator: Adobe Illustrator 25.0.1, SVG Export Plug-In . SVG Version: 6.00 Build 0)  -->
<svg version="1.1" id="Waveform" xmlns="http://www.w3.org/2000/svg" xmlns:xlink="http://www.w3.org/1999/xlink" x="0px" y="0px"
	 viewBox="0 0 761 1080" style="enable-background:new 0 0 761 1080;" xml:space="preserve">
<style type="text/css">
	.st0{opacity:0.6;}
	.st1{fill:none;stroke:#5C0099;stroke-width:0.5293;stroke-miterlimit:10.5851;}
	.st2{fill:none;stroke:#5C0099;stroke-width:0.3705;stroke-miterlimit:10.5851;}
	.st3{opacity:0.97;enable-background:new    ;}
	.st4{opacity:0.94;enable-background:new    ;}
	.st5{opacity:0.91;enable-background:new    ;}
	.st6{opacity:0.88;enable-background:new    ;}
	.st7{opacity:0.86;enable-background:new    ;}
	.st8{opacity:0.83;enable-background:new    ;}
	.st9{opacity:0.8;enable-background:new    ;}
	.st10{opacity:0.77;enable-background:new    ;}
	.st11{opacity:0.74;enable-background:new    ;}
	.st12{opacity:0.71;enable-background:new    ;}
	.st13{opacity:0.68;enable-background:new    ;}
	.st14{opacity:0.65;enable-background:new    ;}
	.st15{opacity:0.63;enable-background:new    ;}
	.st16{opacity:0.6;enable-background:new    ;}
	.st17{opacity:0.57;enable-background:new    ;}
	.st18{opacity:0.54;enable-background:new    ;}
	.st19{opacity:0.51;enable-background:new    ;}
	.st20{opacity:0.48;enable-background:new    ;}
	.st21{opacity:0.45;enable-background:new    ;}
	.st22{opacity:0.42;enable-background:new    ;}
	.st23{opacity:0.39;enable-background:new    ;}
	.st24{opacity:0.37;enable-background:new    ;}
	.st25{opacity:0.34;enable-background:new    ;}
	.st26{opacity:0.31;enable-background:new    ;}
	.st27{opacity:0.28;enable-background:new    ;}
	.st28{opacity:0.25;enable-background:new    ;}
	.st29{opacity:0.95;enable-background:new    ;}
	.st30{opacity:0.9;enable-background:new    ;}
	.st31{opacity:0.85;enable-background:new    ;}
	.st32{opacity:0.75;enable-background:new    ;}
	.st33{opacity:0.7;enable-background:new    ;}
	.st34{opacity:0.55;enable-background:new    ;}
	.st35{opacity:0.5;enable-background:new    ;}
	.st36{opacity:0.4;enable-background:new    ;}
	.st37{opacity:0.35;enable-background:new    ;}
	.st38{opacity:0.3;enable-background:new    ;}
	.st39{opacity:0.2;enable-background:new    ;}
	.st40{opacity:0.19;enable-background:new    ;}
	.st41{opacity:0.18;enable-background:new    ;}
	.st42{opacity:0.17;enable-background:new    ;}
	.st43{opacity:0.16;enable-background:new    ;}
	.st44{opacity:0.15;enable-background:new    ;}
	.st45{opacity:0.14;enable-background:new    ;}
	.st46{opacity:0.13;enable-background:new    ;}
	.st47{opacity:0.12;enable-background:new    ;}
	.st48{opacity:0.11;enable-background:new    ;}
	.st49{opacity:0.1;enable-background:new    ;}
	.st50{opacity:9.000000e-02;enable-background:new    ;}
	.st51{opacity:8.000000e-02;enable-background:new    ;}
	.st52{opacity:7.000000e-02;enable-background:new    ;}
	.st53{opacity:6.000000e-02;enable-background:new    ;}
	.st54{opacity:5.000000e-02;enable-background:new    ;}
	.st55{opacity:0.84;enable-background:new    ;}
	.st56{opacity:0.81;enable-background:new    ;}
	.st57{opacity:0.78;enable-background:new    ;}
	.st58{opacity:0.72;enable-background:new    ;}
	.st59{opacity:0.69;enable-background:new    ;}
	.st60{opacity:0.66;enable-background:new    ;}
	.st61{opacity:0.59;enable-background:new    ;}
	.st62{opacity:0.56;enable-background:new    ;}
	.st63{opacity:0.53;enable-background:new    ;}
	.st64{opacity:0.64;enable-background:new    ;}
	.st65{opacity:0.61;enable-background:new    ;}
	.st66{opacity:0.49;enable-background:new    ;}
	.st67{opacity:0.46;enable-background:new    ;}
	.st68{opacity:0.44;enable-background:new    ;}
</style>
<g class="st0">
	<g>
		<g id="Waveform2_7_">
			<g>
				<path class="st1" d="M23,1168.5C-13.1,974,59.3,959.3,38.7,761.7c-6.1-58.2-76-58.1-68.8-116.2c6.2-50,75.9-25.9,92.4-72.5
					c18.4-51.9-46.2-97.5-16.3-141.3"/>
			</g>
			<g>
				<path class="st1" d="M29.3,1168.5C-7.3,972.5,65.7,957.4,44.1,758.2c-6.1-56.6-76.8-56-70.1-112.6c5.9-50.5,76.7-27.5,92.5-74.9
					c16.9-50.6-49-94.8-21-138"/>
			</g>
			<g>
				<path class="st1" d="M35.5,1168.6c-37-197.7,36.6-213.1,14-413.9c-6.3-55-77.7-54-71.6-109c5.6-51,77.4-29.2,92.5-77.4
					c15.4-49.3-51.8-92.1-25.6-134.6"/>
			</g>
			<g>
				<path class="st1" d="M41.7,1168.6C4.3,969.3,78.4,953.5,54.8,751.2c-6.3-53.4-78.5-51.9-73-105.4c5.3-51.6,78.2-30.9,92.6-80
					c14-48-54.7-89.2-30.3-131"/>
			</g>
			<g>
				<path class="st1" d="M47.9,1168.7C10.1,967.7,84.8,951.5,60.1,747.8C53.8,696-19.2,698.1-14.2,646c5-52.1,79.1-32.6,92.6-82.5
					c12.6-46.7-57.5-86.1-35-127.3"/>
			</g>
			<g>
				<path class="st1" d="M54.1,1168.7C15.9,966.2,91.3,949.6,65.4,744.4c-6.3-50.3-80.2-47.7-75.7-98.2
					c4.6-52.7,79.9-34.4,92.6-85.2c11.3-45.4-60.4-82.9-39.7-123.5"/>
			</g>
			<g>
				<path class="st1" d="M60.3,1168.7C21.7,964.6,97.7,947.6,70.8,740.9c-6.3-48.7-81.1-45.5-77.1-94.6
					c4.3-53.2,80.8-36.3,92.6-87.8c10.1-44.1-63.3-79.6-44.5-119.5"/>
			</g>
			<g>
				<path class="st1" d="M66.5,1168.8c-39-205.7,37.6-223.1,9.6-431.3c-6.3-47.2-82-43.4-78.5-91c3.9-53.7,81.7-38.1,92.6-90.5
					c8.9-42.8-66.1-76.1-49.1-115.3"/>
			</g>
			<g>
				<path class="st1" d="M72.7,1168.8C33.3,961.6,110.5,943.7,81.4,734c-6.3-45.6-82.9-41.3-79.9-87.3c3.5-54.2,82.6-40.1,92.5-93.2
					c7.8-41.5-68.9-72.4-53.7-110.9"/>
			</g>
			<g>
				<path class="st1" d="M78.9,1168.8C39,960,117,941.7,86.8,730.6c-6.3-44-83.8-39.1-81.3-83.7c3.1-54.8,83.5-42.1,92.4-96
					c6.7-40.3-71.7-68.5-58.3-106.4"/>
			</g>
			<g>
				<path class="st1" d="M85.2,1168.9c-40.3-210.4,38.3-229.1,7-441.7c-6.3-42.6-84.8-36.9-82.7-80c2.7-55.4,84.4-44.1,92.3-98.8
					c5.6-39.1-74.5-64.4-63-101.6"/>
			</g>
			<g>
				<path class="st1" d="M91.4,1168.9c-40.7-212.1,38.5-231.1,6.1-445.2c-6.2-41-85.7-34.8-84-76.4c2.3-55.9,85.4-46.3,92.2-101.6
					c4.7-37.9-77.2-60.1-67.5-96.6"/>
			</g>
			<g>
				<path class="st1" d="M91.4,1168.9c-40.7-212.1,38.5-231.1,6.1-445.2c-6.2-41-85.7-34.8-84-76.4c2.3-55.9,85.4-46.3,92.2-101.6
					c4.7-37.9-77.2-60.1-67.5-96.6"/>
			</g>
			<g>
				<path class="st1" d="M97.9,1168.9c-40.7-212.1,39-231.4,6.1-445.3c-6.3-41-86.6-34.2-85.2-75.8c1.9-55.9,87.2-48.2,92.4-103.8
					c3.5-37.3-81-54.1-74-90.7"/>
			</g>
			<g>
				<path class="st1" d="M104.5,1168.9c-40.7-212.1,39.5-231.7,6-445.5c-6.4-40.9-87.6-33.8-86.4-75.3c1.6-55.9,89-50.2,92.6-106
					c2.4-36.8-84.5-47.9-80.2-84.5"/>
			</g>
			<g>
				<path class="st2" d="M25.6,721.6c1.3,26.3-87.9,32.5-86.6,58.7"/>
			</g>
			<g>
				<path class="st2" d="M26.1,722.4c1.8,28.2-87.3,36.2-85.5,64.4"/>
			</g>
			<g>
				<path class="st2" d="M26.5,723.3c2.3,30.1-86.7,39.7-84.4,69.8"/>
			</g>
			<g>
				<path class="st2" d="M27,724.3c2.8,32.1-86.1,43-83.3,75"/>
			</g>
			<g>
				<path class="st2" d="M27.4,725.4c3.3,34-85.5,46.1-82.2,80.1"/>
			</g>
			<g>
				<path class="st2" d="M27.9,726.5c3.8,35.9-84.8,49.1-81,85.1"/>
			</g>
			<g>
				<path class="st2" d="M28.4,727.7c4.3,37.9-84.3,52-80,89.9"/>
			</g>
			<g>
				<path class="st2" d="M28.9,728.9c4.8,39.9-83.6,54.8-78.9,94.6"/>
			</g>
			<g>
				<path class="st2" d="M29.3,730.3c5.3,41.8-83.1,57.5-77.8,99.3"/>
			</g>
			<g>
				<path class="st2" d="M29.8,731.6c5.8,43.7-82.5,60.1-76.7,103.8"/>
			</g>
			<g>
				<path class="st2" d="M30.2,732.9c6.3,45.7-81.9,62.7-75.6,108.4"/>
			</g>
			<g>
				<path class="st2" d="M30.7,734.3c6.8,47.6-81.3,65.3-74.5,112.9"/>
			</g>
			<g>
				<path class="st2" d="M31.2,735.7c7.3,49.5-80.7,67.7-73.5,117.3"/>
			</g>
			<g>
				<path class="st2" d="M31.7,737.1c7.8,51.5-80.2,70.2-72.4,121.7"/>
			</g>
			<g>
				<path class="st2" d="M32.2,738.5c8.3,53.5-79.6,72.6-71.3,126"/>
			</g>
			<g>
				<path class="st2" d="M32.7,740c8.8,55.4-79,74.9-70.2,130.3"/>
			</g>
			<g>
				<path class="st2" d="M33.1,741.5c9.3,57.3-78.5,77.3-69.2,134.6"/>
			</g>
			<g>
				<path class="st2" d="M33.6,743c9.8,59.3-77.9,79.6-68.1,138.9"/>
			</g>
			<g>
				<path class="st2" d="M34.1,744.5c10.3,61.2-77.4,81.9-67.1,143.1"/>
			</g>
			<g>
				<path class="st2" d="M34.6,745.9c10.8,63.2-76.8,84.2-66,147.3"/>
			</g>
			<g>
				<path class="st2" d="M35.1,747.5c11.3,65.1-76.3,86.4-65,151.5"/>
			</g>
			<g>
				<path class="st2" d="M35.6,749c11.8,67.1-75.7,88.6-63.9,155.7"/>
			</g>
			<g>
				<path class="st2" d="M36.1,750.5c12.3,69-75.1,90.8-62.9,159.8"/>
			</g>
			<g>
				<path class="st2" d="M36.5,752.1c12.8,70.9-74.6,93-61.8,164"/>
			</g>
			<g>
				<path class="st2" d="M37,753.6c13.3,72.9-74.1,95.2-60.8,168.1"/>
			</g>
			<g>
				<path class="st2" d="M37.5,755.2C51.3,830-36,852.6-22.3,927.4"/>
			</g>
			<g>
				<path class="st2" d="M38,756.7c14.3,76.8-73,99.5-58.8,176.3"/>
			</g>
			<g>
				<path class="st2" d="M27.2,765.6c10.4,54.4-76.8,77.6-66.4,132"/>
			</g>
			<g class="st3">
				<path class="st2" d="M28.7,771.1c10.1,53-77.1,76.3-66.9,129.4"/>
			</g>
			<g class="st4">
				<path class="st2" d="M30.2,776.7c9.9,51.7-77.3,75-67.5,126.7"/>
			</g>
			<g class="st5">
				<path class="st2" d="M31.8,782.2c9.6,50.4-77.6,73.7-68,124.1"/>
			</g>
			<g class="st6">
				<path class="st2" d="M33.2,787.8c9.3,49.1-77.8,72.3-68.5,121.4"/>
			</g>
			<g class="st7">
				<path class="st2" d="M34.8,793.4c9.1,47.7-78.1,71-69,118.8"/>
			</g>
			<g class="st8">
				<path class="st2" d="M36.3,798.9c8.8,46.5-78.3,69.8-69.5,116.2"/>
			</g>
			<g class="st9">
				<path class="st2" d="M37.8,804.5c8.6,45.1-78.6,68.4-70,113.5"/>
			</g>
			<g class="st10">
				<path class="st2" d="M39.3,810c8.3,43.8-78.9,67.1-70.5,110.9"/>
			</g>
			<g class="st11">
				<path class="st2" d="M40.8,815.6c8.1,42.5-79.1,65.7-71,108.2"/>
			</g>
			<g class="st12">
				<path class="st2" d="M42.3,821.1c7.8,41.2-79.3,64.4-71.5,105.6"/>
			</g>
			<g class="st13">
				<path class="st2" d="M43.8,826.8c7.6,39.9-79.6,63.1-72.1,102.9"/>
			</g>
			<g class="st14">
				<path class="st2" d="M45.3,832.3c7.3,38.5-79.9,61.8-72.6,100.3"/>
			</g>
			<g class="st15">
				<path class="st2" d="M46.9,837.9c7.1,37.3-80.2,60.4-73.1,97.6"/>
			</g>
			<g class="st16">
				<path class="st2" d="M48.4,843.4c6.8,35.9-80.4,59.1-73.6,95"/>
			</g>
			<g class="st17">
				<path class="st2" d="M49.9,849c6.6,34.6-80.6,57.7-74.1,92.4"/>
			</g>
			<g class="st18">
				<path class="st2" d="M51.4,854.5c6.3,33.3-80.9,56.4-74.6,89.7"/>
			</g>
			<g class="st19">
				<path class="st2" d="M52.9,860.1c6,32-81.2,55.1-75.1,87.1"/>
			</g>
			<g class="st20">
				<path class="st2" d="M54.4,865.7c5.8,30.7-81.4,53.7-75.6,84.4"/>
			</g>
			<g class="st21">
				<path class="st2" d="M55.9,871.3c5.5,29.4-81.7,52.4-76.2,81.8"/>
			</g>
			<g class="st22">
				<path class="st2" d="M57.5,876.8c5.3,28.1-81.9,51.1-76.7,79.1"/>
			</g>
			<g class="st23">
				<path class="st2" d="M59,882.4c5,26.7-82.2,49.7-77.2,76.4"/>
			</g>
			<g class="st24">
				<path class="st2" d="M60.5,888c4.8,25.4-82.5,48.4-77.7,73.8"/>
			</g>
			<g class="st25">
				<path class="st2" d="M62,893.5c4.5,24.1-82.7,47-78.2,71.1"/>
			</g>
			<g class="st26">
				<path class="st2" d="M63.5,899.1c4.2,22.8-83,45.6-78.7,68.4"/>
			</g>
			<g class="st27">
				<path class="st2" d="M65,904.7c4,21.5-83.2,44.3-79.3,65.8"/>
			</g>
			<g class="st28">
				<path class="st2" d="M66.6,910.3c3.7,20.2-83.5,42.9-79.8,63.1"/>
			</g>
			<g>
				<path class="st2" d="M-49.4,757.5c9.9-57.5,100.6-38.6,107.8-96.6c6.2-50-85.2-62.3-81.8-112.7"/>
			</g>
			<g>
				<path class="st2" d="M-49.9,755.9c9.6-56.2,99.9-37.2,107.2-93.9c6.4-50.4-84.6-63.7-80.6-114.5"/>
			</g>
			<g>
				<path class="st2" d="M-50.4,754.3c9.3-54.8,99.3-35.8,106.6-91.1c6.7-51-84-65-79.4-116.2"/>
			</g>
			<g>
				<path class="st2" d="M-51,752.8c9-53.5,98.7-34.5,106-88.3c6.9-51.4-83.4-66.3-78.2-118"/>
			</g>
			<g>
				<path class="st2" d="M-51.5,751.2c8.7-52.2,98.1-33.1,105.4-85.6c7.2-52-82.7-67.5-77-119.8"/>
			</g>
			<g>
				<path class="st2" d="M-52,749.6c8.4-50.9,97.5-31.7,104.8-82.8c7.4-52.5-82.1-68.8-75.8-121.5"/>
			</g>
			<g>
				<path class="st2" d="M-52.5,748c8.1-49.6,97-30.3,104.2-80.1c7.7-53-81.4-70.1-74.7-123.3"/>
			</g>
			<g>
				<path class="st2" d="M-53.1,746.4c7.9-48.3,96.4-28.9,103.6-77.3c8-53.6-80.8-71.3-73.5-125"/>
			</g>
			<g>
				<path class="st2" d="M-53.6,744.9c7.6-46.9,95.8-27.5,103-74.6c8.3-54.1-80.1-72.6-72.2-126.7"/>
			</g>
			<g>
				<path class="st2" d="M-54.2,743.3c7.3-45.6,95.2-26.1,102.4-71.8c8.5-54.6-79.4-73.8-71-128.5"/>
			</g>
			<g>
				<path class="st2" d="M-54.7,741.8c7-44.4,94.7-24.8,101.8-69.1c8.8-55.1-78.8-75-69.8-130.1"/>
			</g>
			<g>
				<path class="st2" d="M-55.2,740.2c6.7-43,94.1-23.4,101.2-66.3c9.2-55.7-78.1-76.3-68.6-131.8"/>
			</g>
			<g>
				<path class="st2" d="M-55.8,738.6c6.4-41.7,93.6-22,100.6-63.6c9.5-56.2-77.4-77.5-67.4-133.5"/>
			</g>
			<g>
				<path class="st2" d="M-56.3,737.1c6.1-40.4,93-20.6,99.9-60.8c9.8-56.8-76.8-78.6-66.1-135.2"/>
			</g>
			<g>
				<path class="st2" d="M-56.8,735.6c5.8-39.1,92.5-19.3,99.4-58.1c10.1-57.3-76.1-79.9-64.9-136.9"/>
			</g>
			<g>
				<path class="st2" d="M-57.4,734.1c5.5-37.7,92-17.9,98.7-55.4c10.5-57.8-75.4-81-63.7-138.6"/>
			</g>
			<g>
				<path class="st2" d="M-57.9,732.6c5.2-36.5,91.5-16.6,98.2-52.7c10.8-58.4-74.7-82.2-62.4-140.2"/>
			</g>
			<g>
				<path class="st2" d="M-58.4,731.1c5-35.1,91-15.2,97.5-50c11.2-59-74-83.4-61.2-141.9"/>
			</g>
			<g>
				<path class="st2" d="M-59,729.6c4.6-33.8,90.5-13.9,97-47.3c11.6-59.5-73.3-84.6-60-143.5"/>
			</g>
			<g>
				<path class="st2" d="M-59.5,728.2c4.4-32.5,90-12.5,96.3-44.6c11.9-60-72.6-85.7-58.7-145.2"/>
			</g>
			<g>
				<path class="st2" d="M-60.1,726.7c4.1-31.2,89.5-11.2,95.7-41.9C48,624.2-36.2,598-21.8,538"/>
			</g>
			<g>
				<path class="st2" d="M-60.6,725.2c3.8-29.9,89-9.9,95.1-39.2c12.7-61.1-71.2-88-56.2-148.5"/>
			</g>
			<g>
				<path class="st2" d="M-61.2,723.9c3.5-28.6,88.6-8.6,94.5-36.6c13.2-61.7-70.5-89.1-54.9-150"/>
			</g>
			<g>
				<path class="st2" d="M-61.7,722.5c3.2-27.3,88.1-7.4,93.9-34c13.6-62.2-69.8-90.3-53.7-151.7"/>
			</g>
			<g>
				<path class="st2" d="M-62.2,721.2c2.9-25.9,87.7-6.1,93.3-31.4c14-62.8-69.1-91.5-52.5-153.3"/>
			</g>
			<g>
				<path class="st2" d="M-62.8,719.8c2.6-24.6,87.2-4.9,92.7-28.8c14.4-63.3-68.4-92.6-51.2-154.9"/>
			</g>
			<g>
				<path class="st2" d="M-63.4,718.6c2.3-23.3,86.8-3.7,92.1-26.3c14.9-63.8-67.6-93.7-49.9-156.5"/>
			</g>
			<g>
				<path class="st2" d="M-53.9,1175.7c0-126,91.6-127.1,89.4-253c-1.3-73.4-92.8-69.1-96.4-142.4"/>
			</g>
			<g class="st29">
				<path class="st2" d="M-52.7,1169.6c-0.2-124,91.6-125.5,89-249.4c-1.5-72.2-93.2-67.3-97.2-139.4"/>
			</g>
			<g class="st30">
				<path class="st2" d="M-51.5,1163.4c-0.4-122,91.6-123.8,88.6-245.9c-1.7-71.1-93.6-65.5-98-136.4"/>
			</g>
			<g class="st31">
				<path class="st2" d="M-50.3,1157.2c-0.5-120.1,91.6-122.3,88.2-242.3c-2-69.9-94-63.6-98.9-133.3"/>
			</g>
			<g class="st9">
				<path class="st2" d="M-49.1,1151.1c-0.7-118.2,91.7-120.7,87.9-238.8c-2.2-68.8-94.4-61.8-99.7-130.3"/>
			</g>
			<g class="st32">
				<path class="st2" d="M-47.9,1145c-0.9-116.3,91.7-119.1,87.5-235.3c-2.4-67.6-94.8-59.9-100.5-127.2"/>
			</g>
			<g class="st33">
				<path class="st2" d="M-46.6,1138.9c-1.1-114.3,91.7-117.5,87.2-231.8C37.9,840.6-54.6,849.2-60.8,783"/>
			</g>
			<g class="st14">
				<path class="st2" d="M-45.4,1132.7c-1.3-112.4,91.7-116,86.8-228.2c-2.9-65.4-95.5-56-102-121"/>
			</g>
			<g class="st16">
				<path class="st2" d="M-44.2,1126.6c-1.4-110.5,91.7-114.5,86.4-224.7c-3.1-64.3-95.9-54-102.8-117.8"/>
			</g>
			<g class="st34">
				<path class="st2" d="M-43,1120.4c-1.6-108.5,91.7-112.9,86.1-221.3c-3.3-63.1-96.2-52-103.6-114.6"/>
			</g>
			<g class="st35">
				<path class="st2" d="M-41.8,1114.3c-1.8-106.6,91.7-111.5,85.6-217.8c-3.5-62-96.5-50-104.4-111.4"/>
			</g>
			<g class="st21">
				<path class="st2" d="M-40.6,1108.2c-2-104.6,91.7-110,85.3-214.3C40.9,833-52.2,846-60.5,785.7"/>
			</g>
			<g class="st36">
				<path class="st2" d="M-39.4,1102.1c-2.1-102.7,91.7-108.5,84.9-210.9c-4-59.8-97.2-45.8-105.9-104.9"/>
			</g>
			<g class="st37">
				<path class="st2" d="M-38.2,1096c-2.3-100.8,91.7-107.1,84.5-207.5c-4.2-58.6-97.5-43.7-106.6-101.6"/>
			</g>
			<g class="st38">
				<path class="st2" d="M-37,1089.9c-2.5-98.9,91.7-105.6,84.1-204.1c-4.5-57.6-97.8-41.5-107.4-98.2"/>
			</g>
			<g class="st28">
				<path class="st2" d="M-35.7,1083.8C-38.4,986.9,56,979.6,48,883.1c-4.7-56.5-98.1-39.4-108-94.9"/>
			</g>
			<g class="st39">
				<path class="st2" d="M-34.5,1077.7c-2.9-94.9,91.7-102.8,83.3-197.4C43.9,825-49.6,843.2-60,788.9"/>
			</g>
			<g class="st39">
				<path class="st2" d="M49,884c2.9,94.9-86.4,98.8-83.5,193.7"/>
			</g>
			<g class="st40">
				<path class="st2" d="M50.6,888.1c3.8,95.1-85.4,100.2-81.6,195.3"/>
			</g>
			<g class="st41">
				<path class="st2" d="M52.2,892.3c4.8,95.3-84.4,101.6-79.6,196.9"/>
			</g>
			<g class="st42">
				<path class="st2" d="M53.8,896.4c5.7,95.5-83.4,102.9-77.7,198.4"/>
			</g>
			<g class="st43">
				<path class="st2" d="M55.4,900.5c6.7,95.6-82.4,104.4-75.7,200"/>
			</g>
			<g class="st44">
				<path class="st2" d="M57,904.7c7.6,95.8-81.3,105.7-73.7,201.5"/>
			</g>
			<g class="st45">
				<path class="st2" d="M58.6,908.8c8.6,96-80.3,107.1-71.7,203.1"/>
			</g>
			<g class="st46">
				<path class="st2" d="M60.1,913c9.6,96.1-79.2,108.5-69.7,204.6"/>
			</g>
			<g class="st46">
				<path class="st2" d="M61.7,917.1c10.5,96.3-78.1,109.8-67.6,206.1"/>
			</g>
			<g class="st47">
				<path class="st2" d="M63.3,921.3c11.4,96.4-77,111.2-65.6,207.6"/>
			</g>
			<g class="st48">
				<path class="st2" d="M64.8,925.5c12.4,96.6-76,112.5-63.5,209.1"/>
			</g>
			<g class="st49">
				<path class="st2" d="M66.3,929.6c13.4,96.7-74.8,113.8-61.5,210.6"/>
			</g>
			<g class="st50">
				<path class="st2" d="M67.9,933.8c14.3,96.9-73.7,115.2-59.4,212.1"/>
			</g>
			<g class="st51">
				<path class="st2" d="M69.5,938c15.3,97.1-72.6,116.5-57.3,213.6"/>
			</g>
			<g class="st52">
				<path class="st2" d="M71,942.2c16.2,97.3-71.4,117.8-55.2,215"/>
			</g>
			<g class="st53">
				<path class="st2" d="M72.5,946.4c17.2,97.4-70.3,119.1-53.1,216.5"/>
			</g>
			<g class="st54">
				<path class="st2" d="M74,950.6c18.1,97.6-69.2,120.4-51,217.9"/>
			</g>
			<g>
				<path class="st2" d="M-53.6,930.4c-6.7-62.5,82-75.8,75.3-138.2"/>
			</g>
			<g>
				<path class="st2" d="M-53.8,926.5c-6.5-62.9,82.2-75.7,75.7-138.7"/>
			</g>
			<g>
				<path class="st2" d="M-54,922.6c-6.3-63.4,82.5-75.7,76.2-139.1"/>
			</g>
			<g>
				<path class="st2" d="M-54.2,918.7c-6.1-63.9,82.7-75.7,76.6-139.6"/>
			</g>
			<g>
				<path class="st2" d="M-54.3,914.8c-5.9-64.4,83-75.7,77.1-140.1"/>
			</g>
			<g>
				<path class="st2" d="M-54.6,910.8C-60.2,846,28.6,835.1,23,770.2"/>
			</g>
			<g>
				<path class="st2" d="M-54.7,906.9c-5.5-65.3,83.4-75.8,77.9-141.1"/>
			</g>
			<g>
				<path class="st2" d="M-54.9,903c-5.3-65.8,83.7-75.8,78.4-141.6"/>
			</g>
			<g>
				<path class="st2" d="M-55.1,899.2c-5.1-66.3,83.9-75.8,78.8-142.1"/>
			</g>
			<g>
				<path class="st2" d="M-55.3,895.2c-4.9-66.7,84.1-75.9,79.2-142.6"/>
			</g>
			<g>
				<path class="st2" d="M-55.5,891.3c-4.7-67.2,84.4-75.9,79.7-143.1"/>
			</g>
			<g>
				<path class="st2" d="M-55.7,887.5c-4.5-67.7,84.6-76,80.1-143.7"/>
			</g>
			<g>
				<path class="st2" d="M-55.9,883.5c-4.3-68.2,84.8-76.1,80.5-144.2"/>
			</g>
			<g>
				<path class="st2" d="M-56,879.7c-4.1-68.6,85-76.1,80.9-144.8"/>
			</g>
			<g>
				<path class="st2" d="M-56.2,875.8c-3.9-69.1,85.2-76.2,81.4-145.3"/>
			</g>
			<g>
				<path class="st2" d="M-56.4,871.9c-3.7-69.6,85.5-76.3,81.8-145.8"/>
			</g>
			<g>
				<path class="st2" d="M-56.6,868c-3.5-70.1,85.7-76.3,82.2-146.3"/>
			</g>
			<g>
				<path class="st2" d="M-69.9,1151.1c0-116.6,92.3-118.2,89.4-234.7C18.2,867.8-73.8,875-78,826.7"/>
			</g>
			<g class="st3">
				<path class="st2" d="M-68.9,1152.6c0-117.2,92.3-118.8,89.4-235.9c-1.3-49.4-93.4-42.1-97.7-91.3"/>
			</g>
			<g class="st4">
				<path class="st2" d="M-67.9,1154.1c0-117.8,92.5-119.5,89.4-237.2c-1.3-50.3-93.6-42.8-98-92.9"/>
			</g>
			<g class="st5">
				<path class="st2" d="M-66.9,1155.7c0-118.3,92.6-120.1,89.3-238.4C21,866.1-71.3,873.7-76,822.8"/>
			</g>
			<g class="st6">
				<path class="st2" d="M-66,1157.2c0-118.9,92.7-120.7,89.3-239.6c-1.5-52.1-93.8-44.4-98.6-96.2"/>
			</g>
			<g class="st55">
				<path class="st2" d="M-64.9,1158.8c0-119.5,92.8-121.4,89.3-240.8c-1.5-53-94-45.1-98.9-97.8"/>
			</g>
			<g class="st56">
				<path class="st2" d="M-63.9,1160.3c0-120.1,92.8-122,89.3-242c-1.6-53.9-94.1-45.8-99.2-99.4"/>
			</g>
			<g class="st57">
				<path class="st2" d="M-62.9,1161.9c0-120.7,92.9-122.6,89.3-243.2c-1.7-54.8-94.3-46.6-99.5-101.1"/>
			</g>
			<g class="st32">
				<path class="st2" d="M-61.9,1163.4c0-121.3,93-123.3,89.3-244.5c-1.7-55.7-94.4-47.4-99.9-102.7"/>
			</g>
			<g class="st58">
				<path class="st2" d="M-60.9,1164.9c0-121.8,93.2-123.9,89.3-245.7c-1.8-56.6-94.6-48.2-100.2-104.4"/>
			</g>
			<g class="st59">
				<path class="st2" d="M-59.9,1166.5c0-122.4,93.2-124.5,89.3-246.8c-1.8-57.5-94.8-48.9-100.5-106.1"/>
			</g>
			<g class="st60">
				<path class="st2" d="M-58.9,1168c0-123,93.3-125.2,89.3-248.1c-1.9-58.4-94.9-49.7-100.8-107.7"/>
			</g>
			<g class="st15">
				<path class="st2" d="M-57.9,1169.6c0-123.6,93.4-125.8,89.3-249.3c-2-59.3-95-50.4-101.1-109.4"/>
			</g>
			<g class="st61">
				<path class="st2" d="M-56.9,1171.1c0-124.2,93.5-126.4,89.3-250.5c-2-60.2-95.2-51.2-101.4-111"/>
			</g>
			<g class="st62">
				<path class="st2" d="M-55.9,1172.6c0-124.8,93.6-127,89.3-251.7c-2.1-61.1-95.3-52-101.7-112.7"/>
			</g>
			<g class="st63">
				<path class="st2" d="M-54.9,1174.2c0-125.4,93.7-127.7,89.3-252.9c-2.1-62-95.5-52.8-102-114.4"/>
			</g>
			<g class="st35">
				<path class="st2" d="M-53.9,1175.7c0-126,93.8-128.3,89.3-254.1C33.1,858.7-60.3,868-66.9,805.5"/>
			</g>
			<g>
				<path class="st2" d="M-73.2,845.6c-9.5-21.9,69.9-70.4,60.4-92.2c-12.3-28.3-95,17.6-105.5-11.6c-13-36.6,64.8-57.8,63.5-97.4
					c-2.1-65.6-85.2-76.6-72.2-140.5c8.1-39.9,106.7-13.1,113.4-53.3c7.9-47.2-87.2-60.1-85.9-108.1"/>
			</g>
			<g class="st3">
				<path class="st2" d="M-73.5,842c-8.8-22.8,72.4-67.9,63.3-90.5c-11.7-28.9-95.8,14.9-105.8-14.9c-12.6-37.2,66.2-57.4,65.1-97.4
					c-1.7-65.4-84.7-75.8-72.5-139.6c7.8-40.7,105.5-16.4,111.6-57.5c6.9-46.5-87.8-57.5-87-104.7"/>
			</g>
			<g class="st4">
				<path class="st2" d="M-73.6,838.3c-8.1-23.8,74.8-65.4,66-88.8c-11-29.5-96.5,12.1-106.1-18.1c-12.1-37.8,67.5-56.9,66.7-97.4
					c-1.3-65.1-84.1-75-72.7-138.7c7.5-41.5,104.3-19.8,109.8-61.7c6-45.7-88.5-54.9-88.1-101.2"/>
			</g>
			<g class="st5">
				<path class="st2" d="M-73.6,834.8c-7.4-24.7,77.1-63,68.6-87.2c-10.4-30.1-97,9.3-106.2-21.3c-11.6-38.5,68.8-56.5,68.2-97.3
					c-0.9-64.8-83.6-74.1-72.9-137.8c7.1-42.4,103.1-23.1,107.9-65.9c5.1-45-89-52.2-89.2-97.6"/>
			</g>
			<g class="st6">
				<path class="st2" d="M-73.5,831.4c-6.7-25.7,79.1-60.6,71.1-85.7c-9.8-30.6-97.6,6.6-106.4-24.5c-11.1-39.1,70.1-56,69.7-97.3
					c-0.6-64.6-83-73.4-73.1-136.9c6.7-43.3,101.9-26.3,106.1-70.1c4.2-44.2-89.6-49.6-90.2-94.1"/>
			</g>
			<g class="st55">
				<path class="st2" d="M-73.3,828c-6-26.6,81-58.3,73.4-84.3c-9.2-31.2-98.1,4-106.5-27.6c-10.6-39.8,71.4-55.6,71.2-97.3
					c-0.2-64.3-82.5-72.6-73.4-136c6.4-44.4,100.7-29.5,104.1-74.3c3.4-43.4-90.2-46.9-91.2-90.5"/>
			</g>
			<g class="st56">
				<path class="st2" d="M-73,824.6c-5.3-27.6,82.8-56,75.6-83C-6,709.9-96,743-103.9,711c-10.1-40.4,72.6-55.1,72.7-97.3
					c0.1-64-81.9-71.9-73.5-135.1c6-45.4,99.5-32.7,102.2-78.5c2.5-42.6-90.7-44.2-92.2-86.9"/>
			</g>
			<g class="st57">
				<path class="st2" d="M-72.7,821.4c-4.6-28.5,84.5-53.9,77.7-81.8c-8-32.2-98.9-1.3-106.4-33.7c-9.6-41.1,73.8-54.7,74.1-97.3
					c0.5-63.8-81.4-71.1-73.7-134.3c5.6-46.4,98.2-35.8,100.2-82.6C0.9,349.9-92,350.3-94,308.5"/>
			</g>
			<g class="st32">
				<path class="st2" d="M-72.2,818.2c-3.8-29.4,86.1-51.9,79.6-80.7c-7.4-32.7-99.2-3.9-106.3-36.7c-9.1-41.8,75-54.2,75.6-97.4
					c0.8-63.5-80.9-70.4-73.9-133.4c5.2-47.5,97-38.9,98.2-86.8c1-41-91.7-38.7-94.1-79.6"/>
			</g>
			<g class="st58">
				<path class="st2" d="M-71.7,815.2c-3.2-30.4,87.5-50,81.4-79.7c-6.8-33.2-99.5-6.4-106.2-39.6c-8.6-42.5,76.2-53.9,77-97.5
					c1.2-63.2-80.3-69.8-74.1-132.5c4.8-48.6,95.8-42,96.2-90.9C3,334.8-89.5,339-92.4,299"/>
			</g>
			<g class="st59">
				<path class="st2" d="M-71.2,812.1c-2.5-31.3,88.9-48.1,83.2-78.9c-6.2-33.7-99.7-8.9-106-42.5c-8-43.1,77.4-53.3,78.4-97.5
					c1.5-63-79.8-69.1-74.3-131.7c4.4-49.8,94.6-45,94.1-95.1c-0.4-39.3-92.5-33.1-95.9-72.2"/>
			</g>
			<g class="st60">
				<path class="st2" d="M-70.6,809.2c-1.7-32.3,90.2-46.4,85-78.1C8.8,697-85.5,719.8-91.3,685.8c-7.6-43.8,78.5-52.9,79.8-97.6
					c1.8-62.7-79.3-68.4-74.4-130.8c4-51,93.4-48,92.1-99.2c-1-38.5-92.9-30.2-96.7-68.4"/>
			</g>
			<g class="st15">
				<path class="st2" d="M-70,806.4c-1-33.2,91.4-44.7,86.6-77.5c-5-34.6-99.9-13.7-105.4-48.2c-7.1-44.5,79.6-52.5,81.1-97.7
					c2.1-62.4-78.7-67.8-74.5-130c3.5-52.2,92.3-51,89.9-103.3c-1.7-37.6-93.2-27.4-97.5-64.7"/>
			</g>
			<g class="st61">
				<path class="st2" d="M-69.3,803.7c-0.3-34.2,92.6-43.1,88.2-77c-4.5-35-100-16-105.1-50.9c-6.6-45.1,80.7-52.1,82.5-97.9
					c2.4-62.1-78.2-67.2-74.7-129.2c3.1-53.5,91.1-53.9,87.8-107.3c-2.2-36.8-93.5-24.5-98.3-60.9"/>
			</g>
			<g class="st62">
				<path class="st2" d="M-68.6,801c0.4-35.1,93.6-41.7,89.7-76.5C17.1,689-79,706.1-83.7,670.8c-6-45.8,81.8-51.7,83.8-98
					c2.7-61.8-77.7-66.5-74.7-128.3c2.6-54.7,89.9-56.8,85.7-111.4c-2.8-35.9-93.8-21.5-99.1-57.1"/>
			</g>
			<g class="st63">
				<path class="st2" d="M-67.9,798.4c1.1-36.1,94.7-40.3,91.2-76.3c-3.4-35.8-100.1-20.6-104.4-56.3c-5.5-46.5,82.8-51.2,85.1-98.1
					c3-61.5-77.2-65.9-74.9-127.5c2.1-56,88.7-59.7,83.5-115.4c-3.3-35.1-94-18.6-99.7-53.2"/>
			</g>
			<g class="st35">
				<path class="st2" d="M-67.2,795.8c1.8-37,95.6-39.1,92.7-76C22.6,683.6-74.6,697-78.4,660.9c-5-47.2,83.9-50.8,86.5-98.3
					c3.4-61.2-76.7-65.4-75-126.7c1.6-57.3,87.6-62.6,81.3-119.5c-3.8-34.2-94.2-15.6-100.4-49.3"/>
			</g>
			<g>
				<path class="st2" d="M-62.3,737.8c-7.6-35.2,76.4-54.1,72.5-90.1c-5-47.2-94-44.4-91.4-91.9c3.4-61.2,101.8-55,103.5-116.4
					c1.6-57.1-90.2-52.1-96.5-108.8c-3.8-34.5,75.3-38,76.4-72.7c1.8-55.4-74.8-60.1-70.8-115.3c3.7-50.3,87.6-47.9,86-98.4"/>
			</g>
			<g>
				<path class="st2" d="M-62.2,734.2c-7-34.3,77.3-51.9,73.9-87c-4.6-47.4-93.6-45.5-90.8-93c3.6-60.4,101.7-53.6,103.7-114.1
					c1.9-56.3-89.3-51.6-95.7-107.4c-4.2-36.7,73.9-40.9,74.7-78c1.2-55.9-74.9-59.6-71.2-115.4C-64,89.1,19.9,90.9,18,40.6"/>
			</g>
			<g>
				<path class="st2" d="M-62,730.6c-6.3-33.4,78.2-49.8,75.3-83.8c-4.1-47.5-93.2-46.5-90.2-94.2c3.8-59.5,101.7-52.1,104-111.7
					c2.1-55.5-88.4-51.1-94.8-106.2c-4.6-39.1,72.6-43.8,73-83.2c0.5-56.5-75.1-59.3-71.5-115.6c3.2-50.1,87-48.9,84.9-99"/>
			</g>
			<g>
				<path class="st2" d="M-61.8,726.9c-5.8-32.5,79.2-47.5,76.7-80.6c-3.6-47.6-92.8-47.6-89.5-95.3
					c4.1-58.7,101.6-50.5,104.2-109.4c2.4-54.8-87.4-50.6-94-104.9c-5-41.3,71.3-46.6,71.2-88.3c0-57.1-75.2-58.9-71.8-115.9
					c2.9-49.9,86.8-49.3,84.4-99.3"/>
			</g>
			<g>
				<path class="st2" d="M-61.7,723.2c-5.1-31.6,80.2-45.1,78.1-77.3c-3-47.8-92.4-48.7-88.9-96.5c4.3-57.9,101.6-49,104.5-107
					c2.7-54-86.5-50.1-93.1-103.6c-5.4-43.6,70-49.4,69.5-93.5c-0.7-57.6-75.3-58.6-72.2-116.2c2.7-49.8,86.5-49.8,83.8-99.6"/>
			</g>
			<g>
				<path class="st2" d="M-61.6,719.4c-4.6-30.7,81.1-42.7,79.5-73.9c-2.5-47.9-92-49.9-88.2-97.6c4.5-57.1,101.6-47.5,104.7-104.7
					c2.9-53.2-85.6-49.6-92.2-102.4c-5.8-45.9,68.7-52.1,67.7-98.5c-1.3-58.2-75.5-58.4-72.5-116.4c2.5-49.7,86.2-50.2,83.2-99.9"/>
			</g>
			<g>
				<path class="st2" d="M-61.4,715.5c-3.9-29.8,82.1-40.2,80.9-70.4c-2-48.1-91.6-51-87.6-98.9c4.7-56.2,101.5-45.9,105-102.3
					c3.2-52.5-84.7-49.1-91.4-101.2c-6.2-48.2,67.5-54.8,65.9-103.5c-1.8-58.7-75.6-58.2-72.8-116.8c2.3-49.5,85.9-50.6,82.7-100.1"
					/>
			</g>
			<g>
				<path class="st2" d="M-61.2,711.6c-3.4-28.9,83.1-37.7,82.3-66.8c-1.4-48.2-91.2-52.2-86.9-100.1c5-55.4,101.5-44.4,105.2-99.9
					c3.5-51.8-83.8-48.6-90.5-100C-57.8,294.3,15,287.3,13,236.2c-2.3-59.2-75.6-58-73.1-117.2c2.1-49.4,85.6-51.1,82.1-100.4"/>
			</g>
			<g>
				<path class="st2" d="M-61.1,707.6c-2.7-28,84.1-35,83.6-63.2C21.7,596-68.3,591-63.8,543c5.1-54.6,101.4-42.8,105.4-97.5
					c3.8-51-82.8-48.2-89.6-98.8c-7-52.8,65-60.2,62.4-113.5c-2.9-59.8-75.7-57.8-73.5-117.6C-57.1,66.4,26.4,64,22.5,14.9"/>
			</g>
			<g>
				<path class="st2" d="M-60.9,703.5c-2.1-27.1,85.1-32.2,84.9-59.4c-0.3-48.4-90.4-54.6-85.6-102.6
					c5.4-53.7,101.3-41.2,105.7-95.1c4-50.3-81.9-47.7-88.7-97.6C-52.1,293.6,19.1,286,16,230.3c-3.4-60.3-75.8-57.7-73.8-118
					c1.7-49.1,85-52,80.9-101"/>
			</g>
			<g>
				<path class="st2" d="M-60.7,699.3c-1.5-26.2,86-29.3,86.2-55.6c0.4-48.5-89.9-55.8-84.9-103.9c5.6-52.9,101.3-39.6,105.9-92.7
					c4.3-49.5-81-47.3-87.8-96.4c-8-57.4,62.5-65.4,58.8-123.4c-3.8-60.8-75.9-57.6-74.1-118.5c1.4-49,84.7-52.5,80.3-101.2"/>
			</g>
			<g>
				<path class="st2" d="M-60.5,695c-0.9-25.3,86.9-26.3,87.5-51.6c1-48.6-89.5-57-84.2-105.3c5.8-52,101.2-38.1,106.1-90.2
					c4.6-48.7-80.2-46.8-86.9-95.3C-46.5,293,23.3,284.8,19,224.5c-4.3-61.3-75.9-57.5-74.4-119c1.3-48.9,84.4-53,79.8-101.6"/>
			</g>
			<g>
				<path class="st2" d="M-60.2,690.6c-0.3-24.4,87.9-23.1,88.7-47.5c1.6-48.7-89.1-58.3-83.5-106.6c5.9-51.2,101.1-36.4,106.2-87.7
					c4.9-48-79.3-46.5-86.1-94.1c-8.9-62,60.1-70.5,55.3-133.1c-4.8-61.9-76-57.4-74.6-119.5c1-48.8,84.1-53.5,79.2-101.9"/>
			</g>
			<g>
				<path class="st2" d="M-59.9,686.1c0.3-23.5,88.8-19.8,89.8-43.3c2.2-48.8-88.6-59.6-82.7-108c6.1-50.4,101-34.8,106.5-85.3
					c5.1-47.3-78.4-46-85.2-93c-9.3-64.2,59-72.9,53.6-137.8c-5.2-62.4-76-57.4-74.9-120.1C-52.1,50,30.9,44.8,25.7-3.5"/>
			</g>
			<g>
				<path class="st2" d="M-59.6,681.5c0.9-22.6,89.6-16.4,91-38.9c2.9-48.9-88.1-60.9-82-109.3c6.3-49.5,100.9-33.1,106.6-82.7
					c5.4-46.6-77.4-45.7-84.3-91.9C-38,292,29.6,283.1,23.5,215.9C17.9,153-52.5,158.5-51.7,95.3c0.6-48.5,83.5-54.3,78-102.4"/>
			</g>
			<g>
				<path class="st2" d="M-59.2,676.8c1.5-21.6,90.4-12.8,92-34.4c3.6-49-87.7-62.2-81.2-110.7c6.5-48.7,100.8-31.4,106.8-80.2
					c5.7-45.8-76.6-45.3-83.4-90.8c-10.3-68.9,56.6-78,49.9-147.6c-6.1-63.4-76.1-57.4-75.5-121.1C-50,43.5,32.7,37.1,26.9-10.8"/>
			</g>
			<g>
				<path class="st2" d="M-58.7,671.9c2.1-20.7,91.2-8.9,93-29.7c4.3-49-87.2-63.6-80.4-112.1c6.7-47.9,100.7-29.7,107-77.7
					c5.9-45-75.7-44.9-82.5-89.8c-10.8-71.2,55.4-80.5,48.2-152.3C20,146.3-49.6,152.8-49.3,88.5c0.3-48.3,82.8-55.3,76.8-103"/>
			</g>
			<g>
				<path class="st2" d="M-56.5,663.9c2.1-19.9,91.1-7.8,92.9-27.8c4.2-46.3-87.3-61.2-80.8-107.1c6.7-46.8,100.6-28.1,107-75
					c6.4-46.8-74.9-47.3-81.6-94c-10.2-71,56.2-80,48.7-151.4C23.2,145.2-46.8,152.2-47,88.3c-0.1-48.6,82.3-56.5,75.9-104.5"/>
			</g>
			<g>
				<path class="st2" d="M-54.2,655.9c2-19,91.1-6.7,92.8-25.8c4-43.6-87.5-58.9-81-102c6.8-45.7,100.6-26.5,107-72.3
					c6.8-48.6-74.1-49.8-80.7-98.3c-9.6-70.7,56.9-79.5,49.3-150.5c-6.7-62.9-77-55.4-77.7-118.8c-0.5-49,81.9-57.7,75-106"/>
			</g>
			<g>
				<path class="st2" d="M-52,647.9c2-18.1,91-5.6,92.7-23.8c3.8-40.9-87.6-56.6-81.4-97c6.8-44.7,100.5-24.9,107-69.6
					c7.2-50.3-73.4-52.1-79.8-102.6c-9-70.4,57.5-79,49.9-149.6C29.6,142.9-41.1,150.9-42.3,88c-0.9-49.2,81.4-59,74.1-107.4"/>
			</g>
			<g>
				<path class="st2" d="M-49.8,639.9c1.9-17.3,90.9-4.4,92.5-21.7c3.6-38.2-87.7-54.3-81.7-92C-32,482.5,61.5,503,68,459.3
					c7.7-52.1-72.6-54.5-78.9-106.9c-8.4-70.2,58.2-78.4,50.4-148.7c-6.8-62-77.9-53.5-79.5-115.9c-1.3-49.5,80.9-60.2,73.2-108.9"
					/>
			</g>
			<g>
				<path class="st2" d="M-47.5,631.8c1.9-16.4,90.8-3.2,92.4-19.6c3.4-35.5-87.7-52.1-81.9-87.1c7-42.6,100.4-21.5,106.9-64.1
					C78,407.2-2,404-8.1,349.8c-7.9-69.9,58.9-78,51-147.9c-7-61.4-78.3-52.4-80.5-114.3c-1.7-49.9,80.4-61.4,72.2-110.4"/>
			</g>
			<g>
				<path class="st2" d="M-45.3,623.7c1.8-15.5,90.7-2,92.3-17.5c3.3-32.8-87.7-49.9-82.3-82.2c7.1-41.4,100.3-19.7,106.9-61.3
					c8.7-55.6-71.1-59.3-77-115.3c-7.3-69.7,59.6-77.5,51.6-147C39.1,139.4-32.6,149-35.3,87.5c-2.2-50.2,79.8-62.6,71.3-111.9"/>
			</g>
			<g>
				<path class="st2" d="M-43,615.6c1.8-14.6,90.7-0.6,92.1-15.3c3.1-30.1-87.7-47.8-82.5-77.5c7.2-40.4,100.3-18,106.8-58.5
					c9.2-57.3-70.4-61.6-76-119.6c-6.8-69.3,60.2-77,52.1-146.2c-7.1-60.4-79.2-50.3-82.3-111.2c-2.6-50.5,79.3-63.8,70.4-113.3"/>
			</g>
			<g>
				<path class="st2" d="M-40.8,607.5c1.7-13.8,90.5,0.7,92-13.1c2.9-27.4-87.7-45.8-82.7-72.7c7.3-39.3,100.3-16.1,106.8-55.6
					c9.7-59-69.7-63.9-75.1-123.7c-6.3-69.1,60.9-76.6,52.6-145.4C45.4,137-27,147.7-30.6,87.2c-3-50.9,78.9-65,69.5-114.7"/>
			</g>
			<g>
				<path class="st2" d="M-38.5,599.4c1.7-12.9,90.4,2.2,91.8-10.7c2.7-24.7-87.7-43.9-83-68.1c7.4-38.2,100.2-14.3,106.7-52.7
					c10.3-60.8-69-66.3-74.2-127.9c-5.8-68.9,61.5-76.3,53.1-144.6C48.6,135.8-24.2,147-28.2,87.1C-31.7,35.9,50,20.9,40.3-29.1"/>
			</g>
			<g>
				<path class="st2" d="M-36.2,591.2c1.7-12,90.3,3.7,91.7-8.4c2.5-22-87.6-42-83.2-63.6c7.6-37.1,100.1-12.3,106.6-49.8
					C89.6,407,10.5,400.9,5.5,337.4c-5.3-68.5,62.2-75.7,53.7-143.7c-7.4-59-80.6-47.3-85.1-106.8c-3.9-51.5,77.7-67.4,67.6-117.6"
					/>
			</g>
			<g>
				<path class="st2" d="M-34,582.9c1.6-11.1,90.1,5.3,91.5-5.8c2.3-19.3-87.4-40.4-83.4-59.2c7.8-36,100.1-10.3,106.5-46.7
					C91.9,406.9,13,400.3,8.3,334.9C3.4,266.8,71.1,259.6,62.5,192c-7.5-58.6-81-46.3-86-105.3c-4.4-51.8,77.2-68.5,66.7-119"/>
			</g>
			<g>
				<path class="st2" d="M-31.7,574.6c1.6-10.2,89.9,7.1,91.2-3.1c2.1-16.5-87.2-38.8-83.5-55c8-34.9,100-8.2,106.3-43.6
					c11.9-66.1-67-73.2-71.4-140.5c-4.4-67.9,63.5-74.9,54.7-142.2c-7.6-58.1-81.4-45.3-86.9-103.7C-26,34.5,55.5,16.9,44.5-33.9"/>
			</g>
			<g>
				<path class="st2" d="M-29.4,566.2c1.5-9.4,89.7,9.2,91-0.2c1.9-13.8-86.9-37.6-83.6-51.1c8.3-33.8,99.9-6,106.2-40.3
					c12.5-67.7-66.3-75.4-70.4-144.6c-4-67.5,64.1-74.5,55.2-141.4C61.3,131-12.9,144.4-18.8,86.4C-24.1,34,57.3,15.6,45.9-35.5"/>
			</g>
			<g>
				<path class="st2" d="M-27,557.7c1.5-8.5,89.4,11.6,90.7,3.1c1.7-11.1-86.4-36.7-83.5-47.5c8.6-32.6,99.7-3.7,105.9-37
					c13-69.4-65.7-77.7-69.5-148.7c-3.6-67.2,64.7-74.1,55.7-140.6c-7.8-57.2-82.4-43.2-88.6-100.6c-5.8-52.7,75.6-72,63.8-123.3"/>
			</g>
			<g>
				<path class="st2" d="M-24.7,549c1.4-7.6,88.9,14.4,90.2,6.8c1.5-8.5-85.7-36.3-83.4-44.4c8.9-31.4,99.5-1.1,105.7-33.4
					c13.6-71.2-65.1-80-68.5-152.8c-3.2-66.8,65.4-73.7,56.2-139.8C67.6,128.5-7.3,143.1-14,86.1c-6.3-53,75-73.1,62.7-124.7"/>
			</g>
			<g>
				<path class="st2" d="M-22.3,540.1c1.4-6.7,88.2,18.2,89.6,11.4c1.2-5.8-84.8-36.7-83-42.2c9.3-30.2,99.1,1.6,105.3-29.7
					c14.2-72.9-64.5-82.2-67.6-156.9c-2.7-66.5,66-73.4,56.7-139c-8-56.4-83.3-41.2-90.4-97.6c-6.7-53.3,74.4-74.4,61.8-126.1"/>
			</g>
			<g>
				<path class="st2" d="M-19.8,535.8c1.4-6.5,87.9,20.2,89.4,13.7c1.3-5.6-84.6-36.5-83-41.9c2.4-8.2,86.6,28.8,89.3,20.9
					C83.1,506.8,0.8,476.7,5,454c13.7-72.1,112.4-62.3,109.8-136.2C112.4,251.3,9.8,270-4.5,205.7c-1.7-7.8,87.6-23,87.4-31
					C81.8,126-1.3,135.3-8,87.2c-7.4-53.7,74.2-75.6,61.3-127.8"/>
			</g>
			<g>
				<path class="st2" d="M-17.2,531.5c1.5-6.3,87.5,22.3,89,16c1.3-5.4-84-38.1-82.4-43.3c2.5-7.9,86.4,30.1,89,22.2
					c7.2-21.6-75.3-52.3-70.9-74.9c14-71,112.9-60.4,110.7-133.4c-2.1-66.5-104.7-48.3-118.8-112.7c-1.7-7.8,87.5-23,87.3-31
					c-1.3-48.5-84.5-38.7-91.2-86.5c-7.6-54,74-76.2,61-128.8"/>
			</g>
			<g>
				<path class="st2" d="M-14.7,527.1c1.6-6.1,87.1,24.6,88.6,18.4c1.3-5.2-83.4-39.8-81.8-44.9c2.5-7.7,86.2,31.3,88.8,23.6
					c7.3-21.4-75.4-52.8-70.8-75.3c14.3-70.1,113.4-58.6,111.6-130.6C120.1,251.9,17.5,269.4,3.5,205c-1.7-7.7,87.5-23,87.2-30.9
					c-1.5-48.3-84.6-38.1-91.5-85.6C-8.6,34,73,11.6,59.9-41.3"/>
			</g>
			<g>
				<path class="st2" d="M-12.1,522.6c1.7-5.9,86.6,26.9,88.2,21C77.5,538.5-6.7,502-5,497c2.6-7.5,86,32.6,88.6,25
					c7.3-21.3-75.4-53.3-70.7-75.7c14.6-69,113.9-56.6,112.5-127.7C124,252.2,21.3,269.2,7.5,204.8c-1.6-7.6,87.4-23,87.1-30.9
					c-1.7-48-84.8-37.4-91.8-84.7c-8-54.9,73.6-77.4,60.3-130.9"/>
			</g>
			<g>
				<path class="st2" d="M-9.5,518.1c1.7-5.7,86,29.3,87.7,23.6c1.5-4.9-82-43.5-80.3-48.2c2.6-7.4,85.7,33.9,88.2,26.5
					c7.3-21.3-75.5-53.9-70.7-76.2c14.9-68,114.4-54.7,113.3-125c-1-66.4-103.7-50-117.3-114.4c-1.6-7.6,87.3-23.1,86.9-30.9
					c-1.9-47.7-85-36.7-92-83.8C-1.7,34.5,79.8,11.6,66.4-42.2"/>
			</g>
			<g>
				<path class="st2" d="M-6.8,513.5c1.7-5.5,85.4,31.8,87.1,26.3c1.5-4.8-81.3-45.4-79.5-50c2.7-7.1,85.4,35.3,87.9,28.1
					c7.4-21.2-75.6-54.5-70.6-76.6c15.1-67.1,114.8-52.8,114.2-122.2c-0.6-66.3-103.4-50.6-116.8-115c-1.6-7.5,87.2-23.1,86.9-30.8
					c-2.1-47.5-85.2-36.1-92.3-82.9c-8.5-55.7,73.1-78.8,59.5-133"/>
			</g>
			<g>
				<path class="st2" d="M-4.1,508.9c1.8-5.3,84.6,34.5,86.5,29.2c1.6-4.6-80.4-47.4-78.6-51.9c2.8-6.9,85.1,36.7,87.6,29.6
					c7.4-21-75.6-55.1-70.5-77.1c15.4-66.1,115.3-50.8,115-119.3c-0.2-66.3-103.1-51.2-116.3-115.6c-1.5-7.5,87.1-23.1,86.7-30.8
					c-2.3-47.3-85.3-35.4-92.6-82C5,35,86.6,11.7,72.8-43"/>
			</g>
			<g>
				<path class="st2" d="M-1.3,504.3c1.9-5.1,83.8,37.3,85.6,32.1C86,532,4.9,486.9,6.7,482.6c2.9-6.7,84.7,38.1,87.2,31.2
					c7.5-21-75.7-55.7-70.5-77.6c15.7-65,115.7-48.7,115.9-116.4c0.1-66.3-102.7-51.8-115.8-116.2c-1.5-7.4,87-23.2,86.6-30.7
					c-2.5-47.1-85.5-34.8-92.8-81.1C8.4,35.2,90.1,11.7,76.1-43.4"/>
			</g>
			<g>
				<path class="st2" d="M1.5,499.6c2-4.9,82.8,40.1,84.8,35.1C88,530.5,7.9,483,9.8,478.9c2.9-6.5,84.3,39.6,86.8,32.8
					c7.5-20.9-75.8-56.4-70.4-78.1c16-64,116.2-46.7,116.7-113.5c0.5-66.2-102.4-52.3-115.3-116.8c-1.5-7.4,86.9-23.2,86.5-30.7
					c-2.7-46.8-85.7-34.1-93.1-80.2C11.8,35.5,93.5,11.7,79.4-43.8"/>
			</g>
			<g>
				<path class="st2" d="M4.4,494.8c2-4.7,81.8,43,83.8,38.3c1.7-4.1-77.2-54-75.3-58c3-6.3,83.9,41.1,86.3,34.5
					c7.5-20.7-75.9-56.9-70.3-78.5c16.3-63.1,116.6-44.7,117.5-110.6c0.9-66.2-102-52.9-114.7-117.4c-1.4-7.3,86.9-23.2,86.4-30.7
					c-2.9-46.5-85.9-33.4-93.4-79.2c-9.4-57.4,72.3-81.3,58-137.2"/>
			</g>
			<g>
				<path class="st2" d="M7.3,490c2.1-4.6,80.6,46.1,82.7,41.6c1.8-3.9-76-56.4-74-60.2c3.1-6.1,83.4,42.7,85.7,36.1
					c7.6-20.6-75.9-57.6-70.2-79.1c16.5-62.1,117.1-42.6,118.4-107.7c1.3-66.2-101.7-53.6-114.2-118c-1.4-7.3,86.7-23.3,86.2-30.7
					c-3-46.3-86.1-32.8-93.6-78.3c-9.6-57.7,72.1-81.9,57.7-138.2"/>
			</g>
			<g>
				<path class="st2" d="M10.3,485.1c2.1-4.3,79.2,49.3,81.4,44.9c1.8-3.7-74.6-58.9-72.6-62.5c3.1-5.9,82.8,44.2,85.2,37.9
					c7.6-20.5-76-58.3-70.1-79.6C51,364.7,151.6,385.3,153.3,321C155,255,51.9,266.9,39.6,202.4c-1.4-7.2,86.6-23.3,86.1-30.6
					c-3.3-46-86.2-32.1-93.9-77.4C22,36.2,103.8,11.7,89.1-45"/>
			</g>
			<g>
				<path class="st2" d="M13.4,480.1c2.2-4.1,77.7,52.6,79.9,48.4c1.9-3.5-73-61.4-71-64.9c3.2-5.7,82.2,45.9,84.5,39.7
					c7.6-20.4-76-59-70-80.1c17.1-60.1,118-38.4,120-101.9c2.1-66-101-54.8-113.2-119.2c-1.3-7.1,86.5-23.3,86-30.6
					c-3.4-45.8-86.4-31.4-94.1-76.5C25.4,36.4,107.2,11.7,92.4-45.4"/>
			</g>
			<g>
				<path class="st2" d="M16.6,475.2c2.3-3.9,76,55.9,78.2,52c2-3.4-71.4-64-69.3-67.4c3.3-5.5,81.5,47.5,83.8,41.4
					c7.6-20.3-76-59.6-69.8-80.7c17.4-59.2,118.4-36.3,120.8-98.9c2.5-65.9-100.7-55.4-112.7-119.8c-1.3-7.1,86.5-23.4,85.9-30.6
					c-3.6-45.6-86.5-30.7-94.4-75.6c-10.2-59,71.6-83.9,56.6-141.4"/>
			</g>
			<g>
				<path class="st2" d="M19.9,470.2c2.4-3.8,74.1,59.4,76.4,55.6c2-3.2-69.5-66.7-67.5-69.9c3.4-5.2,80.8,49.3,83.1,43.3
					c7.7-20.2-76-60.3-69.7-81.2c17.6-58.2,118.8-34.2,121.6-96c2.9-65.9-100.3-56-112.1-120.5c-1.3-7,86.3-23.4,85.7-30.6
					c-3.8-45.4-86.7-30.1-94.6-74.6C32.2,36.9,114,11.8,98.9-46.2"/>
			</g>
			<g>
				<path class="st2" d="M23.3,465.1c7.9-11.6,86.7,44.5,91.6,30.9c27.6-76.5-43.1-98.8-36.8-181.6c5.6-72.8,72.8-74.7,62.7-146.8
					c-6.3-44.7-86.5-26.3-94.5-70.7c-10.8-59.8,71.1-85.1,55.8-143.5"/>
			</g>
			<g class="st33">
				<path class="st2" d="M-98.9,335.7c2.9-21.1,93.5-9.7,94.4-31.1c3.5-77.5-91.1-84.9-85.9-162.3C-86.3,81.8,8.2,92.4,13.7,32.1
					C16.3,3.6-74.9-3.4-74.3-32"/>
			</g>
			<g class="st13">
				<path class="st2" d="M-98.1,329.9c3.2-23.2,94-11.3,95.2-34.8c3.6-75.8-91.2-83.1-86.3-158.9C-85.5,78.1,9,88.5,14.1,30.6
					C16.7,2.5-74.5-4.2-74-32.4"/>
			</g>
			<g class="st60">
				<path class="st2" d="M-97.3,324.1c3.6-25.2,94.7-13,95.9-38.6c3.6-74.1-91.3-81.4-86.7-155.5C-84.6,74.5,9.7,84.6,14.6,29.1
					C17,1.5-74.1-5.1-73.7-32.9"/>
			</g>
			<g class="st64">
				<path class="st2" d="M-96.5,318.4c4-27.4,95.3-14.7,96.7-42.4c3.7-72.5-91.4-79.7-87.1-152.1C-83.7,70.8,10.4,80.6,15,27.6
					C17.3,0.4-73.7-6-73.3-33.3"/>
			</g>
			<g class="st15">
				<path class="st2" d="M-95.7,312.7c4.4-29.4,95.9-16.5,97.4-46.3c3.7-70.8-91.5-77.9-87.5-148.6c2.9-50.6,97-41.2,101.2-91.7
					c2.2-26.8-88.8-33-88.4-60"/>
			</g>
			<g class="st65">
				<path class="st2" d="M-94.9,307c4.8-31.5,96.5-18.3,98.2-50.2c3.7-69-91.6-76.1-87.9-145.1C-82,63.6,11.9,72.7,15.8,24.7
					C18-1.7-73-7.7-72.6-34.2"/>
			</g>
			<g class="st61">
				<path class="st2" d="M-94.1,301.4c5.2-33.6,97-20,99-54.1c3.8-67.3-91.8-74.3-88.3-141.6c2.3-45.7,96.1-36.9,99.7-82.5
					c2.1-26-88.8-31.8-88.5-57.9"/>
			</g>
			<g class="st17">
				<path class="st2" d="M-93.3,295.7c5.6-35.7,97.6-21.8,99.7-58c3.8-65.6-91.9-72.5-88.7-138.1c2.1-43.2,95.7-34.9,99-78
					C18.6-3.9-72.2-9.5-71.9-35.1"/>
			</g>
			<g class="st34">
				<path class="st2" d="M-92.5,290.1c6-37.7,98.2-23.7,100.5-61.9c3.8-63.9-91.9-70.6-89.1-134.6c1.8-40.7,95.3-32.8,98.2-73.4
					c1.8-25.1-88.9-30.5-88.7-55.7"/>
			</g>
			<g class="st63">
				<path class="st2" d="M-91.7,284.5c6.4-39.8,98.8-25.5,101.2-65.9c3.8-62.2-92-68.8-89.5-131.1c1.5-38.2,94.9-30.8,97.5-69
					c1.8-24.7-89-29.7-88.7-54.6"/>
			</g>
			<g class="st19">
				<path class="st2" d="M-90.9,278.9c6.8-41.9,99.4-27.3,102-69.9c3.8-60.5-92.1-66.9-89.9-127.6C-77.6,45.8,15.6,52.7,18,17
					c1.6-24.3-89-29.1-88.8-53.5"/>
			</g>
			<g class="st66">
				<path class="st2" d="M-90.2,273.4c7.2-44,99.9-29.2,102.8-73.8c3.8-58.8-92.2-65-90.3-124c1-33.2,94-26.9,96.1-60.1
					c1.5-23.9-89.1-28.3-88.9-52.3"/>
			</g>
			<g class="st20">
				<path class="st2" d="M-89.4,267.8c7.6-46,100.5-31.1,103.6-77.8c3.8-57.1-92.3-63-90.7-120.3c0.8-30.7,93.6-25.1,95.4-55.8
					c1.4-23.5-89.1-27.6-89-51.2"/>
			</g>
			<g class="st67">
				<path class="st2" d="M-88.6,262.2c8-48.1,101-32.9,104.3-81.8c3.8-55.5-92.3-61.1-91.1-116.7c0.6-28.3,93.1-23.3,94.6-51.5
					c1.3-23.1-89.2-26.8-89.1-49.9"/>
			</g>
			<g class="st68">
				<path class="st2" d="M-87.8,256.6c8.4-50.2,101.6-34.8,105.1-85.8c3.7-53.7-92.3-59.1-91.5-113c0.4-25.8,92.6-21.6,93.9-47.3
					c1.1-22.7-89.2-26-89.1-48.6"/>
			</g>
			<g class="st22">
				<path class="st2" d="M-87,251.1c8.8-52.3,102.1-36.7,105.9-89.8c3.7-52-92.3-57.1-91.9-109.3c0.2-23.3,92.2-19.9,93.2-43.2
					c1-22.2-89.3-25.1-89.2-47.4"/>
			</g>
			<g class="st36">
				<path class="st2" d="M-86.2,245.5c9.2-54.4,102.7-38.6,106.6-93.8c3.7-50.3-92.3-55-92.3-105.5c0-20.9,91.7-18.4,92.5-39.2
					c0.8-21.8-89.3-24.2-89.3-46"/>
			</g>
		</g>
	</g>
</g>
<g class="st0">
	<g>
		<g id="Waveform2_8_">
			<g>
				<path class="st1" d="M820.9-67.1c-21,218.7-130.8,210.5-135.3,430.5c-1.4,64.8,110.4,51.4,122.8,114.7
					c10.8,54.6-93.3,94.5-71.9,145c23.1,54.1,112.3-12.3,147.1,33"/>
			</g>
			<g>
				<path class="st1" d="M827.4-67.7C806.1,152.8,697,144.4,691.5,366.2C690,429.3,801,416.8,812.7,478.5
					c10.5,55.3-93.4,93.4-72.6,144.8c21.4,53,111.4-11,144.3,33.8"/>
			</g>
			<g>
				<path class="st1" d="M833.9-68.3c-21.6,222.4-130.1,213.6-136.5,437.2c-1.8,61.3,108.6,49.8,119.6,109.9
					c10.2,55.9-93.4,92.2-73.3,144.6c19.8,51.8,110.5-9.6,141.4,34.7"/>
			</g>
			<g>
				<path class="st1" d="M840.3-68.9c-21.9,224.2-129.7,215.1-137.1,440.6c-2,59.6,107.6,49,118,107.5c10,56.5-93.3,91.1-74,144.4
					c18.3,50.5,109.6-8.1,138.6,35.7"/>
			</g>
			<g>
				<path class="st1" d="M846.8-69.5c-22.3,226-129.3,216.7-137.7,443.9c-2.2,58,106.7,48.1,116.3,105.1
					c9.7,57.2-93.2,89.9-74.7,144.2c16.8,49.3,108.8-6.5,135.7,36.8"/>
			</g>
			<g>
				<path class="st1" d="M853.3-70.1C830.7,157.7,724.4,148.1,715,377.1c-2.3,56.2,105.8,47.3,114.7,102.7
					c9.4,57.8-93,88.7-75.3,143.9c15.4,48.1,107.9-4.7,132.9,38"/>
			</g>
			<g>
				<path class="st1" d="M859.7-70.8c-22.9,229.6-128.5,219.9-138.9,450.6c-2.4,54.5,104.8,46.5,113.1,100.2
					c9,58.4-92.8,87.4-76,143.6C772,670.6,865,620.9,888.1,663"/>
			</g>
			<g>
				<path class="st1" d="M866.2-71.3C843,160,738.1,150,726.8,382.6c-2.6,52.8,103.8,45.7,111.4,97.9c8.7,59-92.5,86.2-76.6,143.3
					c12.8,45.7,106.2-0.7,127.3,40.9"/>
			</g>
			<g>
				<path class="st1" d="M872.7-72c-23.4,233.2-127.7,223-140,457.3c-2.7,51.1,102.7,44.9,109.8,95.5c8.3,59.6-92.2,84.9-77.2,142.9
					c11.5,44.6,105.3,1.5,124.5,42.6"/>
			</g>
			<g>
				<path class="st1" d="M879.1-72.6C855.4,162.4,752,152,738.5,388.1c-2.8,49.4,101.7,44.1,108.2,93.1
					c7.9,60.3-91.8,83.6-77.8,142.5c10.3,43.4,104.5,3.9,121.6,44.4"/>
			</g>
			<g>
				<path class="st1" d="M885.6-73.2c-24,236.8-126.7,226.2-141.2,463.9c-2.9,47.7,100.6,43.3,106.5,90.8
					c7.6,60.9-91.3,82.3-78.4,142.1c9.2,42.2,103.6,6.5,118.8,46.4"/>
			</g>
			<g>
				<path class="st1" d="M892.1-73.8C867.8,164.9,765.8,154,750.3,393.5c-3,46.1,99.5,42.6,104.9,88.4c7.2,61.6-90.8,81-78.9,141.6
					c8,41.2,102.6,9.2,115.8,48.6"/>
			</g>
			<g>
				<path class="st1" d="M892.1-73.8C867.8,164.9,765.8,154,750.3,393.5c-3,46.1,99.5,42.6,104.9,88.4c7.2,61.6-90.8,81-78.9,141.6
					c8,41.2,102.6,9.2,115.8,48.6"/>
			</g>
			<g>
				<path class="st1" d="M898.9-74.5c-24.3,238.6-125.7,227.6-141.8,467.2c-3.1,46,98.6,43.2,103.7,89
					c6.8,61.6-89.4,78.7-79.3,139.7c6.8,40.7,101.2,14.8,111.6,54.5"/>
			</g>
			<g>
				<path class="st1" d="M905.8-75.2c-24.3,238.6-125.2,227.6-141.7,467c-3.2,46,97.7,43.8,102.4,89.6
					c6.5,61.7-88.1,76.4-79.5,137.7c5.6,40.4,99.5,20.6,107.1,60.6"/>
			</g>
			<g>
				<path class="st2" d="M675.4,415.8c-0.9-29.1,92.6-32.7,91.7-61.8"/>
			</g>
			<g>
				<path class="st2" d="M675.7,413.1c-0.5-31.3,93-33.3,92.4-64.6"/>
			</g>
			<g>
				<path class="st2" d="M676.1,410.5c-0.2-33.6,93.3-34.1,93.2-67.6"/>
			</g>
			<g>
				<path class="st2" d="M676.5,408c0.2-35.7,93.7-35.1,93.9-70.8"/>
			</g>
			<g>
				<path class="st2" d="M676.9,405.5c0.6-37.9,94-36.2,94.6-74.1"/>
			</g>
			<g>
				<path class="st2" d="M677.3,403.2c0.9-40.1,94.4-37.5,95.3-77.6"/>
			</g>
			<g>
				<path class="st2" d="M677.7,400.9c1.3-42.3,94.7-38.8,95.9-81.1"/>
			</g>
			<g>
				<path class="st2" d="M678.1,398.6c1.6-44.5,95.1-40.2,96.7-84.8"/>
			</g>
			<g>
				<path class="st2" d="M678.5,396.3c2-46.7,95.4-41.7,97.3-88.5"/>
			</g>
			<g>
				<path class="st2" d="M679,394.1c2.3-49,95.7-43.3,98-92.2"/>
			</g>
			<g>
				<path class="st2" d="M679.3,391.9c2.7-51.1,96-44.9,98.7-96.1"/>
			</g>
			<g>
				<path class="st2" d="M679.8,389.7c3-53.3,96.3-46.6,99.4-99.9"/>
			</g>
			<g>
				<path class="st2" d="M680.2,387.6c3.4-55.5,96.7-48.3,100-103.8"/>
			</g>
			<g>
				<path class="st2" d="M680.6,385.5c3.7-57.7,97-50,100.7-107.8"/>
			</g>
			<g>
				<path class="st2" d="M681,383.4c4.1-59.9,97.3-51.8,101.4-111.8"/>
			</g>
			<g>
				<path class="st2" d="M681.4,381.3c4.4-62.1,97.6-53.6,102.1-115.7"/>
			</g>
			<g>
				<path class="st2" d="M681.8,379.2c4.8-64.4,98-55.5,102.7-119.8"/>
			</g>
			<g>
				<path class="st2" d="M682.2,377.1c5.1-66.5,98.3-57.3,103.4-123.8"/>
			</g>
			<g>
				<path class="st2" d="M682.6,375.1c5.5-68.7,98.6-59.2,104.1-127.9"/>
			</g>
			<g>
				<path class="st2" d="M683,373.1c5.8-70.9,98.9-61.1,104.8-132"/>
			</g>
			<g>
				<path class="st2" d="M683.4,371c6.2-73.1,99.3-63,105.5-136.2"/>
			</g>
			<g>
				<path class="st2" d="M683.8,369c6.5-75.3,99.6-65,106.1-140.3"/>
			</g>
			<g>
				<path class="st2" d="M684.3,367c6.9-77.5,99.9-67,106.8-144.5"/>
			</g>
			<g>
				<path class="st2" d="M684.7,365c7.2-79.8,100.3-68.9,107.5-148.7"/>
			</g>
			<g>
				<path class="st2" d="M685,363c7.6-81.9,100.6-70.9,108.2-152.8"/>
			</g>
			<g>
				<path class="st2" d="M685.5,361c7.9-84.2,101-72.9,108.9-157"/>
			</g>
			<g>
				<path class="st2" d="M685.8,359c8.3-86.3,101.3-74.9,109.6-161.2"/>
			</g>
			<g>
				<path class="st2" d="M673.9,349.7c6.2-61.1,99.1-49.1,105.3-110.2"/>
			</g>
			<g class="st3">
				<path class="st2" d="M675,343.4c6-59.6,98.9-47.6,104.9-107.3"/>
			</g>
			<g class="st4">
				<path class="st2" d="M676.1,337.1c5.8-58.2,98.8-46.2,104.6-104.3"/>
			</g>
			<g class="st5">
				<path class="st2" d="M677.2,330.8c5.7-56.7,98.6-44.7,104.3-101.4"/>
			</g>
			<g class="st6">
				<path class="st2" d="M678.3,324.5c5.6-55.2,98.5-43.2,104-98.4"/>
			</g>
			<g class="st7">
				<path class="st2" d="M679.4,318.2c5.4-53.7,98.3-41.8,103.7-95.5"/>
			</g>
			<g class="st8">
				<path class="st2" d="M680.5,311.9c5.2-52.2,98.1-40.3,103.4-92.6"/>
			</g>
			<g class="st9">
				<path class="st2" d="M681.6,305.7c5.1-50.8,98-38.8,103.1-89.6"/>
			</g>
			<g class="st10">
				<path class="st2" d="M682.7,299.4c5-49.3,97.9-37.4,102.8-86.6"/>
			</g>
			<g class="st11">
				<path class="st2" d="M683.8,293.1c4.8-47.8,97.7-35.9,102.5-83.7"/>
			</g>
			<g class="st12">
				<path class="st2" d="M684.9,286.8c4.6-46.3,97.5-34.5,102.2-80.8"/>
			</g>
			<g class="st13">
				<path class="st2" d="M686,280.5c4.5-44.9,97.4-33,101.9-77.8"/>
			</g>
			<g class="st14">
				<path class="st2" d="M687.1,274.2c4.3-43.4,97.3-31.5,101.6-74.9"/>
			</g>
			<g class="st15">
				<path class="st2" d="M688.2,268c4.2-41.9,97.1-30.1,101.3-71.9"/>
			</g>
			<g class="st16">
				<path class="st2" d="M689.3,261.7c4-40.4,96.9-28.6,101-69"/>
			</g>
			<g class="st17">
				<path class="st2" d="M690.4,255.4c3.9-39,96.8-27.1,100.7-66.1"/>
			</g>
			<g class="st18">
				<path class="st2" d="M691.5,249.1c3.7-37.5,96.7-25.7,100.3-63.1"/>
			</g>
			<g class="st19">
				<path class="st2" d="M692.6,242.8c3.6-36,96.5-24.2,100.1-60.2"/>
			</g>
			<g class="st20">
				<path class="st2" d="M693.7,236.5c3.4-34.5,96.3-22.8,99.7-57.3"/>
			</g>
			<g class="st21">
				<path class="st2" d="M694.8,230.2c3.3-33,96.2-21.3,99.5-54.3"/>
			</g>
			<g class="st22">
				<path class="st2" d="M695.9,223.9c3.1-31.5,96-19.8,99.1-51.4"/>
			</g>
			<g class="st23">
				<path class="st2" d="M697,217.7c2.9-30.1,95.9-18.4,98.8-48.5"/>
			</g>
			<g class="st24">
				<path class="st2" d="M698.1,211.4c2.8-28.6,95.8-16.9,98.5-45.6"/>
			</g>
			<g class="st25">
				<path class="st2" d="M699.2,205.1c2.6-27.1,95.6-15.5,98.2-42.6"/>
			</g>
			<g class="st26">
				<path class="st2" d="M700.3,198.8c2.5-25.6,95.4-14.1,97.9-39.7"/>
			</g>
			<g class="st27">
				<path class="st2" d="M701.4,192.5c2.3-24.1,95.3-12.6,97.6-36.8"/>
			</g>
			<g class="st28">
				<path class="st2" d="M702.5,186.3c2.2-22.7,95.2-11.2,97.4-33.9"/>
			</g>
			<g>
				<path class="st2" d="M777.4,350.6c15.2,62.5-72.7,87.3-60.3,150.6c10.8,54.6,99.7,35.2,107.7,90.5"/>
			</g>
			<g>
				<path class="st2" d="M777.1,352.6c14.8,61.1-73.4,86.1-61.1,147.9c11,55.1,100.2,35,108.8,90.7"/>
			</g>
			<g>
				<path class="st2" d="M776.6,354.5c14.4,59.6-74.2,84.8-61.9,145.1c11.3,55.7,100.7,34.7,109.9,90.9"/>
			</g>
			<g>
				<path class="st2" d="M776.3,356.5c14,58.2-74.9,83.7-62.7,142.4c11.6,56.2,101.2,34.5,111,91.1"/>
			</g>
			<g>
				<path class="st2" d="M775.9,358.5c13.6,56.8-75.5,82.4-63.5,139.7c11.9,56.8,101.7,34.2,112.1,91.4"/>
			</g>
			<g>
				<path class="st2" d="M775.5,360.4c13.1,55.4-76.2,81.2-64.3,137c12.3,57.3,102.2,34,113.2,91.6"/>
			</g>
			<g>
				<path class="st2" d="M775.2,362.4c12.7,54-76.9,80-65.1,134.2c12.6,57.8,102.6,33.8,114.2,91.9"/>
			</g>
			<g>
				<path class="st2" d="M774.8,364.4c12.3,52.6-77.6,78.8-65.9,131.5c12.9,58.4,103.1,33.6,115.4,92.1"/>
			</g>
			<g>
				<path class="st2" d="M774.4,366.4c11.9,51.1-78.2,77.5-66.7,128.8c13.2,59,103.6,33.3,116.4,92.4"/>
			</g>
			<g>
				<path class="st2" d="M774,368.4c11.5,49.7-78.9,76.3-67.6,126c13.6,59.5,104,33.1,117.5,92.7"/>
			</g>
			<g>
				<path class="st2" d="M773.7,370.4c11.1,48.3-79.5,75-68.4,123.3c13.9,60,104.5,33,118.6,92.9"/>
			</g>
			<g>
				<path class="st2" d="M773.3,372.4c10.7,46.8-80.2,73.8-69.2,120.6c14.3,60.6,104.9,32.8,119.7,93.3"/>
			</g>
			<g>
				<path class="st2" d="M772.9,374.4c10.2,45.4-80.8,72.6-70,117.8c14.7,61.1,105.4,32.6,120.7,93.6"/>
			</g>
			<g>
				<path class="st2" d="M772.6,376.4c9.8,44-81.5,71.3-70.8,115.1c15.1,61.7,105.9,32.4,121.8,93.8"/>
			</g>
			<g>
				<path class="st2" d="M772.2,378.4c9.4,42.6-82.1,70.1-71.6,112.3C716,553,806.9,523,823.5,584.9"/>
			</g>
			<g>
				<path class="st2" d="M771.8,380.4c9,41.2-82.7,68.8-72.4,109.6c15.9,62.8,106.7,32.1,123.9,94.5"/>
			</g>
			<g>
				<path class="st2" d="M771.5,382.5c8.6,39.7-83.3,67.5-73.2,106.8c16.3,63.4,107.2,32,124.9,94.8"/>
			</g>
			<g>
				<path class="st2" d="M771.1,384.5c8.1,38.3-83.8,66.2-74,104c16.7,63.9,107.6,31.8,126,95.2"/>
			</g>
			<g>
				<path class="st2" d="M770.8,386.6c7.7,36.9-84.4,64.9-74.8,101.2c17.1,64.5,108.1,31.7,127,95.5"/>
			</g>
			<g>
				<path class="st2" d="M770.4,388.7c7.3,35.5-85,63.6-75.6,98.4c17.5,65,108.5,31.5,128.1,95.8"/>
			</g>
			<g>
				<path class="st2" d="M770.1,390.7c6.9,34-85.6,62.3-76.4,95.6c18,65.6,108.9,31.4,129.1,96.2"/>
			</g>
			<g>
				<path class="st2" d="M769.7,392.9c6.5,32.6-86.1,60.9-77.2,92.8c18.5,66.1,109.4,31.3,130.2,96.5"/>
			</g>
			<g>
				<path class="st2" d="M769.4,395c6.1,31.2-86.7,59.6-78,90c18.9,66.7,109.8,31.2,131.3,96.9"/>
			</g>
			<g>
				<path class="st2" d="M769,397.2c5.7,29.8-87.2,58.2-78.8,87.1c19.4,67.2,110.3,31.1,132.3,97.2"/>
			</g>
			<g>
				<path class="st2" d="M768.7,399.4c5.2,28.4-87.7,56.7-79.7,84.3c19.9,67.7,110.7,31,133.3,97.6"/>
			</g>
			<g>
				<path class="st2" d="M768.3,401.6c4.8,26.9-88.2,55.3-80.5,81.3c20.4,68.3,111.1,30.9,134.4,98"/>
			</g>
			<g>
				<path class="st2" d="M768,403.8c4.4,25.5-88.7,53.8-81.3,78.4c20.9,68.9,111.5,30.7,135.4,98.3"/>
			</g>
			<g>
				<path class="st2" d="M740.3-90.1c10.8,139.2-80.1,147.2-71.7,286.6c4.9,81.2,95.9,75.9,98.5,157.3"/>
			</g>
			<g class="st29">
				<path class="st2" d="M742.1-83.3c10.4,137.1-80.3,144.9-72.4,282.1c4.6,80,95.4,75.2,97.4,155.3"/>
			</g>
			<g class="st30">
				<path class="st2" d="M743.9-76.4c10.1,135-80.4,142.4-73.2,277.6c4.3,78.7,94.9,74.5,96.4,153.3"/>
			</g>
			<g class="st31">
				<path class="st2" d="M745.7-69.5c9.7,132.8-80.6,140-73.9,273.1c3.9,77.4,94.4,73.8,95.3,151.4"/>
			</g>
			<g class="st9">
				<path class="st2" d="M747.5-62.7c9.4,130.7-80.8,137.6-74.6,268.5c3.6,76.2,93.8,73.2,94.2,149.5"/>
			</g>
			<g class="st32">
				<path class="st2" d="M749.3-55.8c9,128.6-80.9,135.1-75.3,264c3.2,74.9,93.3,72.6,93.1,147.7"/>
			</g>
			<g class="st33">
				<path class="st2" d="M751.1-48.9c8.7,126.5-81,132.7-76,259.4c2.9,73.7,92.8,72,92,145.8"/>
			</g>
			<g class="st14">
				<path class="st2" d="M752.9-42c8.3,124.4-81.2,130.2-76.8,254.8c2.6,72.5,92.2,71.4,90.9,144"/>
			</g>
			<g class="st16">
				<path class="st2" d="M754.7-35.1c7.9,122.3-81.4,127.8-77.5,250.3c2.2,71.2,91.6,70.9,89.9,142.2"/>
			</g>
			<g class="st34">
				<path class="st2" d="M756.5-28.3c7.6,120.1-81.5,125.3-78.2,245.7c1.9,70,91.1,70.3,88.7,140.4"/>
			</g>
			<g class="st35">
				<path class="st2" d="M758.3-21.4c7.2,118-81.7,122.8-78.9,241.1c1.6,68.8,90.6,69.9,87.7,138.6"/>
			</g>
			<g class="st21">
				<path class="st2" d="M760.1-14.5c6.9,115.9-81.8,120.3-79.6,236.4c1.3,67.5,90,69.4,86.6,136.9"/>
			</g>
			<g class="st36">
				<path class="st2" d="M761.9-7.6c6.5,113.7-82,117.8-80.4,231.8c0.9,66.3,89.4,69,85.4,135.1"/>
			</g>
			<g class="st37">
				<path class="st2" d="M763.7-0.7c6.2,111.6-82.1,115.3-81.1,227.2c0.6,65.2,88.8,68.5,84.3,133.5"/>
			</g>
			<g class="st38">
				<path class="st2" d="M765.5,6.2c5.8,109.5-82.2,112.8-81.8,222.5c0.3,63.9,88.2,68.2,83.2,131.8"/>
			</g>
			<g class="st28">
				<path class="st2" d="M767.3,13.1c5.5,107.4-82.4,110.2-82.5,217.8c0,62.7,87.7,67.8,82,130.2"/>
			</g>
			<g class="st39">
				<path class="st2" d="M769.1,20c5.1,105.3-82.5,107.7-83.2,213.1c-0.4,61.5,87.1,67.5,80.9,128.7"/>
			</g>
			<g class="st39">
				<path class="st2" d="M686,236.4c-5.1-105.3,88.3-111.1,83.1-216.4"/>
			</g>
			<g class="st40">
				<path class="st2" d="M687.2,230.4c-4.2-105.5,89.3-110.2,85.1-215.8"/>
			</g>
			<g class="st41">
				<path class="st2" d="M688.5,224.4C685.3,118.6,778.8,115,775.7,9.2"/>
			</g>
			<g class="st42">
				<path class="st2" d="M689.8,218.4c-2.2-106.1,91.3-108.6,89.1-214.7"/>
			</g>
			<g class="st43">
				<path class="st2" d="M691.1,212.4c-1.2-106.4,92.3-107.8,91.1-214.1"/>
			</g>
			<g class="st44">
				<path class="st2" d="M692.4,206.5C692.2,99.8,785.7,99.6,785.5-7.1"/>
			</g>
			<g class="st45">
				<path class="st2" d="M693.7,200.5c0.7-107,94.3-106.1,95.1-213"/>
			</g>
			<g class="st46">
				<path class="st2" d="M695,194.5c1.7-107.2,95.2-105.3,97-212.5"/>
			</g>
			<g class="st46">
				<path class="st2" d="M696.3,188.6c2.7-107.5,96.2-104.5,98.9-212"/>
			</g>
			<g class="st47">
				<path class="st2" d="M697.6,182.6c3.7-107.8,97.2-103.7,100.9-211.5"/>
			</g>
			<g class="st48">
				<path class="st2" d="M698.9,176.6c4.7-108.1,98.1-102.9,102.8-211"/>
			</g>
			<g class="st49">
				<path class="st2" d="M700.2,170.7c5.7-108.3,99-102.1,104.7-210.4"/>
			</g>
			<g class="st50">
				<path class="st2" d="M701.5,164.7c6.6-108.6,99.9-101.3,106.6-210"/>
			</g>
			<g class="st51">
				<path class="st2" d="M702.9,158.8C710.5,49.9,803.7,58.2,811.3-50.7"/>
			</g>
			<g class="st52">
				<path class="st2" d="M704.2,152.8c8.6-109.2,101.7-99.8,110.4-209"/>
			</g>
			<g class="st53">
				<path class="st2" d="M705.5,146.9c9.6-109.5,102.6-99,112.2-208.5"/>
			</g>
			<g class="st54">
				<path class="st2" d="M706.8,140.9C717.4,31.2,810.4,42.7,820.9-67.1"/>
			</g>
			<g>
				<path class="st2" d="M762,194.3c-1.6,69.8-95.1,67-96.7,136.7"/>
			</g>
			<g>
				<path class="st2" d="M762.2,198.3c-1.4,70.2-94.9,67.9-96.2,138.1"/>
			</g>
			<g>
				<path class="st2" d="M762.3,202.1c-1.1,70.8-94.6,68.9-95.8,139.6"/>
			</g>
			<g>
				<path class="st2" d="M762.4,206c-0.9,71.2-94.4,69.8-95.3,141"/>
			</g>
			<g>
				<path class="st2" d="M762.6,209.9c-0.7,71.8-94.1,70.7-94.8,142.5"/>
			</g>
			<g>
				<path class="st2" d="M762.7,213.7c-0.4,72.2-93.9,71.6-94.3,143.9"/>
			</g>
			<g>
				<path class="st2" d="M762.8,217.6c-0.1,72.8-93.7,72.5-93.8,145.3"/>
			</g>
			<g>
				<path class="st2" d="M762.9,221.5c0.1,73.2-93.4,73.5-93.3,146.7"/>
			</g>
			<g>
				<path class="st2" d="M763.1,225.4c0.4,73.8-93.1,74.4-92.8,148.1"/>
			</g>
			<g>
				<path class="st2" d="M763.2,229.3c0.6,74.3-92.9,75.3-92.3,149.5"/>
			</g>
			<g>
				<path class="st2" d="M763.4,233.2c0.8,74.8-92.7,76.1-91.8,150.9"/>
			</g>
			<g>
				<path class="st2" d="M763.5,237.1c1.1,75.3-92.4,77-91.3,152.3"/>
			</g>
			<g>
				<path class="st2" d="M763.6,241c1.4,75.8-92.2,77.9-90.8,153.7"/>
			</g>
			<g>
				<path class="st2" d="M763.8,244.9c1.6,76.3-91.9,78.8-90.3,155.1"/>
			</g>
			<g>
				<path class="st2" d="M763.9,248.8c1.8,76.8-91.6,79.7-89.8,156.4"/>
			</g>
			<g>
				<path class="st2" d="M764,252.7c2.1,77.3-91.4,80.5-89.3,157.8"/>
			</g>
			<g>
				<path class="st2" d="M764.2,256.6c2.3,77.8-91.1,81.4-88.8,159.2"/>
			</g>
			<g>
				<path class="st2" d="M725.7-61.2c10,128.9-80.2,136.4-73.3,265.6c2.9,53.7,93.2,50.8,93,104.6"/>
			</g>
			<g class="st3">
				<path class="st2" d="M726.6-63c10,129.5-80.1,137-73.2,266.8c2.9,54.7,93.1,52,92.9,106.8"/>
			</g>
			<g class="st4">
				<path class="st2" d="M727.6-64.8c10.1,130.2-79.9,137.6-73.1,268.1c2.9,55.7,93,53.1,92.7,108.9"/>
			</g>
			<g class="st5">
				<path class="st2" d="M728.4-66.6c10.1,130.8-79.8,138.2-73,269.3c2.9,56.7,93,54.2,92.5,111"/>
			</g>
			<g class="st6">
				<path class="st2" d="M729.4-68.5C739.5,63,649.7,70.4,656.4,202.1c2.9,57.7,92.9,55.3,92.3,113.1"/>
			</g>
			<g class="st55">
				<path class="st2" d="M730.3-70.3c10.2,132.1-79.5,139.4-72.8,271.8c2.9,58.7,92.8,56.4,92.2,115.2"/>
			</g>
			<g class="st56">
				<path class="st2" d="M731.2-72.1C741.4,60.7,651.8,68,658.4,201c2.9,59.7,92.7,57.5,92,117.3"/>
			</g>
			<g class="st57">
				<path class="st2" d="M732.1-73.9c10.3,133.4-79.2,140.6-72.7,274.4c2.9,60.7,92.6,58.6,91.8,119.5"/>
			</g>
			<g class="st32">
				<path class="st2" d="M733-75.7c10.4,134.1-79,141.3-72.6,275.6c3,61.7,92.5,59.8,91.6,121.6"/>
			</g>
			<g class="st58">
				<path class="st2" d="M733.9-77.5C744.3,57.2,655,64.4,661.5,199.4c3,62.7,92.4,60.9,91.5,123.6"/>
			</g>
			<g class="st59">
				<path class="st2" d="M734.8-79.3C745.3,56,656.1,63.1,662.5,198.8c3,63.7,92.3,62,91.3,125.8"/>
			</g>
			<g class="st60">
				<path class="st2" d="M735.7-81.1c10.5,136-78.6,143.1-72.2,279.4c3,64.7,92.3,63.1,91.1,127.8"/>
			</g>
			<g class="st15">
				<path class="st2" d="M736.7-82.9c10.6,136.7-78.5,143.6-72.1,280.7c3,65.7,92.2,64.1,90.9,129.9"/>
			</g>
			<g class="st61">
				<path class="st2" d="M737.6-84.7c10.6,137.3-78.3,144.3-72.1,281.9c3,66.7,92.1,65.3,90.7,132"/>
			</g>
			<g class="st62">
				<path class="st2" d="M738.5-86.5c10.7,137.9-78.1,144.9-72,283.2c3,67.7,92,66.4,90.6,134.1"/>
			</g>
			<g class="st63">
				<path class="st2" d="M739.4-88.3c10.7,138.6-78,145.5-71.9,284.4c3,68.7,91.9,67.4,90.4,136.2"/>
			</g>
			<g class="st35">
				<path class="st2" d="M740.3-90.1C751.1,49.2,662.5,56,668.5,195.6c3,69.7,91.8,68.5,90.2,138.2"/>
			</g>
			<g>
				<path class="st2" d="M742.6,326.8c-8,25.1-96-11-104,14.2c-10.4,32.5,76.5,64.3,68.1,97.5c-10.5,41.9-110.6,30-108.5,73.5
					c3.5,72.6,99.9,54,119,123.5c11.8,42.9-66.4,67.5-56,110.9c12.3,51.5,97.1,33,102.5,86.1"/>
			</g>
			<g class="st3">
				<path class="st2" d="M744.1,326.1c-7.2,26.1-95.9-6.2-103.5,19.7c-9.7,33.1,77.3,62.4,69.4,96.1c-10,42.6-109.6,32-107.3,76
					c3.8,72.3,100.8,53.8,119,123.2c11.5,43.9-68.2,67.7-58.4,112.1c11.2,50.8,96.7,33.6,101.7,85.7"/>
			</g>
			<g class="st4">
				<path class="st2" d="M745.5,325.4c-6.4,27.1-95.6-1.6-102.8,25.2c-9,33.7,78.1,60.5,70.7,94.7c-9.4,43.2-108.7,34.1-106.1,78.5
					c4.2,72,101.6,53.6,119,123c11.3,44.9-70,67.9-60.7,113.4c10.2,50.1,96.5,34.2,100.8,85.3"/>
			</g>
			<g class="st5">
				<path class="st2" d="M746.8,324.9c-5.6,28.1-95.2,2.8-101.9,30.5c-8.3,34.2,78.9,58.8,72,93.4c-8.8,43.9-107.7,36.1-104.9,81
					c4.5,71.7,102.4,53.4,119,122.7c11,46-71.8,68-63.1,114.7c9.2,49.3,96.1,34.8,99.9,85"/>
			</g>
			<g class="st6">
				<path class="st2" d="M748,324.4c-4.8,29.1-94.7,7-101,35.7c-7.6,34.8,79.6,57.1,73.1,92.1c-8.2,44.6-106.7,38.1-103.6,83.5
					c4.9,71.3,103.2,53.2,119,122.5c10.7,47.1-73.5,68.1-65.4,115.9c8.2,48.5,95.8,35.5,99,84.7"/>
			</g>
			<g class="st55">
				<path class="st2" d="M749.1,324c-4,30-94,11.2-99.8,40.8c-6.9,35.3,80.2,55.4,74.2,90.9c-7.6,45.3-105.8,40-102.4,85.9
					c5.2,71,104,53,118.9,122.2c10.4,48.3-75.1,68.2-67.7,117.2c7.2,47.7,95.4,36.1,98.1,84.4"/>
			</g>
			<g class="st56">
				<path class="st2" d="M750.1,323.6c-3.1,31-93.3,15.1-98.6,45.8c-6.2,35.8,80.8,53.8,75.3,89.8c-7.1,45.9-104.7,41.9-101,88.3
					c5.6,70.7,104.7,52.8,118.9,121.9c10.1,49.5-76.7,68.2-70,118.4c6.3,46.9,95,36.8,97.1,84.1"/>
			</g>
			<g class="st57">
				<path class="st2" d="M751.1,323.5c-2.3,32-92.5,19-97.4,50.6c-5.5,36.3,81.4,52.2,76.3,88.6c-6.5,46.6-103.7,43.8-99.8,90.8
					c5.9,70.3,105.4,52.7,118.8,121.7c9.8,50.7-78.3,68.2-72.2,119.7c5.4,46,94.6,37.5,96.1,83.9"/>
			</g>
			<g class="st32">
				<path class="st2" d="M752.1,323.3c-1.5,33-91.6,22.7-95.9,55.3c-4.9,36.7,81.8,50.8,77.2,87.5c-5.9,47.3-102.7,45.7-98.5,93.1
					c6.3,70,106.1,52.5,118.8,121.4c9.5,52-79.8,68.2-74.4,121c4.5,45.2,94.1,38.2,95.1,83.7"/>
			</g>
			<g class="st58">
				<path class="st2" d="M752.9,323.3c-0.7,33.9-90.7,26.3-94.5,59.9c-4.2,37.2,82.3,49.3,78.2,86.5c-5.3,48-101.7,47.5-97.1,95.5
					c6.6,69.7,106.8,52.4,118.7,121.1c9.2,53.3-81.2,68.2-76.6,122.3c3.7,44.3,93.7,39,94,83.5"/>
			</g>
			<g class="st59">
				<path class="st2" d="M753.8,323.3c0.1,34.9-89.7,29.7-93,64.4c-3.6,37.6,82.7,47.9,79.1,85.5c-4.7,48.6-100.6,49.3-95.8,97.9
					c6.9,69.3,107.5,52.2,118.6,120.8c8.8,54.6-82.6,68.2-78.8,123.6c2.9,43.5,93.2,39.8,93,83.4"/>
			</g>
			<g class="st60">
				<path class="st2" d="M754.6,323.5c0.9,35.9-88.7,33-91.4,68.8c-2.9,38.1,83.1,46.5,79.9,84.6c-4.2,49.3-99.5,51.1-94.4,100.2
					c7.2,69,108.1,52.1,118.5,120.6c8.5,56-83.9,68.2-81,124.9c2.2,42.6,92.7,40.6,91.9,83.3"/>
			</g>
			<g class="st15">
				<path class="st2" d="M755.4,323.6c1.8,36.8-87.6,36.1-89.8,73c-2.3,38.5,83.5,45.3,80.8,83.7c-3.6,50-98.5,52.8-93,102.6
					c7.5,68.6,108.7,52,118.4,120.2c8.1,57.4-85.2,68.2-83.1,126.3c1.5,41.7,92.1,41.4,90.8,83.1"/>
			</g>
			<g class="st61">
				<path class="st2" d="M756.1,323.9c2.6,37.8-86.5,39.2-88.1,77.2c-1.7,38.9,83.8,44,81.5,82.9c-3,50.7-97.4,54.5-91.7,104.9
					c7.8,68.3,109.3,51.9,118.3,120c7.8,58.8-86.4,68.2-85.2,127.6c0.8,40.8,91.6,42.3,89.6,83.1"/>
			</g>
			<g class="st62">
				<path class="st2" d="M756.9,324.3c3.4,38.8-85.4,42.2-86.5,81.2c-1.1,39.3,84.1,42.8,82.3,82.1c-2.4,51.4-96.4,56.2-90.3,107.2
					c8.1,68,109.9,51.8,118.2,119.7c7.4,60.2-87.5,68.2-87.3,129c0.2,39.9,90.9,43.2,88.5,83"/>
			</g>
			<g class="st63">
				<path class="st2" d="M757.6,324.6c4.2,39.8-84.2,45-84.7,85.2c-0.5,39.7,84.4,41.7,83,81.4c-1.8,52.1-95.3,57.8-88.9,109.5
					c8.4,67.6,110.4,51.7,118.1,119.3c7,61.7-88.7,68.2-89.4,130.4c-0.4,39,90.3,44.2,87.3,83"/>
			</g>
			<g class="st35">
				<path class="st2" d="M758.3,325.1c5,40.8-83,47.8-83,89c0.1,40.1,84.7,40.6,83.7,80.7c-1.2,52.8-94.2,59.4-87.5,111.7
					c8.7,67.3,111,51.5,118,119c6.5,63.1-89.7,68.2-91.4,131.7c-1,38.1,89.6,45.1,86,83.1"/>
			</g>
			<g>
				<path class="st2" d="M768.4,421.3c-4.9,39.7-101.9,30.7-102.8,70.9c-1.2,52.8,91.8,46.8,98.6,99.1
					c8.7,67.3-74.5,79.3-67.4,146.8c6.5,62.9,96.7,58.7,95,122c-1,38.4-104.6,43.1-100.4,81.2c6.6,60.8,112.1,42.7,120.9,103.2
					c8.1,55.3-90.2,67.5-87.5,123.5"/>
			</g>
			<g>
				<path class="st2" d="M769,423.8c-4.3,38.7-101.3,31-101.8,69.9c-0.7,52.9,92.3,46.1,99.2,98.4c8.9,66.3-74.5,78.9-67.2,145.4
					c6.8,62,97.5,57.7,95.7,120.2c-1.2,40.9-105.9,44.6-101.9,85.3c6,61.5,112.1,44.3,120.8,105.4c7.9,55.1-90.5,66.8-88.1,122.6"/>
			</g>
			<g>
				<path class="st2" d="M769.6,426.3c-3.8,37.6-100.6,31.2-100.8,69.1c-0.2,53,92.7,45.3,99.9,97.6c9.1,65.4-74.5,78.5-67,144.1
					c7,61.2,98.4,56.8,96.4,118.4c-1.4,43.5-107.1,46.2-103.4,89.4c5.4,62.2,112.2,45.9,120.7,107.7c7.6,55-90.9,66.1-88.8,121.7"/>
			</g>
			<g>
				<path class="st2" d="M770.3,428.8c-3.2,36.6-100,31.5-99.7,68.3c0.4,53.1,93,44.5,100.6,96.9c9.2,64.4-74.5,78.1-66.8,142.7
					c7.2,60.3,99.3,55.8,97.1,116.6c-1.6,46-108.3,47.7-104.9,93.6c4.8,62.9,112.2,47.4,120.5,109.9c7.3,54.9-91.2,65.3-89.4,120.8"
					/>
			</g>
			<g>
				<path class="st2" d="M770.9,431.2c-2.7,35.5-99.3,31.9-98.7,67.5c0.9,53.1,93.5,43.7,101.2,96.2c9.4,63.5-74.5,77.7-66.5,141.5
					c7.4,59.4,100.1,54.8,97.8,114.8c-1.8,48.5-109.5,49.3-106.3,97.8c4.2,63.6,112.2,49,120.4,112c7.1,54.8-91.6,64.6-90.1,119.9"
					/>
			</g>
			<g>
				<path class="st2" d="M771.5,433.6c-2.1,34.4-98.6,32.3-97.6,66.8c1.4,53.2,93.8,42.9,101.9,95.4c9.5,62.5-74.5,77.4-66.4,140.1
					c7.6,58.6,100.9,53.8,98.5,113c-2.1,51.1-110.7,50.9-107.8,101.9c3.6,64.3,112.2,50.4,120.2,114.2c6.9,54.6-91.9,63.8-90.8,119"
					/>
			</g>
			<g>
				<path class="st2" d="M772.1,435.9c-1.5,33.3-97.8,32.9-96.5,66.2c2.1,53.3,94.2,42,102.5,94.6c9.7,61.6-74.5,77.1-66.1,138.8
					c7.9,57.7,101.7,52.8,99.2,111.1c-2.3,53.7-111.8,52.6-109.2,106.2c3.1,64.9,112.2,51.9,120,116.3
					c6.6,54.5-92.3,63.1-91.4,118.1"/>
			</g>
			<g>
				<path class="st2" d="M772.7,438.2c-1,32.3-97,33.4-95.4,65.7c2.6,53.4,94.6,41.2,103.1,93.8c9.9,60.6-74.5,76.7-65.8,137.6
					c8.1,56.9,102.5,51.8,99.9,109.3c-2.6,56.2-112.9,54.3-110.7,110.5c2.6,65.6,112.2,53.3,119.8,118.4
					c6.4,54.4-92.6,62.4-92.1,117.2"/>
			</g>
			<g>
				<path class="st2" d="M773.2,440.4c-0.5,31.2-96.2,34.1-94.3,65.3c3.2,53.5,94.9,40.3,103.8,92.9c10,59.6-74.5,76.4-65.6,136.3
					c8.3,56,103.3,50.7,100.5,107.4c-2.8,58.7-114,56-112.1,114.8c2.1,66.2,112.2,54.7,119.7,120.4c6.1,54.2-92.9,61.7-92.7,116.3"
					/>
			</g>
			<g>
				<path class="st2" d="M773.8,442.5c0.1,30.2-95.3,34.8-93.2,64.9c3.9,53.6,95.2,39.4,104.4,92.1c10.1,58.7-74.4,76.2-65.4,135.1
					c8.5,55.2,104,49.6,101.2,105.5c-3.1,61.3-115.1,57.7-113.6,119.1c1.6,66.8,112.2,56,119.5,122.5c5.9,54.1-93.2,60.9-93.3,115.5
					"/>
			</g>
			<g>
				<path class="st2" d="M774.4,444.5c0.7,29.1-94.5,35.6-92,64.6c4.5,53.6,95.6,38.5,105,91.2c10.3,57.7-74.4,75.8-65.1,133.8
					c8.7,54.4,104.8,48.5,101.9,103.6c-3.4,63.9-116.1,59.5-115,123.5c1.2,67.5,112.2,57.4,119.3,124.5c5.7,54-93.6,60.2-93.9,114.6
					"/>
			</g>
			<g>
				<path class="st2" d="M774.9,446.5c1.2,28.1-93.5,36.5-90.8,64.4c5.1,53.6,95.9,37.5,105.5,90.3c10.4,56.8-74.3,75.6-64.8,132.6
					c8.9,53.5,105.5,47.4,102.6,101.7c-3.6,66.4-117.2,61.3-116.5,127.9c0.7,68.2,112.2,58.7,119.1,126.4
					c5.5,53.9-93.9,59.5-94.6,113.7"/>
			</g>
			<g>
				<path class="st2" d="M775.3,448.4c1.7,27-92.4,37.5-89.5,64.3c5.8,53.7,96.1,36.6,106.1,89.5c10.6,55.9-74.3,75.4-64.6,131.4
					c9.2,52.7,106.3,46.3,103.2,99.8c-3.9,69-118.2,63.2-117.9,132.3c0.3,68.8,112.2,60,118.9,128.4c5.2,53.7-94.2,58.7-95.2,112.8"
					/>
			</g>
			<g>
				<path class="st2" d="M775.8,450.1c2.3,25.9-91.4,38.5-88.2,64.4c6.5,53.7,96.4,35.6,106.7,88.5c10.7,54.9-74.3,75.1-64.3,130.2
					c9.4,51.8,107,45.1,103.9,97.9c-4.2,71.6-119.2,65-119.3,136.8c-0.1,69.4,112.2,61.3,118.7,130.4c5,53.6-94.5,58-95.9,111.9"/>
			</g>
			<g>
				<path class="st2" d="M776.2,451.8c2.9,24.9-90.2,39.7-86.9,64.5c7.2,53.7,96.6,34.6,107.2,87.6c10.8,54-74.2,74.9-64,129
					c9.6,51,107.7,43.9,104.6,95.9c-4.5,74.1-120.2,67-120.7,141.2c-0.5,70.1,112.2,62.6,118.4,132.3c4.8,53.5-94.9,57.3-96.5,111"
					/>
			</g>
			<g>
				<path class="st2" d="M776.5,453.4c3.4,23.8-89,41-85.4,64.8c7.9,53.7,96.8,33.6,107.7,86.6s-74.1,74.7-63.7,127.9
					c9.8,50.1,108.4,42.7,105.2,93.9c-4.8,76.7-121.2,68.8-122.2,145.7c-0.9,70.7,112.2,63.8,118.3,134.2
					c4.6,53.3-95.2,56.5-97.1,110.1"/>
			</g>
			<g>
				<path class="st2" d="M776.8,454.8c4,22.7-87.6,42.4-83.9,65.3c8.7,53.7,97,32.6,108.2,85.7c11,52.1-74,74.5-63.4,126.7
					c10.1,49.3,109.1,41.5,105.9,91.9c-5.1,79.2-122.1,70.8-123.6,150.1c-1.3,71.3,112.2,65.1,118,136.1
					c4.4,53.2-95.5,55.8-97.7,109.2"/>
			</g>
			<g>
				<path class="st2" d="M779.7,463.1c3.8,21.8-87.7,41.7-84.2,63.5c8.3,50.8,96.6,29.3,107.4,79.4c11,50.9-74,73.8-63.4,124.7
					c10.7,51.2,110.1,42.6,107.1,95.1c-4.5,78.9-121.5,70.8-123.1,149.8c-1.4,70.8,111.7,65.3,117,135.8c4,53.6-95.9,55.3-98.5,109"
					/>
			</g>
			<g>
				<path class="st2" d="M782.7,471.4c3.7,20.8-87.8,40.9-84.4,61.8c7.9,47.8,96.1,26,106.5,73.2c10.9,49.8-74,73-63.5,122.8
					c11.3,53.1,111.1,43.7,108.3,98.2C845.8,906,728.9,898.3,727.1,977c-1.6,70.2,111.2,65.5,115.9,135.6
					c3.6,54-96.3,54.7-99.4,108.7"/>
			</g>
			<g>
				<path class="st2" d="M785.7,479.7c3.6,19.8-87.9,40.2-84.5,60.1c7.4,44.8,95.6,22.7,105.6,66.9c10.9,48.5-74,72.3-63.5,120.9
					c11.9,54.9,112,44.8,109.6,101.4c-3.3,78.2-120.2,70.9-122.2,149.1c-1.7,69.8,110.8,65.7,114.9,135.3
					c3.2,54.4-96.7,54.1-100.2,108.4"/>
			</g>
			<g>
				<path class="st2" d="M788.6,488c3.5,18.9-88,39.5-84.8,58.4c7,41.8,95.2,19.4,104.6,60.6c10.9,47.4-73.9,71.6-63.5,119
					c12.5,56.8,112.9,46,110.9,104.5c-2.8,77.9-119.6,70.9-121.7,148.8c-1.9,69.2,110.3,65.9,113.8,135.1
					c2.8,54.8-97.2,53.6-101,108.2"/>
			</g>
			<g>
				<path class="st2" d="M791.6,496.3c3.4,17.9-88,38.8-85,56.8c6.6,38.8,94.7,16,103.7,54.2c10.9,46.2-73.8,70.9-63.5,117.2
					c13.2,58.7,113.8,47.2,112.1,107.7c-2.2,77.5-119,70.9-121.2,148.4c-2,68.7,109.7,66.2,112.8,134.8c2.4,55.1-97.5,53-101.8,108"
					/>
			</g>
			<g>
				<path class="st2" d="M794.5,504.5c3.2,16.9-88,38.2-85.1,55.2c6.2,35.9,94.2,12.5,102.8,47.8c10.9,44.9-73.7,70.2-63.5,115.3
					c13.8,60.6,114.7,48.3,113.3,110.9c-1.7,77.1-118.3,70.9-120.8,148c-2.2,68.2,109.2,66.4,111.7,134.6
					c2,55.5-98,52.4-102.6,107.8"/>
			</g>
			<g>
				<path class="st2" d="M797.5,512.8c3.1,16-88.1,37.6-85.3,53.6c5.8,32.9,93.8,9,101.8,41.3c10.9,43.8-73.6,69.6-63.4,113.5
					c14.5,62.5,115.5,49.5,114.6,114.2c-1.2,76.7-117.7,70.9-120.3,147.6c-2.3,67.6,108.7,66.6,110.6,134.3
					c1.6,55.9-98.3,51.9-103.4,107.5"/>
			</g>
			<g>
				<path class="st2" d="M800.4,521c3,15-88.2,37-85.5,52.1c5.3,30,93.3,5.4,100.9,34.8c10.9,42.6-73.5,69-63.4,111.8
					C767.7,784,868.8,770.4,868.2,837c-0.7,76.4-117,70.9-119.8,147.2c-2.4,67.2,108.2,66.9,109.6,134.1
					c1.2,56.3-98.7,51.4-104.2,107.3"/>
			</g>
			<g>
				<path class="st2" d="M803.3,529.2c2.9,14-88.2,36.6-85.6,50.7c4.9,27,92.9,1.7,99.8,28.1c11,41.3-73.3,68.4-63.3,110
					c15.9,66.3,117.2,51.9,117,120.6c-0.2,76-116.4,70.8-119.3,146.8c-2.6,66.6,107.6,67.2,108.5,133.8
					c0.7,56.7-99.1,50.8-105,107.1"/>
			</g>
			<g>
				<path class="st2" d="M806.2,537.3c2.8,13.1-88.2,36.2-85.8,49.4c4.5,24,92.3-2,98.8,21.4c11,40.1-73.1,67.9-63.3,108.4
					c16.6,68.1,118,53.1,118.3,123.8c0.3,75.6-115.7,70.8-118.8,146.3c-2.7,66.2,107.1,67.4,107.4,133.6
					c0.3,57.1-99.5,50.3-105.8,106.9"/>
			</g>
			<g>
				<path class="st2" d="M809.2,545.4c2.6,12.1-88.2,35.9-85.8,48.1c4.1,21.1,91.9-5.9,97.8,14.6c11.2,38.8-72.9,67.4-63.2,106.8
					c17.3,70,118.8,54.4,119.5,127.1c0.7,75.3-115.1,70.7-118.3,145.9c-2.8,65.7,106.5,67.6,106.3,133.4
					c-0.1,57.4-99.8,49.8-106.6,106.7"/>
			</g>
			<g>
				<path class="st2" d="M812,553.4c2.5,11.2-88.2,35.8-85.9,47.1c3.6,18,91.4-10.1,96.7,7.5c11.3,37.6-72.6,67-63,105.2
					c18.1,71.9,119.5,55.6,120.7,130.4c1.2,74.9-114.4,70.7-117.8,145.4c-2.9,65.2,105.9,67.9,105.3,133.1
					c-0.6,57.8-100.2,49.3-107.3,106.5"/>
			</g>
			<g>
				<path class="st2" d="M814.9,561.4c2.4,10.2-88.1,35.9-85.9,46.2c3.2,15.1,90.9-14.4,95.5,0.3c11.5,36.4-72.3,66.7-62.8,103.8
					c18.8,73.7,120.3,56.9,121.9,133.6c1.6,74.5-113.8,70.6-117.3,145c-3.1,64.7,105.3,68.2,104.2,132.9
					c-1,58.2-100.5,48.7-108.1,106.3"/>
			</g>
			<g>
				<path class="st2" d="M817.8,569.2c2.2,9.2-88,36.3-85.9,45.6c2.7,12.1,90.3-19.1,94.2-7.4c11.7,35-72,66.5-62.7,102.5
					c19.5,75.6,121,58.2,123.2,136.9c2,74.1-113.1,70.5-116.8,144.5c-3.2,64.2,104.7,68.4,103.1,132.7
					c-1.5,58.6-100.9,48.2-108.9,106.1"/>
			</g>
			<g>
				<path class="st2" d="M820.6,576.9c2.1,8.3-87.7,37.1-85.7,45.4c2.2,9.2,89.6-24.2,92.7-15.3c12,33.7-71.5,66.5-62.3,101.3
					c20.3,77.4,121.7,59.5,124.4,140.2c2.4,73.7-112.4,70.4-116.3,144.1c-3.4,63.7,104.1,68.6,102,132.5
					c-2,59-101.2,47.7-109.6,105.9"/>
			</g>
			<g>
				<path class="st2" d="M823.3,584.5c2,7.3-87.3,38.7-85.3,46c1.7,6.2,88.7-30.2,91-24.2c12.3,32.3-70.9,66.6-62,100.3
					c21.1,79.3,122.4,60.8,125.6,143.5c2.8,73.3-111.8,70.3-115.8,143.5c-3.5,63.2,103.5,68.9,100.9,132.3
					c-2.4,59.3-101.6,47.2-110.4,105.7"/>
			</g>
			<g>
				<path class="st2" d="M825.8,587.2c2.1,7-86.8,40.2-84.7,47.2c1.8,6,89-30.5,91.2-24.6c3.2,8.7-82.1,50.7-78.6,59.3
					c9.4,23.2,99.6-15,106,9.4c20.5,78.4-60.1,94.6-56.6,176.2c3.2,73.2,80.5,77.1,71.1,149.6c-1.1,8.9-92.5,4.7-92,13.6
					c3,54,102.2,53.8,99.4,107.7c-3.1,59.8-101.7,47-110.6,106"/>
			</g>
			<g>
				<path class="st2" d="M828.2,589.8c2.1,6.8-86.2,41.7-84.1,48.5c1.8,5.9,88.6-32.3,90.7-26.6c3.2,8.5-81.7,51.3-78.3,59.7
					c9.4,23.1,99.2-15.5,105.7,8.8c20.7,77.3-59.6,93.9-55.7,174.5c3.5,73.2,80.9,76.7,71.7,149.3c-1.1,8.8-92.7,4.5-92.2,13.3
					c2.8,53.7,102,53.9,99,107.6c-3.3,60.2-101.8,47.2-110.9,106.7"/>
			</g>
			<g>
				<path class="st2" d="M830.7,592.4c2.2,6.6-85.6,43.2-83.4,49.9c1.9,5.7,88-34.2,90.2-28.7c3.3,8.3-81.2,51.9-77.9,60.2
					c9.4,23,98.8-16,105.4,8.2c20.9,76.1-59,93.3-54.8,172.8c3.9,73.1,81.3,76.3,72.3,148.8c-1.1,8.7-92.8,4.3-92.4,13.1
					c2.5,53.5,101.7,54.1,98.7,107.5c-3.5,60.7-101.9,47.5-111.1,107.4"/>
			</g>
			<g>
				<path class="st2" d="M833,594.9c2.2,6.4-84.9,44.9-82.7,51.3c1.9,5.5,87.4-36.1,89.7-30.8c3.3,8-80.8,52.6-77.4,60.7
					c9.4,22.9,98.4-16.5,105.2,7.6c21.1,74.9-58.4,92.6-53.9,171.1c4.3,73.1,81.6,75.8,72.8,148.4c-1,8.7-93,4.1-92.6,12.9
					c2.3,53.2,101.5,54.2,98.3,107.4c-3.7,61.2-102,47.7-111.3,108.2"/>
			</g>
			<g>
				<path class="st2" d="M835.3,597.5c2.2,6.1-84.1,46.7-81.9,52.9c1.9,5.3,86.8-38.2,89-33.1c3.4,7.8-80.2,53.3-77,61.2
					c9.5,22.8,98-17,104.9,6.9c21.3,73.8-57.8,91.9-52.9,169.4c4.6,73,82.1,75.4,73.4,148c-1,8.6-93.1,4-92.8,12.6
					c2.1,53,101.3,54.4,98,107.3c-3.9,61.7-102.2,48-111.6,108.9"/>
			</g>
			<g>
				<path class="st2" d="M837.6,599.9c2.3,5.9-83.3,48.6-81,54.5c2,5.1,86.1-40.3,88.4-35.3c3.4,7.6-79.7,54-76.5,61.8
					c9.5,22.7,97.6-17.6,104.6,6.2c21.6,72.7-57.2,91.3-51.9,167.7c5,72.9,82.4,75,74,147.6c-1,8.5-93.2,3.8-93,12.4
					c1.9,52.8,101,54.6,97.6,107.2c-4.1,62.2-102.3,48.3-111.8,109.7"/>
			</g>
			<g>
				<path class="st2" d="M839.9,602.3c2.3,5.7-82.3,50.6-80,56.3c2,4.9,85.3-42.5,87.6-37.7c3.5,7.4-79.1,54.8-75.9,62.3
					c9.5,22.5,97.2-18,104.4,5.6c21.7,71.5-56.6,90.7-51,166c5.4,72.9,82.8,74.6,74.5,147.1c-1,8.4-93.4,3.7-93.1,12.1
					c1.7,52.5,100.8,54.8,97.3,107.1c-4.3,62.7-102.4,48.5-112.1,110.4"/>
			</g>
			<g>
				<path class="st2" d="M842.1,604.7c2.4,5.5-81.3,52.7-78.9,58.2c2.1,4.7,84.4-44.8,86.7-40.2c3.6,7.1-78.5,55.6-75.3,63
					c9.6,22.4,96.7-18.6,104.1,4.9c22,70.4-55.9,90-50,164.4c5.8,72.8,83.2,74.1,75.1,146.7c-0.9,8.4-93.6,3.4-93.3,11.9
					c1.4,52.2,100.6,54.9,96.9,107c-4.4,63.1-102.5,48.8-112.4,111.1"/>
			</g>
			<g>
				<path class="st2" d="M844.3,607c2.5,5.2-80.1,54.8-77.7,60.1c2.1,4.5,83.5-47.2,85.8-42.8c3.6,6.9-77.8,56.5-74.7,63.6
					c9.6,22.3,96.3-19.1,103.8,4.2c22.2,69.2-55.3,89.4-49,162.7c6.2,72.7,83.6,73.7,75.7,146.2c-0.9,8.3-93.7,3.3-93.5,11.6
					c1.2,52,100.3,55.1,96.5,107c-4.7,63.6-102.6,49.1-112.6,111.8"/>
			</g>
			<g>
				<path class="st2" d="M846.3,609.2c2.5,5-78.9,57.2-76.4,62.2c2.2,4.3,82.4-49.6,84.7-45.5c3.6,6.6-77.1,57.3-74.1,64.4
					c9.6,22.2,95.9-19.7,103.5,3.5C906.4,762,829.4,782.7,836,855c6.6,72.7,83.9,73.2,76.2,145.8c-0.9,8.3-93.8,3.1-93.7,11.4
					c1,51.8,100.1,55.3,96.1,106.9c-4.9,64.1-102.7,49.3-112.9,112.6"/>
			</g>
			<g>
				<path class="st2" d="M848.3,611.4c2.6,4.8-77.5,59.5-74.9,64.4c2.2,4.1,81.2-52.2,83.5-48.2c3.7,6.4-76.4,58.2-73.3,65.1
					c9.7,22.1,95.4-20.2,103.2,2.8c22.6,67-54,88.2-47.1,159.5c7,72.6,84.3,72.8,76.8,145.3c-0.8,8.2-94,2.9-93.8,11.1
					c0.8,51.5,99.8,55.5,95.8,106.8c-5,64.6-102.8,49.6-113.1,113.3"/>
			</g>
			<g>
				<path class="st2" d="M850.3,613.6c2.6,4.6-75.9,62-73.3,66.6c2.2,3.9,79.9-54.8,82.2-51c3.7,6.1-75.5,59.2-72.6,65.9
					c9.7,22,95-20.8,102.9,2.1c22.8,65.9-53.3,87.6-46.1,157.8c7.4,72.5,84.7,72.3,77.3,144.9c-0.8,8.1-94.1,2.7-94,10.8
					c0.6,51.3,99.5,55.6,95.4,106.7c-5.3,65-103,49.9-113.3,114.1"/>
			</g>
			<g>
				<path class="st2" d="M852.1,615.6c2.7,4.3-74.2,64.7-71.5,69c2.3,3.7,78.4-57.6,80.8-53.9c3.8,5.9-74.7,60.2-71.7,66.7
					c9.7,21.9,94.5-21.4,102.5,1.4c23,64.8-52.6,87-45.1,156.2c7.8,72.4,85.1,71.9,77.9,144.4c-0.8,8-94.3,2.5-94.2,10.6
					c0.3,51,99.3,55.8,95.1,106.6c-5.5,65.5-103.1,50.1-113.6,114.8"/>
			</g>
			<g>
				<path class="st2" d="M853.9,617.7c2.7,4.1-72.2,67.4-69.5,71.6c2.3,3.5,76.8-60.4,79.2-56.9c3.9,5.7-73.7,61.2-70.9,67.5
					c9.8,21.8,94-22,102.2,0.6c23.2,63.7-51.9,86.4-44,154.6c8.2,72.3,85.4,71.4,78.4,144c-0.7,7.9-94.4,2.3-94.4,10.3
					c0.1,50.8,99,56,94.7,106.5c-5.7,65.9-103.2,50.4-113.9,115.6"/>
			</g>
			<g>
				<path class="st2" d="M855.6,619.7c2.8,3.9-70.1,70.2-67.4,74.1c2.4,3.3,75-63.3,77.4-60c3.9,5.5-72.8,62.2-69.9,68.4
					c9.8,21.6,93.5-22.5,101.9-0.1c23.4,62.6-51.1,85.8-43.1,153.1c8.7,72.2,85.8,71,78.9,143.5c-0.7,7.9-94.5,2.1-94.5,10.1
					c-0.1,50.5,98.8,56.2,94.3,106.5c-5.9,66.4-103.3,50.6-114.1,116.3"/>
			</g>
			<g>
				<path class="st2" d="M857.1,621.6c9.2,12-65,67.6-58.9,81.9c35.4,82,138.8,45.4,152.3,135.3c12,79.6-103.2,85.7-107.5,166.3
					c-2.7,50.2,98.4,59.2,93.8,109.2c-6.1,66.9-103.4,50.9-114.4,117.1"/>
			</g>
			<g class="st33">
				<path class="st2" d="M762.8,826.5c4.8,23-85.1,41.9-82.3,65.3c10.3,85.4,97.2,70.8,109.2,155.9c9.4,66.4-77,83.1-66.1,149.2
					c5.1,31.3,95.4,16.3,98.4,47.9"/>
			</g>
			<g class="st13">
				<path class="st2" d="M764.1,832.3c5.3,25.3-84.2,44.4-81.1,70.2c10.2,83.5,96.9,68.9,108.5,152.2c8.8,63.7-77.7,80.2-67.3,143.6
					c5,30.8,95.4,16,98.3,47.2"/>
			</g>
			<g class="st60">
				<path class="st2" d="M765.3,838.1c5.9,27.6-83.3,46.9-79.9,75c10.1,81.6,96.7,67,107.8,148.5c8.3,61-78.4,77.4-68.5,138.1
					c4.9,30.3,95.3,15.7,98.2,46.3"/>
			</g>
			<g class="st64">
				<path class="st2" d="M766.5,843.9c6.5,29.8-82.4,49.4-78.6,79.8c10,79.7,96.4,65.2,107.1,144.8c7.8,58.3-79.1,74.5-69.8,132.5
					c4.8,29.9,95.3,15.3,98.1,45.6"/>
			</g>
			<g class="st15">
				<path class="st2" d="M767.8,849.7c7.1,32.1-81.5,51.9-77.4,84.6c9.9,77.9,96.1,63.4,106.4,141.2c7.3,55.6-79.8,71.6-71,126.9
					c4.6,29.4,95.2,15,98,44.8"/>
			</g>
			<g class="st65">
				<path class="st2" d="M769,855.6c7.7,34.3-80.7,54.3-76.2,89.3c9.8,75.9,95.9,61.6,105.7,137.5c6.8,52.9-80.5,68.6-72.3,121.2
					c4.5,29,95.2,14.8,97.8,44"/>
			</g>
			<g class="st61">
				<path class="st2" d="M770.2,861.5c8.3,36.6-79.8,56.7-75,94c9.7,74,95.6,59.8,105,133.8c6.3,50.2-81.2,65.6-73.5,115.5
					c4.3,28.5,95.2,14.5,97.7,43.3"/>
			</g>
			<g class="st17">
				<path class="st2" d="M771.5,867.4c8.9,38.8-79,59.1-73.7,98.8c9.5,72.2,95.4,58,104.3,130.2c5.8,47.5-81.9,62.7-74.8,109.9
					c4.2,28.1,95.1,14.2,97.6,42.6"/>
			</g>
			<g class="st34">
				<path class="st2" d="M772.8,873.3c9.5,41.1-78.1,61.5-72.5,103.5c9.4,70.3,95.2,56.2,103.6,126.7c5.3,44.7-82.6,59.6-76,104.2
					c4.1,27.6,95.1,14,97.5,41.9"/>
			</g>
			<g class="st63">
				<path class="st2" d="M774,879.3c10.1,43.3-77.3,63.9-71.3,108.2c9.3,68.4,95,54.4,102.9,123.1c4.9,42-83.3,56.6-77.3,98.4
					c3.9,27.2,95,13.8,97.4,41.2"/>
			</g>
			<g class="st19">
				<path class="st2" d="M775.3,885.1c10.7,45.6-76.5,66.3-70.1,112.8c9.1,66.5,94.7,52.7,102.2,119.5c4.4,39.3-84.1,53.5-78.5,92.7
					c3.8,26.7,95,13.5,97.3,40.5"/>
			</g>
			<g class="st66">
				<path class="st2" d="M776.6,891.1c11.3,47.8-75.7,68.6-68.9,117.5c9,64.7,94.5,51,101.5,115.9c3.9,36.6-84.8,50.4-79.8,86.9
					c3.6,26.3,95,13.3,97.2,39.8"/>
			</g>
			<g class="st20">
				<path class="st2" d="M777.8,897c11.8,50.1-74.9,71-67.7,122.2c8.8,62.8,94.4,49.3,100.8,112.4c3.5,33.9-85.6,47.2-81,81
					c3.5,25.8,94.9,13.2,97.1,39.2"/>
			</g>
			<g class="st67">
				<path class="st2" d="M779,903c12.4,52.3-74.1,73.3-66.4,126.9c8.7,60.9,94.2,47.6,100.1,108.9c3,31.2-86.3,44-82.3,75
					c3.3,25.4,94.9,13,97,38.6"/>
			</g>
			<g class="st68">
				<path class="st2" d="M780.3,908.9c13,54.6-73.3,75.7-65.3,131.5c8.5,59,94,46,99.4,105.5c2.6,28.5-87.1,40.8-83.6,69.1
					c3.1,24.9,94.9,12.9,96.9,38"/>
			</g>
			<g class="st22">
				<path class="st2" d="M781.6,914.9c13.6,56.9-72.5,78-64.1,136.2c8.3,57.2,93.8,44.4,98.8,102c2.2,25.7-87.9,37.4-84.9,63
					c2.9,24.5,94.9,12.9,96.8,37.5"/>
			</g>
			<g class="st36">
				<path class="st2" d="M782.9,920.9c14.2,59.1-71.7,80.3-62.8,140.8c8.1,55.3,93.8,42.8,98.1,98.7c1.8,23-88.7,33.9-86.1,56.8
					c2.7,24,94.8,12.9,96.7,37"/>
			</g>
		</g>
	</g>
</g>
</svg>
